<svg width="48" height="48" viewBox="0 0 48 48" fill="none" xmlns="http://www.w3.org/2000/svg">
<g id="icons">
<g id="Group 29103" opacity="0.7">
<path id="Vector" d="M25.1023 11.985C24.9158 10.0183 25.0145 3.81267 33.4451 2.39844L33.0647 4.70024L36.1114 3.77952L35.731 5.62096L38.2437 5.00592L37.8633 6.30966C37.8633 6.30966 40.4528 8.83981 39.4616 12.5964L38.3534 12.5853L36.6454 9.83787C33.4121 11.6462 29.5425 13.3329 25.779 12.7032C25.4169 12.6442 25.1389 12.3533 25.1023 11.985Z" fill="#BBBBBB"/>
<path id="Vector_2" d="M3.19042 35.4077C3.19042 35.4077 5.43612 30.2774 11.2625 29.3125C11.2844 30.6457 13.1132 33.9603 15.9002 33.9198C18.4129 33.883 20.7866 32.5092 21.1816 29.3125C21.1816 29.3125 28.3795 30.9367 29.5719 35.4335L25.5486 38.1036V42.4309C25.5486 42.4309 20.6659 45.2115 16.0392 45.009C11.4125 44.8064 6.52971 42.7992 6.52971 42.7992L6.89546 38.505L3.18677 35.4077H3.19042Z" fill="#BBBBBB"/>
<path id="Vector_3" d="M44.6224 38.0838C44.4542 38.3747 44.0848 38.4778 43.7922 38.3084C43.5032 38.139 43.4008 37.767 43.5691 37.4724C43.7373 37.1815 44.1067 37.0783 44.3993 37.2477C44.6883 37.4172 44.7907 37.7891 44.6224 38.0838Z" fill="#263357"/>
<path id="Vector_4" d="M6.71642 42.7967C6.41285 42.7967 6.1678 42.5499 6.1678 42.2442V38.4398L3.04065 35.6666C2.81389 35.464 2.79194 35.1141 2.9931 34.8858C3.19426 34.6575 3.53807 34.6354 3.76849 34.8379L7.08217 37.7769C7.19921 37.8837 7.2687 38.0347 7.2687 38.193V42.2442C7.2687 42.5499 7.02365 42.7967 6.72008 42.7967H6.71642Z" fill="#263357"/>
<path id="Vector_5" d="M25.3692 42.7978C25.0656 42.7978 24.8206 42.5511 24.8206 42.2454V38.1942C24.8206 38.0285 24.8937 37.8738 25.0217 37.767L28.2952 35.0527C28.5292 34.8575 28.8731 34.8907 29.0669 35.13C29.2607 35.3658 29.2242 35.7119 28.9901 35.9071L25.9141 38.4557V42.2491C25.9141 42.5547 25.6691 42.8015 25.3655 42.8015L25.3692 42.7978Z" fill="#263357"/>
<path id="Vector_6" d="M16.1818 45.3745H16.1342C10.7833 45.3745 5.60796 43.4373 1.56278 39.9238C1.43111 39.8097 1.36162 39.6439 1.37259 39.4708C1.72005 34.1233 5.61893 29.7407 10.8565 28.8126L10.9369 28.7978C10.9698 28.7905 10.9991 28.7868 11.0284 28.7831C11.1564 28.7647 11.288 28.7905 11.3978 28.8604L11.6501 29.0188C11.7928 29.1072 11.8879 29.2582 11.9062 29.4276C12.1402 31.6116 14.0129 33.2615 16.2659 33.2615C18.5189 33.2615 20.3879 31.6152 20.6219 29.4313C20.6293 29.3466 20.6585 29.2692 20.7024 29.1993L20.8048 29.0335C20.9182 28.8531 21.1267 28.7536 21.3388 28.7794C21.3973 28.7868 21.4485 28.7942 21.5034 28.8052C21.518 28.8052 21.529 28.8052 21.54 28.8089C26.719 29.7259 30.6142 34.057 31.0202 39.3456C31.0348 39.5187 30.9653 39.6881 30.8336 39.8023C26.7921 43.3821 21.5875 45.3598 16.1781 45.3745H16.1818ZM2.48812 39.2683C6.29922 42.4945 11.1344 44.2696 16.1305 44.2696H16.1781C21.2254 44.2586 26.0899 42.4429 29.901 39.1578C29.4365 34.6021 26.0972 30.8787 21.6534 29.9579C21.1815 32.4991 18.9358 34.3664 16.2659 34.3664C13.5959 34.3664 11.3319 32.4844 10.8711 29.9322C6.32483 30.8087 2.90873 34.6094 2.48812 39.2683Z" fill="#263357"/>
<path id="Vector_7" d="M32.3186 41.6919C32.0151 41.6919 31.77 41.4451 31.77 41.1394C31.77 40.8337 32.0151 40.587 32.3186 40.587H32.3918C35.7201 40.5796 39.0411 39.7657 41.9927 38.2373C42.2633 38.0974 42.5925 38.2042 42.7315 38.4767C42.8705 38.7492 42.7644 39.0807 42.4938 39.2206C39.3886 40.8264 35.8957 41.6808 32.3918 41.6919H32.315H32.3186Z" fill="#263357"/>
<path id="Vector_8" d="M32.6843 38.7479C32.3808 38.7479 32.1357 38.5012 32.1357 38.1955C32.1357 37.8898 32.3808 37.6431 32.6843 37.6431H32.8087C37.4793 37.632 41.978 35.9563 45.5075 32.9179C45.0722 28.7268 42.0036 25.3017 37.9219 24.4362C37.4647 26.7933 35.3726 28.5242 32.8855 28.5242C30.2521 28.5242 28.0613 26.5834 27.787 24.0127C27.754 23.7107 27.9735 23.4382 28.2734 23.405C28.577 23.3682 28.844 23.5929 28.8769 23.8949C29.0927 25.9057 30.8154 27.4194 32.8855 27.4194C34.9556 27.4194 36.6747 25.9057 36.8941 23.8985C36.9014 23.8138 36.9307 23.7365 36.9746 23.6628L37.0697 23.5082C37.183 23.3277 37.3879 23.2283 37.6037 23.254C37.6585 23.2614 37.7061 23.2688 37.7573 23.2798C37.7719 23.2798 37.7829 23.2798 37.7938 23.2835C42.6181 24.1379 46.2536 28.1744 46.6267 33.1058C46.6413 33.2789 46.5718 33.4483 46.4401 33.5624C42.6802 36.8918 37.8377 38.7332 32.8087 38.7443H32.6807L32.6843 38.7479Z" fill="#263357"/>
<path id="Vector_9" d="M39.0887 16.3122C39.0521 16.3122 39.0155 16.3122 38.9789 16.3011C38.6827 16.2422 38.4925 15.9439 38.551 15.6419C38.6351 15.211 38.9241 15.0047 39.1143 14.8685C39.3301 14.7175 39.5166 14.5849 39.6483 14.0325C39.8092 13.3511 39.6775 12.935 39.4764 12.8282C39.3593 12.7655 39.2167 12.7987 39.1143 12.9092C38.9094 13.1338 38.562 13.1486 38.3389 12.9386C38.1158 12.7324 38.1011 12.3825 38.3096 12.1579C38.7485 11.6791 39.4398 11.5539 39.9957 11.8522C40.2664 11.9995 41.1186 12.6035 40.7162 14.2903C40.4895 15.2478 40.025 15.5756 39.747 15.7745C39.6995 15.8076 39.6336 15.8555 39.6153 15.8739C39.5641 16.1354 39.341 16.3122 39.085 16.3122H39.0887Z" fill="#263357"/>
<path id="Vector_10" d="M32.8633 23.1529C29.5753 23.1529 26.7297 20.074 26.097 15.835C26.0531 15.533 26.2579 15.2531 26.5578 15.2052C26.8577 15.161 27.1357 15.3672 27.1833 15.6692C27.7355 19.3668 30.1239 22.048 32.867 22.048C35.6101 22.048 37.9984 19.3668 38.5507 15.6692C38.5946 15.3672 38.8726 15.161 39.1762 15.2052C39.4761 15.2494 39.6809 15.533 39.637 15.835C39.0043 20.074 36.1587 23.1529 32.8707 23.1529H32.8633Z" fill="#263357"/>
<path id="Vector_11" d="M31.2212 15.1752H29.7582C29.4546 15.1752 29.2096 14.9284 29.2096 14.6227C29.2096 14.3171 29.4546 14.0703 29.7582 14.0703H31.2212C31.5248 14.0703 31.7698 14.3171 31.7698 14.6227C31.7698 14.9284 31.5248 15.1752 31.2212 15.1752Z" fill="#263357"/>
<path id="Vector_12" d="M35.976 15.1752H34.513C34.2094 15.1752 33.9644 14.9284 33.9644 14.6227C33.9644 14.3171 34.2094 14.0703 34.513 14.0703H35.976C36.2795 14.0703 36.5246 14.3171 36.5246 14.6227C36.5246 14.9284 36.2795 15.1752 35.976 15.1752Z" fill="#263357"/>
<path id="Vector_13" d="M32.8636 20.2827C32.1943 20.2827 31.514 20.0359 30.8959 19.5645C30.6545 19.3804 30.607 19.0342 30.7898 18.7911C30.9727 18.548 31.3165 18.5001 31.5579 18.6843C32.4174 19.3398 33.3025 19.3398 34.162 18.6843C34.4034 18.5001 34.7472 18.548 34.9301 18.7911C35.113 19.0342 35.0654 19.3804 34.8241 19.5645C34.2059 20.0359 33.5293 20.2827 32.8563 20.2827H32.8636Z" fill="#263357"/>
<path id="Vector_14" d="M40.1126 11.1202C40.1126 11.1202 40.0943 11.1202 40.0833 11.1202C39.7798 11.1054 39.5494 10.844 39.564 10.5383C39.6262 9.38554 38.9166 7.51832 37.8706 6.73755C37.6292 6.55708 37.578 6.21089 37.7572 5.96414C37.9401 5.72107 38.2839 5.66951 38.5253 5.84997C39.9005 6.8775 40.738 9.1351 40.6612 10.5972C40.6466 10.8918 40.4015 11.1202 40.1126 11.1202Z" fill="#263357"/>
<path id="Vector_15" d="M24.638 11.1239C24.616 11.1239 24.5977 11.1239 24.5758 11.1239C24.2759 11.0908 24.0564 10.8182 24.0893 10.5126C24.4697 7.058 28.2077 2.05664 33.9645 2.05664C34.2681 2.05664 34.5132 2.30339 34.5132 2.60907C34.5132 2.91475 34.2681 3.16151 33.9645 3.16151C28.8404 3.16151 25.5194 7.58097 25.1829 10.6341C25.15 10.9177 24.9123 11.1239 24.638 11.1239Z" fill="#263357"/>
<path id="Vector_16" d="M38.1162 6.67939C38.0467 6.67939 37.9736 6.66466 37.9041 6.63519C37.6261 6.51734 37.4945 6.19325 37.6115 5.90966L37.7541 5.56715C37.1543 5.6224 36.5252 5.84337 36.2655 5.95386C36.068 6.03856 35.8413 6.00174 35.6803 5.85442C35.5231 5.71079 35.4609 5.48613 35.5231 5.27989L35.7608 4.51753C34.7294 4.66116 33.9248 5.03314 33.9174 5.03682C33.6431 5.16572 33.3176 5.04418 33.1896 4.76797C33.0616 4.49175 33.1823 4.16397 33.4566 4.03507C33.5151 4.00929 34.9196 3.35742 36.5289 3.35742C36.7044 3.35742 36.869 3.44213 36.9714 3.58208C37.0738 3.72203 37.1068 3.90617 37.0519 4.07558L36.891 4.59487C37.4323 4.46597 38.0943 4.38495 38.6868 4.52121C38.8441 4.55804 38.9794 4.66485 39.0525 4.80848C39.1257 4.95211 39.133 5.12521 39.0708 5.27621L38.6246 6.34056C38.5368 6.55049 38.332 6.67939 38.1199 6.67939H38.1162Z" fill="#263357"/>
<path id="Vector_17" d="M16.2692 37.0764C12.5496 37.0764 9.33828 34.2885 8.79697 30.5909C8.75308 30.2889 8.96156 30.009 9.26147 29.9648C9.55773 29.9206 9.83936 30.1268 9.88325 30.4325C10.3477 33.5924 13.0909 35.9752 16.2692 35.9752C19.4476 35.9752 22.22 33.574 22.6625 30.3846C22.7064 30.0826 22.9844 29.8727 23.2806 29.9132C23.5805 29.9574 23.789 30.2336 23.7488 30.5356C23.2294 34.2627 20.0145 37.0764 16.2692 37.0764Z" fill="#263357"/>
<path id="Vector_18" d="M14.0314 21.0678H12.5684C12.2648 21.0678 12.0198 20.821 12.0198 20.5153C12.0198 20.2096 12.2648 19.9629 12.5684 19.9629H14.0314C14.335 19.9629 14.58 20.2096 14.58 20.5153C14.58 20.821 14.335 21.0678 14.0314 21.0678Z" fill="#263357"/>
<path id="Vector_19" d="M19.5174 21.0678H18.0544C17.7508 21.0678 17.5057 20.821 17.5057 20.5153C17.5057 20.2096 17.7508 19.9629 18.0544 19.9629H19.5174C19.8209 19.9629 20.066 20.2096 20.066 20.5153C20.066 20.821 19.8209 21.0678 19.5174 21.0678Z" fill="#263357"/>
<path id="Vector_20" d="M25.0116 29.3427C24.7848 29.3427 24.5727 29.199 24.4922 28.9744C24.3459 28.5582 24.2508 28.1015 24.1923 27.5786C23.9399 25.2105 23.9911 24.3082 24.591 20.6952C25.0006 18.2167 24.4227 12.6003 21.1895 10.2137C19.273 8.79952 16.7274 8.23236 14.211 8.65589C12.9089 8.87318 9.95004 10.5415 9.95004 12.4677C9.95004 12.7071 9.80009 12.917 9.57332 12.9906C8.77965 13.2558 8.43219 14.0071 8.0957 14.7327C8.04083 14.8505 7.98963 14.961 7.93843 15.0678C7.76652 15.5245 5.01609 23.0192 7.34591 27.8548C7.47758 28.131 7.3642 28.4588 7.09355 28.5914C6.82289 28.7239 6.49372 28.6098 6.36205 28.3372C3.75792 22.9381 6.79729 14.9794 6.92896 14.6443C6.93627 14.6295 6.93993 14.6148 6.94725 14.6001C6.99845 14.4969 7.04966 14.3828 7.10452 14.2686C7.44101 13.5468 7.88722 12.5818 8.8784 12.092C9.1966 9.51032 12.6749 7.79778 14.0355 7.56944C16.8407 7.09803 19.6899 7.73885 21.8442 9.32617C25.4651 11.9963 26.1308 18.1688 25.6809 20.8794C25.0994 24.4002 25.0518 25.1994 25.2932 27.4644C25.3407 27.9027 25.4212 28.2783 25.5382 28.6135C25.637 28.9007 25.487 29.2174 25.2018 29.3169C25.1432 29.339 25.0811 29.3463 25.0189 29.3463L25.0116 29.3427Z" fill="#263357"/>
<path id="Vector_21" d="M16.1203 29.5895C16.1203 29.5895 16.1057 29.5895 16.0984 29.5895C13.6881 29.4974 11.3839 27.516 10.1696 25.5972C8.90045 23.5901 8.8529 20.9053 8.84924 20.7948C8.84924 16.2169 10.934 14.486 11.0218 14.416C11.1754 14.2945 11.3802 14.2613 11.5594 14.3313C12.3348 14.6296 14.0319 15.635 15.1145 16.3016C15.1547 15.6829 15.3267 14.9206 15.6302 14.0072C15.707 13.7789 15.9082 13.6131 16.1642 13.6279C16.4056 13.6315 16.6141 13.7973 16.6799 14.0293C17.2139 15.9113 20.5459 17.4691 21.9833 18.1357C21.6358 16.9056 21.0982 15.9665 20.7178 15.3993C20.5459 15.1489 20.6117 14.8027 20.8604 14.6333C21.1128 14.4602 21.4529 14.5265 21.6212 14.7769C22.3161 15.8008 23.4719 17.9442 23.417 20.769C23.4024 21.524 23.3695 23.5348 22.0637 25.5972C20.8495 27.516 18.5452 29.4974 16.135 29.5895C16.1276 29.5895 16.1203 29.5895 16.113 29.5895H16.1203ZM11.4936 15.4988C11.0218 16.0512 9.95015 17.6496 9.95015 20.7837C9.95015 20.8021 9.99769 23.2623 11.0986 25.0006C12.1227 26.6174 14.127 28.3926 16.1203 28.4846C18.1173 28.3962 20.1216 26.6211 21.1457 25.0006C22.2832 23.1997 22.3161 21.4172 22.3271 20.7469C22.3344 20.3013 22.3088 19.874 22.2576 19.4689C22.21 19.4579 22.1588 19.4395 22.1113 19.4174C21.9833 19.3511 21.7858 19.2553 21.5334 19.1411C20.1692 18.504 17.6162 17.3144 16.3178 15.6424C16.113 16.6294 16.2337 17.0124 16.2922 17.1266C16.402 17.3476 16.3507 17.6164 16.1715 17.7822C15.9887 17.9479 15.718 17.9737 15.5095 17.8411C14.6976 17.3255 12.5616 16.0144 11.4936 15.5025V15.4988Z" fill="#263357"/>
<path id="Vector_22" d="M16.0607 26.7317C15.2707 26.7317 14.466 26.437 13.7382 25.8809C13.4968 25.6968 13.4493 25.3506 13.6321 25.1075C13.815 24.8644 14.1588 24.8166 14.4002 25.0007C15.4901 25.833 16.6313 25.833 17.7212 25.0007C17.9626 24.8166 18.3064 24.8644 18.4893 25.1075C18.6721 25.3506 18.6246 25.6968 18.3832 25.8809C17.6517 26.437 16.8507 26.7317 16.0607 26.7317Z" fill="#263357"/>
</g>
</g>
</svg>
