<svg width="120" height="120" viewBox="0 0 120 120" fill="none" xmlns="http://www.w3.org/2000/svg">
<g clip-path="url(#clip0_789_16158)">
<path d="M65.42 35.9503H79.71V28.3203H78.18H66.95H65.42V35.9503Z" fill="#FD7C7C"/>
<path d="M82.74 43.35C82.67 43.27 82.59 43.2 82.54 43.11C82.47 42.98 82.44 42.85 82.41 42.71C81.49 41.08 80.14 39.73 78.52 38.79H62.93C61.34 38.79 59.85 39.2 58.56 39.92L56.73 64.74C56.68 65.39 56.18 65.89 55.56 66.01L55.24 71.02C55.43 71.11 55.6 71.22 55.74 71.39C55.98 71.68 56.1 72.05 56.06 72.42L54.95 85.07C54.91 85.53 54.65 85.9 54.28 86.13L54.24 86.76H66.33C67.11 86.76 67.74 87.39 67.74 88.17C67.74 88.95 67.11 89.59 66.33 89.59H54.06L53.52 98.2C53.48 98.74 53.22 99.21 52.84 99.54V106.37C52.84 106.76 52.68 107.11 52.43 107.37V108.23H83.77V47.91C83.77 46.29 83.39 44.76 82.74 43.39V43.35ZM66.51 49.17C66.39 49.6 65.25 53.4 61.55 56.77C61.29 57.01 60.95 57.14 60.6 57.14C60.2 57.14 59.82 56.97 59.56 56.68C59.31 56.4 59.17 56.04 59.19 55.66C59.21 55.28 59.37 54.93 59.65 54.68C62.81 51.8 63.77 48.46 63.78 48.43C63.95 47.82 64.51 47.39 65.15 47.39C65.28 47.39 65.4 47.41 65.52 47.44C66.27 47.65 66.72 48.42 66.51 49.17Z" fill="white"/>
<path d="M91.28 102.63V47.8595C91.28 42.8495 87.2 38.7695 82.19 38.7695H78.52C80.14 39.7095 81.48 41.0595 82.41 42.6895C82.36 42.4695 82.35 42.2395 82.41 42.0195C82.58 41.4195 83.14 40.9995 83.77 40.9995C83.9 40.9995 84.04 41.0195 84.17 41.0595C87.18 41.9295 89.28 44.7295 89.28 47.8595V57.2195C89.28 57.9995 88.65 58.6395 87.87 58.6395C87.09 58.6395 86.45 57.9995 86.45 57.2195V47.8595C86.45 45.9795 85.19 44.2995 83.38 43.7695C83.12 43.6895 82.91 43.5295 82.74 43.3395C83.4 44.7095 83.77 46.2395 83.77 47.8595V108.18H92.69V104.04C91.91 104.04 91.28 103.41 91.28 102.62V102.63ZM89.28 65.5495C89.28 66.3295 88.65 66.9595 87.87 66.9595C87.09 66.9595 86.45 66.3295 86.45 65.5495V62.2395C86.45 61.4595 87.08 60.8195 87.87 60.8195C88.66 60.8195 89.28 61.4495 89.28 62.2395V65.5495Z" fill="#76CFF9"/>
<path d="M68.36 25.4896H73.32V23.0596H69.21H68.36V25.4896Z" fill="#FD7C7C"/>
<path d="M72.57 17.4502H70.63V20.2402H72.57V17.4502Z" fill="#FD7C7C"/>
<path d="M76.77 25.4896V23.0596H75.92H73.32V25.4896H76.77Z" fill="#FD7C7C"/>
<path d="M74.5 17.4502H72.56V20.2402H74.5V17.4502Z" fill="#FD7C7C"/>
<path d="M68.87 13.7603H81.13C82.82 13.7603 84.47 14.0703 86.05 14.6703L89.19 15.8803C89.45 15.9803 89.71 16.0203 89.97 16.0203C90.22 16.0203 90.45 15.9603 90.68 15.8803C90.68 15.8503 90.68 15.8303 90.66 15.8003C90.58 15.6203 90.43 15.4703 90.24 15.4003L87.1 14.1903C85.19 13.4503 83.18 13.0803 81.13 13.0803H68.87C67.82 13.0803 66.83 12.6803 66.08 11.9603L65.11 11.0303C64.97 10.8903 64.78 10.8203 64.58 10.8203C64.37 10.8203 64.18 10.9003 64.04 11.0503C63.9 11.2003 63.82 11.3903 63.82 11.5903L64.04 11.8003C65.34 13.0503 67.05 13.7403 68.86 13.7403L68.87 13.7603Z" fill="#FD7C7C"/>
<path d="M68.87 14.6199H81.13C82.99 14.6199 84.82 14.9599 86.55 15.6299L89.69 16.8399C89.78 16.8699 89.87 16.8899 89.96 16.8899C90.27 16.8899 90.56 16.6899 90.67 16.3999C90.73 16.2399 90.73 16.0599 90.67 15.8999C90.44 15.9799 90.2 16.0399 89.96 16.0399C89.7 16.0399 89.44 15.9899 89.18 15.8999L86.04 14.6899C84.46 14.0799 82.81 13.7799 81.12 13.7799H68.86C67.05 13.7799 65.34 13.0899 64.04 11.8399L63.82 11.6299C63.82 11.8299 63.91 12.0099 64.05 12.1499L65.02 13.0799C66.06 14.0799 67.42 14.6299 68.86 14.6299L68.87 14.6199Z" fill="#FD7C7C"/>
<path d="M62.59 36.3297V35.9697C61.26 36.0097 59.99 36.2697 58.8 36.7097L58.77 37.0997C59.96 36.6397 61.25 36.3697 62.59 36.3297Z" fill="#2A3136"/>
<path d="M93.75 47.8705V102.64C93.75 103.22 93.28 103.7 92.69 103.7C92.1 103.7 91.63 103.23 91.63 102.64V47.8705C91.63 42.6605 87.39 38.4305 82.18 38.4305H82.05C81.8 38.6505 81.48 38.7905 81.12 38.7905H82.18C87.19 38.7905 91.27 42.8705 91.27 47.8805V102.65C91.27 103.43 91.9 104.06 92.68 104.07C93.46 104.07 94.09 103.44 94.09 102.65V47.8805C94.09 41.4305 88.93 36.1705 82.52 35.9805V36.3405C88.73 36.5305 93.73 41.6205 93.73 47.8805L93.75 47.8705Z" fill="#2A3136"/>
<path d="M64 38.7799C63.64 38.7799 63.32 38.6399 63.07 38.4199H62.94C61.37 38.4199 59.9 38.8099 58.6 39.4899L58.57 39.9099C59.87 39.1899 61.36 38.7799 62.94 38.7799H64.01H64Z" fill="#2A3136"/>
<path d="M63.07 38.4301C62.78 38.1701 62.59 37.8001 62.59 37.3701V36.3301C61.25 36.3701 59.96 36.6401 58.77 37.1001L58.59 39.4901C59.89 38.8101 61.37 38.4201 62.93 38.4201H63.06L63.07 38.4301Z" fill="#2A3136"/>
<path d="M91.64 47.8701V102.64C91.64 103.22 92.11 103.7 92.7 103.7C93.29 103.7 93.76 103.23 93.76 102.64V47.8701C93.76 41.6201 88.76 36.5201 82.55 36.3301V37.3701C82.55 37.7901 82.36 38.1701 82.07 38.4301H82.2C87.41 38.4301 91.65 42.6701 91.65 47.8701H91.64Z" fill="#2A3136"/>
<path d="M82.74 43.3498C82.91 43.5498 83.12 43.7098 83.38 43.7798C85.19 44.3098 86.45 45.9898 86.45 47.8698V57.2298C86.45 58.0098 87.08 58.6498 87.87 58.6498C88.66 58.6498 89.28 58.0098 89.28 57.2298V47.8698C89.28 44.7398 87.18 41.9398 84.17 41.0698C84.04 41.0298 83.91 41.0098 83.77 41.0098C83.15 41.0098 82.59 41.4298 82.41 42.0298C82.34 42.2498 82.35 42.4798 82.41 42.6998C82.44 42.8398 82.47 42.9798 82.54 43.0998C82.59 43.1998 82.67 43.2598 82.74 43.3398V43.3498ZM82.76 42.1298C82.92 41.5698 83.51 41.2498 84.07 41.4098C86.93 42.2398 88.92 44.8998 88.92 47.8698V57.2298C88.92 57.8098 88.45 58.2898 87.86 58.2898C87.27 58.2898 86.8 57.8198 86.8 57.2298V47.8698C86.8 45.8298 85.43 44.0098 83.47 43.4398C82.91 43.2798 82.59 42.6898 82.75 42.1298H82.76Z" fill="#2A3136"/>
<path d="M83.48 43.4403C85.44 44.0103 86.81 45.8303 86.81 47.8703V57.2303C86.81 57.8103 87.28 58.2903 87.87 58.2903C88.46 58.2903 88.93 57.8203 88.93 57.2303V47.8703C88.93 44.9003 86.94 42.2403 84.08 41.4103C83.52 41.2503 82.93 41.5703 82.77 42.1303C82.61 42.6903 82.93 43.2803 83.49 43.4403H83.48Z" fill="#2A3136"/>
<path d="M87.86 60.8203C87.08 60.8203 86.44 61.4503 86.44 62.2403V65.5503C86.44 66.3303 87.07 66.9603 87.86 66.9603C88.65 66.9603 89.27 66.3303 89.27 65.5503V62.2403C89.27 61.4603 88.64 60.8203 87.86 60.8203ZM88.92 65.5503C88.92 66.1303 88.45 66.6103 87.86 66.6103C87.27 66.6103 86.8 66.1403 86.8 65.5503V62.2403C86.8 61.6603 87.27 61.1803 87.86 61.1803C88.45 61.1803 88.92 61.6503 88.92 62.2403V65.5503Z" fill="#2A3136"/>
<path d="M87.86 61.1797C87.28 61.1797 86.8 61.6497 86.8 62.2397V65.5497C86.8 66.1297 87.27 66.6097 87.86 66.6097C88.45 66.6097 88.92 66.1397 88.92 65.5497V62.2397C88.92 61.6597 88.45 61.1797 87.86 61.1797Z" fill="#2A3136"/>
<path d="M65.06 27.96V36.31H80.07V27.96H79.11C78.86 28.18 78.54 28.32 78.18 28.32H79.71V35.95H65.41V28.32H66.94C66.58 28.32 66.26 28.18 66.01 27.96H65.05H65.06Z" fill="#2A3136"/>
<path d="M62.59 37.3702C62.59 37.7902 62.78 38.1702 63.07 38.4302C63.32 38.6502 63.64 38.7902 64 38.7902H81.13C81.49 38.7902 81.81 38.6502 82.06 38.4302C82.35 38.1702 82.54 37.8002 82.54 37.3702V27.5102C82.54 26.4002 81.63 25.4902 80.52 25.4902H79.59V25.8502H80.52C81.43 25.8502 82.18 26.5902 82.18 27.5102V37.3702C82.18 37.9502 81.71 38.4302 81.12 38.4302H63.99C63.41 38.4302 62.93 37.9602 62.93 37.3702V27.5102C62.93 26.6002 63.67 25.8502 64.59 25.8502H65.52V25.4902H64.59C63.48 25.4902 62.57 26.4002 62.57 27.5102V37.3702H62.59Z" fill="#2A3136"/>
<path d="M79.11 27.9598H80.07V36.3098H65.06V27.9598H66.02C65.73 27.6998 65.54 27.3298 65.54 26.8998V25.8398H64.61C63.7 25.8398 62.95 26.5798 62.95 27.4998V37.3598C62.95 37.9398 63.42 38.4198 64.01 38.4198H81.14C81.72 38.4198 82.2 37.9498 82.2 37.3598V27.4998C82.2 26.5898 81.46 25.8398 80.54 25.8398H79.61V26.8998C79.61 27.3198 79.42 27.6998 79.13 27.9598H79.11Z" fill="#2A3136"/>
<path d="M68 25.85H77.12V22.71H76.84C76.59 22.93 76.27 23.07 75.91 23.07H76.76V25.5H68.36V23.07H69.21C68.85 23.07 68.53 22.93 68.28 22.71H68V25.85Z" fill="#2A3136"/>
<path d="M65.53 26.9005C65.53 27.3205 65.72 27.7005 66.01 27.9605C66.26 28.1805 66.58 28.3205 66.94 28.3205H78.17C78.53 28.3205 78.85 28.1805 79.1 27.9605C79.39 27.7005 79.58 27.3305 79.58 26.9005V22.2505C79.58 21.1405 78.68 20.2305 77.56 20.2305H77.31V20.5905H77.56C78.48 20.5905 79.22 21.3405 79.22 22.2505V26.9005C79.22 27.4805 78.75 27.9605 78.16 27.9605H66.93C66.35 27.9605 65.87 27.4905 65.87 26.9005V22.2505C65.87 21.3405 66.62 20.5905 67.53 20.5905H67.77V20.2305H67.53C66.42 20.2305 65.51 21.1405 65.51 22.2505V26.9005H65.53Z" fill="#2A3136"/>
<path d="M77.33 21.6498C77.33 22.0698 77.14 22.4498 76.85 22.7098H77.13V25.8498H68.01V22.7098H68.29C68 22.4498 67.81 22.0798 67.81 21.6498V20.5898H67.57C66.65 20.5898 65.91 21.3398 65.91 22.2498V26.8998C65.91 27.4798 66.38 27.9598 66.97 27.9598H78.2C78.78 27.9598 79.26 27.4898 79.26 26.8998V22.2498C79.26 21.3398 78.52 20.5898 77.6 20.5898H77.35V21.6498H77.33Z" fill="#2A3136"/>
<path d="M70.27 20.5902H74.86V17.4502H74.5V20.2302H72.56H70.63V17.4502H70.27V20.5902Z" fill="#2A3136"/>
<path d="M67.8 21.6501C67.8 22.0701 67.99 22.4501 68.28 22.7101C68.53 22.9301 68.85 23.0701 69.21 23.0701H75.92C76.28 23.0701 76.6 22.9301 76.85 22.7101C77.14 22.4501 77.33 22.0801 77.33 21.6501V17.4501H76.97V21.6501C76.97 22.2301 76.5 22.7101 75.91 22.7101H69.2C68.62 22.7101 68.14 22.2401 68.14 21.6501V17.4101C68.02 17.4001 67.9 17.3801 67.78 17.3701V21.6501H67.8Z" fill="#2A3136"/>
<path d="M74.86 17.4499V20.5999H70.27V17.4499H68.87C68.63 17.4499 68.39 17.4399 68.15 17.4199V21.6599C68.15 22.2399 68.62 22.7199 69.21 22.7199H75.92C76.5 22.7199 76.98 22.2499 76.98 21.6599V17.4599H74.87L74.86 17.4499Z" fill="#2A3136"/>
<path d="M68.87 14.97H81.13C82.95 14.97 84.73 15.3 86.43 15.95L89.57 17.16C89.7 17.21 89.83 17.23 89.97 17.23C90.43 17.23 90.85 16.94 91.01 16.51C91.12 16.23 91.11 15.93 90.99 15.65C90.87 15.38 90.65 15.17 90.37 15.06L87.23 13.85C85.27 13.1 83.22 12.72 81.13 12.72H68.87C67.92 12.72 67.02 12.36 66.33 11.7L65.36 10.77C65.15 10.57 64.88 10.46 64.59 10.46C64.28 10.46 64 10.58 63.79 10.8C63.58 11.02 63.47 11.3 63.48 11.6C63.48 11.9 63.61 12.18 63.82 12.39L64.79 13.32C65.9 14.38 67.35 14.97 68.88 14.97H68.87ZM63.83 11.62C63.83 11.42 63.9 11.23 64.05 11.08C64.19 10.93 64.39 10.85 64.59 10.85C64.79 10.85 64.97 10.93 65.12 11.06L66.09 11.99C66.84 12.71 67.83 13.11 68.88 13.11H81.14C83.19 13.11 85.2 13.48 87.11 14.22L90.25 15.43C90.44 15.5 90.59 15.65 90.67 15.83C90.68 15.86 90.67 15.88 90.69 15.91C90.74 16.07 90.75 16.25 90.69 16.41C90.58 16.7 90.29 16.9 89.98 16.9C89.89 16.9 89.8 16.88 89.71 16.85L86.57 15.64C84.83 14.97 83.01 14.63 81.15 14.63H68.89C67.45 14.63 66.09 14.08 65.05 13.08L64.08 12.15C63.93 12.01 63.85 11.82 63.85 11.63L63.83 11.62Z" fill="#2A3136"/>
<path d="M68.87 17.4498H81.13C82.64 17.4498 84.12 17.7298 85.54 18.2698L88.68 19.4798C89.09 19.6398 89.52 19.7198 89.97 19.7198C91.45 19.7198 92.79 18.7898 93.32 17.4198C93.66 16.5198 93.64 15.5498 93.25 14.6698C92.86 13.7998 92.15 13.1198 91.26 12.7798L88.12 11.5698C85.89 10.7098 83.54 10.2698 81.13 10.2698H68.87C68.56 10.2698 68.27 10.1498 68.04 9.93977L67.07 9.00977C66.4 8.35977 65.51 8.00977 64.58 8.00977C63.59 8.00977 62.68 8.39977 61.99 9.10977C60.62 10.5398 60.66 12.8098 62.09 14.1898L63.06 15.1198C64.37 16.3698 66.02 17.1498 67.78 17.3798C67.9 17.3998 68.02 17.4098 68.14 17.4198C68.38 17.4398 68.62 17.4498 68.86 17.4498H68.87ZM63.32 14.8498L62.35 13.9198C61.07 12.6898 61.03 10.6398 62.26 9.34977C62.87 8.70977 63.7 8.35977 64.59 8.35977C65.43 8.35977 66.22 8.67977 66.83 9.25977L67.8 10.1898C68.09 10.4698 68.47 10.6198 68.87 10.6198H81.13C83.48 10.6198 85.79 11.0498 87.99 11.8898L91.13 13.0998C91.94 13.4098 92.57 14.0098 92.92 14.7998C93.27 15.5898 93.29 16.4698 92.98 17.2698C92.5 18.5098 91.29 19.3398 89.96 19.3398C89.56 19.3398 89.17 19.2698 88.8 19.1198L85.66 17.9098C84.21 17.3498 82.68 17.0698 81.12 17.0698H68.86C66.78 17.0698 64.81 16.2798 63.31 14.8298L63.32 14.8498Z" fill="#2A3136"/>
<path d="M68.87 17.0899H81.13C82.69 17.0899 84.21 17.3699 85.67 17.9299L88.81 19.1399C89.18 19.2799 89.57 19.3599 89.97 19.3599C91.3 19.3599 92.51 18.5299 92.99 17.2899C93.3 16.4899 93.28 15.6099 92.93 14.8199C92.58 14.0299 91.94 13.4299 91.14 13.1199L88 11.9099C85.8 11.0599 83.5 10.6399 81.14 10.6399H68.88C68.48 10.6399 68.1 10.4899 67.81 10.2099L66.84 9.27988C66.23 8.69988 65.44 8.37988 64.6 8.37988C63.71 8.37988 62.89 8.72988 62.27 9.36988C61.04 10.6599 61.08 12.6999 62.36 13.9399L63.33 14.8699C64.83 16.3099 66.8 17.1099 68.88 17.1099L68.87 17.0899ZM63.47 11.6099C63.47 11.3099 63.57 11.0299 63.78 10.8099C63.99 10.5899 64.28 10.4699 64.58 10.4699C64.88 10.4699 65.14 10.5799 65.35 10.7799L66.32 11.7099C67 12.3699 67.91 12.7299 68.86 12.7299H81.12C83.21 12.7299 85.26 13.1099 87.22 13.8599L90.36 15.0699C90.64 15.1799 90.86 15.3899 90.98 15.6599C91.1 15.9299 91.11 16.2399 91 16.5199C90.84 16.9499 90.42 17.2399 89.96 17.2399C89.82 17.2399 89.69 17.2199 89.56 17.1699L86.42 15.9599C84.72 15.3099 82.94 14.9799 81.12 14.9799H68.86C67.33 14.9799 65.88 14.3999 64.77 13.3299L63.8 12.3999C63.58 12.1899 63.46 11.9099 63.46 11.6099H63.47Z" fill="#2A3136"/>
<path d="M65.51 47.4299C65.39 47.3999 65.26 47.3799 65.14 47.3799C64.51 47.3799 63.94 47.8099 63.77 48.4199C63.77 48.4499 62.8 51.7899 59.64 54.6699C59.36 54.9199 59.2 55.2699 59.18 55.6499C59.16 56.0299 59.29 56.3899 59.55 56.6699C59.82 56.9599 60.2 57.1299 60.59 57.1299C60.95 57.1299 61.29 56.9999 61.54 56.7599C65.23 53.3899 66.38 49.5899 66.5 49.1599C66.7 48.4099 66.26 47.6299 65.51 47.4299ZM66.16 49.0699C66.12 49.2299 65.04 53.0899 61.31 56.4999C61.11 56.6799 60.85 56.7799 60.6 56.7799C60.31 56.7799 60.03 56.6699 59.82 56.4399C59.43 56.0099 59.46 55.3399 59.89 54.9499C63.14 51.9799 64.11 48.5599 64.12 48.5299C64.28 47.9699 64.86 47.6399 65.42 47.7899C65.98 47.9399 66.31 48.5199 66.16 49.0799V49.0699Z" fill="#2A3136"/>
<path d="M65.42 47.7803C64.86 47.6303 64.28 47.9603 64.12 48.5203C64.12 48.5503 63.14 51.9703 59.89 54.9403C59.46 55.3303 59.43 56.0003 59.82 56.4303C60.03 56.6603 60.31 56.7703 60.6 56.7703C60.86 56.7703 61.11 56.6803 61.31 56.4903C65.04 53.0903 66.11 49.2303 66.16 49.0603C66.31 48.5003 65.98 47.9203 65.42 47.7703V47.7803Z" fill="#2A3136"/>
<path d="M66.34 87.0902C66.92 87.0902 67.4 87.5602 67.4 88.1502C67.4 88.7402 66.93 89.2102 66.34 89.2102H54.09L54.07 89.5702H66.34C67.12 89.5702 67.75 88.9302 67.75 88.1502C67.75 87.3702 67.12 86.7402 66.34 86.7402H54.25L54.23 87.1002H66.34V87.0902Z" fill="#2A3136"/>
<path d="M67.4 88.1498C67.4 87.5698 66.93 87.0898 66.34 87.0898H54.23L54.1 89.1998H66.35C66.93 89.1998 67.41 88.7298 67.41 88.1398L67.4 88.1498Z" fill="#2A3136"/>
<path d="M42.28 101.41H37.91V108.19H42.28V101.41Z" fill="#FD7C7C"/>
<path d="M49.12 71.0096L51.86 35.4696H40.99C40.21 35.4696 39.57 34.8396 39.57 34.0596H37.91C37.91 34.8396 37.28 35.4696 36.49 35.4696H31.09L34.75 93.6796H34.9C42.39 93.5096 48.53 78.4796 49.1 71.0096H49.12ZM34.83 39.6496C35.67 39.6496 36.29 40.2296 36.34 40.9596L37.83 61.0896C37.86 61.4696 37.74 61.8296 37.49 62.1196C37.24 62.4096 36.9 62.5796 36.52 62.6096C36.52 62.6096 36.42 62.6096 36.41 62.6096C35.67 62.6096 35.05 62.0296 35 61.2996L33.52 41.1696C33.46 40.3896 34.05 39.7096 34.83 39.6496Z" fill="white"/>
<path d="M43.7 99.9897H50.02V93.6397C50.02 92.8597 50.65 92.2297 51.43 92.2297C52.21 92.2297 52.84 92.8597 52.84 93.6397V99.5097C53.22 99.1797 53.48 98.7097 53.52 98.1697L54.06 89.5597L54.08 89.1997L54.21 87.0897L54.23 86.7297L54.27 86.0997C54.05 86.2397 53.81 86.3397 53.53 86.3397C53.52 86.3397 53.41 86.3397 53.4 86.3397C53.02 86.3097 52.68 86.1297 52.44 85.8397C52.2 85.5497 52.08 85.1797 52.11 84.8097L53.22 72.1597C53.28 71.4397 53.9 70.8697 54.63 70.8697C54.64 70.8697 54.74 70.8697 54.76 70.8697C54.92 70.8797 55.08 70.9397 55.22 70.9997L55.54 65.9897C55.46 65.9997 55.39 66.0397 55.3 66.0397H55.23C54.42 65.9797 53.83 65.2997 53.89 64.5197L56.03 35.4697H51.84L49.1 71.0097C48.52 78.4697 42.38 93.5097 34.9 93.6697H34.75L35.03 98.0697C35.05 98.3497 35.29 98.5697 35.57 98.5697H42.28C43.06 98.5697 43.7 99.1997 43.7 99.9797V99.9897Z" fill="#76CFF9"/>
<path d="M56.16 29.8701H51.84V32.6401H56.16V29.8701Z" fill="#76CFF9"/>
<path d="M50.02 106.34V99.9902H43.7C43.7 100.77 43.07 101.4 42.28 101.4V108.19H50.65V107.52C50.27 107.27 50.01 106.83 50.01 106.34H50.02Z" fill="#FD7C7C"/>
<path d="M35.44 101.39C35.32 101.39 35.2 101.37 35.08 101.36V108.2H35.44V101.4V101.39Z" fill="#2A3136"/>
<path d="M42.28 101.41C43.06 101.41 43.7 100.78 43.7 99.9998C43.7 99.2198 43.07 98.5898 42.28 98.5898C43.06 98.5898 43.69 99.2198 43.69 99.9998C43.69 100.78 43.06 101.41 42.28 101.41Z" fill="#2A3136"/>
<path d="M37.91 101.41H37.55V108.2H37.91V101.41Z" fill="#2A3136"/>
<path d="M35.58 101.41C35.58 101.41 35.49 101.4 35.44 101.4V108.2H37.55V101.41H35.58Z" fill="#2A3136"/>
<path d="M58.56 35.0696L56.38 64.7096C56.34 65.2596 55.88 65.6896 55.33 65.6896C55.3 65.6896 55.28 65.6896 55.25 65.6896C54.67 65.6496 54.23 65.1397 54.28 64.5597L56.45 35.1196H41C40.42 35.1196 39.94 34.6496 39.94 34.0596C39.94 33.4696 40.41 32.9996 41 32.9996H56.17V32.6396H41C40.22 32.6396 39.58 33.2696 39.58 34.0496C39.58 34.8296 40.21 35.4596 41 35.4596H56.06L53.92 64.5096C53.86 65.2896 54.45 65.9696 55.26 66.0296H55.33C55.41 66.0296 55.49 65.9996 55.57 65.9796C56.19 65.8696 56.69 65.3696 56.74 64.7096L58.57 39.8896L58.6 39.4696L58.78 37.0796L58.81 36.6896L59 34.1396C59 34.1396 59 34.0996 59 34.0896C58.99 34.4696 58.83 34.8096 58.57 35.0496L58.56 35.0696Z" fill="#2A3136"/>
<path d="M40.99 33C40.41 33 39.93 33.47 39.93 34.06C39.93 34.65 40.4 35.12 40.99 35.12H56.44L54.27 64.56C54.23 65.14 54.66 65.65 55.24 65.69C55.27 65.69 55.29 65.69 55.32 65.69C55.87 65.69 56.33 65.27 56.37 64.71L58.55 35.07C58.3 35.32 57.95 35.47 57.57 35.47C56.79 35.47 56.16 34.84 56.16 34.06V33H40.99Z" fill="#2A3136"/>
<path d="M35.58 101.41H42.28C43.06 101.41 43.69 100.78 43.69 100C43.69 99.2202 43.06 98.5901 42.28 98.5901H35.58C35.3 98.5901 35.06 98.3701 35.04 98.0901L34.76 93.6902L31.1 35.4802H36.5C37.28 35.4802 37.92 34.8502 37.92 34.0702C37.92 33.2902 37.29 32.6602 36.5 32.6602H31V33.0202H36.5C37.08 33.0202 37.56 33.4902 37.56 34.0802C37.56 34.6702 37.09 35.1402 36.5 35.1402H30.72L34.68 98.1302C34.72 98.6002 35.11 98.9702 35.58 98.9702H42.28C42.86 98.9702 43.34 99.4402 43.34 100.03C43.34 100.62 42.87 101.09 42.28 101.09H35.58C34.01 101.09 32.68 99.8602 32.57 98.2902L28.58 35.0902C28.33 34.8402 28.17 34.5002 28.16 34.1202C28.16 34.1402 28.16 34.1602 28.16 34.1902L32.21 98.3102C32.33 99.8902 33.55 101.16 35.08 101.39C35.2 101.41 35.32 101.42 35.44 101.42C35.49 101.42 35.53 101.43 35.58 101.43V101.41Z" fill="#2A3136"/>
<path d="M29.57 35.4702C29.18 35.4702 28.83 35.3102 28.57 35.0602L32.56 98.2602C32.68 99.8302 34 101.06 35.57 101.06H42.27C42.85 101.06 43.33 100.59 43.33 100C43.33 99.4102 42.86 98.9402 42.27 98.9402H35.57C35.1 98.9402 34.7 98.5702 34.67 98.1002L30.71 35.1102H36.49C37.07 35.1102 37.55 34.6402 37.55 34.0502C37.55 33.4602 37.08 32.9902 36.49 32.9902H30.99V34.0502C30.99 34.8302 30.35 35.4602 29.57 35.4602V35.4702Z" fill="#2A3136"/>
<path d="M36.42 62.6104C36.42 62.6104 36.52 62.6104 36.53 62.6104C36.91 62.5804 37.25 62.4104 37.5 62.1204C37.75 61.8304 37.87 61.4704 37.84 61.0904L36.35 40.9604C36.3 40.2304 35.68 39.6504 34.84 39.6504C34.06 39.7104 33.48 40.3904 33.53 41.1704L35.01 61.3004C35.06 62.0404 35.68 62.6104 36.42 62.6104ZM34.86 40.0104C35.44 39.9704 35.95 40.4004 35.99 40.9904L37.48 61.1204C37.52 61.7004 37.09 62.2104 36.5 62.2504C36.47 62.2504 36.45 62.2504 36.42 62.2504C35.87 62.2504 35.41 61.8304 35.37 61.2704L33.89 41.1404C33.85 40.5604 34.28 40.0504 34.87 40.0104H34.86Z" fill="#2A3136"/>
<path d="M36.42 62.2503C36.42 62.2503 36.47 62.2503 36.5 62.2503C37.08 62.2103 37.52 61.7003 37.48 61.1203L35.99 40.9903C35.95 40.4103 35.44 39.9703 34.86 40.0103C34.28 40.0503 33.84 40.5603 33.88 41.1403L35.36 61.2703C35.4 61.8303 35.86 62.2503 36.41 62.2503H36.42Z" fill="#2A3136"/>
<path d="M28.58 35.06C28.84 35.31 29.19 35.47 29.58 35.47C30.36 35.47 31 34.84 31 34.06V29.88H56.17V34.06C56.17 34.84 56.8 35.47 57.58 35.47C57.96 35.47 58.31 35.32 58.56 35.07C58.81 34.82 58.97 34.48 58.99 34.11C58.99 34.09 58.99 34.08 58.99 34.06V29.06C58.99 27.95 58.09 27.04 56.97 27.04H30.18C29.07 27.04 28.16 27.95 28.16 29.06V34.06C28.16 34.06 28.16 34.08 28.16 34.09C28.16 34.47 28.32 34.81 28.58 35.06ZM28.52 29.06C28.52 28.15 29.26 27.4 30.18 27.4H56.97C57.88 27.4 58.63 28.15 58.63 29.06V34.06C58.63 34.64 58.16 35.12 57.57 35.12C56.98 35.12 56.51 34.65 56.51 34.06V29.52H30.63V34.06C30.63 34.64 30.16 35.12 29.57 35.12C28.98 35.12 28.51 34.65 28.51 34.06V29.06H28.52Z" fill="#2A3136"/>
<path d="M29.57 35.1096C30.15 35.1096 30.63 34.6396 30.63 34.0496V29.5096H56.52V34.0496C56.52 34.6296 56.99 35.1096 57.58 35.1096C58.17 35.1096 58.64 34.6396 58.64 34.0496V29.0496C58.64 28.1396 57.9 27.3896 56.98 27.3896H30.18C29.26 27.3896 28.52 28.1396 28.52 29.0496V34.0496C28.52 34.6296 28.99 35.1096 29.58 35.1096H29.57Z" fill="#2A3136"/>
<path d="M101.03 108.19H26.46C25.68 108.19 25.04 108.82 25.04 109.6C25.04 110.38 25.67 111.02 26.46 111.02H101.03C101.81 111.02 102.44 110.39 102.44 109.6C102.44 108.81 101.81 108.19 101.03 108.19ZM101.03 110.66H26.46C25.88 110.66 25.4 110.19 25.4 109.6C25.4 109.01 25.87 108.54 26.46 108.54H101.03C101.61 108.54 102.09 109.01 102.09 109.6C102.09 110.19 101.62 110.66 101.03 110.66Z" fill="#2A3136"/>
<path d="M101.03 108.55H26.46C25.88 108.55 25.4 109.02 25.4 109.61C25.4 110.2 25.87 110.67 26.46 110.67H101.03C101.61 110.67 102.09 110.2 102.09 109.61C102.09 109.02 101.62 108.55 101.03 108.55Z" fill="#2A3136"/>
<path d="M21.75 108.19H18.41C17.63 108.19 17 108.82 17 109.6C17 110.38 17.63 111.02 18.41 111.02H21.74C22.52 111.02 23.15 110.39 23.15 109.6C23.15 108.81 22.52 108.19 21.74 108.19H21.75ZM21.75 110.66H18.41C17.83 110.66 17.35 110.19 17.35 109.6C17.35 109.01 17.82 108.54 18.41 108.54H21.74C22.32 108.54 22.8 109.01 22.8 109.6C22.8 110.19 22.33 110.66 21.74 110.66H21.75Z" fill="#2A3136"/>
<path d="M21.75 108.55H18.41C17.83 108.55 17.35 109.02 17.35 109.61C17.35 110.2 17.82 110.67 18.41 110.67H21.74C22.32 110.67 22.8 110.2 22.8 109.61C22.8 109.02 22.33 108.55 21.74 108.55H21.75Z" fill="#2A3136"/>
<path d="M51.43 92.2305C50.65 92.2305 50.02 92.8605 50.02 93.6405V106.34C50.02 106.83 50.27 107.27 50.66 107.52C50.88 107.67 51.15 107.76 51.44 107.76C51.83 107.76 52.19 107.6 52.44 107.34C52.69 107.08 52.85 106.73 52.85 106.34V93.6405C52.85 92.8605 52.22 92.2305 51.44 92.2305H51.43ZM51.43 107.4C50.85 107.4 50.37 106.93 50.37 106.34V93.6405C50.37 93.0605 50.84 92.5805 51.43 92.5805C52.02 92.5805 52.49 93.0505 52.49 93.6405V106.34C52.49 106.92 52.02 107.4 51.43 107.4Z" fill="#2A3136"/>
<path d="M52.49 93.6401C52.49 93.0601 52.02 92.5801 51.43 92.5801C50.84 92.5801 50.37 93.0501 50.37 93.6401V106.34C50.37 106.92 50.84 107.4 51.43 107.4C52.02 107.4 52.49 106.93 52.49 106.34V93.6401Z" fill="#2A3136"/>
<path d="M54.65 70.8596C53.92 70.8596 53.31 71.4296 53.24 72.1496L52.13 84.7996C52.1 85.1796 52.21 85.5396 52.46 85.8296C52.7 86.1196 53.04 86.2996 53.42 86.3296C53.43 86.3296 53.54 86.3296 53.55 86.3296C53.83 86.3296 54.07 86.2296 54.29 86.0896C54.65 85.8596 54.92 85.4896 54.96 85.0296L56.07 72.3796C56.1 71.9996 55.99 71.6396 55.75 71.3496C55.61 71.1896 55.44 71.0696 55.25 70.9796C55.1 70.9096 54.95 70.8596 54.79 70.8496C54.78 70.8496 54.68 70.8496 54.66 70.8496L54.65 70.8596ZM55.71 72.3696L54.6 85.0196C54.55 85.5996 54.04 86.0296 53.46 85.9796C52.88 85.9296 52.45 85.4196 52.5 84.8396L53.61 72.1896C53.66 71.6096 54.17 71.1796 54.75 71.2296C55.33 71.2796 55.76 71.7896 55.71 72.3696Z" fill="#2A3136"/>
<path d="M53.6 72.1798L52.49 84.8298C52.44 85.4098 52.87 85.9198 53.45 85.9698C54.03 86.0198 54.54 85.5898 54.59 85.0098L55.7 72.3598C55.75 71.7798 55.32 71.2698 54.74 71.2198C54.16 71.1698 53.65 71.5998 53.6 72.1798Z" fill="#2A3136"/>
</g>
<defs>
<clipPath id="clip0_789_16158">
<rect width="85.44" height="103.02" fill="white" transform="translate(17 8)"/>
</clipPath>
</defs>
</svg>
