<svg width="120" height="120" viewBox="0 0 120 120" fill="none" xmlns="http://www.w3.org/2000/svg">
<g clip-path="url(#clip0_2197_33485)">
<path d="M64.79 21.4C64.16 21.83 63.59 22.37 63.17 23.1L21.54 95.22C20.52 96.99 20.63 98.99 21.51 100.55H101.16C105.3 100.55 107.89 96.06 105.82 92.48L64.79 21.4Z" fill="#FD7C7C"/>
<path d="M13.23 93.3001L54.86 21.1901C56.93 17.6001 62.11 17.6001 64.18 21.1901L105.81 93.3001C107.88 96.8901 105.29 101.37 101.15 101.37H17.89C13.75 101.37 11.16 96.8801 13.23 93.3001Z" stroke="#2A3136" stroke-width="3" stroke-linecap="round" stroke-linejoin="round"/>
<path d="M59.59 72.22H59.45C57.83 72.22 56.52 70.91 56.52 69.29V53.31C56.52 51.69 57.83 50.38 59.45 50.38H59.59C61.21 50.38 62.52 51.69 62.52 53.31V69.29C62.52 70.91 61.21 72.22 59.59 72.22ZM59.59 83.72H59.45C57.83 83.72 56.52 82.41 56.52 80.79C56.52 79.17 57.83 77.86 59.45 77.86H59.59C61.21 77.86 62.52 79.17 62.52 80.79C62.52 82.41 61.21 83.72 59.59 83.72Z" fill="white"/>
</g>
<defs>
<clipPath id="clip0_2197_33485">
<rect width="97.05" height="85.87" fill="white" transform="translate(11 17)"/>
</clipPath>
</defs>
</svg>
