<svg width="120" height="120" viewBox="0 0 120 120" fill="none" xmlns="http://www.w3.org/2000/svg">
<path d="M91.1115 29.9822C90.3284 29.9822 89.6963 29.35 89.6963 28.567V19.9721C89.6963 17.1701 91.0737 13 94.8853 13C99.8667 13 99.8667 18.4154 99.8667 21.0194C99.8667 21.8024 99.2346 22.4345 98.4515 22.4345H92.9984C92.8286 22.4345 92.6776 22.4062 92.5266 22.3496V28.567C92.5266 29.35 91.8945 29.9822 91.1115 29.9822ZM94.8853 15.8304C93.0172 15.8304 92.621 18.7362 92.5455 19.6797C92.687 19.6325 92.838 19.6042 92.9984 19.6042H97.0081C96.8665 16.4342 96.1684 15.8304 94.8853 15.8304Z" fill="#2A3136"/>
<path d="M21.2956 106.402C17.8615 106.402 14.2197 102.015 14.2197 97.8635V93.6652C14.2197 92.8821 14.8518 92.25 15.6349 92.25H67.5249C68.3079 92.25 68.94 92.8821 68.94 93.6652C68.94 94.4482 68.3079 95.0804 67.5249 95.0804H17.0501V97.8635C17.0501 100.571 19.5785 103.571 21.2956 103.571C22.0787 103.571 22.7108 104.204 22.7108 104.987C22.7108 105.77 22.0787 106.402 21.2956 106.402Z" fill="#2A3136"/>
<path d="M21.296 88.4763C20.513 88.4763 19.8809 87.8442 19.8809 87.0611V20.1325C19.8809 16.1983 23.0792 13 27.0134 13H94.8854C95.6685 13 96.3006 13.6321 96.3006 14.4152C96.3006 15.1982 95.6685 15.8304 94.8854 15.8304H27.0134C24.6453 15.8304 22.7112 17.7644 22.7112 20.1325V87.0611C22.7112 87.8442 22.0791 88.4763 21.296 88.4763Z" fill="#2A3136"/>
<path d="M3.30446 106.091C4.12527 106.195 4.88003 105.61 4.98381 104.789C5.08759 103.968 4.50265 103.213 3.68184 103.11C2.86104 103.006 2.10628 103.591 2.01193 104.412C1.90815 105.232 2.49309 105.987 3.3139 106.091H3.30446Z" fill="#2A3136"/>
<path d="M108.641 96.9668H71.922C70.1766 96.9668 68.5162 98.0801 68.1105 99.816C67.5255 102.288 69.3653 104.514 71.6956 104.514H108.415C110.16 104.514 111.821 103.401 112.226 101.665C112.811 99.1934 110.972 96.9668 108.641 96.9668Z" fill="#FD7C7C"/>
<path d="M73.1857 49.7939C72.4026 49.7939 71.7705 49.1618 71.7705 48.3787V41.7746C71.7705 40.9915 72.4026 40.3594 73.1857 40.3594C73.9688 40.3594 74.6009 40.9915 74.6009 41.7746V48.3787C74.6009 49.1618 73.9688 49.7939 73.1857 49.7939Z" fill="#2A3136"/>
<path d="M73.1857 96.9672C72.4026 96.9672 71.7705 96.3351 71.7705 95.552V89.0422C71.7705 82.5701 75.3556 76.6546 81.1201 73.5978C81.9315 73.1733 82.6108 72.5129 83.092 71.6921C83.5731 70.8713 83.8278 69.9278 83.8278 68.956C83.8278 66.9748 82.79 65.1917 81.1296 64.3142C78.0445 62.6726 75.5349 60.1914 73.8744 57.1346C73.497 56.4458 73.7612 55.5873 74.4405 55.2194C75.1198 54.8514 75.9877 55.1061 76.3557 55.7854C77.752 58.3516 79.8559 60.4367 82.4504 61.8047C85.0449 63.1727 86.6582 65.9087 86.6582 68.9466C86.6582 70.4184 86.2714 71.8524 85.5449 73.0978C84.7996 74.3809 83.7335 75.4093 82.4504 76.0886C77.6199 78.6453 74.6103 83.6079 74.6103 89.0233V95.5331C74.6103 96.3162 73.9782 96.9483 73.1951 96.9483L73.1857 96.9672Z" fill="#2A3136"/>
<path d="M106.207 92.2494C105.424 92.2494 104.792 91.6173 104.792 90.8342V89.0417C104.792 83.6262 101.792 78.6637 96.9519 76.0975C94.3574 74.7295 92.7441 71.9935 92.7441 68.9555C92.7441 67.4838 93.131 66.0497 93.8574 64.8043C94.5933 63.5213 95.6688 62.4929 96.9519 61.8136C101.782 59.2568 104.792 54.2943 104.792 48.8789V40.8312C104.792 40.0481 105.424 39.416 106.207 39.416C106.99 39.416 107.622 40.0481 107.622 40.8312V48.8789C107.622 55.3415 104.037 61.2664 98.2728 64.3232C97.4614 64.7477 96.7821 65.4082 96.301 66.229C95.8198 67.0498 95.5651 67.9932 95.5651 68.965C95.5651 70.9462 96.6029 72.7199 98.2633 73.6068C104.028 76.6636 107.613 82.579 107.613 89.0511V90.8437C107.613 91.6267 106.981 92.2589 106.198 92.2589L106.207 92.2494Z" fill="#2A3136"/>
<path d="M109.217 106.374C108.452 106.374 107.83 105.751 107.83 104.987C107.83 104.223 108.452 103.6 109.217 103.6C110.424 103.6 111.405 102.525 111.405 101.213C111.405 99.902 110.424 98.8265 109.217 98.8265H71.8747C70.6671 98.8265 69.6859 99.902 69.6859 101.213C69.6859 102.525 70.6671 103.6 71.8747 103.6C72.6389 103.6 73.2616 104.223 73.2616 104.987C73.2616 105.751 72.6389 106.374 71.8747 106.374C69.1387 106.374 66.9121 104.063 66.9121 101.213C66.9121 98.3642 69.1387 96.0527 71.8747 96.0527H109.217C111.953 96.0527 114.179 98.3642 114.179 101.213C114.179 104.063 111.953 106.374 109.217 106.374Z" fill="#2A3136"/>
<path d="M109.612 32.8125H71.2702C69.4493 32.8125 67.7134 33.9258 67.2888 35.6617C66.6756 38.1336 68.6002 40.3601 71.0343 40.3601H109.376C111.197 40.3601 112.933 39.2469 113.358 37.5109C113.971 35.0391 112.046 32.8125 109.612 32.8125Z" fill="#FD7C7C"/>
<path d="M109.217 42.2179H71.8747C69.1387 42.2179 66.9121 39.9064 66.9121 37.0572C66.9121 34.2079 69.1387 31.8965 71.8747 31.8965H109.217C111.953 31.8965 114.179 34.2079 114.179 37.0572C114.179 39.9064 111.953 42.2179 109.217 42.2179ZM71.8747 34.6702C70.6671 34.6702 69.6859 35.7458 69.6859 37.0572C69.6859 38.3686 70.6671 39.4441 71.8747 39.4441H109.217C110.424 39.4441 111.405 38.3686 111.405 37.0572C111.405 35.7458 110.424 34.6702 109.217 34.6702H71.8747Z" fill="#2A3136"/>
<path d="M101.961 92.0514C101.961 92.6835 101.433 93.193 100.772 93.193H78.6106C77.9596 93.193 77.4219 92.6835 77.4219 92.0608C77.4219 89.9381 78.4785 87.9379 80.2617 86.6737C80.8277 86.2775 81.29 85.9567 81.6014 85.7397C84.2997 83.9 86.8564 82.7112 88.8471 81.9565C89.3943 81.7489 89.9887 81.7489 90.5264 81.9565C92.5077 82.7112 95.0645 83.9 97.7722 85.7397C98.0835 85.9567 98.5552 86.2775 99.1119 86.6737C100.895 87.9379 101.952 89.9286 101.952 92.0514H101.961Z" fill="#76CFF9"/>
<path d="M98.7729 56.0397C97.5747 56.2944 96.2916 56.4454 94.9236 56.4359C90.0365 56.3793 87.8665 54.3132 82.8757 54.1434C82.2152 54.1245 81.4699 54.1339 80.668 54.2C79.9793 54.2566 79.6113 55.0585 80.0264 55.6151C81.1397 57.1058 82.5832 58.3606 84.2908 59.2663C86.206 60.2852 87.6778 61.8891 88.5741 63.8232C88.8571 64.427 89.4704 64.8044 90.1402 64.8044C90.8101 64.8044 91.4422 64.3893 91.7347 63.7571C91.8479 63.5118 91.9705 63.2665 92.1121 63.0212C93.0461 61.4174 94.3952 60.106 96.018 59.2569C97.235 58.6153 98.32 57.7945 99.2351 56.8322C99.5559 56.4925 99.2446 55.9453 98.7917 56.0397H98.7729Z" fill="#76CFF9"/>
<path d="M116.585 106.403H9.97475C9.19168 106.403 8.55957 105.771 8.55957 104.987C8.55957 104.204 9.19168 103.572 9.97475 103.572H116.585C117.368 103.572 118 104.204 118 104.987C118 105.771 117.368 106.403 116.585 106.403Z" fill="#2A3136"/>
<path d="M60.9213 31.8694H48.6564C47.8733 31.8694 47.2412 31.2373 47.2412 30.4542C47.2412 29.6712 47.8733 29.0391 48.6564 29.0391H60.9213C61.7044 29.0391 62.3365 29.6712 62.3365 30.4542C62.3365 31.2373 61.7044 31.8694 60.9213 31.8694Z" fill="#2A3136"/>
<path d="M38.278 31.8694H32.6173C31.8343 31.8694 31.2021 31.2373 31.2021 30.4542C31.2021 29.6712 31.8343 29.0391 32.6173 29.0391H38.278C39.0611 29.0391 39.6932 29.6712 39.6932 30.4542C39.6932 31.2373 39.0611 31.8694 38.278 31.8694Z" fill="#2A3136"/>
<path d="M60.9209 40.3597H32.6173C31.8343 40.3597 31.2021 39.7275 31.2021 38.9445C31.2021 38.1614 31.8343 37.5293 32.6173 37.5293H60.9209C61.704 37.5293 62.3361 38.1614 62.3361 38.9445C62.3361 39.7275 61.704 40.3597 60.9209 40.3597Z" fill="#2A3136"/>
<path d="M60.9209 48.8518H32.6173C31.8343 48.8518 31.2021 48.2197 31.2021 47.4367C31.2021 46.6536 31.8343 46.0215 32.6173 46.0215H60.9209C61.704 46.0215 62.3361 46.6536 62.3361 47.4367C62.3361 48.2197 61.704 48.8518 60.9209 48.8518Z" fill="#2A3136"/>
<path d="M50.5429 57.3421H32.6173C31.8343 57.3421 31.2021 56.71 31.2021 55.9269C31.2021 55.1438 31.8343 54.5117 32.6173 54.5117H50.5429C51.326 54.5117 51.9581 55.1438 51.9581 55.9269C51.9581 56.71 51.326 57.3421 50.5429 57.3421Z" fill="#2A3136"/>
</svg>
