<svg width="48" height="48" viewBox="0 0 48 48" fill="none" xmlns="http://www.w3.org/2000/svg">
<path d="M39.3328 16.5781H10.8601L8.46338 23.1981H9.45511C10.3642 23.1981 11.108 22.4533 11.108 21.5431C11.108 22.4533 11.8518 23.1981 12.7609 23.1981H13.7526C14.6617 23.1981 15.4055 22.4533 15.4055 21.5431C15.4055 22.4533 16.1493 23.1981 17.0584 23.1981H18.0502C18.9592 23.1981 19.703 22.4533 19.703 21.5431C19.703 22.4533 20.4469 23.1981 21.3559 23.1981H22.3477C23.2568 23.1981 24.0006 22.4533 24.0006 21.5431C24.0006 22.4533 24.7444 23.1981 25.6535 23.1981H26.6452C27.5543 23.1981 28.2981 22.4533 28.2981 21.5431C28.2981 22.4533 29.0419 23.1981 29.951 23.1981H30.9427C31.8518 23.1981 32.5956 22.4533 32.5956 21.5431C32.5956 22.4533 33.3394 23.1981 34.2485 23.1981H35.2402C36.1493 23.1981 36.8931 22.4533 36.8931 21.5431C36.8931 22.4533 37.6369 23.1981 38.546 23.1981H39.5378C40.4469 23.1981 41.1907 22.4533 41.1907 21.5431C41.1907 21.2849 41.1245 21.0466 41.0221 20.8281L39.3361 16.5781H39.3328Z" fill="#FD7C7C"/>
<path d="M38.5453 23.528C37.6362 23.528 36.8924 22.7833 36.8924 21.873C36.8924 22.7833 36.1486 23.528 35.2395 23.528H34.2478C33.3387 23.528 32.5949 22.7833 32.5949 21.873C32.5949 22.7833 31.8511 23.528 30.942 23.528H29.9502C29.0412 23.528 28.2974 22.7833 28.2974 21.873C28.2974 22.7833 27.5536 23.528 26.6445 23.528H25.6527C24.7436 23.528 23.9998 22.7833 23.9998 21.873C23.9998 22.7833 23.256 23.528 22.3469 23.528H21.3552C20.4461 23.528 19.7023 22.7833 19.7023 21.873C19.7023 22.7833 18.9585 23.528 18.0494 23.528H17.0577C16.1486 23.528 15.4048 22.7833 15.4048 21.873C15.4048 22.7833 14.661 23.528 13.7519 23.528H12.7602C11.8511 23.528 11.1073 22.7833 11.1073 21.873C11.1073 22.7833 10.3635 23.528 9.45438 23.528H8.62793V42.7259H39.3717V23.528H38.5453ZM36.3965 38.423H11.6031V26.176H36.3965V38.423Z" fill="#76CFF9"/>
<path d="M39.5374 23.8581H38.5456C37.8812 23.8581 37.2861 23.5536 36.8927 23.0803C36.4993 23.5536 35.9043 23.8581 35.2398 23.8581H34.2481C33.5836 23.8581 32.9886 23.5536 32.5952 23.0803C32.2018 23.5536 31.6068 23.8581 30.9423 23.8581H29.9506C29.2861 23.8581 28.6911 23.5536 28.2977 23.0803C27.9043 23.5536 27.3093 23.8581 26.6448 23.8581H25.6531C24.9886 23.8581 24.3935 23.5536 24.0002 23.0803C23.6068 23.5536 23.0117 23.8581 22.3473 23.8581H21.3555C20.6911 23.8581 20.096 23.5536 19.7026 23.0803C19.3093 23.5536 18.7142 23.8581 18.0497 23.8581H17.058C16.3935 23.8581 15.7985 23.5536 15.4051 23.0803C15.0117 23.5536 14.4167 23.8581 13.7522 23.8581H12.7605C12.096 23.8581 11.501 23.5536 11.1076 23.0803C10.7142 23.5536 10.1192 23.8581 9.4547 23.8581H8.46297C7.2795 23.8581 6.31421 22.8916 6.31421 21.7066C6.31421 21.3955 6.38363 21.0877 6.52578 20.7898L8.9952 14.5703C9.07123 14.3816 9.25305 14.2559 9.4547 14.2559H10.777C11.0514 14.2559 11.2729 14.4776 11.2729 14.7524C11.2729 15.0271 11.0514 15.2489 10.777 15.2489H9.7919L7.44148 21.1704C7.44148 21.1704 7.43156 21.1936 7.42826 21.2035C7.34892 21.369 7.30925 21.5378 7.30925 21.7033C7.30925 22.3421 7.82826 22.8618 8.46628 22.8618H9.45801C10.096 22.8618 10.615 22.3421 10.615 21.7033C10.615 21.4286 10.8365 21.2068 11.1109 21.2068C11.3853 21.2068 11.6068 21.4286 11.6068 21.7033C11.6068 22.3421 12.1258 22.8618 12.7638 22.8618H13.7555C14.3935 22.8618 14.9126 22.3421 14.9126 21.7033C14.9126 21.4286 15.134 21.2068 15.4084 21.2068C15.6828 21.2068 15.9043 21.4286 15.9043 21.7033C15.9043 22.3421 16.4233 22.8618 17.0613 22.8618H18.0531C18.6911 22.8618 19.2101 22.3421 19.2101 21.7033C19.2101 21.4286 19.4316 21.2068 19.7059 21.2068C19.9803 21.2068 20.2018 21.4286 20.2018 21.7033C20.2018 22.3421 20.7208 22.8618 21.3588 22.8618H22.3506C22.9886 22.8618 23.5076 22.3421 23.5076 21.7033C23.5076 21.4286 23.7291 21.2068 24.0035 21.2068C24.2778 21.2068 24.4993 21.4286 24.4993 21.7033C24.4993 22.3421 25.0183 22.8618 25.6564 22.8618H26.6481C27.2861 22.8618 27.8051 22.3421 27.8051 21.7033C27.8051 21.4286 28.0266 21.2068 28.301 21.2068C28.5754 21.2068 28.7969 21.4286 28.7969 21.7033C28.7969 22.3421 29.3159 22.8618 29.9539 22.8618H30.9456C31.5836 22.8618 32.1026 22.3421 32.1026 21.7033C32.1026 21.4286 32.3241 21.2068 32.5985 21.2068C32.8729 21.2068 33.0944 21.4286 33.0944 21.7033C33.0944 22.3421 33.6134 22.8618 34.2514 22.8618H35.2431C35.8812 22.8618 36.4002 22.3421 36.4002 21.7033C36.4002 21.4286 36.6217 21.2068 36.896 21.2068C37.1704 21.2068 37.3919 21.4286 37.3919 21.7033C37.3919 22.3421 37.9109 22.8618 38.5489 22.8618H39.5407C40.1787 22.8618 40.6977 22.3421 40.6977 21.7033C40.6977 21.5378 40.658 21.369 40.5787 21.2035C40.5721 21.1936 40.5688 21.1803 40.5655 21.1704L38.215 15.2489H13.7522C13.4778 15.2489 13.2564 15.0271 13.2564 14.7524C13.2564 14.4776 13.4778 14.2559 13.7522 14.2559H38.5456C38.7473 14.2559 38.9324 14.3816 39.0051 14.5703L41.4745 20.7898C41.6134 21.0844 41.6861 21.3922 41.6861 21.7066C41.6861 22.8916 40.7208 23.8581 39.5374 23.8581Z" fill="#263357"/>
<path d="M36.5617 39.0846H11.4378C11.1634 39.0846 10.9419 38.8628 10.9419 38.5881V26.0102C10.9419 25.7354 11.1634 25.5137 11.4378 25.5137H36.5617C36.8361 25.5137 37.0576 25.7354 37.0576 26.0102V38.5881C37.0576 38.8628 36.8361 39.0846 36.5617 39.0846ZM11.9336 38.0916H36.0659V26.5067H11.9336V38.0916Z" fill="#263357"/>
<path d="M16.06 35.096C15.324 35.096 14.684 34.816 14.196 34.352L14.9 33.456C15.276 33.824 15.716 34.048 16.068 34.048C16.276 34.048 16.388 33.936 16.388 33.792C16.388 33.624 16.252 33.536 15.812 33.272C15.236 32.928 14.884 32.6 14.884 32.032C14.884 31.232 15.508 30.568 16.572 30.568C17.252 30.568 17.828 30.832 18.236 31.184L17.556 32.104C17.22 31.808 16.86 31.616 16.532 31.616C16.356 31.616 16.236 31.712 16.236 31.848C16.236 32.008 16.348 32.08 16.796 32.344C17.412 32.704 17.748 33.048 17.748 33.624C17.748 34.384 17.164 35.096 16.06 35.096ZM19.0861 35.08C18.4381 35.08 18.0381 34.64 18.0381 33.968C18.0381 33.528 18.1901 33.088 18.4781 32.8C18.7661 32.512 19.2061 32.352 19.7421 32.352C20.0781 32.352 20.3581 32.416 20.6541 32.52L20.6701 32.456C20.6941 32.36 20.7101 32.248 20.7101 32.152C20.7101 31.904 20.5501 31.736 20.1021 31.736C19.7741 31.736 19.3821 31.832 19.1101 31.944L18.8781 30.856C19.3181 30.696 19.8381 30.6 20.4061 30.6C21.5501 30.6 22.1421 31.064 22.1421 31.872C22.1421 32.096 22.1021 32.336 22.0381 32.584L21.4621 35H20.0461L20.1421 34.584C19.8301 34.896 19.5181 35.08 19.0861 35.08ZM19.7661 34.184C20.0941 34.184 20.3421 33.864 20.4301 33.496L20.5021 33.192C20.3821 33.144 20.2061 33.104 20.0541 33.104C19.8701 33.104 19.7181 33.16 19.6141 33.272C19.4861 33.392 19.4141 33.592 19.4141 33.792C19.4141 34.032 19.5341 34.184 19.7661 34.184ZM22.1291 35L23.5451 29.216H24.9771L23.5691 35H22.1291ZM26.9648 30.568C28.1248 30.568 28.8048 31.336 28.8048 32.44C28.8048 33.176 28.5168 33.96 28.0208 34.456C27.6208 34.864 27.1008 35.096 26.4928 35.096C25.3248 35.096 24.6528 34.32 24.6528 33.224C24.6528 32.48 24.9328 31.704 25.4368 31.2C25.8368 30.8 26.3488 30.568 26.9648 30.568ZM26.5648 33.896C26.7408 33.896 26.8928 33.816 27.0048 33.696C27.2688 33.44 27.4288 32.912 27.4288 32.496C27.4288 32.016 27.2208 31.768 26.8848 31.768C26.7168 31.768 26.5648 31.84 26.4448 31.96C26.1888 32.216 26.0208 32.752 26.0208 33.168C26.0208 33.64 26.2368 33.896 26.5648 33.896ZM28.7924 35L29.8564 30.656H31.2884L31.1764 31.112C31.4324 30.832 31.8084 30.568 32.2724 30.568C32.9364 30.568 33.3364 30.992 33.3364 31.688C33.3364 31.896 33.2884 32.16 33.2244 32.448L32.6084 35H31.1684L31.7524 32.592C31.7924 32.432 31.8084 32.288 31.8084 32.208C31.8084 31.976 31.6964 31.848 31.4484 31.848C31.1284 31.848 30.9284 32.096 30.8404 32.488L30.2324 35H28.7924Z" fill="#263357"/>
<path d="M43.5041 43.3895H4.49587C4.22149 43.3895 4 43.1677 4 42.893C4 42.6183 4.22149 42.3965 4.49587 42.3965H43.5041C43.7785 42.3965 44 42.6183 44 42.893C44 43.1677 43.7785 43.3895 43.5041 43.3895Z" fill="#263357"/>
<path d="M39.537 43.3882H8.46266C8.18828 43.3882 7.9668 43.1664 7.9668 42.8917V26.3417C7.9668 26.067 8.18828 25.8453 8.46266 25.8453C8.73704 25.8453 8.95853 26.067 8.95853 26.3417V42.3952H39.0412V23.6938C39.0412 23.419 39.2627 23.1973 39.537 23.1973C39.8114 23.1973 40.0329 23.419 40.0329 23.6938V42.8917C40.0329 43.1664 39.8114 43.3882 39.537 43.3882Z" fill="#263357"/>
<path fill-rule="evenodd" clip-rule="evenodd" d="M18 11.2812H9.45436C9.17998 11.2812 8.9585 11.503 8.9585 11.7777V14.7567C8.9585 15.0315 9.17998 15.2532 9.45436 15.2532C9.72874 15.2532 9.95023 15.0315 9.95023 14.7567V12.2742H18V11.2812ZM30 12.2742H38.0494V14.7567C38.0494 15.0315 38.2709 15.2532 38.5453 15.2532C38.8197 15.2532 39.0411 15.0315 39.0411 14.7567V11.7777C39.0411 11.503 38.8197 11.2812 38.5453 11.2812H30V12.2742Z" fill="#263357"/>
<path d="M28.4271 6.66981C29.4144 6.66981 30.2148 5.86841 30.2148 4.87983C30.2148 3.89125 29.4144 3.08984 28.4271 3.08984C27.4398 3.08984 26.6394 3.89125 26.6394 4.87983C26.6394 5.86841 27.4398 6.66981 28.4271 6.66981Z" stroke="#263357" stroke-width="1.6" stroke-linecap="round" stroke-linejoin="round"/>
<path d="M25.3136 12.3866C26.3009 12.3866 27.1013 11.5852 27.1013 10.5966C27.1013 9.60804 26.3009 8.80664 25.3136 8.80664C24.3263 8.80664 23.5259 9.60804 23.5259 10.5966C23.5259 11.5852 24.3263 12.3866 25.3136 12.3866Z" stroke="#263357" stroke-width="1.6" stroke-linecap="round" stroke-linejoin="round"/>
<path d="M24.2898 8.73805L20.2593 1.5293" stroke="#263357" stroke-width="1.6" stroke-linecap="round" stroke-linejoin="round"/>
<path d="M26.2365 5.16797L18 5.67242" stroke="#263357" stroke-width="1.6" stroke-linecap="round" stroke-linejoin="round"/>
</svg>
