<svg width="68" height="68" viewBox="0 0 68 68" fill="none" xmlns="http://www.w3.org/2000/svg">
<path d="M34 67C52.2254 67 67 52.2254 67 34C67 15.7746 52.2254 1 34 1C15.7746 1 1 15.7746 1 34C1 52.2254 15.7746 67 34 67Z" fill="#EFF6FF" stroke="#DFEDFF"/>
<g clip-path="url(#clip0_4054_29143)">
<rect x="26.3845" y="19.2773" width="14.2154" height="4.06154" fill="#FD7C7C"/>
<rect x="30.446" y="16.2305" width="6.09231" height="4.06154" fill="#FD7C7C"/>
<path d="M52.9065 23.2559H17.0532V48.8131H52.9065V23.2559Z" fill="#76CFF9"/>
<path d="M31.7053 27.1152H19.4395V42.1835H31.7053V27.1152Z" fill="#EFF6FF" stroke="#263357" stroke-linecap="round" stroke-linejoin="round"/>
<mask id="mask0_4054_29143" style="mask-type:luminance" maskUnits="userSpaceOnUse" x="19" y="26" width="13" height="16">
<path d="M31.7053 26.6172H19.4395V41.6855H31.7053V26.6172Z" fill="white"/>
</mask>
<g mask="url(#mask0_4054_29143)">
<path d="M20.8508 40.7221C20.8508 40.7221 21.6733 38.8335 23.8158 38.4883C23.8158 38.9757 24.4961 40.1941 25.5216 40.184C26.4456 40.1738 27.3188 39.6661 27.461 38.4883C27.461 38.4883 30.101 39.0874 30.5376 40.7323L29.0653 41.7172V43.3012C29.0653 43.3012 27.2681 44.3267 25.5724 44.2455C23.8767 44.1744 22.0794 43.4332 22.0794 43.4332L22.2114 41.8594L20.8508 40.7221Z" fill="#FD7C7C"/>
<path d="M22.1405 43.4328C22.0288 43.4328 21.9374 43.3414 21.9374 43.2297V41.8285L20.79 40.8131C20.7088 40.742 20.6986 40.61 20.7697 40.5288C20.8408 40.4475 20.9728 40.4374 21.054 40.5085L22.2725 41.5848C22.2725 41.5848 22.3435 41.6762 22.3435 41.7371V43.2195C22.3435 43.3312 22.2522 43.4226 22.1405 43.4226V43.4328Z" fill="#263357"/>
<path d="M28.9941 43.4323C28.8824 43.4323 28.791 43.3409 28.791 43.2292V41.7468C28.791 41.6858 28.8215 41.6249 28.8621 41.5945L30.0602 40.5994C30.1415 40.5283 30.2735 40.5385 30.3446 40.6298C30.4156 40.7212 30.4055 40.8431 30.3141 40.9141L29.187 41.8483V43.2394C29.187 43.3511 29.0956 43.4425 28.9839 43.4425L28.9941 43.4323Z" fill="#263357"/>
<path d="M25.6231 44.3771H25.6028C23.6431 44.3771 21.7342 43.6663 20.2517 42.3768C20.201 42.3362 20.1807 42.2752 20.1807 42.2143C20.3127 40.2546 21.7444 38.6402 23.6634 38.3051H23.6939C23.6939 38.3051 23.7142 38.3051 23.7244 38.2949C23.7751 38.2949 23.8157 38.2949 23.8564 38.3254L23.9477 38.3863C23.9985 38.4168 24.0391 38.4777 24.0391 38.5386C24.1204 39.3408 24.8108 39.95 25.6434 39.95C26.476 39.95 27.1564 39.3408 27.2477 38.5386C27.2477 38.5082 27.2579 38.4777 27.2782 38.4574L27.3188 38.3965C27.3594 38.3254 27.4407 38.2949 27.5117 38.3051C27.532 38.3051 27.5524 38.3051 27.5727 38.3051C27.5727 38.3051 27.5727 38.3051 27.5828 38.3051C29.4816 38.6402 30.9133 40.2343 31.0656 42.1737C31.0656 42.2346 31.0453 42.2955 30.9945 42.3463C29.5121 43.6562 27.6031 44.3872 25.613 44.3872L25.6231 44.3771ZM20.5868 42.1331C21.988 43.3211 23.765 43.9709 25.5927 43.9709H25.613C27.4711 43.9709 29.2481 43.3008 30.6493 42.0925C30.4767 40.4171 29.248 39.0565 27.6234 38.7112C27.4508 39.6454 26.6284 40.3257 25.6434 40.3257C24.6585 40.3257 23.836 39.6352 23.6634 38.7011C21.9982 39.026 20.7391 40.4171 20.5868 42.1331Z" fill="#263357"/>
<path d="M25.6536 41.3306C24.2828 41.3306 23.105 40.3051 22.9121 38.9445C22.8917 38.8328 22.973 38.7312 23.0847 38.7109C23.1964 38.6906 23.2979 38.7719 23.3081 38.8835C23.4807 40.0411 24.4859 40.9143 25.6536 40.9143C26.8213 40.9143 27.8367 40.0309 27.9991 38.8632C28.0194 38.7515 28.121 38.6703 28.2225 38.6906C28.3342 38.7109 28.4053 38.8125 28.3951 38.9242C28.2022 40.2949 27.0244 41.3306 25.6536 41.3306Z" fill="#263357"/>
<path d="M24.8311 35.4511H24.2929C24.1812 35.4511 24.0898 35.3597 24.0898 35.248C24.0898 35.1363 24.1812 35.0449 24.2929 35.0449H24.8311C24.9428 35.0449 25.0342 35.1363 25.0342 35.248C25.0342 35.3597 24.9428 35.4511 24.8311 35.4511Z" fill="#263357"/>
<path d="M26.8416 35.4511H26.3034C26.1917 35.4511 26.1003 35.3597 26.1003 35.248C26.1003 35.1363 26.1917 35.0449 26.3034 35.0449H26.8416C26.9533 35.0449 27.0446 35.1363 27.0446 35.248C27.0446 35.3597 26.9533 35.4511 26.8416 35.4511Z" fill="#263357"/>
<path d="M28.8622 38.488C28.781 38.488 28.6998 38.4372 28.6693 38.356C28.6185 38.2037 28.5779 38.0311 28.5576 37.8483C28.4662 36.9751 28.4865 36.6502 28.6998 35.32C28.8521 34.4062 28.6388 32.3449 27.4508 31.4717C26.7502 30.9538 25.8161 30.7406 24.8921 30.9031C24.4148 30.9843 23.3284 31.5935 23.3284 32.3043C23.3284 32.3957 23.2776 32.4668 23.1862 32.4972C22.8918 32.5988 22.7699 32.8729 22.6481 33.1369C22.6278 33.1775 22.6075 33.2182 22.5872 33.2588C22.5262 33.4314 21.5108 36.1831 22.3739 37.9498C22.4247 38.0514 22.3739 38.1732 22.2825 38.224C22.181 38.2748 22.0592 38.224 22.0185 38.1326C21.0641 36.1526 22.181 33.2283 22.2216 33.1065C22.2216 33.1065 22.2216 33.0963 22.2216 33.0862C22.2419 33.0455 22.2622 33.0049 22.2825 32.9643C22.4044 32.7003 22.5668 32.3449 22.9324 32.1622C23.0542 31.2178 24.3235 30.5883 24.821 30.4969C25.8465 30.3243 26.8924 30.5578 27.6844 31.1468C29.0145 32.1317 29.2582 34.396 29.0958 35.3911C28.8825 36.6806 28.8622 36.9751 28.9536 37.8077C28.9739 37.9702 29.0044 38.1022 29.045 38.2342C29.0856 38.3357 29.0247 38.4575 28.9232 38.488C28.9028 38.488 28.8825 38.4982 28.8521 38.4982L28.8622 38.488Z" fill="#263357"/>
<path d="M25.5927 38.5799C24.7093 38.5494 23.8665 37.8183 23.4198 37.1177C22.9527 36.3765 22.9324 35.3916 22.9324 35.3509C22.9324 33.6654 23.6939 33.0359 23.7345 33.0054C23.7954 32.9648 23.8665 32.9445 23.9274 32.9749C24.2118 33.0866 24.8311 33.4522 25.2373 33.6959C25.2474 33.4725 25.3185 33.1882 25.4302 32.8531C25.4607 32.7719 25.5318 32.7109 25.6231 32.7109C25.7145 32.7109 25.7856 32.7719 25.8161 32.8632C26.009 33.5537 27.2376 34.1223 27.7656 34.366C27.6336 33.9192 27.4407 33.574 27.2985 33.3608C27.2376 33.2694 27.2579 33.1374 27.3493 33.0765C27.4407 33.0156 27.5625 33.0359 27.6336 33.1272C27.8874 33.5029 28.3139 34.2949 28.2936 35.3306C28.2936 35.6048 28.2733 36.346 27.7961 37.1076C27.3493 37.8082 26.5065 38.5392 25.6231 38.5697L25.5927 38.5799ZM23.897 33.4116C23.7244 33.6146 23.3284 34.2036 23.3284 35.3509C23.3284 35.3509 23.3487 36.2648 23.7548 36.8943C24.1305 37.4832 24.8718 38.1432 25.6028 38.1737C26.3339 38.1432 27.0751 37.4934 27.4508 36.8943C27.8671 36.2343 27.8773 35.5743 27.8874 35.3306C27.8874 35.1682 27.8874 35.0057 27.857 34.8636C27.8367 34.8636 27.8164 34.8534 27.8062 34.8432C27.7554 34.8229 27.6844 34.7823 27.593 34.7417C27.0954 34.5082 26.1511 34.0716 25.6739 33.4522C25.6028 33.8177 25.6435 33.9599 25.6739 34.0005C25.7145 34.0817 25.6942 34.1832 25.6333 34.2442C25.5622 34.3051 25.4708 34.3152 25.3896 34.2645C25.0951 34.0716 24.3031 33.5943 23.9173 33.4014L23.897 33.4116Z" fill="#263357"/>
<path d="M25.5723 37.534C25.2779 37.534 24.9834 37.4223 24.7194 37.2192C24.628 37.1481 24.6179 37.0263 24.6788 36.9349C24.7499 36.8435 24.8717 36.8232 24.9631 36.8943C25.3591 37.1989 25.7856 37.1989 26.1816 36.8943C26.2729 36.8232 26.3948 36.8435 26.4659 36.9349C26.5369 37.0263 26.5166 37.1481 26.4252 37.2192C26.1612 37.4223 25.8668 37.534 25.5723 37.534Z" fill="#263357"/>
</g>
<path d="M36.2644 30.9629H48.1749" stroke="#263357" stroke-linecap="round" stroke-linejoin="round"/>
<path d="M38.7115 34.8223H36.2644" stroke="#263357" stroke-linecap="round" stroke-linejoin="round"/>
<path d="M48.1749 34.8223H41.8694" stroke="#263357" stroke-linecap="round" stroke-linejoin="round"/>
<path d="M48.1749 38.6797H36.2644" stroke="#263357" stroke-linecap="round" stroke-linejoin="round"/>
<path d="M40.9961 20.9823V19.2257H36.7518V16.6771C36.7518 16.1491 36.3253 15.7227 35.7973 15.7227H31.8068C31.2788 15.7227 30.8524 16.1491 30.8524 16.6771V19.2359H26.6081V20.9925H14.7078V48.3267H52.9065V20.9823H40.9859H40.9961Z" stroke="#263357" stroke-linecap="round" stroke-linejoin="round"/>
<path d="M40.9961 20.7988V23.2561H26.6284V20.7988" stroke="#263357" stroke-linecap="round" stroke-linejoin="round"/>
<path d="M31.0454 19.2266H36.5793" stroke="#263357" stroke-linecap="round" stroke-linejoin="round"/>
</g>
<defs>
<clipPath id="clip0_4054_29143">
<rect width="39.2142" height="33.6092" fill="white" transform="translate(14.2 15.2148)"/>
</clipPath>
</defs>
</svg>
