<svg width="102" height="100" viewBox="0 0 102 100" fill="none" xmlns="http://www.w3.org/2000/svg">
<g id="Icons" clip-path="url(#clip0_1197_17199)">
<path id="Vector" d="M57 92C54.51 92 52.5 89.99 52.5 87.5C52.5 85.01 54.51 83 57 83H100.5V78H56C50.75 78 46.5 82.25 46.5 87.5C46.5 92.75 50.75 97 56 97H100.5V92H57Z" fill="#FD7C7C"/>
<path id="Vector_2" d="M52 72C49.51 72 47.5 69.99 47.5 67.5C47.5 65.01 49.51 63 52 63H100.5V58H51C45.75 58 41.5 62.25 41.5 67.5C41.5 72.75 45.75 77 51 77H100.5V72H52Z" fill="#76CFF9"/>
<path id="Vector_3" d="M100 99H56C49.66 99 44.5 93.84 44.5 87.5C44.5 81.16 49.66 76 56 76H100C100.83 76 101.5 76.67 101.5 77.5C101.5 78.33 100.83 79 100 79H56C51.31 79 47.5 82.81 47.5 87.5C47.5 92.19 51.31 96 56 96H100C100.83 96 101.5 96.67 101.5 97.5C101.5 98.33 100.83 99 100 99Z" fill="#2A3136"/>
<path id="Vector_4" d="M56 79H51C44.66 79 39.5 73.84 39.5 67.5C39.5 61.16 44.66 56 51 56H100C100.83 56 101.5 56.67 101.5 57.5C101.5 58.33 100.83 59 100 59H51C46.31 59 42.5 62.81 42.5 67.5C42.5 72.19 46.31 76 51 76H56C56.83 76 57.5 76.67 57.5 77.5C57.5 78.33 56.83 79 56 79Z" fill="#2A3136"/>
<path id="Vector_5" d="M68 22.5H24C23.17 22.5 22.5 21.83 22.5 21C22.5 20.17 23.17 19.5 24 19.5H68C68.83 19.5 69.5 20.17 69.5 21C69.5 21.83 68.83 22.5 68 22.5Z" fill="#2A3136"/>
<path id="Vector_6" d="M68 32.5H24C23.17 32.5 22.5 31.83 22.5 31C22.5 30.17 23.17 29.5 24 29.5H68C68.83 29.5 69.5 30.17 69.5 31C69.5 31.83 68.83 32.5 68 32.5Z" fill="#2A3136"/>
<path id="Vector_7" d="M68 42.5H24C23.17 42.5 22.5 41.83 22.5 41C22.5 40.17 23.17 39.5 24 39.5H68C68.83 39.5 69.5 40.17 69.5 41C69.5 41.83 68.83 42.5 68 42.5Z" fill="#2A3136"/>
<g id="Group">
<path id="Vector_8" d="M18 22.5H15C14.17 22.5 13.5 21.83 13.5 21C13.5 20.17 14.17 19.5 15 19.5H18C18.83 19.5 19.5 20.17 19.5 21C19.5 21.83 18.83 22.5 18 22.5Z" fill="#2A3136"/>
<path id="Vector_9" d="M18 32.5H15C14.17 32.5 13.5 31.83 13.5 31C13.5 30.17 14.17 29.5 15 29.5H18C18.83 29.5 19.5 30.17 19.5 31C19.5 31.83 18.83 32.5 18 32.5Z" fill="#2A3136"/>
<path id="Vector_10" d="M18 42.5H15C14.17 42.5 13.5 41.83 13.5 41C13.5 40.17 14.17 39.5 15 39.5H18C18.83 39.5 19.5 40.17 19.5 41C19.5 41.83 18.83 42.5 18 42.5Z" fill="#2A3136"/>
</g>
<path id="Vector_11" d="M80 0H2C1.17 0 0.5 0.67 0.5 1.5V98.23C0.5 98.95 1.08 99.53 1.8 99.53H35.75C36.58 99.53 37.25 98.86 37.25 98.03C37.25 97.2 36.58 96.53 35.75 96.53H3.5V3H78.5V41.5C78.5 42.33 79.17 43 80 43C80.83 43 81.5 42.33 81.5 41.5V1.5C81.5 0.67 80.83 0 80 0Z" fill="#2A3136"/>
</g>
<defs>
<clipPath id="clip0_1197_17199">
<rect width="101" height="99.53" fill="white" transform="translate(0.5)"/>
</clipPath>
</defs>
</svg>
