<svg width="120" height="120" viewBox="0 0 120 120" fill="none" xmlns="http://www.w3.org/2000/svg">
<path d="M44.0019 113.831C45.3765 112.457 44.3729 109.224 41.7603 106.612C39.1477 103.999 35.9154 102.996 34.5408 104.37C33.1661 105.745 34.1697 108.977 36.7823 111.59C39.3949 114.203 42.6272 115.206 44.0019 113.831Z" fill="#76CFF9"/>
<path fill-rule="evenodd" clip-rule="evenodd" d="M13.5303 26.6201C13.5303 25.7917 14.2018 25.1201 15.0303 25.1201H24.8503C27.4432 25.1201 30.0366 25.4862 32.18 26.6038C34.3912 27.7567 36.0425 29.6717 36.7108 32.5284C36.7158 32.5498 36.7204 32.5713 36.7244 32.5929L46.0045 81.9501H100.919L109.813 37.2101H43.2603C42.4318 37.2101 41.7603 36.5385 41.7603 35.7101C41.7603 34.8817 42.4318 34.2101 43.2603 34.2101H111.64C112.089 34.2101 112.515 34.4113 112.8 34.7585C113.085 35.1056 113.199 35.5621 113.111 36.0026L103.621 83.7426C103.482 84.4445 102.866 84.9501 102.15 84.9501H44.7603C44.0387 84.9501 43.4194 84.4364 43.2861 83.7273L33.7825 33.1811C33.3169 31.226 32.2518 30.0245 30.793 29.2639C29.259 28.4641 27.2174 28.1201 24.8503 28.1201H15.0303C14.2018 28.1201 13.5303 27.4485 13.5303 26.6201Z" fill="#2A3136"/>
<path fill-rule="evenodd" clip-rule="evenodd" d="M92.5703 95.2402C92.5703 94.4118 93.2419 93.7402 94.0703 93.7402H106.12C106.949 93.7402 107.62 94.4118 107.62 95.2402C107.62 96.0687 106.949 96.7402 106.12 96.7402H94.0703C93.2419 96.7402 92.5703 96.0687 92.5703 95.2402Z" fill="#2A3136"/>
<path fill-rule="evenodd" clip-rule="evenodd" d="M45.5066 82.1329C46.2283 82.5397 46.4836 83.4545 46.0769 84.1762L40.6873 93.7397H85.4501C86.2785 93.7397 86.9501 94.4113 86.9501 95.2397C86.9501 96.0681 86.2785 96.7397 85.4501 96.7397H38.1201C37.587 96.7397 37.094 96.4568 36.825 95.9965C36.556 95.5362 36.5516 94.9677 36.8133 94.5033L43.4633 82.7033C43.8701 81.9816 44.7849 81.7262 45.5066 82.1329Z" fill="#2A3136"/>
<path fill-rule="evenodd" clip-rule="evenodd" d="M37.8398 51.46C37.8398 50.6315 38.5114 49.96 39.3398 49.96H108.27C109.098 49.96 109.77 50.6315 109.77 51.46C109.77 52.2884 109.098 52.96 108.27 52.96H39.3398C38.5114 52.96 37.8398 52.2884 37.8398 51.46Z" fill="#2A3136"/>
<path fill-rule="evenodd" clip-rule="evenodd" d="M40.25 67.1504C40.25 66.322 40.9216 65.6504 41.75 65.6504H97.22C98.0484 65.6504 98.72 66.322 98.72 67.1504C98.72 67.9788 98.0484 68.6504 97.22 68.6504H41.75C40.9216 68.6504 40.25 67.9788 40.25 67.1504Z" fill="#2A3136"/>
<path fill-rule="evenodd" clip-rule="evenodd" d="M60.3013 34.205C61.1271 34.1394 61.8497 34.7557 61.9153 35.5816L65.7053 83.3216C65.7709 84.1474 65.1545 84.87 64.3287 84.9356C63.5029 85.0011 62.7803 84.3848 62.7147 83.559L58.9247 35.819C58.8591 34.9932 59.4755 34.2705 60.3013 34.205Z" fill="#2A3136"/>
<path fill-rule="evenodd" clip-rule="evenodd" d="M87.6773 35.2555C88.5027 35.3257 89.115 36.0517 89.0448 36.8772L85.0748 83.5672C85.0046 84.3926 84.2785 85.0049 83.4531 84.9347C82.6276 84.8645 82.0154 84.1385 82.0856 83.313L86.0556 36.623C86.1257 35.7976 86.8518 35.1853 87.6773 35.2555Z" fill="#2A3136"/>
<path fill-rule="evenodd" clip-rule="evenodd" d="M40.8697 102.05C38.1414 102.05 35.9297 104.262 35.9297 106.99C35.9297 109.718 38.1414 111.93 40.8697 111.93C43.598 111.93 45.8097 109.718 45.8097 106.99C45.8097 104.262 43.598 102.05 40.8697 102.05ZM32.9297 106.99C32.9297 102.605 36.4845 99.0498 40.8697 99.0498C45.2548 99.0498 48.8097 102.605 48.8097 106.99C48.8097 111.375 45.2548 114.93 40.8697 114.93C36.4845 114.93 32.9297 111.375 32.9297 106.99Z" fill="#2A3136"/>
<path d="M107.295 113.838C108.669 112.464 107.666 109.231 105.053 106.619C102.441 104.006 99.2084 103.003 97.8337 104.377C96.4591 105.752 97.4627 108.984 100.075 111.597C102.688 114.209 105.92 115.213 107.295 113.838Z" fill="#76CFF9"/>
<path fill-rule="evenodd" clip-rule="evenodd" d="M104.16 102.05C101.431 102.05 99.2197 104.262 99.2197 106.99C99.2197 109.718 101.431 111.93 104.16 111.93C106.888 111.93 109.1 109.718 109.1 106.99C109.1 104.262 106.888 102.05 104.16 102.05ZM96.2197 106.99C96.2197 102.605 99.7746 99.0498 104.16 99.0498C108.545 99.0498 112.1 102.605 112.1 106.99C112.1 111.375 108.545 114.93 104.16 114.93C99.7746 114.93 96.2197 111.375 96.2197 106.99Z" fill="#2A3136"/>
<path d="M25.5342 22.0093H12.6721C11.0397 22.0093 9.47906 23.0384 9.10235 24.6424C8.55522 26.9324 10.2773 29 12.4658 29H25.3279C26.9603 29 28.5209 27.9709 28.8977 26.3576C29.4448 24.0675 27.7227 22 25.5342 22V22.0093Z" fill="#76CFF9"/>
<path d="M24.3 31.32H11.96C9.22 31.32 7 29.01 7 26.16C7 23.31 9.23 21 11.96 21H24.3C27.04 21 29.26 23.31 29.26 26.16C29.26 29.01 27.03 31.32 24.3 31.32ZM11.96 23.77C10.75 23.77 9.77 24.85 9.77 26.16C9.77 27.47 10.75 28.55 11.96 28.55H24.3C25.51 28.55 26.49 27.47 26.49 26.16C26.49 24.85 25.51 23.77 24.3 23.77H11.96Z" fill="#2A3136"/>
<circle cx="74" cy="31" r="23.5" fill="#FD7C7C" stroke="#2A3136" stroke-width="3"/>
<path d="M66 30.1075L72.1532 36L82 25" stroke="white" stroke-width="4" stroke-linecap="round" stroke-linejoin="round"/>
</svg>
