<svg width="68" height="68" viewBox="0 0 68 68" fill="none" xmlns="http://www.w3.org/2000/svg">
<path d="M34 67C52.2254 67 67 52.2254 67 34C67 15.7746 52.2254 1 34 1C15.7746 1 1 15.7746 1 34C1 52.2254 15.7746 67 34 67Z" fill="#EFF6FF" stroke="#DFEDFF"/>
<g clip-path="url(#clip0_4054_29174)">
<path d="M37.9498 17.7832H16.5049V46.0921H37.9498V17.7832Z" fill="#FD7C7C"/>
<path d="M46.276 27.4492H25.4504V48.5286H46.276V27.4492Z" fill="#76CFF9"/>
<path d="M16.5049 49.2296V17.5293H43.9V27.2668" stroke="#263357" stroke-linecap="round" stroke-linejoin="round"/>
<path d="M25.095 49.2292V27.2969H52.49V49.2292" stroke="#263357" stroke-linecap="round" stroke-linejoin="round"/>
<path d="M37.9397 17.5293V27.2668" stroke="#263357" stroke-miterlimit="10" stroke-linecap="round"/>
<path d="M46.5603 27.4492V49.2292" stroke="#263357" stroke-miterlimit="10" stroke-linecap="round"/>
<path d="M20.8 14.707H39.6253" stroke="#263357" stroke-linecap="round" stroke-linejoin="round"/>
<path d="M14.7078 51.627H54.1047" stroke="#263357" stroke-linecap="round" stroke-linejoin="round"/>
<path d="M21.785 20.8496H19.5613V23.7638H21.785V20.8496Z" fill="#EFF6FF" stroke="#263357" stroke-linecap="round" stroke-linejoin="round"/>
<path d="M28.4966 35.288V37.5117H31.6138V35.288H28.4966Z" fill="#EFF6FF" stroke="#263357" stroke-linecap="round" stroke-linejoin="round"/>
<path d="M28.4966 39.5829V41.8066H31.6138V39.5829H28.4966Z" fill="#EFF6FF" stroke="#263357" stroke-linecap="round" stroke-linejoin="round"/>
<path d="M28.4863 43.8798V46.1035H31.6036V43.8798H28.4863Z" fill="#EFF6FF" stroke="#263357" stroke-linecap="round" stroke-linejoin="round"/>
<path d="M34.0305 35.288V37.5117H37.1477V35.288H34.0305Z" fill="#EFF6FF" stroke="#263357" stroke-linecap="round" stroke-linejoin="round"/>
<path d="M34.0405 39.5829V41.8066H37.1578V39.5829H34.0405Z" fill="#EFF6FF" stroke="#263357" stroke-linecap="round" stroke-linejoin="round"/>
<path d="M34.0305 43.8681V46.0918H37.1477V43.8681H34.0305Z" fill="#EFF6FF" stroke="#263357" stroke-linecap="round" stroke-linejoin="round"/>
<path d="M39.5745 35.288V37.5117H42.6917V35.288H39.5745Z" fill="#EFF6FF" stroke="#263357" stroke-linecap="round" stroke-linejoin="round"/>
<path d="M28.4863 30.9931V33.2168H31.6036V30.9931H28.4863Z" fill="#EFF6FF" stroke="#263357" stroke-linecap="round" stroke-linejoin="round"/>
<path d="M34.0305 30.9931V33.2168H37.1477V30.9931H34.0305Z" fill="#EFF6FF" stroke="#263357" stroke-linecap="round" stroke-linejoin="round"/>
<path d="M39.5745 30.9931V33.2168H42.6917V30.9931H39.5745Z" fill="#EFF6FF" stroke="#263357" stroke-linecap="round" stroke-linejoin="round"/>
<path d="M39.5745 39.5732V41.7969H42.6917V39.5732H39.5745Z" fill="#EFF6FF" stroke="#263357" stroke-linecap="round" stroke-linejoin="round"/>
<path d="M39.5745 43.8681V46.0918H42.6917V43.8681H39.5745Z" fill="#EFF6FF" stroke="#263357" stroke-linecap="round" stroke-linejoin="round"/>
<path d="M26.2017 20.8496H23.978V23.7638H26.2017V20.8496Z" fill="#EFF6FF" stroke="#263357" stroke-linecap="round" stroke-linejoin="round"/>
<path d="M30.629 20.8496H28.4053V23.7638H30.629V20.8496Z" fill="#EFF6FF" stroke="#263357" stroke-linecap="round" stroke-linejoin="round"/>
<path d="M35.0457 20.8496H32.822V23.7638H35.0457V20.8496Z" fill="#EFF6FF" stroke="#263357" stroke-linecap="round" stroke-linejoin="round"/>
<path d="M21.785 26.5566H19.5613V29.4708H21.785V26.5566Z" fill="#EFF6FF" stroke="#263357" stroke-linecap="round" stroke-linejoin="round"/>
<path d="M21.785 32.252H19.5613V35.1661H21.785V32.252Z" fill="#EFF6FF" stroke="#263357" stroke-linecap="round" stroke-linejoin="round"/>
<path d="M21.785 37.9492H19.5613V40.8634H21.785V37.9492Z" fill="#EFF6FF" stroke="#263357" stroke-linecap="round" stroke-linejoin="round"/>
</g>
<defs>
<clipPath id="clip0_4054_29174">
<rect width="40.4123" height="37.9348" fill="white" transform="translate(14.2 14.1992)"/>
</clipPath>
</defs>
</svg>
