<svg width="100" height="100" viewBox="0 0 100 100" fill="none" xmlns="http://www.w3.org/2000/svg">
<rect width="100" height="100" fill="#F6F6F6"/>
<g opacity="0.2">
<path d="M33.9952 74.1348L30 82.5006H31.8681L34.7577 76.4489L37.6474 82.5006H39.5154L35.5239 74.1348H33.9952Z" fill="#10100A"/>
<path d="M57.3532 74C55.0181 74 53.1282 75.934 53.1282 78.3152C53.1282 80.7001 55.0218 82.6304 57.3532 82.6304C59.6883 82.6304 61.5782 80.6964 61.5782 78.3152C61.5782 75.934 59.6883 74 57.3532 74ZM57.3532 80.9162C55.9485 80.9162 54.8065 79.7536 54.8065 78.3152C54.8065 76.8805 55.9449 75.7142 57.3532 75.7142C58.7615 75.7142 59.8999 76.8768 59.8999 78.3152C59.8999 79.7499 58.7615 80.9162 57.3532 80.9162Z" fill="#2A3136"/>
<path d="M43.6273 77.559L45.0867 80.1377L46.0572 81.8518L47.0278 80.1377L48.4872 77.559V82.5039H50.1692V74.127H48.4872L46.0609 78.4235L43.6273 74.127H41.949V82.5077H43.6273V77.559Z" fill="#2A3136"/>
<path d="M67.4414 80.9125C66.646 80.8902 65.8871 80.5846 65.2924 80.048L65.1683 79.925L64.0117 81.2852C64.0591 81.3411 65.1866 82.6304 67.445 82.6304C69.7035 82.6304 70.7615 81.5199 70.944 80.5697C71.1155 79.8579 70.8856 79.1127 70.3493 78.6282C69.8202 78.1848 69.1963 77.8755 68.5286 77.7227L66.8612 77.2569C65.9309 76.996 65.8725 76.6569 65.9199 76.3886C65.9892 76.0123 66.4635 75.7216 67.445 75.7216C67.9047 75.7291 68.3608 75.8483 68.7694 76.0644C69.0102 76.206 69.2364 76.37 69.4444 76.5563L69.5685 76.6607L70.7032 75.4049C70.3857 75.0658 70.0172 74.7788 69.6159 74.559C68.9446 74.19 68.1966 74 67.4414 74C65.6134 74 64.351 75.0509 64.1868 76.0644C64.0555 76.6905 64.2014 77.3463 64.5845 77.8531C65.0589 78.3897 65.6901 78.7586 66.3796 78.9077L68.047 79.3735C68.8971 79.612 69.1854 79.8728 69.1051 80.3349C69.0577 80.5995 68.5943 80.9088 67.4414 80.9088" fill="#2A3136"/>
<path d="M65.9382 85.6865L64.4241 88.8577H65.1319L66.2265 86.5622L67.321 88.8577H68.0325L66.5183 85.6865H65.9382Z" fill="#2A3136"/>
<path d="M39.0338 85.6338C38.1472 85.6338 37.4321 86.3679 37.4321 87.2697C37.4321 88.1715 38.1509 88.9056 39.0338 88.9056C39.9168 88.9056 40.6356 88.1715 40.6356 87.2697C40.6356 86.3642 39.9204 85.6338 39.0338 85.6338ZM39.0338 88.2535C38.5012 88.2535 38.067 87.8137 38.067 87.266C38.067 86.7182 38.4975 86.2785 39.0338 86.2785C39.5702 86.2785 40.0007 86.7182 40.0007 87.266C40.0007 87.8137 39.5702 88.2535 39.0338 88.2535Z" fill="#2A3136"/>
<path d="M58.4186 85.6338C57.532 85.6338 56.8169 86.3679 56.8169 87.2697C56.8169 88.1752 57.5357 88.9056 58.4186 88.9056C59.3016 88.9056 60.0203 88.1715 60.0203 87.2697C60.0203 86.3642 59.3052 85.6338 58.4186 85.6338ZM58.4186 88.2535C57.8859 88.2535 57.4554 87.8137 57.4554 87.266C57.4554 86.7182 57.8859 86.2822 58.4223 86.2822C58.9549 86.2822 59.3855 86.7219 59.3855 87.2697C59.3855 87.8175 58.9549 88.2572 58.4223 88.2572" fill="#2A3136"/>
<path d="M32.6781 85.9838C32.5686 85.8832 32.4446 85.8087 32.3059 85.7602C32.1454 85.7043 31.9775 85.6783 31.8061 85.682H30.5327V88.8569H31.2186V87.9029H31.7367C31.9046 87.9029 32.0688 87.8806 32.2293 87.8321C32.3752 87.7911 32.5102 87.7166 32.6306 87.6197C32.7437 87.5266 32.8386 87.4073 32.9006 87.2694C32.9699 87.1167 33.0028 86.9527 32.9991 86.785V86.7776C32.9991 86.6248 32.9736 86.472 32.9152 86.3304C32.8641 86.2 32.7839 86.0807 32.6781 85.9838ZM32.3023 86.8036C32.3023 86.9341 32.2548 87.057 32.16 87.1465C32.0505 87.2434 31.9046 87.2955 31.7586 87.2844H31.2186V86.3155H31.7477C31.8936 86.308 32.0359 86.349 32.1527 86.4385C32.2548 86.5279 32.3096 86.6583 32.3023 86.7962V86.8036Z" fill="#2A3136"/>
<path d="M36.3265 87.3665C36.4542 87.1839 36.5199 86.9641 36.5089 86.7367V86.7293C36.5199 86.461 36.425 86.1964 36.2426 86.0026C35.9945 85.7753 35.6698 85.6561 35.3377 85.6784H33.9148V88.8534H34.6007V87.836H35.1371L35.8047 88.8534H36.6038L35.8449 87.7205C36.0346 87.6497 36.2024 87.5268 36.3265 87.3628M35.8157 86.774C35.8193 86.897 35.7719 87.0162 35.6807 87.1019C35.5712 87.1914 35.4326 87.2324 35.2903 87.2249H34.5971V86.3119H35.2757C35.4144 86.3045 35.5566 86.3417 35.6698 86.4237C35.7683 86.5057 35.8193 86.6324 35.812 86.7628V86.774H35.8157Z" fill="#2A3136"/>
<path d="M41.5586 88.8575H42.2445V87.6278H43.7295V86.998H42.2445V86.3124H43.9302V85.6826H41.5622V88.8575H41.5586Z" fill="#2A3136"/>
<path d="M45.5207 87.568H46.9874V86.9457H45.5207V86.301H47.1881V85.6787H44.8457V88.8536H47.21V88.2313H45.5207V87.5643V87.568Z" fill="#2A3136"/>
<path d="M55.2114 85.6826H55.8974V88.8575H55.2114V85.6826Z" fill="#2A3136"/>
<path d="M63.0303 87.6351L61.5709 85.6787H60.9397V88.8536H61.6147V86.8339L63.1215 88.8536H63.7017V85.6787H63.0303V87.6351Z" fill="#2A3136"/>
<path d="M69.4371 88.2278V85.6826H68.7512V88.8575H70.9841V88.2278H69.4335H69.4371Z" fill="#2A3136"/>
<path d="M49.8445 87.0464L49.2133 86.8675C48.8594 86.7707 48.8375 86.6402 48.8557 86.5396C48.8813 86.398 49.06 86.2862 49.4322 86.2862C49.6073 86.2862 49.7788 86.3347 49.9357 86.4167C50.0269 86.4688 50.1108 86.5322 50.1911 86.603L50.2385 86.644L50.6691 86.167C50.5487 86.0366 50.41 85.9285 50.2568 85.8465C50.005 85.7086 49.7204 85.6341 49.4358 85.6378C48.7426 85.6378 48.2647 86.0366 48.2026 86.4204C48.1516 86.6589 48.2099 86.9048 48.3559 87.0986C48.5347 87.2998 48.7755 87.4414 49.0382 87.501L49.6694 87.6799C49.9941 87.7693 50.0999 87.87 50.0707 88.0451C50.0525 88.1457 49.8773 88.2612 49.4395 88.2612C49.1367 88.2538 48.8484 88.1383 48.6222 87.9333L48.5748 87.8886L48.137 88.4028C48.4836 88.7494 48.9542 88.932 49.4395 88.9134C50.3079 88.9134 50.6982 88.4923 50.7676 88.1308C50.8332 87.8625 50.7457 87.5793 50.5414 87.393C50.3407 87.2253 50.1035 87.106 49.8518 87.0501" fill="#2A3136"/>
<path d="M53.3545 87.0464L52.7233 86.8675C52.3694 86.7707 52.3475 86.6402 52.3657 86.5396C52.3913 86.398 52.5701 86.2862 52.9422 86.2862C53.1173 86.2862 53.2888 86.3347 53.4457 86.4167C53.5369 86.4688 53.6208 86.5322 53.7011 86.603L53.7485 86.644L54.1791 86.167C54.0587 86.0366 53.92 85.9285 53.7668 85.8465C53.515 85.7086 53.2304 85.6341 52.9459 85.6378C52.2526 85.6378 51.7747 86.0366 51.7126 86.4204C51.6616 86.6589 51.7199 86.9048 51.8659 87.0986C52.0447 87.2998 52.2855 87.4414 52.5482 87.501L53.1794 87.6799C53.5041 87.7693 53.6099 87.87 53.5807 88.0451C53.5625 88.1457 53.3873 88.2612 52.9495 88.2612C52.6467 88.2538 52.3584 88.1383 52.1322 87.9333L52.0848 87.8886L51.647 88.4028C51.9936 88.7494 52.4642 88.932 52.9495 88.9134C53.8179 88.9134 54.2083 88.4923 54.2776 88.1308C54.3433 87.8625 54.2557 87.5793 54.0514 87.393C53.8507 87.2253 53.6135 87.106 53.3618 87.0501" fill="#2A3136"/>
</g>
<g clip-path="url(#clip0_967_85330)">
<path d="M25.6682 62.3302C24.6383 62.6145 23.5609 62.0103 23.2768 60.9795L12.2548 21.3602C11.9707 20.3176 12.5745 19.2513 13.6045 18.9669L52.0452 8.25641C53.0752 7.97206 54.1525 8.57631 54.4366 9.60707L57.4437 20.4242H58.6749L55.5732 9.28718C55.1114 7.61663 53.383 6.6451 51.7137 7.10717L13.2967 17.8177C11.6274 18.2797 10.6566 20.0095 11.1183 21.6801L22.1284 61.2994C22.5665 62.8633 24.1055 63.7993 25.6564 63.5387V62.342L25.6682 62.3302Z" fill="#DDDDDD"/>
<path d="M50.5773 11.5852L16.588 21.0517C15.7711 21.2768 15.2975 22.118 15.5225 22.9355L22.756 48.9535C22.9809 49.771 23.8215 50.2449 24.6384 50.0198L25.6683 49.7355H25.6447L25.6683 49.6288V24.7483C25.6683 22.3668 27.6099 20.4356 29.9777 20.4356H54.6143L52.4478 12.6516C52.2229 11.8341 51.3823 11.3601 50.5654 11.5852H50.5773Z" fill="#DDDDDD"/>
<path d="M25.6683 49.7238V49.6172L25.6328 49.7238H25.6683Z" fill="#DDDDDD"/>
<path d="M69.8746 21.6201H29.9777C28.2493 21.6201 26.8523 23.0182 26.8523 24.748V65.872C26.8523 67.6018 28.2493 68.9998 29.9777 68.9998H69.8746C71.6031 68.9998 73.0001 67.6018 73.0001 65.872V24.748C73.0001 23.0182 71.6031 21.6201 69.8746 21.6201ZM71.8162 65.872C71.8162 66.9501 70.9401 67.815 69.8746 67.815H29.9777C28.9004 67.815 28.0362 66.9383 28.0362 65.872V24.748C28.0362 23.6698 28.9123 22.8049 29.9777 22.8049H69.8746C70.952 22.8049 71.8162 23.6816 71.8162 24.748V65.872Z" fill="#DDDDDD"/>
<path d="M43.3673 43.1957C42.586 41.8332 41.2955 41.8332 40.5142 43.1957L33.3162 55.6715H45.2142L47.8898 51.039L43.3673 43.2076V43.1957Z" fill="#DDDDDD"/>
<path fill-rule="evenodd" clip-rule="evenodd" d="M32.2862 25.6133H67.566C68.4065 25.6133 69.0932 26.3005 69.0932 27.1417V54.143C69.0932 54.9842 68.4065 55.6714 67.566 55.6714H32.2862C31.4457 55.6714 30.759 54.9842 30.759 54.143V27.1417C30.759 26.3005 31.4457 25.6133 32.2862 25.6133ZM47.4518 40.3284C49.1684 40.3284 50.5654 38.9303 50.5654 37.2124C50.5654 35.4944 49.1684 34.0964 47.4518 34.0964C45.7352 34.0964 44.3382 35.4944 44.3382 37.2124C44.3382 38.9303 45.7352 40.3284 47.4518 40.3284ZM33.3162 55.6595H45.2143V55.6477H45.2209L47.8899 51.0265L54.5315 39.5222C55.5497 37.7569 57.2071 37.7569 58.2252 39.5222L67.5358 55.6477H67.5423L58.2251 39.5109C57.207 37.7455 55.5496 37.7455 54.5314 39.5109L47.8898 51.0152L43.3674 43.1837C42.586 41.8212 41.2956 41.8212 40.5142 43.1837L33.3162 55.6595Z" fill="#DDDDDD"/>
<path d="M44.3381 37.2117C44.3381 38.9296 45.7351 40.3277 47.4518 40.3277C49.1684 40.3277 50.5654 38.9296 50.5654 37.2117C50.5654 35.4938 49.1684 34.0957 47.4518 34.0957C45.7351 34.0957 44.3381 35.4938 44.3381 37.2117Z" fill="#DDDDDD"/>
<g clip-path="url(#clip1_967_85330)">
<path d="M50.8396 36.9414H54.8109V34.8896H54.3857H51.2648H50.8396V36.9414Z" fill="#F6F6F6"/>
<path d="M55.653 38.9313C55.6335 38.9098 55.6113 38.8909 55.5974 38.8667C55.5779 38.8318 55.5696 38.7968 55.5613 38.7592C55.3056 38.3209 54.9304 37.9578 54.4802 37.7051H50.1476C49.7057 37.7051 49.2916 37.8153 48.9331 38.0089L48.4245 44.683C48.4106 44.8578 48.2717 44.9923 48.0994 45.0245L48.0104 46.3717C48.0632 46.3959 48.1105 46.4255 48.1494 46.4712C48.2161 46.5492 48.2494 46.6487 48.2383 46.7482L47.9298 50.1498C47.9187 50.2735 47.8465 50.373 47.7436 50.4348L47.7325 50.6042H51.0924C51.3092 50.6042 51.4843 50.7736 51.4843 50.9834C51.4843 51.1931 51.3092 51.3652 51.0924 51.3652H47.6825L47.5324 53.6805C47.5213 53.8257 47.449 53.952 47.3434 54.0408V55.8774C47.3434 55.9822 47.299 56.0764 47.2295 56.1463V56.3775H55.9392V40.1574C55.9392 39.7218 55.8336 39.3104 55.653 38.942V38.9313ZM51.1425 40.4963C51.1091 40.6119 50.7923 41.6337 49.764 42.5399C49.6918 42.6044 49.5973 42.6394 49.5 42.6394C49.3889 42.6394 49.2833 42.5937 49.211 42.5157C49.1415 42.4404 49.1026 42.3436 49.1082 42.2414C49.1137 42.1392 49.1582 42.0451 49.236 41.9779C50.1142 41.2035 50.381 40.3053 50.3838 40.2973C50.431 40.1332 50.5867 40.0176 50.7645 40.0176C50.8006 40.0176 50.834 40.023 50.8673 40.0311C51.0758 40.0875 51.2008 40.2946 51.1425 40.4963Z" fill="#DDDDDD"/>
<path d="M58.0264 54.8722V40.1445C58.0264 38.7973 56.8925 37.7002 55.5002 37.7002H54.4802C54.9304 37.953 55.3028 38.316 55.5613 38.7543C55.5474 38.6951 55.5446 38.6333 55.5613 38.5741C55.6085 38.4128 55.7642 38.2998 55.9393 38.2998C55.9754 38.2998 56.0143 38.3052 56.0504 38.316C56.8869 38.5499 57.4705 39.3028 57.4705 40.1445V42.6614C57.4705 42.8712 57.2955 43.0432 57.0787 43.0432C56.8619 43.0432 56.6841 42.8712 56.6841 42.6614V40.1445C56.6841 39.639 56.3339 39.1872 55.8309 39.0447C55.7586 39.0232 55.7003 38.9802 55.653 38.9291C55.8364 39.2975 55.9393 39.7089 55.9393 40.1445V56.3646H58.4182V55.2513C58.2014 55.2513 58.0264 55.0819 58.0264 54.8695V54.8722ZM57.4705 44.9014C57.4705 45.1111 57.2955 45.2805 57.0787 45.2805C56.8619 45.2805 56.6841 45.1111 56.6841 44.9014V44.0113C56.6841 43.8015 56.8591 43.6295 57.0787 43.6295C57.2982 43.6295 57.4705 43.7989 57.4705 44.0113V44.9014Z" fill="#F6F6F6"/>
<path d="M51.6565 34.129H53.0349V33.4756H51.8927H51.6565V34.129Z" fill="#F6F6F6"/>
<path d="M52.8265 31.9668H52.2874V32.717H52.8265V31.9668Z" fill="#F6F6F6"/>
<path d="M53.9937 34.129V33.4756H53.7575H53.0349V34.129H53.9937Z" fill="#F6F6F6"/>
<path d="M53.3629 31.9668H52.8237V32.717H53.3629V31.9668Z" fill="#F6F6F6"/>
<path d="M51.7982 30.9742H55.2054C55.6751 30.9742 56.1336 31.0575 56.5727 31.2189L57.4454 31.5442C57.5176 31.5711 57.5899 31.5819 57.6621 31.5819C57.7316 31.5819 57.7955 31.5657 57.8595 31.5442C57.8595 31.5362 57.8595 31.5308 57.8539 31.5227C57.8317 31.4743 57.79 31.434 57.7372 31.4152L56.8645 31.0898C56.3337 30.8908 55.7751 30.7913 55.2054 30.7913H51.7982C51.5064 30.7913 51.2313 30.6837 51.0229 30.4901L50.7533 30.2401C50.7144 30.2024 50.6616 30.1836 50.606 30.1836C50.5476 30.1836 50.4948 30.2051 50.4559 30.2454C50.417 30.2858 50.3948 30.3369 50.3948 30.3906L50.4559 30.4471C50.8172 30.7832 51.2924 30.9688 51.7954 30.9688L51.7982 30.9742Z" fill="#F6F6F6"/>
<path d="M51.7982 31.2064H55.2054C55.7223 31.2064 56.2309 31.2978 56.7117 31.4779L57.5843 31.8033C57.6093 31.8114 57.6343 31.8168 57.6594 31.8168C57.7455 31.8168 57.8261 31.763 57.8567 31.685C57.8734 31.642 57.8734 31.5936 57.8567 31.5505C57.7928 31.5721 57.7261 31.5882 57.6594 31.5882C57.5871 31.5882 57.5148 31.5747 57.4426 31.5505L56.57 31.2252C56.1309 31.0611 55.6723 30.9805 55.2026 30.9805H51.7954C51.2924 30.9805 50.8172 30.7949 50.4559 30.4588L50.3948 30.4023C50.3948 30.4561 50.4198 30.5045 50.4587 30.5422L50.7283 30.7922C51.0173 31.0611 51.3953 31.209 51.7954 31.209L51.7982 31.2064Z" fill="#F6F6F6"/>
<path d="M50.0531 37.0441V36.9473C49.6835 36.958 49.3305 37.0279 48.9998 37.1463L48.9915 37.2511C49.3222 37.1274 49.6807 37.0548 50.0531 37.0441Z" fill="#F6F6F6"/>
<path d="M58.7126 40.1464V54.8741C58.7126 55.0301 58.582 55.1592 58.4181 55.1592C58.2541 55.1592 58.1235 55.0328 58.1235 54.8741V40.1464C58.1235 38.7455 56.9451 37.608 55.4972 37.608H55.4611C55.3916 37.6672 55.3027 37.7048 55.2026 37.7048H55.4972C56.8896 37.7048 58.0234 38.8019 58.0234 40.1491V54.8768C58.0234 55.0866 58.1985 55.256 58.4153 55.2587C58.6321 55.2587 58.8071 55.0892 58.8071 54.8768V40.1491C58.8071 38.4147 57.3731 37.0003 55.5917 36.9492V37.046C57.3175 37.0971 58.7071 38.4658 58.7071 40.1491L58.7126 40.1464Z" fill="#F6F6F6"/>
<path d="M50.4448 37.7023C50.3448 37.7023 50.2559 37.6646 50.1864 37.6055H50.1503C49.7139 37.6055 49.3054 37.7103 48.9441 37.8932L48.9358 38.0061C49.2971 37.8125 49.7112 37.7023 50.1503 37.7023H50.4476H50.4448Z" fill="#F6F6F6"/>
<path d="M50.1864 37.6086C50.1059 37.5387 50.053 37.4392 50.053 37.3236V37.0439C49.6806 37.0547 49.3221 37.1273 48.9914 37.251L48.9414 37.8937C49.3027 37.7108 49.714 37.6059 50.1475 37.6059H50.1837L50.1864 37.6086Z" fill="#F6F6F6"/>
<path d="M58.1264 40.1471V54.8747C58.1264 55.0307 58.257 55.1598 58.421 55.1598C58.585 55.1598 58.7156 55.0334 58.7156 54.8747V40.1471C58.7156 38.4664 57.326 37.095 55.6002 37.0439V37.3236C55.6002 37.4365 55.5474 37.5387 55.4668 37.6086H55.5029C56.9508 37.6086 58.1292 38.7488 58.1292 40.1471H58.1264Z" fill="#F6F6F6"/>
<path d="M55.6529 38.931C55.7001 38.9848 55.7585 39.0278 55.8307 39.0466C56.3338 39.1891 56.6839 39.6409 56.6839 40.1464V42.6633C56.6839 42.8731 56.859 43.0452 57.0786 43.0452C57.2981 43.0452 57.4704 42.8731 57.4704 42.6633V40.1464C57.4704 39.3048 56.8868 38.5518 56.0503 38.3179C56.0142 38.3071 55.978 38.3018 55.9391 38.3018C55.7668 38.3018 55.6112 38.4147 55.5612 38.576C55.5417 38.6352 55.5445 38.697 55.5612 38.7562C55.5695 38.7938 55.5778 38.8315 55.5973 38.8638C55.6112 38.8906 55.6334 38.9068 55.6529 38.9283V38.931ZM55.6584 38.6029C55.7029 38.4523 55.8669 38.3663 56.0225 38.4093C56.8173 38.6325 57.3704 39.3478 57.3704 40.1464V42.6633C57.3704 42.8193 57.2398 42.9484 57.0758 42.9484C56.9118 42.9484 56.7812 42.822 56.7812 42.6633V40.1464C56.7812 39.5979 56.4005 39.1085 55.8558 38.9552C55.7001 38.9122 55.6112 38.7535 55.6557 38.6029H55.6584Z" fill="#F6F6F6"/>
<path d="M55.8587 38.9554C56.4034 39.1087 56.7841 39.5981 56.7841 40.1466V42.6635C56.7841 42.8195 56.9147 42.9486 57.0787 42.9486C57.2427 42.9486 57.3733 42.8222 57.3733 42.6635V40.1466C57.3733 39.348 56.8202 38.6327 56.0254 38.4095C55.8698 38.3665 55.7058 38.4525 55.6613 38.6031C55.6169 38.7537 55.7058 38.9124 55.8614 38.9554H55.8587Z" fill="#F6F6F6"/>
<path d="M57.0758 43.6289C56.859 43.6289 56.6812 43.7983 56.6812 44.0107V44.9008C56.6812 45.1105 56.8562 45.28 57.0758 45.28C57.2953 45.28 57.4676 45.1105 57.4676 44.9008V44.0107C57.4676 43.801 57.2926 43.6289 57.0758 43.6289ZM57.3704 44.9008C57.3704 45.0568 57.2398 45.1858 57.0758 45.1858C56.9118 45.1858 56.7812 45.0595 56.7812 44.9008V44.0107C56.7812 43.8548 56.9118 43.7257 57.0758 43.7257C57.2398 43.7257 57.3704 43.8521 57.3704 44.0107V44.9008Z" fill="#F6F6F6"/>
<path d="M57.0758 43.7256C56.9146 43.7256 56.7812 43.852 56.7812 44.0106V44.9007C56.7812 45.0566 56.9119 45.1857 57.0758 45.1857C57.2398 45.1857 57.3704 45.0593 57.3704 44.9007V44.0106C57.3704 43.8547 57.2398 43.7256 57.0758 43.7256Z" fill="#F6F6F6"/>
<path d="M50.7394 34.793V37.0383H54.9108V34.793H54.644C54.5745 34.8521 54.4856 34.8898 54.3855 34.8898H54.8107V36.9415H50.8366V34.8898H51.2618C51.1618 34.8898 51.0728 34.8521 51.0034 34.793H50.7366H50.7394Z" fill="#F6F6F6"/>
<path d="M50.0529 37.3234C50.0529 37.4364 50.1057 37.5386 50.1863 37.6085C50.2558 37.6676 50.3447 37.7053 50.4448 37.7053H55.2054C55.3054 37.7053 55.3944 37.6676 55.4638 37.6085C55.5444 37.5386 55.5972 37.4391 55.5972 37.3234V34.6721C55.5972 34.3736 55.3443 34.1289 55.0359 34.1289H54.7774V34.2257H55.0359C55.2888 34.2257 55.4972 34.4247 55.4972 34.6721V37.3234C55.4972 37.4794 55.3666 37.6085 55.2026 37.6085H50.442C50.2808 37.6085 50.1474 37.4821 50.1474 37.3234V34.6721C50.1474 34.4274 50.3531 34.2257 50.6087 34.2257H50.8672V34.1289H50.6087C50.3003 34.1289 50.0474 34.3736 50.0474 34.6721V37.3234H50.0529Z" fill="#F6F6F6"/>
<path d="M54.6441 34.7927H54.9109V37.038H50.7395V34.7927H51.0063C50.9257 34.7228 50.8729 34.6233 50.8729 34.5077V34.2227H50.6144C50.3615 34.2227 50.1531 34.4216 50.1531 34.669V37.3204C50.1531 37.4764 50.2837 37.6054 50.4477 37.6054H55.2083C55.3695 37.6054 55.5029 37.479 55.5029 37.3204V34.669C55.5029 34.4243 55.2972 34.2227 55.0415 34.2227H54.7831V34.5077C54.7831 34.6206 54.7303 34.7228 54.6497 34.7927H54.6441Z" fill="#F6F6F6"/>
<path d="M51.5564 34.2252H54.0909V33.3809H54.0131C53.9436 33.44 53.8547 33.4777 53.7547 33.4777H53.9909V34.1311H51.6564V33.4777H51.8927C51.7926 33.4777 51.7037 33.44 51.6342 33.3809H51.5564V34.2252Z" fill="#F6F6F6"/>
<path d="M50.8701 34.5084C50.8701 34.6213 50.9229 34.7235 51.0035 34.7934C51.0729 34.8526 51.1619 34.8902 51.2619 34.8902H54.3829C54.4829 34.8902 54.5718 34.8526 54.6413 34.7934C54.7219 34.7235 54.7747 34.624 54.7747 34.5084V33.258C54.7747 32.9595 54.5246 32.7148 54.2133 32.7148H54.1438V32.8116H54.2133C54.469 32.8116 54.6747 33.0133 54.6747 33.258V34.5084C54.6747 34.6644 54.544 34.7934 54.3801 34.7934H51.2591C51.0979 34.7934 50.9645 34.6671 50.9645 34.5084V33.258C50.9645 33.0133 51.173 32.8116 51.4259 32.8116H51.4926V32.7148H51.4259C51.1174 32.7148 50.8645 32.9595 50.8645 33.258V34.5084H50.8701Z" fill="#F6F6F6"/>
<path d="M54.1493 33.0966C54.1493 33.2095 54.0965 33.3117 54.0159 33.3816H54.0937V34.2259H51.5592V33.3816H51.637C51.5564 33.3117 51.5036 33.2122 51.5036 33.0966V32.8115H51.4369C51.1812 32.8115 50.9756 33.0132 50.9756 33.2579V34.5083C50.9756 34.6642 51.1062 34.7933 51.2702 34.7933H54.3911C54.5523 34.7933 54.6857 34.6669 54.6857 34.5083V33.2579C54.6857 33.0132 54.48 32.8115 54.2244 32.8115H54.1549V33.0966H54.1493Z" fill="#F6F6F6"/>
<path d="M52.1873 32.8111H53.4629V31.9668H53.3628V32.7143H52.8237H52.2873V31.9668H52.1873V32.8111Z" fill="#F6F6F6"/>
<path d="M51.5009 33.0962C51.5009 33.2091 51.5537 33.3113 51.6343 33.3812C51.7038 33.4404 51.7927 33.478 51.8928 33.478H53.7576C53.8576 33.478 53.9465 33.4404 54.016 33.3812C54.0966 33.3113 54.1494 33.2118 54.1494 33.0962V31.9668H54.0494V33.0962C54.0494 33.2522 53.9187 33.3812 53.7548 33.3812H51.89C51.7288 33.3812 51.5954 33.2549 51.5954 33.0962V31.9561C51.5621 31.9534 51.5287 31.948 51.4954 31.9453V33.0962H51.5009Z" fill="#F6F6F6"/>
<path d="M53.4629 31.9671V32.8141H52.1873V31.9671H51.7982C51.7315 31.9671 51.6648 31.9644 51.5981 31.959V33.0991C51.5981 33.2551 51.7288 33.3842 51.8927 33.3842H53.7575C53.9187 33.3842 54.0521 33.2578 54.0521 33.0991V31.9697H53.4657L53.4629 31.9671Z" fill="#F6F6F6"/>
<path d="M51.7982 31.2997H55.2053C55.7111 31.2997 56.2058 31.3884 56.6783 31.5632L57.5509 31.8885C57.587 31.902 57.6232 31.9074 57.6621 31.9074C57.7899 31.9074 57.9066 31.8294 57.9511 31.7138C57.9817 31.6385 57.9789 31.5578 57.9455 31.4825C57.9122 31.4099 57.8511 31.3534 57.7732 31.3239L56.9006 30.9985C56.3559 30.7968 55.7862 30.6946 55.2053 30.6946H51.7982C51.5341 30.6946 51.284 30.5978 51.0923 30.4204L50.8227 30.1703C50.7643 30.1165 50.6893 30.0869 50.6087 30.0869C50.5226 30.0869 50.4447 30.1192 50.3864 30.1783C50.328 30.2375 50.2974 30.3128 50.3002 30.3935C50.3002 30.4741 50.3364 30.5494 50.3947 30.6059L50.6643 30.856C50.9728 31.141 51.3757 31.2997 51.8009 31.2997H51.7982ZM50.3975 30.3988C50.3975 30.3451 50.4169 30.294 50.4586 30.2536C50.4975 30.2133 50.5531 30.1918 50.6087 30.1918C50.6643 30.1918 50.7143 30.2133 50.756 30.2483L51.0256 30.4983C51.234 30.6919 51.5091 30.7995 51.8009 30.7995H55.2081C55.7778 30.7995 56.3364 30.899 56.8673 31.098L57.7399 31.4233C57.7927 31.4422 57.8344 31.4825 57.8566 31.5309C57.8594 31.539 57.8566 31.5444 57.8622 31.5524C57.8761 31.5954 57.8788 31.6438 57.8622 31.6869C57.8316 31.7649 57.751 31.8186 57.6649 31.8186C57.6398 31.8186 57.6148 31.8133 57.5898 31.8052L56.7172 31.4798C56.2336 31.2997 55.7278 31.2082 55.2109 31.2082H51.8037C51.4035 31.2082 51.0256 31.0603 50.7365 30.7914L50.467 30.5414C50.4253 30.5037 50.403 30.4526 50.403 30.4015L50.3975 30.3988Z" fill="#F6F6F6"/>
<path d="M51.7983 31.9671H55.2055C55.6251 31.9671 56.0364 32.0424 56.431 32.1876L57.3037 32.513C57.4176 32.556 57.5371 32.5775 57.6622 32.5775C58.0735 32.5775 58.4459 32.3275 58.5932 31.9591C58.6877 31.7171 58.6821 31.4562 58.5737 31.2196C58.4653 30.9856 58.268 30.8028 58.0207 30.7114L57.1481 30.386C56.5283 30.1547 55.8752 30.0364 55.2055 30.0364H51.7983C51.7121 30.0364 51.6315 30.0042 51.5676 29.9477L51.298 29.6976C51.1118 29.5228 50.8645 29.4287 50.606 29.4287C50.3309 29.4287 50.078 29.5336 49.8862 29.7245C49.5055 30.109 49.5166 30.7194 49.914 31.0905L50.1836 31.3406C50.5477 31.6767 51.0062 31.8865 51.4953 31.9483C51.5287 31.9537 51.562 31.9564 51.5954 31.9591C51.6621 31.9644 51.7288 31.9671 51.7955 31.9671H51.7983ZM50.2559 31.268L49.9863 31.0179C49.6306 30.6872 49.6195 30.1359 49.9613 29.789C50.1308 29.6169 50.3615 29.5228 50.6088 29.5228C50.8423 29.5228 51.0618 29.6089 51.2313 29.7648L51.5009 30.0149C51.5815 30.0902 51.6871 30.1305 51.7983 30.1305H55.2055C55.8585 30.1305 56.5005 30.2462 57.1119 30.472L57.9846 30.7974C58.2097 30.8808 58.3848 31.0421 58.482 31.2545C58.5793 31.467 58.5848 31.7036 58.4987 31.9187C58.3653 32.2522 58.029 32.4754 57.6594 32.4754C57.5482 32.4754 57.4399 32.4565 57.337 32.4162L56.4644 32.0908C56.0614 31.9402 55.6362 31.8649 55.2027 31.8649H51.7955C51.2174 31.8649 50.67 31.6525 50.2531 31.2626L50.2559 31.268Z" fill="#F6F6F6"/>
<path d="M51.7983 31.8704H55.2055C55.639 31.8704 56.0615 31.9457 56.4672 32.0963L57.3398 32.4217C57.4427 32.4593 57.5511 32.4808 57.6622 32.4808C58.0318 32.4808 58.3681 32.2577 58.5015 31.9242C58.5877 31.7091 58.5821 31.4725 58.4848 31.26C58.3876 31.0476 58.2097 30.8863 57.9874 30.8029L57.1147 30.4775C56.5033 30.249 55.8641 30.136 55.2083 30.136H51.8011C51.6899 30.136 51.5843 30.0957 51.5037 30.0204L51.2341 29.7703C51.0646 29.6144 50.8451 29.5283 50.6116 29.5283C50.3643 29.5283 50.1364 29.6224 49.9641 29.7945C49.6223 30.1414 49.6334 30.69 49.9891 31.0234L50.2587 31.2735C50.6755 31.6607 51.223 31.8758 51.8011 31.8758L51.7983 31.8704ZM50.2976 30.3969C50.2976 30.3162 50.3254 30.2409 50.3837 30.1817C50.4421 30.1226 50.5227 30.0903 50.6061 30.0903C50.6894 30.0903 50.7617 30.1199 50.8201 30.1737L51.0896 30.4238C51.2786 30.6012 51.5315 30.698 51.7955 30.698H55.2027C55.7835 30.698 56.3533 30.8002 56.898 31.0019L57.7706 31.3273C57.8484 31.3568 57.9096 31.4133 57.9429 31.4859C57.9763 31.5585 57.979 31.6419 57.9485 31.7172C57.904 31.8328 57.7873 31.9108 57.6594 31.9108C57.6205 31.9108 57.5844 31.9054 57.5483 31.892L56.6756 31.5666C56.2032 31.3918 55.7085 31.3031 55.2027 31.3031H51.7955C51.3703 31.3031 50.9674 31.1471 50.6589 30.8594L50.3893 30.6093C50.3282 30.5528 50.2948 30.4775 50.2948 30.3969H50.2976Z" fill="#F6F6F6"/>
<path d="M50.8645 40.0281C50.8311 40.02 50.795 40.0146 50.7616 40.0146C50.5866 40.0146 50.4281 40.1303 50.3809 40.2943C50.3809 40.3024 50.1113 41.2005 49.2331 41.9749C49.1553 42.0422 49.1109 42.1363 49.1053 42.2385C49.0997 42.3406 49.1359 42.4374 49.2081 42.5127C49.2832 42.5907 49.3888 42.6364 49.4971 42.6364C49.5972 42.6364 49.6917 42.6015 49.7612 42.5369C50.7867 41.6307 51.1063 40.6089 51.1396 40.4933C51.1952 40.2916 51.0729 40.0819 50.8645 40.0281ZM51.0451 40.4691C51.034 40.5121 50.7339 41.5501 49.6972 42.467C49.6417 42.5154 49.5694 42.5423 49.4999 42.5423C49.4193 42.5423 49.3415 42.5127 49.2832 42.4509C49.1748 42.3353 49.1831 42.1551 49.3026 42.0502C50.2058 41.2516 50.4754 40.332 50.4782 40.3239C50.5226 40.1733 50.6838 40.0846 50.8395 40.1249C50.9951 40.1652 51.0868 40.3212 51.0451 40.4718V40.4691Z" fill="#F6F6F6"/>
<path d="M50.8394 40.123C50.6837 40.0827 50.5226 40.1714 50.4781 40.322C50.4781 40.3301 50.2057 41.2497 49.3025 42.0483C49.183 42.1532 49.1747 42.3334 49.2831 42.449C49.3414 42.5108 49.4193 42.5404 49.4998 42.5404C49.5721 42.5404 49.6416 42.5162 49.6972 42.4651C50.7338 41.5509 51.0311 40.5129 51.045 40.4672C51.0867 40.3166 50.995 40.1607 50.8394 40.1203V40.123Z" fill="#F6F6F6"/>
<path d="M51.0953 50.6927C51.2565 50.6927 51.3899 50.8191 51.3899 50.9778C51.3899 51.1364 51.2592 51.2628 51.0953 51.2628H47.6909L47.6853 51.3596H51.0953C51.312 51.3596 51.4871 51.1875 51.4871 50.9778C51.4871 50.768 51.312 50.5986 51.0953 50.5986H47.7353L47.7298 50.6954H51.0953V50.6927Z" fill="#F6F6F6"/>
<path d="M51.3898 50.9784C51.3898 50.8224 51.2592 50.6934 51.0952 50.6934H47.7297L47.6936 51.2607H51.098C51.2592 51.2607 51.3926 51.1344 51.3926 50.9757L51.3898 50.9784Z" fill="#F6F6F6"/>
<path d="M44.4086 54.5439H43.1941V56.3671H44.4086V54.5439Z" fill="#F6F6F6"/>
<path d="M46.3096 46.3695L47.071 36.8127H44.0501C43.8334 36.8127 43.6555 36.6433 43.6555 36.4336H43.1942C43.1942 36.6433 43.0191 36.8127 42.7995 36.8127H41.2988L42.316 52.4654H42.3577C44.4392 52.4197 46.1456 48.3782 46.304 46.3695H46.3096ZM42.3382 37.9367C42.5717 37.9367 42.744 38.0927 42.7579 38.289L43.1719 43.702C43.1803 43.8042 43.1469 43.901 43.0775 43.9789C43.008 44.0569 42.9135 44.1026 42.8079 44.1107C42.8079 44.1107 42.7801 44.1107 42.7773 44.1107C42.5717 44.1107 42.3994 43.9547 42.3855 43.7584L41.9742 38.3455C41.9575 38.1357 42.1214 37.9529 42.3382 37.9367Z" fill="#DDDDDD"/>
<path d="M44.8032 54.162H46.5596V52.4544C46.5596 52.2447 46.7347 52.0753 46.9515 52.0753C47.1682 52.0753 47.3433 52.2447 47.3433 52.4544V54.0329C47.4489 53.9441 47.5212 53.8178 47.5323 53.6726L47.6824 51.3573L47.6879 51.2605L47.7241 50.6931L47.7296 50.5963L47.7407 50.4269C47.6796 50.4646 47.6129 50.4915 47.5351 50.4915C47.5323 50.4915 47.5017 50.4915 47.499 50.4915C47.3933 50.4834 47.2989 50.435 47.2322 50.357C47.1655 50.279 47.1321 50.1795 47.1404 50.08L47.4489 46.6785C47.4656 46.4848 47.6379 46.3316 47.8408 46.3316C47.8436 46.3316 47.8714 46.3316 47.8769 46.3316C47.9214 46.3343 47.9658 46.3504 48.0047 46.3665L48.0937 45.0193C48.0714 45.022 48.052 45.0328 48.027 45.0328H48.0075C47.7824 45.0167 47.6185 44.8338 47.6351 44.6241L48.2299 36.8125H47.0654L46.3039 46.3692C46.1427 48.3752 44.4364 52.4195 42.3576 52.4625H42.3159L42.3937 53.6457C42.3993 53.721 42.466 53.7801 42.5438 53.7801H44.4086C44.6254 53.7801 44.8032 53.9495 44.8032 54.1593V54.162Z" fill="#F6F6F6"/>
<path d="M48.266 35.3066H47.0654V36.0515H48.266V35.3066Z" fill="#F6F6F6"/>
<path d="M46.5597 55.8696V54.1621H44.8033C44.8033 54.3719 44.6282 54.5413 44.4087 54.5413V56.3671H46.7348V56.1869C46.6292 56.1197 46.5569 56.0014 46.5569 55.8696H46.5597Z" fill="#F6F6F6"/>
<path d="M42.5078 54.5383C42.4744 54.5383 42.4411 54.533 42.4077 54.5303V56.3696H42.5078V54.541V54.5383Z" fill="#F6F6F6"/>
<path d="M44.4087 54.5435C44.6255 54.5435 44.8033 54.374 44.8033 54.1643C44.8033 53.9546 44.6282 53.7852 44.4087 53.7852C44.6255 53.7852 44.8005 53.9546 44.8005 54.1643C44.8005 54.374 44.6255 54.5435 44.4087 54.5435Z" fill="#F6F6F6"/>
<path d="M43.1943 54.5439H43.0942V56.3698H43.1943V54.5439Z" fill="#F6F6F6"/>
<path d="M42.5467 54.5437C42.5467 54.5437 42.5217 54.541 42.5078 54.541V56.3695H43.0942V54.5437H42.5467Z" fill="#F6F6F6"/>
<path d="M48.9329 36.7052L48.3271 44.6754C48.316 44.8233 48.1881 44.9389 48.0353 44.9389C48.027 44.9389 48.0214 44.9389 48.0131 44.9389C47.8519 44.9282 47.7296 44.791 47.7435 44.6351L48.3466 36.7186H44.0528C43.8916 36.7186 43.7583 36.5922 43.7583 36.4336C43.7583 36.2749 43.8889 36.1486 44.0528 36.1486H48.2687V36.0518H44.0528C43.8361 36.0518 43.6582 36.2212 43.6582 36.4309C43.6582 36.6406 43.8333 36.8101 44.0528 36.8101H48.2382L47.6434 44.6216C47.6268 44.8314 47.7907 45.0142 48.0158 45.0303H48.0353C48.0575 45.0303 48.0798 45.0223 48.102 45.0169C48.2743 44.9873 48.4133 44.8529 48.4271 44.6754L48.9357 38.0013L48.9441 37.8883L48.9941 37.2457L49.0024 37.1408L49.0552 36.4551C49.0552 36.4551 49.0552 36.4444 49.0552 36.4417C49.0524 36.5438 49.008 36.6353 48.9357 36.6998L48.9329 36.7052Z" fill="#F6F6F6"/>
<path d="M44.0502 36.1484C43.889 36.1484 43.7556 36.2748 43.7556 36.4335C43.7556 36.5921 43.8862 36.7185 44.0502 36.7185H48.3439L47.7409 44.6349C47.7297 44.7909 47.8492 44.928 48.0104 44.9388C48.0188 44.9388 48.0243 44.9388 48.0327 44.9388C48.1855 44.9388 48.3133 44.8259 48.3245 44.6753L48.9303 36.7051C48.8608 36.7723 48.7636 36.8126 48.658 36.8126C48.4412 36.8126 48.2661 36.6432 48.2661 36.4335V36.1484H44.0502Z" fill="#F6F6F6"/>
<path d="M42.5467 54.5436H44.4087C44.6255 54.5436 44.8006 54.3741 44.8006 54.1644C44.8006 53.9547 44.6255 53.7852 44.4087 53.7852H42.5467C42.4689 53.7852 42.4022 53.7261 42.3966 53.6508L42.3188 52.4676L41.3017 36.8149H42.8024C43.0192 36.8149 43.197 36.6455 43.197 36.4358C43.197 36.226 43.0219 36.0566 42.8024 36.0566H41.2739V36.1534H42.8024C42.9636 36.1534 43.097 36.2798 43.097 36.4385C43.097 36.5971 42.9664 36.7235 42.8024 36.7235H41.1961L42.2966 53.6616C42.3077 53.7879 42.4161 53.8874 42.5467 53.8874H44.4087C44.5699 53.8874 44.7033 54.0138 44.7033 54.1725C44.7033 54.3311 44.5727 54.4575 44.4087 54.4575H42.5467C42.1104 54.4575 41.7408 54.1268 41.7102 53.7046L40.6013 36.7101C40.5319 36.6428 40.4874 36.5514 40.4846 36.4492C40.4846 36.4546 40.4846 36.46 40.4846 36.4681L41.6102 53.71C41.6435 54.1348 41.9826 54.4763 42.4078 54.5382C42.4411 54.5436 42.4745 54.5462 42.5078 54.5462C42.5217 54.5462 42.5328 54.5489 42.5467 54.5489V54.5436Z" fill="#F6F6F6"/>
<path d="M40.8763 36.8124C40.7679 36.8124 40.6706 36.7694 40.5984 36.7021L41.7073 53.6966C41.7406 54.1188 42.1074 54.4496 42.5438 54.4496H44.4058C44.567 54.4496 44.7003 54.3232 44.7003 54.1645C44.7003 54.0059 44.5697 53.8795 44.4058 53.8795H42.5438C42.4131 53.8795 42.302 53.78 42.2936 53.6536L41.1931 36.7156H42.7994C42.9606 36.7156 43.094 36.5892 43.094 36.4305C43.094 36.2719 42.9634 36.1455 42.7994 36.1455H41.2709V36.4305C41.2709 36.6403 41.0931 36.8097 40.8763 36.8097V36.8124Z" fill="#F6F6F6"/>
<path d="M42.7801 44.1105C42.7801 44.1105 42.8079 44.1105 42.8106 44.1105C42.9162 44.1024 43.0107 44.0567 43.0802 43.9787C43.1497 43.9007 43.183 43.8039 43.1747 43.7017L42.7606 38.2888C42.7467 38.0925 42.5744 37.9365 42.341 37.9365C42.1242 37.9527 41.963 38.1355 41.9769 38.3453L42.3882 43.7582C42.4021 43.9572 42.5744 44.1105 42.7801 44.1105ZM42.3465 38.0333C42.5077 38.0226 42.6495 38.1382 42.6606 38.2969L43.0747 43.7098C43.0858 43.8658 42.9663 44.0029 42.8023 44.0137C42.794 44.0137 42.7884 44.0137 42.7801 44.0137C42.6272 44.0137 42.4994 43.9007 42.4883 43.7502L42.077 38.3372C42.0658 38.1812 42.1853 38.0441 42.3493 38.0333H42.3465Z" fill="#F6F6F6"/>
<path d="M42.7801 44.0133C42.7801 44.0133 42.794 44.0133 42.8023 44.0133C42.9635 44.0025 43.0858 43.8654 43.0747 43.7094L42.6606 38.2964C42.6495 38.1405 42.5077 38.0221 42.3465 38.0329C42.1854 38.0437 42.0631 38.1808 42.0742 38.3368L42.4855 43.7497C42.4966 43.9003 42.6245 44.0133 42.7773 44.0133H42.7801Z" fill="#F6F6F6"/>
<path d="M40.6013 36.7025C40.6736 36.7697 40.7709 36.8127 40.8793 36.8127C41.096 36.8127 41.2739 36.6433 41.2739 36.4336V35.3096H48.2689V36.4336C48.2689 36.6433 48.444 36.8127 48.6608 36.8127C48.7664 36.8127 48.8636 36.7724 48.9331 36.7052C49.0026 36.6379 49.047 36.5465 49.0526 36.447C49.0526 36.4416 49.0526 36.439 49.0526 36.4336V35.0891C49.0526 34.7906 48.8025 34.5459 48.4912 34.5459H41.046C40.7375 34.5459 40.4846 34.7906 40.4846 35.0891V36.4336C40.4846 36.4336 40.4846 36.439 40.4846 36.4416C40.4846 36.5438 40.5291 36.6353 40.6013 36.7025ZM40.5847 35.0891C40.5847 34.8444 40.7903 34.6427 41.046 34.6427H48.4912C48.7441 34.6427 48.9526 34.8444 48.9526 35.0891V36.4336C48.9526 36.5895 48.8219 36.7186 48.658 36.7186C48.494 36.7186 48.3634 36.5922 48.3634 36.4336V35.2128H41.1711V36.4336C41.1711 36.5895 41.0404 36.7186 40.8765 36.7186C40.7125 36.7186 40.5819 36.5922 40.5819 36.4336V35.0891H40.5847Z" fill="#F6F6F6"/>
<path d="M40.8763 36.7156C41.0375 36.7156 41.1709 36.5892 41.1709 36.4305V35.2097H48.366V36.4305C48.366 36.5865 48.4966 36.7156 48.6606 36.7156C48.8245 36.7156 48.9551 36.5892 48.9551 36.4305V35.086C48.9551 34.8413 48.7495 34.6396 48.4938 34.6396H41.0458C40.7901 34.6396 40.5845 34.8413 40.5845 35.086V36.4305C40.5845 36.5865 40.7151 36.7156 40.8791 36.7156H40.8763Z" fill="#F6F6F6"/>
<path d="M60.7359 56.3672H40.0121C39.7953 56.3672 39.6174 56.5366 39.6174 56.7463C39.6174 56.9561 39.7925 57.1282 40.0121 57.1282H60.7359C60.9526 57.1282 61.1277 56.9588 61.1277 56.7463C61.1277 56.5339 60.9526 56.3672 60.7359 56.3672ZM60.7359 57.0314H40.0121C39.8509 57.0314 39.7175 56.905 39.7175 56.7463C39.7175 56.5877 39.8481 56.4613 40.0121 56.4613H60.7359C60.897 56.4613 61.0304 56.5877 61.0304 56.7463C61.0304 56.905 60.8998 57.0314 60.7359 57.0314Z" fill="#F6F6F6"/>
<path d="M60.7359 56.4639H40.0121C39.8509 56.4639 39.7175 56.5902 39.7175 56.7489C39.7175 56.9076 39.8481 57.0339 40.0121 57.0339H60.7359C60.8971 57.0339 61.0305 56.9076 61.0305 56.7489C61.0305 56.5902 60.8999 56.4639 60.7359 56.4639Z" fill="#F6F6F6"/>
<path d="M38.7031 56.3672H37.7749C37.5581 56.3672 37.3831 56.5366 37.3831 56.7463C37.3831 56.9561 37.5581 57.1282 37.7749 57.1282H38.7004C38.9171 57.1282 39.0922 56.9588 39.0922 56.7463C39.0922 56.5339 38.9171 56.3672 38.7004 56.3672H38.7031ZM38.7031 57.0314H37.7749C37.6137 57.0314 37.4803 56.905 37.4803 56.7463C37.4803 56.5877 37.6109 56.4613 37.7749 56.4613H38.7004C38.8615 56.4613 38.9949 56.5877 38.9949 56.7463C38.9949 56.905 38.8643 57.0314 38.7004 57.0314H38.7031Z" fill="#F6F6F6"/>
<path d="M38.703 56.4639H37.7748C37.6136 56.4639 37.4802 56.5902 37.4802 56.7489C37.4802 56.9076 37.6108 57.0339 37.7748 57.0339H38.7003C38.8614 57.0339 38.9948 56.9076 38.9948 56.7489C38.9948 56.5902 38.8642 56.4639 38.7003 56.4639H38.703Z" fill="#F6F6F6"/>
<path d="M46.9514 52.0752C46.7347 52.0752 46.5596 52.2446 46.5596 52.4543V55.8694C46.5596 56.0011 46.629 56.1195 46.7374 56.1867C46.7986 56.227 46.8736 56.2512 46.9542 56.2512C47.0626 56.2512 47.1626 56.2082 47.2321 56.1383C47.3016 56.0684 47.3461 55.9743 47.3461 55.8694V52.4543C47.3461 52.2446 47.171 52.0752 46.9542 52.0752H46.9514ZM46.9514 56.1544C46.7902 56.1544 46.6568 56.028 46.6568 55.8694V52.4543C46.6568 52.2984 46.7875 52.1693 46.9514 52.1693C47.1154 52.1693 47.246 52.2957 47.246 52.4543V55.8694C47.246 56.0253 47.1154 56.1544 46.9514 56.1544Z" fill="#F6F6F6"/>
<path d="M47.2462 52.454C47.2462 52.298 47.1155 52.1689 46.9516 52.1689C46.7876 52.1689 46.657 52.2953 46.657 52.454V55.869C46.657 56.025 46.7876 56.154 46.9516 56.154C47.1155 56.154 47.2462 56.0277 47.2462 55.869V52.454Z" fill="#F6F6F6"/>
<path d="M47.8465 46.3289C47.6436 46.3289 47.4741 46.4821 47.4546 46.6757L47.1461 50.0773C47.1378 50.1795 47.1683 50.2763 47.2378 50.3543C47.3045 50.4323 47.399 50.4807 47.5046 50.4888C47.5074 50.4888 47.538 50.4888 47.5407 50.4888C47.6186 50.4888 47.6853 50.4619 47.7464 50.4242C47.8465 50.3624 47.9215 50.2629 47.9326 50.1392L48.2411 46.7376C48.2494 46.6354 48.2189 46.5386 48.1522 46.4606C48.1132 46.4176 48.066 46.3853 48.0132 46.3611C47.9715 46.3423 47.9298 46.3289 47.8854 46.3262C47.8826 46.3262 47.8548 46.3262 47.8492 46.3262L47.8465 46.3289ZM48.141 46.7349L47.8326 50.1365C47.8187 50.2925 47.6769 50.4081 47.5157 50.3946C47.3545 50.3812 47.235 50.2441 47.2489 50.0881L47.5574 46.6865C47.5713 46.5305 47.7131 46.4149 47.8742 46.4284C48.0354 46.4418 48.1549 46.5789 48.141 46.7349Z" fill="#F6F6F6"/>
<path d="M47.5547 46.684L47.2462 50.0856C47.2323 50.2416 47.3518 50.3787 47.513 50.3921C47.6742 50.4056 47.8159 50.29 47.8298 50.134L48.1383 46.7324C48.1522 46.5765 48.0327 46.4393 47.8715 46.4259C47.7103 46.4124 47.5686 46.528 47.5547 46.684Z" fill="#F6F6F6"/>
</g>
</g>
<defs>
<clipPath id="clip0_967_85330">
<rect width="62" height="62" fill="white" transform="translate(11 7)"/>
</clipPath>
<clipPath id="clip1_967_85330">
<rect width="23.7447" height="27.7021" fill="white" transform="translate(37.3831 29.4258)"/>
</clipPath>
</defs>
</svg>
