<svg width="116" height="108" viewBox="0 0 116 108" fill="none" xmlns="http://www.w3.org/2000/svg">
<g id="icons" clip-path="url(#clip0_469_14929)">
<path id="Vector" d="M6.71008 24.8099C6.71008 23.2699 7.97008 22.0099 9.51008 22.0099H41.4501C42.2501 22.0099 42.8901 21.3699 42.8901 20.5699C42.8901 19.7699 42.2501 19.1299 41.4501 19.1299H9.51008C6.38008 19.1299 3.83008 21.6699 3.83008 24.8099V87.1899H6.71008V24.8099Z" fill="#2A3136"/>
<path id="Vector_2" d="M59.36 88.6299C59.36 87.8299 58.72 87.1899 57.92 87.1899H1.44C0.64 87.1899 0 87.8299 0 88.6299V89.2799C0 93.4099 3.36 96.7799 7.5 96.7799H57.92C58.72 96.7799 59.36 96.1399 59.36 95.3399C59.36 94.5399 58.72 93.8999 57.92 93.8999H7.5C5.22 93.8999 3.32 92.2399 2.95 90.0699H57.92C58.72 90.0699 59.36 89.4299 59.36 88.6299Z" fill="#2A3136"/>
<path id="Vector_3" d="M66.5004 101.46C67.1704 103.05 68.7504 104.16 70.5804 104.16H108.7C111.14 104.16 113.13 102.18 113.13 99.73V97.45H66.1504V99.48C66.2204 100.18 66.3404 100.85 66.5004 101.47V101.46Z" fill="#76CFF9"/>
<path id="Vector_4" d="M114.56 35.1299C113.76 35.1299 113.12 35.7699 113.12 36.5699V99.7299C113.12 102.18 111.14 104.16 108.69 104.16H70.5698C68.7398 104.16 67.1698 103.05 66.4898 101.46C66.2598 100.93 66.1398 100.34 66.1398 99.7299V49.9099C66.1398 49.1099 65.4998 48.4699 64.6998 48.4699C63.8998 48.4699 63.2598 49.1099 63.2598 49.9099V99.7299C63.2598 103.76 66.5398 107.03 70.5698 107.03H108.69C112.72 107.03 116 103.75 116 99.7299V36.5699C116 35.7699 115.36 35.1299 114.56 35.1299Z" fill="#2A3136"/>
<path id="Vector_5" d="M66.89 36.9001C69.32 37.4901 71.83 37.7901 74.36 37.7901C77.67 37.7901 80.81 37.2901 83.68 36.4001C83.8 36.3401 83.94 36.2901 84.08 36.2701C92.39 33.5401 98.2 27.4301 98.2 20.3401C98.2 10.7201 87.5 2.87012 74.37 2.87012C61.24 2.87012 50.54 10.7001 50.54 20.3201C50.54 25.0401 53.11 29.4701 57.77 32.8001C58.09 33.0301 58.3 33.3801 58.35 33.7601C58.6 35.4201 58.6 37.1001 58.35 38.7501C58.16 40.0501 57.82 41.3301 57.34 42.5601C58.39 42.2301 59.39 41.8201 60.36 41.3201C62.32 40.3001 64.03 38.9701 65.48 37.3401C65.83 36.9401 66.38 36.7701 66.9 36.9001H66.89ZM85.58 17.8601C87.34 17.8601 88.78 19.3001 88.78 21.0601C88.78 22.8201 87.34 24.2601 85.58 24.2601C83.82 24.2601 82.38 22.8201 82.38 21.0601C82.38 19.3001 83.81 17.8601 85.58 17.8601ZM74.65 17.8601C76.41 17.8601 77.85 19.3001 77.85 21.0601C77.85 22.8201 76.41 24.2601 74.65 24.2601C72.89 24.2601 71.45 22.8201 71.45 21.0601C71.45 19.3001 72.88 17.8601 74.65 17.8601ZM63.36 24.2601C61.6 24.2601 60.16 22.8201 60.16 21.0601C60.16 19.3001 61.59 17.8601 63.36 17.8601C65.13 17.8601 66.56 19.3001 66.56 21.0601C66.56 22.8201 65.12 24.2601 63.36 24.2601Z" fill="#FD7C7C"/>
<path id="Vector_6" d="M110.27 21.4999C110.27 25.5899 108.04 29.4499 103.98 32.3399C103.66 32.5699 103.45 32.9199 103.39 33.2999C103.18 34.7799 103.18 36.2699 103.39 37.7399C103.53 38.7799 103.79 39.7999 104.16 40.7899C103.37 40.5299 102.61 40.2099 101.87 39.8199C100.17 38.9399 98.6799 37.7799 97.4199 36.3599C97.0699 35.9699 96.5199 35.7899 95.9999 35.9199C94.1099 36.3799 92.1499 36.6299 90.1899 36.6799C88.4199 37.6699 86.4799 38.4999 84.4199 39.1399C88.2099 39.7699 92.1299 39.6899 95.8499 38.8899C97.2099 40.2899 98.7899 41.4599 100.55 42.3699C102.44 43.3499 104.46 43.9899 106.57 44.2999L106.77 44.3199V44.2999C107.25 44.2999 107.7 44.0599 107.97 43.6499C108.28 43.1799 108.28 42.5899 107.99 42.1099C107.07 40.6199 106.49 39.0099 106.24 37.3199C106.1 36.3199 106.07 35.3099 106.17 34.2999C110.68 30.8999 113.15 26.3699 113.15 21.4999C113.15 11.5399 102.54 3.43994 89.4799 3.43994H89.2399C91.0699 4.37994 92.7399 5.48994 94.2099 6.72994C103.4 8.29994 110.28 14.3199 110.28 21.4999H110.27Z" fill="#2A3136"/>
<path id="Vector_7" d="M84.0699 36.27C83.9299 36.29 83.7999 36.34 83.6699 36.4C83.7999 36.36 83.9299 36.31 84.0699 36.27Z" fill="#2A3136"/>
<path id="Vector_8" d="M74.3604 40.65C77.9104 40.65 81.3104 40.11 84.4104 39.15C86.4704 38.51 88.4104 37.68 90.1804 36.69C96.7804 32.99 101.07 27.03 101.07 20.33C101.07 15.11 98.4704 10.34 94.1904 6.73C92.7204 5.49 91.0504 4.38 89.2204 3.45C84.9704 1.27 79.8504 0 74.3604 0C59.6304 0 47.6504 9.12 47.6504 20.32C47.6504 25.81 50.4604 30.92 55.5704 34.77C55.6904 35.96 55.6804 37.16 55.5004 38.34C55.2104 40.29 54.5304 42.15 53.4804 43.86C53.1804 44.34 53.1904 44.93 53.5004 45.4C53.7704 45.81 54.2204 46.05 54.7004 46.05L54.9004 46.02C57.2904 45.68 59.5704 44.96 61.6804 43.85C63.6904 42.81 65.4904 41.47 67.0404 39.86C69.4304 40.38 71.8804 40.64 74.3504 40.64L74.3604 40.65ZM60.3504 41.32C59.3804 41.82 58.3804 42.23 57.3304 42.56C57.8104 41.33 58.1404 40.06 58.3404 38.75C58.5904 37.1 58.5904 35.42 58.3404 33.76C58.2804 33.38 58.0704 33.03 57.7604 32.8C53.1004 29.46 50.5304 25.03 50.5304 20.32C50.5304 10.7 61.2204 2.87 74.3604 2.87C87.5004 2.87 98.1904 10.72 98.1904 20.34C98.1904 27.42 92.3804 33.54 84.0704 36.27C83.9404 36.31 83.8104 36.36 83.6704 36.4C80.8104 37.29 77.6604 37.79 74.3504 37.79C71.8204 37.79 69.3104 37.49 66.8804 36.9C66.3604 36.78 65.8204 36.94 65.4604 37.34C64.0104 38.97 62.3004 40.3 60.3404 41.32H60.3504Z" fill="#2A3136"/>
<path id="Vector_9" d="M101.62 61.4901C101.62 60.6901 100.98 60.05 100.18 60.05H76.2095C75.4095 60.05 74.7695 60.6901 74.7695 61.4901C74.7695 62.2901 75.4095 62.93 76.2095 62.93H100.18C100.98 62.93 101.62 62.2901 101.62 61.4901Z" fill="#2A3136"/>
<path id="Vector_10" d="M76.2203 68.6001C75.4203 68.6001 74.7803 69.2401 74.7803 70.0401C74.7803 70.8401 75.4203 71.4801 76.2203 71.4801H93.4803C94.2803 71.4801 94.9203 70.8401 94.9203 70.0401C94.9203 69.2401 94.2803 68.6001 93.4803 68.6001H76.2203Z" fill="#2A3136"/>
<path id="Vector_11" d="M31.3701 44.5301C31.3701 45.3101 32.0001 45.9501 32.7901 45.9501H45.0501C45.8301 45.9501 46.4701 45.3201 46.4701 44.5301C46.4701 43.7401 45.8401 43.1101 45.0501 43.1101H32.7901C32.0101 43.1101 31.3701 43.7401 31.3701 44.5301Z" fill="#2A3136"/>
<path id="Vector_12" d="M16.7501 45.9401H22.4101C23.1901 45.9401 23.8301 45.3101 23.8301 44.5201C23.8301 43.7301 23.2001 43.1001 22.4101 43.1001H16.7501C15.9701 43.1001 15.3301 43.7301 15.3301 44.5201C15.3301 45.3101 15.9601 45.9401 16.7501 45.9401Z" fill="#2A3136"/>
<path id="Vector_13" d="M16.7501 54.4301H45.0501C45.8301 54.4301 46.4701 53.8001 46.4701 53.0101C46.4701 52.2201 45.8401 51.5901 45.0501 51.5901H16.7501C15.9701 51.5901 15.3301 52.2201 15.3301 53.0101C15.3301 53.8001 15.9601 54.4301 16.7501 54.4301Z" fill="#2A3136"/>
</g>
<defs>
<clipPath id="clip0_469_14929">
<rect width="116" height="107.03" fill="white"/>
</clipPath>
</defs>
</svg>
