<svg width="121" height="120" viewBox="0 0 121 120" fill="none" xmlns="http://www.w3.org/2000/svg">
<g clip-path="url(#clip0_1277_17821)">
<path d="M81.1802 52.3802C81.1102 52.3802 80.9702 52.3302 80.9102 52.2802L75.6302 47.6602C75.5702 47.6102 75.5002 47.4602 75.4902 47.3802C75.4902 47.2802 75.5202 47.1702 75.6002 47.0902L98.5802 22.3702C98.6402 22.3102 98.7902 22.2402 98.8702 22.2402C98.9702 22.2402 99.0702 22.2802 99.1502 22.3502L104.3 27.1002C104.36 27.1502 104.43 27.3002 104.43 27.3802C104.43 27.4902 104.39 27.6002 104.32 27.6702L81.4702 52.2502C81.4102 52.3102 81.2602 52.3802 81.1802 52.3802Z" fill="#FD7C7C"/>
<path d="M81.1798 52.0798C81.1798 52.0798 81.1298 52.0798 81.1098 52.0598L75.8298 47.4398C75.8298 47.4398 75.7998 47.3998 75.7998 47.3698C75.7998 47.3398 75.7998 47.3198 75.8298 47.2998L98.8098 22.5798C98.8098 22.5798 98.8498 22.5498 98.8798 22.5498C98.9098 22.5498 98.9298 22.5498 98.9498 22.5798L104.1 27.3298C104.1 27.3298 104.13 27.3698 104.13 27.3998C104.13 27.4298 104.13 27.4498 104.1 27.4698L81.2498 52.0598C81.2498 52.0598 81.1998 52.0898 81.1798 52.0898V52.0798Z" fill="#FD7C7C"/>
<path d="M81.1801 52.2796C81.1101 52.2796 81.0401 52.2596 80.9801 52.2096L75.7001 47.5896C75.6401 47.5396 75.6001 47.4596 75.6001 47.3796C75.6001 47.2996 75.6201 47.2196 75.6801 47.1596L98.6601 22.4396C98.7201 22.3796 98.8001 22.3496 98.8801 22.3496C98.9501 22.3496 99.0301 22.3796 99.0901 22.4296L104.24 27.1796C104.3 27.2296 104.33 27.3096 104.34 27.3896C104.34 27.4696 104.31 27.5496 104.26 27.6096L81.4101 52.1996C81.3501 52.2596 81.2701 52.2996 81.1901 52.2996L81.1801 52.2796Z" fill="#FD7C7C"/>
<path d="M98.8799 22.6299L75.8999 47.3599L81.1799 51.9799L104.03 27.3899L98.8799 22.6399V22.6299Z" fill="#FD7C7C"/>
<path d="M105.71 25.9797C105.63 25.9797 105.49 25.9197 105.44 25.8697L100.29 21.1197C100.23 21.0697 100.16 20.9197 100.16 20.8397C100.16 20.7297 100.2 20.6197 100.27 20.5497L103.48 17.0997C103.54 17.0397 103.69 16.9697 103.77 16.9697C103.87 16.9697 103.97 17.0097 104.05 17.0797L109.2 21.8297C109.26 21.8797 109.33 22.0297 109.33 22.1097C109.33 22.2197 109.29 22.3297 109.22 22.3997L106.01 25.8497C105.95 25.9097 105.8 25.9797 105.72 25.9797H105.71Z" fill="#FD7C7C"/>
<path d="M105.71 25.6795C105.71 25.6795 105.66 25.6795 105.64 25.6495L100.49 20.8895C100.49 20.8895 100.46 20.8495 100.46 20.8195C100.46 20.7895 100.46 20.7695 100.49 20.7495L103.7 17.2995C103.7 17.2995 103.75 17.2695 103.77 17.2695C103.79 17.2695 103.82 17.2695 103.84 17.2995L108.99 22.0595C108.99 22.0595 109.02 22.0995 109.02 22.1295C109.02 22.1595 109.02 22.1795 108.99 22.1995L105.78 25.6495C105.78 25.6495 105.73 25.6795 105.71 25.6795Z" fill="#FD7C7C"/>
<path d="M105.71 25.8796C105.64 25.8796 105.56 25.8496 105.51 25.7996L100.36 21.0396C100.3 20.9896 100.27 20.9096 100.26 20.8296C100.26 20.7496 100.29 20.6696 100.34 20.6096L103.55 17.1596C103.61 17.0996 103.69 17.0596 103.77 17.0596C103.84 17.0596 103.92 17.0896 103.97 17.1396L109.12 21.8996C109.18 21.9496 109.21 22.0296 109.22 22.1096C109.22 22.1896 109.19 22.2696 109.14 22.3296L105.93 25.7796C105.87 25.8396 105.79 25.8796 105.71 25.8796Z" fill="#FD7C7C"/>
<path d="M108.92 22.1301L103.77 17.3701L100.56 20.8301L105.71 25.5801L108.92 22.1301Z" fill="#FD7C7C"/>
<path d="M72.1698 58.2C71.7598 58.2 71.3598 58.05 71.0598 57.77C70.6198 57.37 70.4398 56.76 70.5798 56.18L72.9198 46.66C72.9898 46.39 73.1198 46.14 73.3098 45.94L102.5 14.52C102.81 14.19 103.24 14 103.7 14C104.11 14 104.51 14.15 104.81 14.43L111.77 20.86C112.09 21.15 112.28 21.57 112.3 22C112.32 22.44 112.16 22.85 111.86 23.17L82.6698 54.58C82.4898 54.78 82.2498 54.93 81.9898 55.02L72.6898 58.11C72.5198 58.17 72.3498 58.19 72.1798 58.19L72.1698 58.2ZM74.4598 54.08L80.5798 52.04L80.8798 51.7L103.74 27.11C103.8 27.05 103.95 26.98 104.03 26.98C104.13 26.98 104.23 27.02 104.31 27.09L104.84 27.58C105 27.72 105.2 27.8 105.41 27.8C105.64 27.8 105.87 27.7 106.02 27.53C106.17 27.37 106.25 27.15 106.24 26.93C106.24 26.71 106.14 26.5 105.97 26.35L105.44 25.86C105.38 25.81 105.31 25.66 105.31 25.58C105.31 25.47 105.35 25.36 105.42 25.29L108.35 22.13L103.79 17.92L100.85 21.08C100.79 21.14 100.64 21.21 100.56 21.21C100.48 21.21 100.39 21.18 100.33 21.13C100.14 20.96 99.9398 20.88 99.7198 20.88C99.4898 20.88 99.2598 20.98 99.1098 21.15C98.7998 21.49 98.8198 22.01 99.1598 22.32C99.2198 22.37 99.2798 22.52 99.2898 22.6C99.2898 22.71 99.2498 22.82 99.1798 22.89L75.9898 47.84L74.4698 54.06L74.4598 54.08Z" fill="#2A3136"/>
<path d="M72.1698 57.8998C71.8298 57.8998 71.5098 57.7698 71.2598 57.5498C70.8998 57.2198 70.7498 56.7198 70.8698 56.2498L73.2098 46.7298C73.2598 46.5098 73.3798 46.3098 73.5298 46.1398L102.72 14.7198C102.97 14.4498 103.33 14.2998 103.7 14.2998C104.04 14.2998 104.36 14.4198 104.6 14.6498L111.56 21.0798C111.82 21.3198 111.98 21.6598 111.99 22.0098C112 22.3698 111.88 22.7098 111.63 22.9698L82.4398 54.3798C82.2898 54.5398 82.0998 54.6698 81.8798 54.7398L72.5798 57.8298C72.4398 57.8798 72.2998 57.8998 72.1598 57.8998H72.1698ZM99.7198 20.5998C99.3998 20.5998 99.0998 20.7298 98.8898 20.9598C98.4698 21.4198 98.4998 22.1398 98.9498 22.5598C98.9698 22.5798 98.9798 22.5998 98.9798 22.6298C98.9798 22.6598 98.9798 22.6798 98.9498 22.6998L75.6998 47.7098L74.0398 54.5298L80.7598 52.2998L81.1098 51.8998L103.96 27.3098C103.96 27.3098 104.01 27.2798 104.03 27.2798C104.05 27.2798 104.08 27.2798 104.1 27.3098L104.64 27.8098C104.85 27.9998 105.12 28.1098 105.41 28.1098C105.73 28.1098 106.03 27.9798 106.24 27.7498C106.66 27.2898 106.64 26.5698 106.18 26.1498L105.65 25.6598C105.65 25.6598 105.62 25.6198 105.62 25.5898C105.62 25.5598 105.62 25.5398 105.65 25.5198L108.79 22.1398L103.79 17.5198L100.65 20.8998C100.65 20.8998 100.6 20.9298 100.58 20.9298C100.56 20.9298 100.54 20.9298 100.52 20.9098C100.3 20.7098 100.03 20.5998 99.7398 20.5998H99.7198Z" fill="#2A3136"/>
<path d="M72.1701 58.0996C71.7801 58.0996 71.4101 57.9596 71.1301 57.6896C70.7201 57.3096 70.5501 56.7396 70.6801 56.1996L73.0201 46.6796C73.0801 46.4296 73.2101 46.1896 73.3901 45.9996L102.58 14.5896C102.87 14.2796 103.28 14.0996 103.7 14.0996C104.09 14.0996 104.46 14.2396 104.74 14.5096L111.7 20.9396C112 21.2096 112.18 21.5996 112.19 22.0096C112.2 22.4196 112.06 22.8096 111.78 23.1096L82.5901 54.5196C82.4201 54.7096 82.2001 54.8496 81.9501 54.9296L72.6501 58.0196C72.4901 58.0696 72.3301 58.0996 72.1701 58.0996ZM74.3201 54.2296L80.6201 52.1396L103.81 27.1896C103.87 27.1296 103.95 27.0896 104.03 27.0896C104.1 27.0896 104.18 27.1196 104.23 27.1696L104.77 27.6696C104.94 27.8296 105.17 27.9196 105.4 27.9196C105.66 27.9196 105.91 27.8096 106.09 27.6196C106.44 27.2396 106.42 26.6496 106.04 26.2996L105.51 25.8096C105.45 25.7596 105.42 25.6796 105.41 25.5996C105.41 25.5196 105.44 25.4396 105.49 25.3796L108.49 22.1496L103.78 17.7996L100.77 21.0296C100.71 21.0896 100.63 21.1296 100.55 21.1296C100.49 21.1296 100.42 21.1096 100.37 21.0696C100.17 20.8896 99.9501 20.7996 99.7101 20.7996C99.4501 20.7996 99.2001 20.9096 99.0201 21.0996C98.6701 21.4796 98.7001 22.0696 99.0701 22.4196C99.1301 22.4696 99.1601 22.5496 99.1701 22.6296C99.1801 22.7096 99.1401 22.7896 99.0901 22.8496L75.8901 47.8096L74.3101 54.2496L74.3201 54.2296Z" fill="#2A3136"/>
<path d="M111.5 21.1603L104.54 14.7303C104.04 14.2703 103.26 14.3003 102.8 14.8003L73.6098 46.2103C73.4698 46.3603 73.3698 46.5503 73.3198 46.7603L70.9798 56.2803C70.8698 56.7203 71.0098 57.1803 71.3398 57.4803C71.5698 57.6903 71.8698 57.8103 72.1798 57.8103C72.3098 57.8103 72.4398 57.7903 72.5698 57.7503L81.8798 54.6603C82.0798 54.5903 82.2498 54.4803 82.3898 54.3303L111.58 22.9203C111.8 22.6803 111.92 22.3603 111.91 22.0303C111.9 21.7003 111.76 21.3903 111.51 21.1703L111.5 21.1603ZM106.31 27.8203C106.07 28.0803 105.74 28.2203 105.4 28.2203C105.1 28.2203 104.8 28.1103 104.56 27.8903L104.02 27.3903L81.1698 51.9803L80.7798 52.4003L73.8898 54.6903L75.6198 47.6503L75.8898 47.3603L98.8698 22.6403C98.3698 22.1803 98.3398 21.4003 98.7998 20.9003C99.2598 20.4003 100.04 20.3703 100.54 20.8303L103.75 17.3803L108.9 22.1403L105.69 25.5903L106.22 26.0803C106.72 26.5403 106.75 27.3203 106.29 27.8203H106.31Z" fill="#2A3136"/>
<path d="M105.41 28.6096C105 28.6096 104.61 28.4596 104.3 28.1796L98.6099 22.9296C97.9499 22.3196 97.9099 21.2796 98.5199 20.6196C98.8299 20.2896 99.2699 20.0996 99.7199 20.0996C100.13 20.0996 100.52 20.2496 100.83 20.5296L106.52 25.7796C107.18 26.3896 107.22 27.4296 106.61 28.0896C106.3 28.4196 105.86 28.6096 105.41 28.6096Z" fill="#2A3136"/>
<path d="M105.41 28.3104C105.07 28.3104 104.75 28.1804 104.51 27.9604L98.8199 22.7104C98.2799 22.2104 98.2499 21.3604 98.7399 20.8304C98.9899 20.5604 99.3499 20.4004 99.7199 20.4004C100.06 20.4004 100.38 20.5304 100.62 20.7504L106.31 26.0004C106.85 26.5004 106.88 27.3404 106.39 27.8804C106.14 28.1504 105.78 28.3104 105.41 28.3104Z" fill="#2A3136"/>
<path d="M105.41 28.5104C105.02 28.5104 104.65 28.3704 104.37 28.1004L98.6801 22.8504C98.0601 22.2704 98.0201 21.3004 98.5901 20.6804C98.8801 20.3704 99.2901 20.1904 99.7201 20.1904C100.11 20.1904 100.47 20.3304 100.76 20.6004L106.45 25.8504C107.07 26.4204 107.11 27.4004 106.54 28.0204C106.25 28.3304 105.84 28.5104 105.41 28.5104Z" fill="#2A3136"/>
<path d="M105.71 25.5801L100.56 20.8201C100.06 20.3601 99.2801 20.3901 98.8201 20.8901C98.3601 21.3901 98.3901 22.1701 98.8901 22.6301L104.04 27.3801L104.58 27.8801C104.82 28.1001 105.12 28.2101 105.42 28.2101C105.75 28.2101 106.08 28.0801 106.33 27.8101C106.79 27.3101 106.76 26.5301 106.26 26.0701L105.73 25.5801H105.71Z" fill="#2A3136"/>
<path d="M61.72 98.6597C59.7 98.6597 57.7 97.9397 55.76 96.5097C51.78 94.3997 48.31 93.3997 44.86 93.3997H13.95C11.5 93.3997 9.5 91.3997 9.5 88.9497V33.0397C9.5 31.7897 9.5 28.4697 12.78 28.4697C13.68 28.4697 14.41 29.1997 14.41 30.0997C14.41 30.9997 13.71 31.6997 12.84 31.7297C12.81 31.9197 12.77 32.2997 12.77 33.0297V88.9397C12.77 89.5897 13.3 90.1297 13.96 90.1297H44.87C48.9 90.1297 52.9 91.2597 57.44 93.6997C57.51 93.7397 57.58 93.7797 57.65 93.8297C59.07 94.8897 60.4 95.4097 61.73 95.4097C63.06 95.4097 64.39 94.8897 65.81 93.8297C69.04 91.4097 72.73 90.1297 76.48 90.1297H105.34C105.6 90.1297 106.2 90.1297 106.53 90.0897C106.55 89.1997 107.27 88.4897 108.16 88.4897C109.05 88.4897 109.79 89.2197 109.79 90.1197C109.79 93.3997 106.78 93.3997 105.34 93.3997H76.48C73.44 93.3997 70.42 94.4497 67.77 96.4497C65.81 97.9197 63.78 98.6597 61.73 98.6597H61.72Z" fill="#76CFF9"/>
<path d="M61.7198 98.3595C59.7698 98.3595 57.8198 97.6495 55.9398 96.2595C51.8898 94.0995 48.3598 93.0995 44.8598 93.0995H13.9498C11.6598 93.0995 9.7998 91.2395 9.7998 88.9495V33.0395C9.7998 31.7595 9.7998 28.7695 12.7798 28.7695C13.5098 28.7695 14.1098 29.3695 14.1098 30.0995C14.1098 30.8295 13.5098 31.4295 12.7798 31.4295C12.6498 31.4295 12.5998 31.4495 12.5998 31.4495C12.5998 31.4695 12.4698 31.7095 12.4698 33.0295V88.9395C12.4698 89.7595 13.1398 90.4295 13.9598 90.4295H44.8698C48.8498 90.4295 52.7998 91.5495 57.2998 93.9595C57.3598 93.9895 57.4198 94.0295 57.4698 94.0695C58.9398 95.1695 60.3298 95.7095 61.7298 95.7095C63.1298 95.7095 64.5198 95.1695 65.9898 94.0695C69.1598 91.6895 72.7898 90.4295 76.4798 90.4295H105.34C105.78 90.4295 106.56 90.4295 106.81 90.3295C106.81 90.2895 106.82 90.2195 106.82 90.1095C106.82 89.3695 107.42 88.7795 108.15 88.7795C108.88 88.7795 109.48 89.3795 109.48 90.1095C109.48 93.0895 106.78 93.0895 105.33 93.0895H76.4698C73.3598 93.0895 70.2898 94.1595 67.5798 96.1995C65.6698 97.6295 63.6998 98.3495 61.7198 98.3495V98.3595Z" fill="#76CFF9"/>
<path d="M61.7201 98.5603C59.7201 98.5603 57.7401 97.8403 55.8201 96.4303C51.8201 94.3103 48.3301 93.3003 44.8601 93.3003H13.9501C11.5501 93.3003 9.6001 91.3503 9.6001 88.9503V33.0403C9.6001 31.8203 9.6001 28.5703 12.7801 28.5703C13.6201 28.5703 14.3101 29.2603 14.3101 30.1003C14.3101 30.9403 13.6201 31.6303 12.7801 31.6303C12.7801 31.6303 12.7601 31.6303 12.7501 31.6303C12.7201 31.7603 12.6601 32.1203 12.6601 33.0303V88.9403C12.6601 89.6503 13.2401 90.2303 13.9501 90.2303H44.8601C48.8701 90.2303 52.8601 91.3603 57.3901 93.7803C57.4601 93.8103 57.5201 93.8603 57.5901 93.9003C59.0201 94.9803 60.3801 95.5003 61.7301 95.5003C63.0801 95.5003 64.4401 94.9803 65.8701 93.9003C69.0801 91.4903 72.7501 90.2203 76.4801 90.2203H105.34C105.63 90.2203 106.31 90.2203 106.62 90.1703C106.62 90.1503 106.62 90.1303 106.62 90.1103C106.62 89.2603 107.31 88.5803 108.15 88.5803C108.99 88.5803 109.68 89.2703 109.68 90.1103C109.68 93.2903 106.74 93.2903 105.33 93.2903H76.4701C73.4001 93.2903 70.3701 94.3503 67.7001 96.3603C65.7601 97.8203 63.7501 98.5503 61.7201 98.5503V98.5603Z" fill="#76CFF9"/>
<path d="M108.16 88.8899C107.48 88.8899 106.93 89.4399 106.93 90.1199C106.93 90.3099 106.9 90.3899 106.91 90.3999C106.7 90.5299 105.89 90.5299 105.35 90.5299H76.4901C72.8201 90.5299 69.2101 91.7799 66.0601 94.1499C63.1101 96.3599 60.3701 96.3599 57.4201 94.1499C57.3701 94.1099 57.3201 94.0799 57.2601 94.0499C52.7701 91.6499 48.8401 90.5299 44.8701 90.5299H13.9501C13.0801 90.5299 12.3601 89.8199 12.3601 88.9399V33.0399C12.3601 32.0699 12.4301 31.4999 12.5501 31.3699C12.5501 31.3699 12.6101 31.3399 12.7701 31.3399C13.4501 31.3399 14.0001 30.7899 14.0001 30.1099C14.0001 29.4299 13.4501 28.8799 12.7701 28.8799C9.89014 28.8799 9.89014 31.7999 9.89014 33.0499V88.9599C9.89014 91.1899 11.7101 93.0099 13.9401 93.0099H44.8501C48.3701 93.0099 51.9101 94.0199 55.9901 96.1899C57.8601 97.5699 59.7901 98.2699 61.7101 98.2699C63.6301 98.2699 65.6101 97.5599 67.5101 96.1399C70.2401 94.0999 73.3301 93.0099 76.4601 93.0099H105.32C106.74 93.0099 109.37 93.0099 109.37 90.1299C109.37 89.4499 108.82 88.8999 108.14 88.8999L108.16 88.8899Z" fill="#76CFF9"/>
<path d="M61.7299 104.54C58.6699 104.54 55.8299 103.74 53.9199 102.35L53.0999 101.92C49.9199 100.2 47.9999 99.1704 44.4499 99.1704H26.7399C25.8399 99.1704 25.1099 98.4404 25.1099 97.5404C25.1099 96.6404 25.8399 95.9104 26.7399 95.9104H44.4499C48.8299 95.9104 51.2699 97.2304 54.6499 99.0504L55.5799 99.5504C55.6499 99.5904 55.7199 99.6304 55.7899 99.6804C57.1499 100.7 59.3099 101.29 61.7199 101.29C64.1299 101.29 66.2899 100.7 67.6499 99.6804C71.4299 96.8404 73.4799 95.9004 78.1299 95.9004C79.0299 95.9004 79.7599 96.6304 79.7599 97.5304C79.7599 98.4304 79.0299 99.1604 78.1299 99.1604C74.3199 99.1604 72.8899 99.8304 69.6099 102.29C67.6999 103.72 64.8299 104.54 61.7199 104.54H61.7299Z" fill="#2A3136"/>
<path d="M61.7299 104.24C58.7299 104.24 55.9499 103.46 54.0999 102.11L53.2499 101.65C50.0299 99.9102 48.0899 98.8602 44.4599 98.8602H26.7499C26.0099 98.8602 25.4199 98.2602 25.4199 97.5302C25.4199 96.8002 26.0199 96.2002 26.7499 96.2002H44.4599C48.7599 96.2002 51.1799 97.5002 54.5199 99.3102L55.4499 99.8102C55.5099 99.8402 55.5699 99.8802 55.6199 99.9202C57.0299 100.98 59.2599 101.59 61.7299 101.59C64.1999 101.59 66.4299 100.98 67.8399 99.9202C71.5599 97.1302 73.5699 96.2002 78.1399 96.2002C78.8799 96.2002 79.4699 96.8002 79.4699 97.5302C79.4699 98.2602 78.8699 98.8602 78.1399 98.8602C74.2399 98.8602 72.7799 99.5402 69.4399 102.05C67.5799 103.44 64.7699 104.24 61.7299 104.24Z" fill="#2A3136"/>
<path d="M61.73 104.44C58.69 104.44 55.87 103.65 53.98 102.27L53.15 101.83C49.96 100.11 48.03 99.0602 44.45 99.0602H26.74C25.89 99.0602 25.21 98.3702 25.21 97.5302C25.21 96.6902 25.9 96.0002 26.74 96.0002H44.45C48.8 96.0002 51.24 97.3102 54.6 99.1302L55.53 99.6302C55.6 99.6602 55.66 99.7102 55.73 99.7502C57.09 100.77 59.33 101.38 61.72 101.38C64.11 101.38 66.35 100.77 67.71 99.7502C71.47 96.9302 73.51 95.9902 78.13 95.9902C78.98 95.9902 79.66 96.6802 79.66 97.5202C79.66 98.3602 78.97 99.0502 78.13 99.0502C74.29 99.0502 72.85 99.7202 69.55 102.2C67.66 103.62 64.81 104.43 61.72 104.43L61.73 104.44Z" fill="#2A3136"/>
<path d="M78.14 96.2903C73.6 96.2903 71.6 97.2103 67.9 99.9903C64.9 102.24 58.56 102.24 55.56 99.9903C55.51 99.9503 55.46 99.9203 55.4 99.8903L54.47 99.3903C51.14 97.5903 48.73 96.2903 44.46 96.2903H26.75C26.07 96.2903 25.52 96.8403 25.52 97.5203C25.52 98.2003 26.07 98.7503 26.75 98.7503H44.46C48.11 98.7503 50.06 99.8003 53.3 101.55L54.16 102.01C56.09 103.42 58.91 104.12 61.73 104.12C64.55 104.12 67.45 103.4 69.38 101.95C72.75 99.4303 74.21 98.7403 78.14 98.7403C78.82 98.7403 79.37 98.1903 79.37 97.5103C79.37 96.8303 78.82 96.2803 78.14 96.2803V96.2903Z" fill="#2A3136"/>
<path d="M62.9298 92.9104C62.6898 92.9104 62.4398 92.8503 62.2198 92.7504C62.1298 92.7104 53.2298 88.4704 48.7598 88.4704H20.8198C20.6898 88.4704 20.5498 88.4503 20.4198 88.4203C15.3198 87.1504 15.2598 83.0903 15.2598 82.9203V24.6804C15.2598 19.6404 17.6798 18.6104 21.3198 18.6104H53.9098C57.8698 18.6104 61.0798 20.3304 63.7098 23.8704C63.8198 24.0104 63.8198 24.2104 63.7098 24.3504L63.5398 24.5604C63.4098 24.7304 63.2698 24.9004 63.1498 25.0804C63.0298 25.2704 62.9798 25.4904 63.0298 25.7104C63.0698 25.9304 63.1998 26.1204 63.3798 26.2404C63.5198 26.3304 63.6798 26.3804 63.8398 26.3804C63.9098 26.3804 63.9798 26.3704 64.0598 26.3504C64.0898 26.3504 64.1398 26.3404 64.1698 26.3404C64.2298 26.3404 64.3598 26.3804 64.4098 26.4204C64.5098 26.5004 64.5698 26.6204 64.5698 26.7404V88.9804C64.5698 89.0804 64.5198 89.1704 64.4398 89.2304C63.2898 90.0004 62.5698 90.5504 62.4898 90.6104C62.1298 90.8904 62.0598 91.4103 62.3398 91.7803C62.4998 91.9903 62.7398 92.1104 62.9998 92.1104C63.0598 92.1104 63.1298 92.1003 63.2198 92.0704C63.2498 92.0704 63.2998 92.0504 63.3298 92.0504C63.4998 92.0504 63.6598 92.1604 63.7098 92.3304C63.7698 92.5404 63.6598 92.7604 63.4598 92.8304C63.2798 92.8904 63.1098 92.9203 62.9398 92.9203L62.9298 92.9104ZM48.7698 85.2003C52.4198 85.2003 58.0198 87.3403 61.2998 88.7504V26.0404C59.2398 23.1604 56.9598 21.8704 53.9098 21.8704H21.3198C19.0598 21.8704 18.5298 21.8704 18.5298 24.6804V82.9104C18.5298 83.0704 18.6798 84.5704 21.0898 85.2204H48.7798L48.7698 85.2003Z" fill="#2A3136"/>
<path d="M62.9301 92.6102C62.7301 92.6102 62.5301 92.5702 62.3501 92.4802C62.2601 92.4402 53.2901 88.1702 48.7601 88.1702H20.8201C20.7101 88.1702 20.6001 88.1602 20.5001 88.1302C15.6201 86.9102 15.5601 83.0802 15.5601 82.9202V24.6802C15.5601 19.8702 17.7601 18.9102 21.3201 18.9102H53.9101C57.7701 18.9102 60.9001 20.5902 63.4701 24.0502C63.5001 24.0902 63.5001 24.1302 63.4701 24.1702L63.3001 24.3802C63.1601 24.5602 63.0201 24.7302 62.9001 24.9202C62.7301 25.1702 62.6701 25.4702 62.7301 25.7702C62.7901 26.0702 62.9601 26.3202 63.2101 26.4902C63.4001 26.6102 63.6101 26.6802 63.8401 26.6802C63.9301 26.6802 64.0301 26.6702 64.1401 26.6402C64.1401 26.6402 64.1601 26.6402 64.1701 26.6402C64.1901 26.6402 64.2101 26.6402 64.2301 26.6602C64.2501 26.6802 64.2701 26.7102 64.2701 26.7402V88.9802C63.1101 89.7602 62.3901 90.3102 62.3101 90.3702C61.8101 90.7502 61.7201 91.4602 62.1001 91.9602C62.3201 92.2402 62.6401 92.4002 63.0001 92.4002C63.0901 92.4002 63.1801 92.3802 63.3101 92.3502C63.3101 92.3502 63.3301 92.3502 63.3401 92.3502C63.3801 92.3502 63.4201 92.3801 63.4401 92.4202C63.4601 92.4702 63.4301 92.5302 63.3801 92.5402C63.2301 92.5902 63.0901 92.6202 62.9601 92.6202L62.9301 92.6102ZM48.7701 85.5002C52.5101 85.5002 58.3601 87.7902 61.6001 89.2102V25.9402C59.4801 22.9302 57.1001 21.5702 53.9101 21.5702H21.3201C18.9201 21.5702 18.2301 21.7002 18.2301 24.6802V82.9102C18.2301 83.1002 18.3901 84.8002 21.0101 85.5102H48.7801L48.7701 85.5002Z" fill="#2A3136"/>
<path d="M62.9299 92.81C62.6999 92.81 62.4699 92.76 62.2699 92.66C62.1799 92.62 53.2499 88.37 48.7599 88.37H20.8199C20.6899 88.37 20.5699 88.35 20.4499 88.32C15.4199 87.07 15.3599 83.08 15.3599 82.92V24.68C15.3599 19.72 17.7399 18.71 21.3199 18.71H53.9099C57.8399 18.71 61.0199 20.42 63.6299 23.93C63.7099 24.04 63.7099 24.19 63.6299 24.29L63.4599 24.5C63.3199 24.67 63.1899 24.84 63.0699 25.03C62.9299 25.24 62.8799 25.49 62.9299 25.73C62.9799 25.97 63.1199 26.19 63.3299 26.32C63.4799 26.42 63.6599 26.48 63.8499 26.48C63.9299 26.48 64.0099 26.47 64.0999 26.44C64.1299 26.44 64.1499 26.43 64.1799 26.43C64.2499 26.43 64.3099 26.45 64.3599 26.49C64.4299 26.55 64.4799 26.64 64.4799 26.73V88.97C64.4799 89.07 64.4299 89.17 64.3399 89.22C63.2299 89.91 62.5199 90.45 62.4399 90.51C62.0299 90.82 61.9499 91.41 62.2699 91.82C62.4499 92.05 62.7199 92.19 63.0099 92.19C63.0799 92.19 63.1599 92.18 63.2599 92.15C63.2899 92.15 63.3099 92.14 63.3399 92.14C63.4699 92.14 63.5899 92.22 63.6299 92.35C63.6799 92.51 63.5899 92.67 63.4399 92.72C63.2699 92.78 63.1099 92.81 62.9499 92.81H62.9299ZM48.7699 85.3C52.4399 85.3 58.0899 87.48 61.3999 88.9V26.04C59.3199 23.09 56.9999 21.77 53.9099 21.77H21.3199C18.9799 21.77 18.4299 21.88 18.4299 24.68V82.91C18.4299 83.07 18.5799 84.65 21.0599 85.32H48.7699V85.3Z" fill="#2A3136"/>
<path d="M62.0102 92.01C61.6002 91.47 61.7002 90.7 62.2402 90.28C62.3202 90.22 63.0502 89.67 64.1602 88.97V26.73C64.0502 26.76 63.9402 26.78 63.8302 26.78C63.5902 26.78 63.3602 26.71 63.1502 26.57C62.5802 26.19 62.4302 25.43 62.8102 24.86C62.9902 24.59 63.1902 24.35 63.3802 24.1C60.8402 20.69 57.7302 19 53.9002 19H21.3202C17.8302 19 15.6602 19.95 15.6602 24.67V82.91C15.6602 83.07 15.7202 86.83 20.5202 88.02C20.6202 88.04 20.7202 88.06 20.8202 88.06H48.7702C53.3202 88.06 62.3202 92.34 62.4102 92.38C62.5802 92.46 62.7602 92.5 62.9402 92.5C63.0702 92.5 63.2002 92.47 63.3302 92.43C63.2202 92.46 63.1102 92.48 63.0002 92.48C62.6302 92.48 62.2602 92.31 62.0202 92L62.0102 92.01ZM61.7002 89.36C58.7002 88.05 52.5902 85.6 48.7702 85.6H20.9702C18.3002 84.87 18.1302 83.13 18.1202 82.9V24.68C18.1202 21.62 18.8902 21.47 21.3102 21.47H53.9002C57.1202 21.47 59.5402 22.85 61.6902 25.94V89.36H61.7002Z" fill="#2A3136"/>
<path d="M63.5899 92.7099C63.4399 92.7099 63.2999 92.6299 63.2399 92.5099C63.1299 92.3099 63.1899 92.0799 63.3799 91.9799C63.4199 91.9599 63.5399 91.9199 63.5899 91.9199C63.7299 91.9199 63.8599 91.9899 63.9299 92.1099C64.0399 92.2799 63.9999 92.5099 63.8399 92.6299C63.7899 92.6699 63.6599 92.7099 63.5899 92.7099Z" fill="#2A3136"/>
<path d="M63.59 92.4105C63.59 92.4105 63.52 92.4005 63.5 92.3705C63.47 92.3205 63.47 92.2705 63.52 92.2405H63.53C63.55 92.2405 63.56 92.2305 63.58 92.2305C63.61 92.2305 63.65 92.2505 63.66 92.2705C63.69 92.3105 63.68 92.3705 63.64 92.4005C63.62 92.4005 63.6 92.4105 63.58 92.4105H63.59Z" fill="#2A3136"/>
<path d="M63.5501 92.6403C63.4501 92.6403 63.3501 92.5803 63.2901 92.4803C63.2101 92.3403 63.2801 92.1503 63.4201 92.0703C63.4201 92.0703 63.4301 92.0703 63.4401 92.0703C63.4901 92.0503 63.5401 92.0303 63.5801 92.0303C63.6801 92.0303 63.7801 92.0803 63.8301 92.1703C63.9101 92.3003 63.8901 92.4703 63.7601 92.5703C63.7501 92.5703 63.6801 92.6203 63.6701 92.6203C63.6301 92.6403 63.5801 92.6503 63.5401 92.6503L63.5501 92.6403Z" fill="#2A3136"/>
<path d="M63.5898 92.3203C63.5898 92.3203 63.5698 92.3203 63.5698 92.3303C63.5698 92.3303 63.5798 92.3303 63.5898 92.3303V92.3203Z" fill="#2A3136"/>
<path d="M62.9902 92.8901C62.4802 92.8901 62.0002 92.6601 61.6902 92.2501C61.4302 91.9001 61.3102 91.4801 61.3702 91.0401C61.4302 90.6101 61.6502 90.2201 61.9902 89.9601C62.0202 89.9401 62.7702 89.3701 63.9502 88.6301C66.4502 87.0701 70.1502 85.2001 73.6002 85.2001H104.93C107.22 84.5601 107.34 83.0701 107.35 82.9101V31.7501C107.35 30.8501 108.08 30.1201 108.98 30.1201C109.88 30.1201 110.61 30.8501 110.61 31.7501V82.9501C110.61 83.1201 110.55 87.1601 105.48 88.4301C105.35 88.4601 105.22 88.4801 105.08 88.4801H73.6002C69.4002 88.4801 64.2002 92.4001 63.9802 92.5701C63.9202 92.6201 63.8602 92.6501 63.8102 92.6701C63.6602 92.7501 63.5502 92.8101 63.4302 92.8401C63.2602 92.8901 63.1202 92.9101 62.9902 92.9101V92.8901Z" fill="#2A3136"/>
<path d="M62.99 92.5899C62.57 92.5899 62.18 92.3999 61.93 92.0699C61.48 91.4899 61.59 90.6499 62.18 90.1999C62.26 90.1399 62.99 89.5899 64.11 88.8799C66.57 87.3399 70.2199 85.4999 73.5999 85.4999H104.93C107.51 84.7999 107.64 83.1099 107.64 82.9199V31.7499C107.64 31.0099 108.24 30.4199 108.97 30.4199C109.7 30.4199 110.3 31.0199 110.3 31.7499V82.9499C110.3 83.1099 110.24 86.9199 105.4 88.1299C105.3 88.1599 105.19 88.1699 105.08 88.1699H73.5999C69.3099 88.1699 64.02 92.1499 63.8 92.3199C63.76 92.3499 63.7299 92.3699 63.6899 92.3799C63.54 92.4599 63.4499 92.5099 63.3499 92.5399C63.2099 92.5799 63.1 92.5999 62.99 92.5999V92.5899Z" fill="#2A3136"/>
<path d="M62.9902 92.7897C62.5102 92.7897 62.0602 92.5697 61.7702 92.1897C61.2602 91.5197 61.3802 90.5497 62.0502 90.0397C62.1302 89.9797 62.8702 89.4197 64.0002 88.7097C66.4902 87.1497 70.1702 85.2997 73.6002 85.2997H104.93C107.31 84.6397 107.44 83.0897 107.44 82.9097V31.7497C107.44 30.8997 108.13 30.2197 108.97 30.2197C109.81 30.2197 110.5 30.9097 110.5 31.7497V82.9497C110.5 83.1197 110.44 87.0797 105.45 88.3297C105.33 88.3597 105.2 88.3797 105.08 88.3797H73.6002C69.3802 88.3797 64.1402 92.3197 63.9202 92.4897C63.8702 92.5297 63.8102 92.5597 63.7702 92.5697C63.6102 92.6597 63.5102 92.7097 63.4002 92.7397C63.2402 92.7797 63.1102 92.7997 62.9802 92.7997L62.9902 92.7897Z" fill="#2A3136"/>
<path d="M108.98 30.5098C108.3 30.5098 107.75 31.0598 107.75 31.7398V82.9198C107.75 83.1198 107.6 84.8698 104.93 85.5998H73.5998C70.1398 85.5998 66.3798 87.5798 64.1598 88.9698C63.0498 89.6698 62.3198 90.2198 62.2398 90.2798C61.6998 90.6898 61.5998 91.4698 62.0098 92.0098C62.2498 92.3298 62.6198 92.4898 62.9898 92.4898C63.0998 92.4898 63.2098 92.4698 63.3198 92.4398C63.4098 92.4198 63.4898 92.3698 63.5698 92.3298C63.5698 92.3298 63.5898 92.3298 63.5898 92.3198C63.6398 92.2898 63.6898 92.2798 63.7398 92.2398C63.7898 92.1998 69.2298 88.0698 73.5998 88.0698H105.08C105.18 88.0698 105.28 88.0598 105.38 88.0298C110.15 86.8398 110.2 83.0998 110.2 82.9398V31.7498C110.2 31.0698 109.65 30.5198 108.97 30.5198L108.98 30.5098Z" fill="#2A3136"/>
<path d="M63.84 27.1804C63.52 27.1804 63.2 27.0904 62.93 26.9104C62.57 26.6704 62.32 26.3004 62.23 25.8704C62.14 25.4404 62.23 25.0104 62.47 24.6404C62.6 24.4504 62.74 24.2604 62.89 24.0804L63.06 23.8604C65.64 20.5204 69.47 18.6104 73.56 18.6104H92.53C93.43 18.6104 94.16 19.3404 94.16 20.2404C94.16 21.1404 93.43 21.8704 92.53 21.8704H73.56C70.23 21.8704 67.1 23.5804 65.19 26.4504C64.98 26.7704 64.65 27.0104 64.26 27.1104C64.11 27.1504 63.97 27.1704 63.83 27.1704L63.84 27.1804Z" fill="#2A3136"/>
<path d="M63.8398 26.8802C63.5798 26.8802 63.3198 26.8002 63.0998 26.6602C62.7998 26.4602 62.5998 26.1602 62.5298 25.8102C62.4598 25.4602 62.5298 25.1002 62.7298 24.8102C62.8598 24.6202 62.9998 24.4402 63.1398 24.2602L63.2998 24.0502C65.8198 20.7802 69.5598 18.9102 73.5598 18.9102H92.5298C93.2698 18.9102 93.8598 19.5102 93.8598 20.2402C93.8598 20.9702 93.2598 21.5702 92.5298 21.5702H73.5598C70.1298 21.5702 66.9098 23.3302 64.9398 26.2802C64.7698 26.5402 64.4998 26.7402 64.1798 26.8202C64.0498 26.8502 63.9398 26.8702 63.8298 26.8702L63.8398 26.8802Z" fill="#2A3136"/>
<path d="M63.8402 27.0804C63.5402 27.0804 63.2402 26.9904 62.9902 26.8204C62.6502 26.5904 62.4202 26.2504 62.3402 25.8404C62.2602 25.4404 62.3402 25.0304 62.5702 24.6904C62.7002 24.4904 62.8502 24.3104 62.9902 24.1204L63.1502 23.9104C65.7102 20.6004 69.5102 18.6904 73.5702 18.6904H92.5402C93.3902 18.6904 94.0702 19.3804 94.0702 20.2204C94.0702 21.0604 93.3802 21.7504 92.5402 21.7504H73.5702C70.2102 21.7504 67.0502 23.4804 65.1202 26.3704C64.9202 26.6704 64.6102 26.9004 64.2502 26.9904C64.1102 27.0304 63.9702 27.0504 63.8402 27.0504V27.0804Z" fill="#2A3136"/>
<path d="M63.1599 26.5698C63.3699 26.7098 63.6099 26.7798 63.8399 26.7798C63.9499 26.7798 64.0599 26.7598 64.1699 26.7298C64.4499 26.6498 64.6999 26.4898 64.8699 26.2298C66.8499 23.2498 70.1099 21.4698 73.5699 21.4698H92.5399C93.2199 21.4698 93.7699 20.9198 93.7699 20.2398C93.7699 19.5598 93.2199 19.0098 92.5399 19.0098H73.5699C69.5899 19.0098 65.8599 20.9098 63.3899 24.1098C63.1999 24.3598 62.9899 24.5998 62.8199 24.8698C62.4399 25.4398 62.5999 26.1998 63.1599 26.5798V26.5698Z" fill="#2A3136"/>
<path d="M73.6202 63.8C72.7202 63.8 71.9902 63.07 71.9902 62.17C71.9902 61.27 72.7202 60.54 73.6202 60.54H92.5302C93.4302 60.54 94.1602 61.27 94.1602 62.17C94.1602 63.07 93.4302 63.8 92.5302 63.8H73.6202Z" fill="#2A3136"/>
<path d="M73.62 63.4998C72.88 63.4998 72.29 62.8998 72.29 62.1698C72.29 61.4398 72.89 60.8398 73.62 60.8398H92.53C93.27 60.8398 93.86 61.4398 93.86 62.1698C93.86 62.8998 93.26 63.4998 92.53 63.4998H73.62Z" fill="#2A3136"/>
<path d="M73.6198 63.6996C72.7698 63.6996 72.0898 63.0096 72.0898 62.1696C72.0898 61.3296 72.7798 60.6396 73.6198 60.6396H92.5298C93.3798 60.6396 94.0598 61.3296 94.0598 62.1696C94.0598 63.0096 93.3698 63.6996 92.5298 63.6996H73.6198Z" fill="#2A3136"/>
<path d="M73.6201 63.4004H92.5301C93.2101 63.4004 93.7601 62.8504 93.7601 62.1704C93.7601 61.4904 93.2101 60.9404 92.5301 60.9404H73.6201C72.9401 60.9404 72.3901 61.4904 72.3901 62.1704C72.3901 62.8504 72.9401 63.4004 73.6201 63.4004Z" fill="#2A3136"/>
<path d="M73.6202 70.3801C72.7202 70.3801 71.9902 69.6501 71.9902 68.7501C71.9902 67.8501 72.7202 67.1201 73.6202 67.1201H99.1102C100.01 67.1201 100.74 67.8501 100.74 68.7501C100.74 69.6501 100.01 70.3801 99.1102 70.3801H73.6202Z" fill="#2A3136"/>
<path d="M73.62 70.0799C72.88 70.0799 72.29 69.4799 72.29 68.7499C72.29 68.0199 72.89 67.4199 73.62 67.4199H99.11C99.85 67.4199 100.44 68.0199 100.44 68.7499C100.44 69.4799 99.84 70.0799 99.11 70.0799H73.62Z" fill="#2A3136"/>
<path d="M73.6198 70.2797C72.7698 70.2797 72.0898 69.5897 72.0898 68.7497C72.0898 67.9097 72.7798 67.2197 73.6198 67.2197H99.1098C99.9598 67.2197 100.64 67.9097 100.64 68.7497C100.64 69.5897 99.9498 70.2797 99.1098 70.2797H73.6198Z" fill="#2A3136"/>
<path d="M73.6201 69.9795H99.1101C99.7901 69.9795 100.34 69.4295 100.34 68.7495C100.34 68.0695 99.7901 67.5195 99.1101 67.5195H73.6201C72.9401 67.5195 72.3901 68.0695 72.3901 68.7495C72.3901 69.4295 72.9401 69.9795 73.6201 69.9795Z" fill="#2A3136"/>
<path d="M27.5802 33.3801C26.6802 33.3801 25.9502 32.6501 25.9502 31.7501C25.9502 30.8501 26.6802 30.1201 27.5802 30.1201H46.4902C47.3902 30.1201 48.1202 30.8501 48.1202 31.7501C48.1202 32.6501 47.3902 33.3801 46.4902 33.3801H27.5802Z" fill="#2A3136"/>
<path d="M27.58 33.0799C26.84 33.0799 26.25 32.4799 26.25 31.7499C26.25 31.0199 26.85 30.4199 27.58 30.4199H46.49C47.23 30.4199 47.82 31.0199 47.82 31.7499C47.82 32.4799 47.22 33.0799 46.49 33.0799H27.58Z" fill="#2A3136"/>
<path d="M27.5798 33.2797C26.7298 33.2797 26.0498 32.5897 26.0498 31.7497C26.0498 30.9097 26.7398 30.2197 27.5798 30.2197H46.4898C47.3398 30.2197 48.0198 30.9097 48.0198 31.7497C48.0198 32.5897 47.3298 33.2797 46.4898 33.2797H27.5798Z" fill="#2A3136"/>
<path d="M27.5801 32.9795H46.4901C47.1701 32.9795 47.7201 32.4295 47.7201 31.7495C47.7201 31.0695 47.1701 30.5195 46.4901 30.5195H27.5801C26.9001 30.5195 26.3501 31.0695 26.3501 31.7495C26.3501 32.4295 26.9001 32.9795 27.5801 32.9795Z" fill="#2A3136"/>
<path d="M27.5802 39.9602C26.6802 39.9602 25.9502 39.2302 25.9502 38.3302C25.9502 37.4302 26.6802 36.7002 27.5802 36.7002H53.0702C53.9702 36.7002 54.7002 37.4302 54.7002 38.3302C54.7002 39.2302 53.9702 39.9602 53.0702 39.9602H27.5802Z" fill="#2A3136"/>
<path d="M27.58 39.66C26.84 39.66 26.25 39.06 26.25 38.33C26.25 37.6 26.85 37 27.58 37H53.07C53.81 37 54.4 37.6 54.4 38.33C54.4 39.06 53.8 39.66 53.07 39.66H27.58Z" fill="#2A3136"/>
<path d="M27.5798 39.8598C26.7298 39.8598 26.0498 39.1698 26.0498 38.3298C26.0498 37.4898 26.7398 36.7998 27.5798 36.7998H53.0698C53.9198 36.7998 54.5998 37.4898 54.5998 38.3298C54.5998 39.1698 53.9098 39.8598 53.0698 39.8598H27.5798Z" fill="#2A3136"/>
<path d="M53.0701 37.0898H27.5801C26.9001 37.0898 26.3501 37.6398 26.3501 38.3198C26.3501 38.9998 26.9001 39.5498 27.5801 39.5498H53.0701C53.7501 39.5498 54.3001 38.9998 54.3001 38.3198C54.3001 37.6398 53.7501 37.0898 53.0701 37.0898Z" fill="#2A3136"/>
<path d="M83.1499 98.9005C82.2099 98.9005 81.4399 98.1305 81.4399 97.1905C81.4399 96.2505 82.2099 95.4805 83.1499 95.4805C84.0899 95.4805 84.8599 96.2505 84.8599 97.1905C84.8599 98.1305 84.0899 98.9005 83.1499 98.9005Z" fill="#2A3136"/>
<path d="M83.1502 98.6003C82.3702 98.6003 81.7402 97.9703 81.7402 97.1903C81.7402 96.4103 82.3702 95.7803 83.1502 95.7803C83.9302 95.7803 84.5602 96.4103 84.5602 97.1903C84.5602 97.9703 83.9302 98.6003 83.1502 98.6003Z" fill="#2A3136"/>
<path d="M83.15 98.8001C82.26 98.8001 81.54 98.0801 81.54 97.1901C81.54 96.3001 82.26 95.5801 83.15 95.5801C84.04 95.5801 84.76 96.3001 84.76 97.1901C84.76 98.0801 84.04 98.8001 83.15 98.8001Z" fill="#2A3136"/>
<path d="M83.1498 95.8799C82.4298 95.8799 81.8398 96.4599 81.8398 97.1899C81.8398 97.9199 82.4298 98.4999 83.1498 98.4999C83.8698 98.4999 84.4598 97.9099 84.4598 97.1899C84.4598 96.4699 83.8698 95.8799 83.1498 95.8799Z" fill="#2A3136"/>
</g>
<defs>
<clipPath id="clip0_1277_17821">
<rect width="102.8" height="90.54" fill="white" transform="translate(9.5 14)"/>
</clipPath>
</defs>
</svg>
