<svg width="60" height="60" viewBox="0 0 60 60" fill="none" xmlns="http://www.w3.org/2000/svg">
<rect width="60" height="60" fill="#F6F6F6"/>
<g opacity="0.2">
<path d="M20.3971 44.4805L18 49.5H19.1208L20.8546 45.8689L22.5884 49.5H23.7093L21.3143 44.4805H20.3971Z" fill="#10100A"/>
<path d="M34.412 44.4004C33.0109 44.4004 31.877 45.5608 31.877 46.9895C31.877 48.4205 33.0131 49.5786 34.412 49.5786C35.813 49.5786 36.947 48.4182 36.947 46.9895C36.947 45.5608 35.813 44.4004 34.412 44.4004ZM34.412 48.5501C33.5692 48.5501 32.884 47.8525 32.884 46.9895C32.884 46.1287 33.567 45.4289 34.412 45.4289C35.257 45.4289 35.94 46.1265 35.94 46.9895C35.94 47.8503 35.257 48.5501 34.412 48.5501Z" fill="#2A3136"/>
<path d="M26.1764 46.5358L27.0521 48.083L27.6344 49.1115L28.2167 48.083L29.0924 46.5358V49.5028H30.1015V44.4766H29.0924L27.6366 47.0545L26.1764 44.4766H25.1694V49.505H26.1764V46.5358Z" fill="#2A3136"/>
<path d="M40.465 48.5479C39.9878 48.5345 39.5324 48.3511 39.1756 48.0292L39.1012 47.9554L38.4072 48.7715C38.4357 48.805 39.1121 49.5786 40.4672 49.5786C41.8223 49.5786 42.4571 48.9123 42.5666 48.3422C42.6695 47.9152 42.5316 47.468 42.2098 47.1773C41.8923 46.9113 41.518 46.7257 41.1174 46.634L40.1169 46.3545C39.5587 46.198 39.5237 45.9946 39.5521 45.8336C39.5937 45.6078 39.8783 45.4334 40.4672 45.4334C40.743 45.4378 41.0167 45.5094 41.2619 45.6391C41.4063 45.724 41.5421 45.8224 41.6668 45.9342L41.7413 45.9968L42.4221 45.2433C42.2316 45.0398 42.0105 44.8677 41.7697 44.7358C41.3669 44.5144 40.9182 44.4004 40.465 44.4004C39.3683 44.4004 38.6108 45.0309 38.5123 45.6391C38.4335 46.0147 38.5211 46.4082 38.7509 46.7123C39.0355 47.0342 39.4142 47.2556 39.828 47.345L40.8284 47.6245C41.3385 47.7676 41.5114 47.9241 41.4633 48.2013C41.4348 48.3601 41.1568 48.5457 40.465 48.5457" fill="#2A3136"/>
<path d="M39.563 51.4121L38.6545 53.3148H39.0792L39.736 51.9375L40.3927 53.3148H40.8196L39.9111 51.4121H39.563Z" fill="#2A3136"/>
<path d="M23.4203 51.3809C22.8883 51.3809 22.4592 51.8213 22.4592 52.3624C22.4592 52.9035 22.8905 53.3439 23.4203 53.3439C23.95 53.3439 24.3813 52.9035 24.3813 52.3624C24.3813 51.8191 23.9522 51.3809 23.4203 51.3809ZM23.4203 52.9527C23.1006 52.9527 22.8401 52.6888 22.8401 52.3602C22.8401 52.0315 23.0985 51.7677 23.4203 51.7677C23.7421 51.7677 24.0004 52.0315 24.0004 52.3602C24.0004 52.6888 23.7421 52.9527 23.4203 52.9527Z" fill="#2A3136"/>
<path d="M35.0511 51.3809C34.5192 51.3809 34.0901 51.8213 34.0901 52.3624C34.0901 52.9057 34.5213 53.3439 35.0511 53.3439C35.5809 53.3439 36.0121 52.9035 36.0121 52.3624C36.0121 51.8191 35.5831 51.3809 35.0511 51.3809ZM35.0511 52.9527C34.7315 52.9527 34.4732 52.6888 34.4732 52.3602C34.4732 52.0315 34.7315 51.7699 35.0533 51.7699C35.3729 51.7699 35.6312 52.0337 35.6312 52.3624C35.6312 52.6911 35.3729 52.9549 35.0533 52.9549" fill="#2A3136"/>
<path d="M19.6068 51.5905C19.5411 51.5301 19.4667 51.4854 19.3835 51.4563C19.2872 51.4228 19.1865 51.4072 19.0836 51.4094H18.3196V53.3143H18.7311V52.742H19.042C19.1427 52.742 19.2412 52.7285 19.3375 52.6995C19.4251 52.6749 19.5061 52.6302 19.5783 52.572C19.6462 52.5161 19.7031 52.4446 19.7403 52.3619C19.7819 52.2702 19.8016 52.1718 19.7994 52.0712V52.0667C19.7994 51.9751 19.7841 51.8834 19.7491 51.7984C19.7184 51.7202 19.6703 51.6486 19.6068 51.5905ZM19.3813 52.0824C19.3813 52.1606 19.3529 52.2344 19.2959 52.2881C19.2303 52.3462 19.1427 52.3775 19.0551 52.3708H18.7311V51.7895H19.0486C19.1361 51.785 19.2215 51.8096 19.2916 51.8633C19.3529 51.9169 19.3857 51.9952 19.3813 52.0779V52.0824Z" fill="#2A3136"/>
<path d="M21.7959 52.4207C21.8725 52.3111 21.9119 52.1792 21.9054 52.0428V52.0384C21.9119 51.8774 21.855 51.7186 21.7455 51.6024C21.5967 51.466 21.4019 51.3944 21.2026 51.4078H20.3489V53.3128H20.7604V52.7024H21.0822L21.4828 53.3128H21.9623L21.5069 52.6331C21.6208 52.5906 21.7215 52.5168 21.7959 52.4185M21.4894 52.0652C21.4916 52.139 21.4631 52.2105 21.4084 52.2619C21.3427 52.3156 21.2596 52.3402 21.1742 52.3357H20.7582V51.7879H21.1654C21.2486 51.7835 21.334 51.8058 21.4019 51.855C21.461 51.9042 21.4916 51.9802 21.4872 52.0585V52.0652H21.4894Z" fill="#2A3136"/>
<path d="M24.9351 53.3151H25.3466V52.5773H26.2376V52.1994H25.3466V51.788H26.358V51.4102H24.9372V53.3151H24.9351Z" fill="#2A3136"/>
<path d="M27.3125 52.5408H28.1925V52.1674H27.3125V51.7806H28.3129V51.4072H26.9075V53.3122H28.326V52.9388H27.3125V52.5386V52.5408Z" fill="#2A3136"/>
<path d="M33.127 51.4102H33.5385V53.3151H33.127V51.4102Z" fill="#2A3136"/>
<path d="M37.8183 52.581L36.9427 51.4072H36.564V53.3122H36.969V52.1003L37.8731 53.3122H38.2211V51.4072H37.8183V52.581Z" fill="#2A3136"/>
<path d="M41.6623 52.9372V51.4102H41.2507V53.3151H42.5905V52.9372H41.6601H41.6623Z" fill="#2A3136"/>
<path d="M29.9066 52.228L29.5279 52.1207C29.3155 52.0626 29.3024 51.9843 29.3133 51.924C29.3287 51.839 29.4359 51.7719 29.6592 51.7719C29.7643 51.7719 29.8672 51.801 29.9613 51.8502C30.0161 51.8815 30.0664 51.9195 30.1146 51.962L30.143 51.9866L30.4013 51.7004C30.3291 51.6221 30.2459 51.5573 30.154 51.5081C30.0029 51.4254 29.8322 51.3807 29.6614 51.3829C29.2455 51.3829 28.9587 51.6221 28.9215 51.8524C28.8908 51.9955 28.9259 52.1431 29.0134 52.2593C29.1207 52.3801 29.2652 52.465 29.4228 52.5008L29.8015 52.6081C29.9963 52.6618 30.0598 52.7222 30.0423 52.8273C30.0314 52.8876 29.9263 52.9569 29.6636 52.9569C29.4819 52.9525 29.309 52.8831 29.1732 52.7602L29.1448 52.7333L28.8821 53.0419C29.09 53.2498 29.3724 53.3594 29.6636 53.3482C30.1846 53.3482 30.4189 53.0956 30.4604 52.8787C30.4998 52.7177 30.4473 52.5478 30.3247 52.436C30.2043 52.3354 30.062 52.2638 29.911 52.2303" fill="#2A3136"/>
<path d="M32.0128 52.228L31.6341 52.1207C31.4217 52.0626 31.4086 51.9843 31.4195 51.924C31.4349 51.839 31.5421 51.7719 31.7654 51.7719C31.8705 51.7719 31.9734 51.801 32.0675 51.8502C32.1223 51.8815 32.1726 51.9195 32.2208 51.962L32.2492 51.9866L32.5075 51.7004C32.4353 51.6221 32.3521 51.5573 32.2602 51.5081C32.1091 51.4254 31.9384 51.3807 31.7676 51.3829C31.3517 51.3829 31.0649 51.6221 31.0277 51.8524C30.997 51.9955 31.0321 52.1431 31.1196 52.2593C31.2269 52.3801 31.3714 52.465 31.529 52.5008L31.9077 52.6081C32.1025 52.6618 32.166 52.7222 32.1485 52.8273C32.1376 52.8876 32.0325 52.9569 31.7698 52.9569C31.5881 52.9525 31.4152 52.8831 31.2794 52.7602L31.251 52.7333L30.9883 53.0419C31.1962 53.2498 31.4786 53.3594 31.7698 53.3482C32.2908 53.3482 32.5251 53.0956 32.5666 52.8787C32.6061 52.7177 32.5535 52.5478 32.4309 52.436C32.3105 52.3354 32.1682 52.2638 32.0172 52.2303" fill="#2A3136"/>
</g>
<g clip-path="url(#clip0_967_85403)">
<path d="M15.4009 37.3981C14.783 37.5687 14.1366 37.2062 13.9661 36.5877L7.3529 12.8161C7.18242 12.1905 7.54469 11.5508 8.16268 11.3801L31.2271 4.95385C31.8451 4.78324 32.4915 5.14578 32.662 5.76424L34.4662 12.2545H35.205L33.3439 5.57231C33.0669 4.56998 32.0298 3.98706 31.0282 4.2643L7.97799 10.6906C6.97643 10.9678 6.39396 12.0057 6.67099 13.008L13.2771 36.7796C13.5399 37.718 14.4633 38.2796 15.3938 38.1232V37.4052L15.4009 37.3981Z" fill="#DDDDDD"/>
<path d="M30.3465 6.95154L9.95287 12.6314C9.46274 12.7665 9.17861 13.2712 9.31358 13.7617L13.6537 29.3725C13.7887 29.863 14.293 30.1473 14.7831 30.0123L15.4011 29.8417H15.3869L15.4011 29.7777V14.8493C15.4011 13.4205 16.566 12.2618 17.9867 12.2618H32.7687L31.4688 7.59133C31.3338 7.10082 30.8295 6.81647 30.3394 6.95154H30.3465Z" fill="#DDDDDD"/>
<path d="M15.4012 29.8345V29.7705L15.3799 29.8345H15.4012Z" fill="#DDDDDD"/>
<path d="M41.9247 12.9727H17.9866C16.9495 12.9727 16.1113 13.8115 16.1113 14.8494V39.5238C16.1113 40.5617 16.9495 41.4005 17.9866 41.4005H41.9247C42.9618 41.4005 43.8 40.5617 43.8 39.5238V14.8494C43.8 13.8115 42.9618 12.9727 41.9247 12.9727ZM43.0897 39.5238C43.0897 40.1707 42.564 40.6896 41.9247 40.6896H17.9866C17.3402 40.6896 16.8217 40.1636 16.8217 39.5238V14.8494C16.8217 14.2025 17.3473 13.6835 17.9866 13.6835H41.9247C42.5711 13.6835 43.0897 14.2096 43.0897 14.8494V39.5238Z" fill="#DDDDDD"/>
<path d="M40.5397 15.3682H19.3719C18.8676 15.3682 18.4556 15.7805 18.4556 16.2852V32.486C18.4556 32.9907 18.8676 33.403 19.3719 33.403H40.5397C41.0441 33.403 41.4561 32.9907 41.4561 32.486V16.2852C41.4561 15.7805 41.0441 15.3682 40.5397 15.3682ZM30.3394 22.3276C30.3394 23.3584 29.5012 24.1972 28.4712 24.1972C27.4412 24.1972 26.6031 23.3584 26.6031 22.3276C26.6031 21.2968 27.4412 20.458 28.4712 20.458C29.5012 20.458 30.3394 21.2968 30.3394 22.3276ZM27.1287 33.3959H19.9899L24.3087 25.9104C24.7775 25.0929 25.5518 25.0929 26.0206 25.9104L28.734 30.6093L32.719 23.7067C33.3299 22.6475 34.3243 22.6475 34.9352 23.7067L40.5255 33.3888H27.1287V33.3959Z" fill="#DDDDDD"/>
<path d="M26.0205 25.9178C25.5516 25.1003 24.7774 25.1003 24.3086 25.9178L19.9897 33.4033H27.1286L28.7339 30.6238L26.0205 25.9249V25.9178Z" fill="#DDDDDD"/>
<path d="M34.9352 23.7133C34.3243 22.6541 33.3298 22.6541 32.719 23.7133L28.734 30.6159L27.1287 33.3954H40.5255L34.9352 23.7133Z" fill="#DDDDDD"/>
<path d="M26.603 22.3276C26.603 23.3584 27.4412 24.1972 28.4712 24.1972C29.5012 24.1972 30.3394 23.3584 30.3394 22.3276C30.3394 21.2968 29.5012 20.458 28.4712 20.458C27.4412 20.458 26.603 21.2968 26.603 22.3276Z" fill="#DDDDDD"/>
<g clip-path="url(#clip1_967_85403)">
<path d="M30.5039 22.1646H32.8867V20.9336H32.6316H30.759H30.5039V22.1646Z" fill="#F6F6F6"/>
<path d="M33.3917 23.3588C33.3801 23.3459 33.3667 23.3346 33.3584 23.32C33.3467 23.2991 33.3417 23.2781 33.3367 23.2555C33.1833 22.9925 32.9582 22.7747 32.6881 22.623H30.0885C29.8234 22.623 29.5749 22.6892 29.3598 22.8054L29.0547 26.8098C29.0463 26.9147 28.9629 26.9954 28.8596 27.0147L28.8062 27.823C28.8379 27.8376 28.8662 27.8553 28.8896 27.8827C28.9296 27.9295 28.9496 27.9892 28.9429 28.0489L28.7578 30.0899C28.7512 30.1641 28.7078 30.2238 28.6461 30.2609L28.6395 30.3625H30.6554C30.7855 30.3625 30.8905 30.4642 30.8905 30.59C30.8905 30.7159 30.7855 30.8191 30.6554 30.8191H28.6094L28.5194 32.2083C28.5127 32.2954 28.4694 32.3712 28.406 32.4245V33.5264C28.406 33.5893 28.3793 33.6458 28.3376 33.6878V33.8265H33.5635V24.0945C33.5635 23.8331 33.5001 23.5862 33.3917 23.3652V23.3588ZM30.6854 24.2978C30.6654 24.3671 30.4753 24.9802 29.8584 25.5239C29.815 25.5627 29.7583 25.5836 29.7 25.5836C29.6333 25.5836 29.5699 25.5562 29.5265 25.5094C29.4849 25.4642 29.4615 25.4062 29.4649 25.3449C29.4682 25.2835 29.4949 25.2271 29.5416 25.1867C30.0685 24.7221 30.2285 24.1832 30.2302 24.1784C30.2586 24.0799 30.3519 24.0106 30.4587 24.0106C30.4803 24.0106 30.5003 24.0138 30.5204 24.0186C30.6454 24.0525 30.7205 24.1768 30.6854 24.2978Z" fill="#DDDDDD"/>
<path d="M34.8159 32.9233V24.0867C34.8159 23.2784 34.1356 22.6201 33.3002 22.6201H32.6882C32.9584 22.7718 33.1818 22.9896 33.3369 23.2526C33.3285 23.2171 33.3269 23.18 33.3369 23.1445C33.3652 23.0477 33.4586 22.9799 33.5637 22.9799C33.5853 22.9799 33.6087 22.9831 33.6303 22.9896C34.1323 23.13 34.4824 23.5817 34.4824 24.0867V25.5968C34.4824 25.7227 34.3774 25.8259 34.2473 25.8259C34.1172 25.8259 34.0105 25.7227 34.0105 25.5968V24.0867C34.0105 23.7834 33.8004 23.5123 33.4986 23.4268C33.4553 23.4139 33.4202 23.3881 33.3919 23.3574C33.502 23.5785 33.5637 23.8253 33.5637 24.0867V33.8187H35.051V33.1508C34.921 33.1508 34.8159 33.0492 34.8159 32.9217V32.9233ZM34.4824 26.9408C34.4824 27.0667 34.3774 27.1683 34.2473 27.1683C34.1172 27.1683 34.0105 27.0667 34.0105 26.9408V26.4068C34.0105 26.2809 34.1156 26.1777 34.2473 26.1777C34.379 26.1777 34.4824 26.2793 34.4824 26.4068V26.9408Z" fill="#F6F6F6"/>
<path d="M30.9941 20.477H31.8212V20.085H31.1359H30.9941V20.477Z" fill="#F6F6F6"/>
<path d="M31.696 19.1797H31.3726V19.6298H31.696V19.1797Z" fill="#F6F6F6"/>
<path d="M32.3963 20.477V20.085H32.2546H31.821V20.477H32.3963Z" fill="#F6F6F6"/>
<path d="M32.0178 19.1797H31.6943V19.6298H32.0178V19.1797Z" fill="#F6F6F6"/>
<path d="M31.0791 18.5847H33.1234C33.4052 18.5847 33.6804 18.6347 33.9438 18.7315L34.4674 18.9267C34.5108 18.9429 34.5541 18.9493 34.5975 18.9493C34.6392 18.9493 34.6775 18.9396 34.7159 18.9267C34.7159 18.9219 34.7159 18.9187 34.7125 18.9138C34.6992 18.8848 34.6742 18.8606 34.6425 18.8493L34.1189 18.6541C33.8004 18.5347 33.4653 18.475 33.1234 18.475H31.0791C30.904 18.475 30.739 18.4104 30.6139 18.2943L30.4522 18.1442C30.4288 18.1216 30.3971 18.1104 30.3638 18.1104C30.3288 18.1104 30.2971 18.1233 30.2737 18.1475C30.2504 18.1717 30.2371 18.2023 30.2371 18.2346L30.2737 18.2685C30.4905 18.4701 30.7757 18.5815 31.0775 18.5815L31.0791 18.5847Z" fill="#F6F6F6"/>
<path d="M31.0791 18.7236H33.1234C33.4336 18.7236 33.7387 18.7785 34.0272 18.8866L34.5508 19.0818C34.5658 19.0866 34.5808 19.0899 34.5958 19.0899C34.6475 19.0899 34.6959 19.0576 34.7142 19.0108C34.7242 18.985 34.7242 18.9559 34.7142 18.9301C34.6758 18.943 34.6358 18.9527 34.5958 18.9527C34.5525 18.9527 34.5091 18.9447 34.4657 18.9301L33.9422 18.7349C33.6787 18.6365 33.4036 18.5881 33.1218 18.5881H31.0775C30.7757 18.5881 30.4905 18.4768 30.2737 18.2751L30.2371 18.2412C30.2371 18.2735 30.2521 18.3025 30.2754 18.3251L30.4372 18.4752C30.6106 18.6365 30.8373 18.7252 31.0775 18.7252L31.0791 18.7236Z" fill="#F6F6F6"/>
<path d="M30.032 22.2261V22.168C29.8102 22.1744 29.5984 22.2164 29.4 22.2874L29.395 22.3503C29.5934 22.2761 29.8086 22.2325 30.032 22.2261Z" fill="#F6F6F6"/>
<path d="M35.2278 24.0883V32.9249C35.2278 33.0184 35.1495 33.0959 35.0511 33.0959C34.9527 33.0959 34.8743 33.0201 34.8743 32.9249V24.0883C34.8743 23.2477 34.1673 22.5652 33.2986 22.5652H33.2769C33.2352 22.6007 33.1819 22.6233 33.1218 22.6233H33.2986C34.134 22.6233 34.8143 23.2816 34.8143 24.0899V32.9265C34.8143 33.0523 34.9194 33.154 35.0494 33.1556C35.1795 33.1556 35.2845 33.0539 35.2845 32.9265V24.0899C35.2845 23.0492 34.4241 22.2006 33.3553 22.1699V22.228C34.3908 22.2587 35.2245 23.0799 35.2245 24.0899L35.2278 24.0883Z" fill="#F6F6F6"/>
<path d="M30.267 22.6216C30.207 22.6216 30.1536 22.599 30.1119 22.5635H30.0903C29.8285 22.5635 29.5833 22.6264 29.3666 22.7361L29.3616 22.8039C29.5783 22.6877 29.8268 22.6216 30.0903 22.6216H30.2687H30.267Z" fill="#F6F6F6"/>
<path d="M30.112 22.5644C30.0637 22.5225 30.032 22.4628 30.032 22.3934V22.2256C29.8085 22.232 29.5934 22.2756 29.395 22.3498L29.365 22.7354C29.5818 22.6257 29.8285 22.5628 30.0887 22.5628H30.1103L30.112 22.5644Z" fill="#F6F6F6"/>
<path d="M34.8758 24.0875V32.9241C34.8758 33.0176 34.9542 33.0951 35.0525 33.0951C35.1509 33.0951 35.2293 33.0192 35.2293 32.9241V24.0875C35.2293 23.0791 34.3956 22.2562 33.3601 22.2256V22.3934C33.3601 22.4611 33.3284 22.5225 33.28 22.5644H33.3017C34.1705 22.5644 34.8775 23.2485 34.8775 24.0875H34.8758Z" fill="#F6F6F6"/>
<path d="M33.3918 23.359C33.4201 23.3912 33.4551 23.4171 33.4985 23.4284C33.8003 23.5139 34.0104 23.7849 34.0104 24.0882V25.5984C34.0104 25.7242 34.1155 25.8275 34.2472 25.8275C34.3789 25.8275 34.4823 25.7242 34.4823 25.5984V24.0882C34.4823 23.5832 34.1321 23.1315 33.6302 22.9911C33.6085 22.9847 33.5869 22.9814 33.5635 22.9814C33.4601 22.9814 33.3668 23.0492 33.3368 23.146C33.3251 23.1815 33.3267 23.2186 33.3368 23.2541C33.3418 23.2767 33.3468 23.2993 33.3584 23.3186C33.3668 23.3348 33.3801 23.3445 33.3918 23.3574V23.359ZM33.3951 23.1621C33.4218 23.0718 33.5202 23.0202 33.6136 23.046C34.0904 23.1799 34.4223 23.6091 34.4223 24.0882V25.5984C34.4223 25.692 34.3439 25.7694 34.2455 25.7694C34.1471 25.7694 34.0688 25.6936 34.0688 25.5984V24.0882C34.0688 23.7591 33.8403 23.4655 33.5135 23.3735C33.4201 23.3477 33.3668 23.2525 33.3934 23.1621H33.3951Z" fill="#F6F6F6"/>
<path d="M33.5152 23.3732C33.842 23.4652 34.0704 23.7588 34.0704 24.088V25.5981C34.0704 25.6917 34.1488 25.7691 34.2472 25.7691C34.3455 25.7691 34.4239 25.6933 34.4239 25.5981V24.088C34.4239 23.6088 34.0921 23.1796 33.6152 23.0457C33.5218 23.0199 33.4234 23.0715 33.3968 23.1619C33.3701 23.2522 33.4234 23.3474 33.5168 23.3732H33.5152Z" fill="#F6F6F6"/>
<path d="M34.2456 26.1777C34.1155 26.1777 34.0088 26.2794 34.0088 26.4068V26.9409C34.0088 27.0667 34.1138 27.1684 34.2456 27.1684C34.3773 27.1684 34.4807 27.0667 34.4807 26.9409V26.4068C34.4807 26.281 34.3756 26.1777 34.2456 26.1777ZM34.4223 26.9409C34.4223 27.0345 34.3439 27.1119 34.2456 27.1119C34.1472 27.1119 34.0688 27.0361 34.0688 26.9409V26.4068C34.0688 26.3133 34.1472 26.2358 34.2456 26.2358C34.3439 26.2358 34.4223 26.3116 34.4223 26.4068V26.9409Z" fill="#F6F6F6"/>
<path d="M34.2456 26.2354C34.1489 26.2354 34.0688 26.3112 34.0688 26.4064V26.9404C34.0688 27.034 34.1472 27.1114 34.2456 27.1114C34.344 27.1114 34.4223 27.0356 34.4223 26.9404V26.4064C34.4223 26.3128 34.344 26.2354 34.2456 26.2354Z" fill="#F6F6F6"/>
<path d="M30.4438 20.876V22.2232H32.9467V20.876H32.7866C32.7449 20.9115 32.6915 20.9341 32.6315 20.9341H32.8866V22.1651H30.5022V20.9341H30.7573C30.6973 20.9341 30.6439 20.9115 30.6022 20.876H30.4421H30.4438Z" fill="#F6F6F6"/>
<path d="M30.0319 22.3943C30.0319 22.462 30.0636 22.5233 30.1119 22.5653C30.1536 22.6008 30.207 22.6234 30.267 22.6234H33.1234C33.1834 22.6234 33.2368 22.6008 33.2785 22.5653C33.3268 22.5233 33.3585 22.4636 33.3585 22.3943V20.8034C33.3585 20.6244 33.2068 20.4775 33.0217 20.4775H32.8666V20.5356H33.0217C33.1734 20.5356 33.2985 20.655 33.2985 20.8034V22.3943C33.2985 22.4878 33.2201 22.5653 33.1217 22.5653H30.2653C30.1686 22.5653 30.0886 22.4895 30.0886 22.3943V20.8034C30.0886 20.6566 30.212 20.5356 30.3654 20.5356H30.5205V20.4775H30.3654C30.1803 20.4775 30.0286 20.6244 30.0286 20.8034V22.3943H30.0319Z" fill="#F6F6F6"/>
<path d="M32.7867 20.8752H32.9467V22.2224H30.4439V20.8752H30.604C30.5556 20.8333 30.5239 20.7736 30.5239 20.7042V20.5332H30.3688C30.2171 20.5332 30.092 20.6526 30.092 20.801V22.3918C30.092 22.4854 30.1704 22.5629 30.2688 22.5629H33.1252C33.2219 22.5629 33.3019 22.487 33.3019 22.3918V20.801C33.3019 20.6542 33.1785 20.5332 33.0251 20.5332H32.87V20.7042C32.87 20.772 32.8384 20.8333 32.79 20.8752H32.7867Z" fill="#F6F6F6"/>
<path d="M30.9341 20.5349H32.4548V20.0283H32.4081C32.3664 20.0638 32.3131 20.0864 32.253 20.0864H32.3948V20.4785H30.9941V20.0864H31.1358C31.0758 20.0864 31.0225 20.0638 30.9808 20.0283H30.9341V20.5349Z" fill="#F6F6F6"/>
<path d="M30.5221 20.705C30.5221 20.7728 30.5538 20.8341 30.6022 20.8761C30.6439 20.9116 30.6972 20.9341 30.7572 20.9341H32.6298C32.6898 20.9341 32.7432 20.9116 32.7849 20.8761C32.8332 20.8341 32.8649 20.7744 32.8649 20.705V19.9548C32.8649 19.7757 32.7148 19.6289 32.5281 19.6289H32.4864V19.687H32.5281C32.6815 19.687 32.8049 19.808 32.8049 19.9548V20.705C32.8049 20.7986 32.7265 20.8761 32.6281 20.8761H30.7556C30.6589 20.8761 30.5788 20.8002 30.5788 20.705V19.9548C30.5788 19.808 30.7039 19.687 30.8556 19.687H30.8956V19.6289H30.8556C30.6705 19.6289 30.5188 19.7757 30.5188 19.9548V20.705H30.5221Z" fill="#F6F6F6"/>
<path d="M32.4897 19.8575C32.4897 19.9253 32.458 19.9866 32.4097 20.0286H32.4563V20.5352H30.9356V20.0286H30.9823C30.9339 19.9866 30.9023 19.9269 30.9023 19.8575V19.6865H30.8622C30.7088 19.6865 30.5854 19.8075 30.5854 19.9543V20.7046C30.5854 20.7982 30.6638 20.8756 30.7622 20.8756H32.6348C32.7315 20.8756 32.8115 20.7998 32.8115 20.7046V19.9543C32.8115 19.8075 32.6881 19.6865 32.5347 19.6865H32.493V19.8575H32.4897Z" fill="#F6F6F6"/>
<path d="M31.3125 19.6863H32.0779V19.1797H32.0178V19.6282H31.6943H31.3725V19.1797H31.3125V19.6863Z" fill="#F6F6F6"/>
<path d="M30.9006 19.8575C30.9006 19.9253 30.9322 19.9866 30.9806 20.0285C31.0223 20.064 31.0756 20.0866 31.1357 20.0866H32.2545C32.3146 20.0866 32.3679 20.064 32.4096 20.0285C32.458 19.9866 32.4896 19.9269 32.4896 19.8575V19.1799H32.4296V19.8575C32.4296 19.9511 32.3512 20.0285 32.2529 20.0285H31.134C31.0373 20.0285 30.9572 19.9527 30.9572 19.8575V19.1734C30.9372 19.1718 30.9172 19.1686 30.8972 19.167V19.8575H30.9006Z" fill="#F6F6F6"/>
<path d="M32.0779 19.1796V19.6879H31.3125V19.1796H31.079C31.039 19.1796 30.999 19.178 30.959 19.1748V19.8589C30.959 19.9525 31.0374 20.0299 31.1357 20.0299H32.2546C32.3513 20.0299 32.4314 19.9541 32.4314 19.8589V19.1813H32.0795L32.0779 19.1796Z" fill="#F6F6F6"/>
<path d="M31.079 18.7794H33.1234C33.4268 18.7794 33.7236 18.8326 34.0071 18.9375L34.5307 19.1327C34.5524 19.1408 34.574 19.144 34.5974 19.144C34.6741 19.144 34.7441 19.0972 34.7708 19.0279C34.7892 18.9827 34.7875 18.9343 34.7675 18.8891C34.7475 18.8456 34.7108 18.8117 34.6641 18.7939L34.1405 18.5987C33.8137 18.4777 33.4719 18.4164 33.1234 18.4164H31.079C30.9206 18.4164 30.7706 18.3583 30.6555 18.2518L30.4938 18.1018C30.4587 18.0695 30.4137 18.0518 30.3654 18.0518C30.3137 18.0518 30.267 18.0711 30.232 18.1066C30.197 18.1421 30.1786 18.1873 30.1803 18.2357C30.1803 18.2841 30.202 18.3293 30.237 18.3631L30.3987 18.5132C30.5838 18.6842 30.8256 18.7794 31.0807 18.7794H31.079ZM30.2386 18.2389C30.2386 18.2066 30.2503 18.176 30.2753 18.1518C30.2987 18.1276 30.332 18.1147 30.3654 18.1147C30.3987 18.1147 30.4287 18.1276 30.4537 18.1486L30.6155 18.2986C30.7405 18.4148 30.9056 18.4793 31.0807 18.4793H33.125C33.4669 18.4793 33.802 18.539 34.1205 18.6584L34.6441 18.8536C34.6758 18.8649 34.7008 18.8891 34.7141 18.9182C34.7158 18.923 34.7141 18.9262 34.7174 18.9311C34.7258 18.9569 34.7275 18.9859 34.7174 19.0117C34.6991 19.0585 34.6508 19.0908 34.5991 19.0908C34.5841 19.0908 34.569 19.0876 34.554 19.0827L34.0305 18.8875C33.7403 18.7794 33.4368 18.7245 33.1267 18.7245H31.0824C30.8423 18.7245 30.6155 18.6358 30.4421 18.4745L30.2803 18.3244C30.2553 18.3018 30.242 18.2712 30.242 18.2405L30.2386 18.2389Z" fill="#F6F6F6"/>
<path d="M31.079 19.1803H33.1233C33.3751 19.1803 33.6218 19.2255 33.8586 19.3126L34.3822 19.5078C34.4506 19.5336 34.5223 19.5465 34.5973 19.5465C34.8441 19.5465 35.0675 19.3965 35.1559 19.1754C35.2126 19.0302 35.2093 18.8737 35.1442 18.7318C35.0792 18.5914 34.9608 18.4817 34.8124 18.4268L34.2888 18.2316C33.917 18.0928 33.5251 18.0219 33.1233 18.0219H31.079C31.0273 18.0219 30.9789 18.0025 30.9406 17.9686L30.7788 17.8186C30.6671 17.7137 30.5187 17.6572 30.3636 17.6572C30.1985 17.6572 30.0468 17.7201 29.9317 17.8347C29.7033 18.0654 29.71 18.4317 29.9484 18.6543L30.1102 18.8044C30.3286 19.006 30.6037 19.1319 30.8972 19.169C30.9172 19.1722 30.9372 19.1738 30.9572 19.1754C30.9973 19.1787 31.0373 19.1803 31.0773 19.1803H31.079ZM30.1535 18.7608L29.9918 18.6107C29.7783 18.4123 29.7717 18.0816 29.9768 17.8734C30.0785 17.7702 30.2169 17.7137 30.3653 17.7137C30.5054 17.7137 30.6371 17.7653 30.7388 17.8589L30.9005 18.0089C30.9489 18.0541 31.0123 18.0783 31.079 18.0783H33.1233C33.5151 18.0783 33.9003 18.1477 34.2672 18.2832L34.7907 18.4784C34.9258 18.5285 35.0309 18.6253 35.0892 18.7527C35.1476 18.8802 35.1509 19.0222 35.0992 19.1512C35.0192 19.3513 34.8174 19.4852 34.5956 19.4852C34.5289 19.4852 34.4639 19.4739 34.4022 19.4497L33.8786 19.2545C33.6369 19.1641 33.3817 19.119 33.1216 19.119H31.0773C30.7305 19.119 30.402 18.9915 30.1519 18.7576L30.1535 18.7608Z" fill="#F6F6F6"/>
<path d="M31.0792 19.1221H33.1235C33.3836 19.1221 33.6371 19.1672 33.8805 19.2576L34.4041 19.4528C34.4658 19.4754 34.5308 19.4883 34.5975 19.4883C34.8193 19.4883 35.0211 19.3544 35.1011 19.1543C35.1528 19.0253 35.1495 18.8833 35.0911 18.7558C35.0327 18.6284 34.926 18.5316 34.7926 18.4815L34.269 18.2863C33.9022 18.1492 33.5187 18.0814 33.1252 18.0814H31.0808C31.0141 18.0814 30.9508 18.0572 30.9024 18.012L30.7407 17.862C30.639 17.7684 30.5072 17.7168 30.3672 17.7168C30.2188 17.7168 30.082 17.7733 29.9787 17.8765C29.7736 18.0847 29.7802 18.4138 29.9937 18.6138L30.1554 18.7639C30.4055 18.9962 30.734 19.1253 31.0808 19.1253L31.0792 19.1221ZM30.1787 18.2379C30.1787 18.1895 30.1954 18.1443 30.2304 18.1089C30.2655 18.0734 30.3138 18.054 30.3638 18.054C30.4139 18.054 30.4572 18.0717 30.4922 18.104L30.654 18.2541C30.7674 18.3605 30.9191 18.4186 31.0775 18.4186H33.1218C33.4703 18.4186 33.8122 18.4799 34.139 18.6009L34.6626 18.7962C34.7092 18.8139 34.7459 18.8478 34.7659 18.8914C34.786 18.9349 34.7876 18.9849 34.7693 19.0301C34.7426 19.0995 34.6726 19.1463 34.5959 19.1463C34.5725 19.1463 34.5508 19.143 34.5292 19.135L34.0056 18.9398C33.7221 18.8349 33.4253 18.7816 33.1218 18.7816H31.0775C30.8224 18.7816 30.5806 18.6881 30.3955 18.5154L30.2338 18.3654C30.1971 18.3315 30.1771 18.2863 30.1771 18.2379H30.1787Z" fill="#F6F6F6"/>
<path d="M30.5187 24.0169C30.4987 24.012 30.477 24.0088 30.457 24.0088C30.352 24.0088 30.2569 24.0782 30.2286 24.1766C30.2286 24.1814 30.0668 24.7203 29.5399 25.185C29.4932 25.2253 29.4666 25.2818 29.4632 25.3431C29.4599 25.4044 29.4816 25.4625 29.5249 25.5076C29.5699 25.5544 29.6333 25.5819 29.6983 25.5819C29.7584 25.5819 29.8151 25.5609 29.8567 25.5222C30.472 24.9784 30.6638 24.3654 30.6838 24.296C30.7172 24.175 30.6438 24.0491 30.5187 24.0169ZM30.6271 24.2815C30.6204 24.3073 30.4404 24.93 29.8184 25.4802C29.785 25.5093 29.7417 25.5254 29.7 25.5254C29.6516 25.5254 29.605 25.5076 29.5699 25.4705C29.5049 25.4012 29.5099 25.2931 29.5816 25.2301C30.1235 24.751 30.2853 24.1992 30.287 24.1943C30.3136 24.104 30.4103 24.0507 30.5037 24.0749C30.5971 24.0991 30.6521 24.1927 30.6271 24.2831V24.2815Z" fill="#F6F6F6"/>
<path d="M30.5038 24.0732C30.4104 24.049 30.3137 24.1023 30.2871 24.1926C30.2871 24.1975 30.1236 24.7492 29.5817 25.2284C29.51 25.2913 29.505 25.3994 29.57 25.4688C29.6051 25.5059 29.6517 25.5237 29.7001 25.5237C29.7435 25.5237 29.7851 25.5091 29.8185 25.4785C30.4405 24.9299 30.6189 24.3072 30.6272 24.2797C30.6522 24.1894 30.5972 24.0958 30.5038 24.0716V24.0732Z" fill="#F6F6F6"/>
<path d="M30.6573 30.4158C30.754 30.4158 30.8341 30.4917 30.8341 30.5869C30.8341 30.6821 30.7557 30.7579 30.6573 30.7579H28.6147L28.6113 30.816H30.6573C30.7874 30.816 30.8924 30.7127 30.8924 30.5869C30.8924 30.461 30.7874 30.3594 30.6573 30.3594H28.6413L28.638 30.4175H30.6573V30.4158Z" fill="#F6F6F6"/>
<path d="M30.8339 30.587C30.8339 30.4935 30.7556 30.416 30.6572 30.416H28.6379L28.6162 30.7564H30.6589C30.7556 30.7564 30.8356 30.6806 30.8356 30.5854L30.8339 30.587Z" fill="#F6F6F6"/>
<path d="M26.6452 32.7256H25.9165V33.8195H26.6452V32.7256Z" fill="#F6F6F6"/>
<path d="M27.7857 27.8209L28.2426 22.0869H26.4301C26.3 22.0869 26.1933 21.9852 26.1933 21.8594H25.9165C25.9165 21.9852 25.8115 22.0869 25.6797 22.0869H24.7793L25.3896 31.4785H25.4146C26.6635 31.4511 27.6874 29.0261 27.7824 27.8209H27.7857ZM25.4029 22.7613C25.543 22.7613 25.6464 22.8548 25.6547 22.9726L25.9032 26.2204C25.9082 26.2817 25.8882 26.3398 25.8465 26.3866C25.8048 26.4334 25.7481 26.4608 25.6847 26.4656C25.6847 26.4656 25.6681 26.4656 25.6664 26.4656C25.543 26.4656 25.4396 26.3721 25.4313 26.2543L25.1845 23.0065C25.1745 22.8807 25.2729 22.7709 25.4029 22.7613Z" fill="#DDDDDD"/>
<path d="M26.882 32.4966H27.9359V31.4721C27.9359 31.3462 28.0409 31.2446 28.171 31.2446C28.301 31.2446 28.4061 31.3462 28.4061 31.4721V32.4191C28.4695 32.3659 28.5128 32.2901 28.5195 32.2029L28.6095 30.8138L28.6129 30.7557L28.6345 30.4153L28.6379 30.3572L28.6445 30.2556C28.6079 30.2782 28.5678 30.2943 28.5211 30.2943C28.5195 30.2943 28.5011 30.2943 28.4995 30.2943C28.4361 30.2895 28.3794 30.2604 28.3394 30.2136C28.2994 30.1668 28.2794 30.1071 28.2844 30.0474L28.4695 28.0065C28.4795 27.8903 28.5828 27.7984 28.7046 27.7984C28.7062 27.7984 28.7229 27.7984 28.7262 27.7984C28.7529 27.8 28.7796 27.8097 28.8029 27.8193L28.8563 27.011C28.843 27.0126 28.8313 27.0191 28.8163 27.0191H28.8046C28.6695 27.0094 28.5712 26.8997 28.5812 26.7738L28.938 22.0869H28.2393L27.7825 27.8209C27.6857 29.0245 26.6619 31.4511 25.4147 31.4769H25.3896L25.4363 32.1868C25.4397 32.232 25.4797 32.2675 25.5264 32.2675H26.6452C26.7753 32.2675 26.882 32.3691 26.882 32.495V32.4966Z" fill="#F6F6F6"/>
<path d="M28.9596 21.1836H28.2393V21.6305H28.9596V21.1836Z" fill="#F6F6F6"/>
<path d="M27.9359 33.5216V32.4971H26.882C26.882 32.6229 26.777 32.7246 26.6453 32.7246V33.8201H28.0409V33.712C27.9776 33.6716 27.9342 33.6006 27.9342 33.5216H27.9359Z" fill="#F6F6F6"/>
<path d="M25.5049 32.7226C25.4848 32.7226 25.4648 32.7194 25.4448 32.7178V33.8213H25.5049V32.7242V32.7226Z" fill="#F6F6F6"/>
<path d="M26.6453 32.7265C26.7753 32.7265 26.882 32.6248 26.882 32.499C26.882 32.3731 26.777 32.2715 26.6453 32.2715C26.7753 32.2715 26.8804 32.3731 26.8804 32.499C26.8804 32.6248 26.7753 32.7265 26.6453 32.7265Z" fill="#F6F6F6"/>
<path d="M25.9167 32.7256H25.8567V33.8211H25.9167V32.7256Z" fill="#F6F6F6"/>
<path d="M25.528 32.7262C25.528 32.7262 25.513 32.7246 25.5046 32.7246V33.8217H25.8565V32.7262H25.528Z" fill="#F6F6F6"/>
<path d="M29.3599 22.0229L28.9964 26.805C28.9897 26.8938 28.913 26.9632 28.8213 26.9632C28.8163 26.9632 28.813 26.9632 28.808 26.9632C28.7113 26.9567 28.6379 26.8744 28.6462 26.7808L29.0081 22.031H26.4318C26.3351 22.031 26.2551 21.9552 26.2551 21.86C26.2551 21.7648 26.3335 21.6889 26.4318 21.6889H28.9614V21.6309H26.4318C26.3018 21.6309 26.1951 21.7325 26.1951 21.8583C26.1951 21.9842 26.3001 22.0858 26.4318 22.0858H28.943L28.5862 26.7728C28.5762 26.8986 28.6746 27.0083 28.8097 27.018H28.8213C28.8347 27.018 28.848 27.0132 28.8613 27.0099C28.9647 26.9922 29.0481 26.9115 29.0564 26.805L29.3616 22.8006L29.3666 22.7328L29.3966 22.3472L29.4016 22.2843L29.4333 21.8729C29.4333 21.8729 29.4333 21.8664 29.4333 21.8648C29.4316 21.9261 29.4049 21.981 29.3616 22.0197L29.3599 22.0229Z" fill="#F6F6F6"/>
<path d="M26.4302 21.6885C26.3335 21.6885 26.2534 21.7643 26.2534 21.8595C26.2534 21.9547 26.3318 22.0305 26.4302 22.0305H29.0064L28.6446 26.7804C28.6379 26.874 28.7096 26.9562 28.8063 26.9627C28.8113 26.9627 28.8146 26.9627 28.8196 26.9627C28.9114 26.9627 28.9881 26.8949 28.9947 26.8046L29.3582 22.0225C29.3165 22.0628 29.2582 22.087 29.1948 22.087C29.0648 22.087 28.9597 21.9853 28.9597 21.8595V21.6885H26.4302Z" fill="#F6F6F6"/>
<path d="M25.528 32.7259H26.6452C26.7753 32.7259 26.8803 32.6243 26.8803 32.4984C26.8803 32.3726 26.7753 32.271 26.6452 32.271H25.528C25.4813 32.271 25.4413 32.2355 25.438 32.1903L25.3913 31.4804L24.781 22.0888H25.6814C25.8115 22.0888 25.9182 21.9871 25.9182 21.8613C25.9182 21.7354 25.8132 21.6338 25.6814 21.6338H24.7643V21.6919H25.6814C25.7781 21.6919 25.8582 21.7677 25.8582 21.8629C25.8582 21.9581 25.7798 22.0339 25.6814 22.0339H24.7176L25.378 32.1967C25.3846 32.2726 25.4497 32.3323 25.528 32.3323H26.6452C26.7419 32.3323 26.822 32.4081 26.822 32.5033C26.822 32.5985 26.7436 32.6743 26.6452 32.6743H25.528C25.2662 32.6743 25.0445 32.4759 25.0261 32.2226L24.3608 22.0258C24.3191 21.9855 24.2924 21.9307 24.2908 21.8693C24.2908 21.8726 24.2908 21.8758 24.2908 21.8806L24.9661 32.2258C24.9861 32.4807 25.1895 32.6856 25.4447 32.7227C25.4647 32.7259 25.4847 32.7275 25.5047 32.7275C25.513 32.7275 25.5197 32.7292 25.528 32.7292V32.7259Z" fill="#F6F6F6"/>
<path d="M24.5259 22.0876C24.4608 22.0876 24.4025 22.0618 24.3591 22.0215L25.0244 32.2182C25.0445 32.4715 25.2646 32.6699 25.5264 32.6699H26.6436C26.7403 32.6699 26.8203 32.5941 26.8203 32.4989C26.8203 32.4037 26.7419 32.3279 26.6436 32.3279H25.5264C25.448 32.3279 25.3813 32.2682 25.3763 32.1924L24.716 22.0295H25.6798C25.7765 22.0295 25.8565 21.9537 25.8565 21.8585C25.8565 21.7633 25.7781 21.6875 25.6798 21.6875H24.7627V21.8585C24.7627 21.9844 24.6559 22.086 24.5259 22.086V22.0876Z" fill="#F6F6F6"/>
<path d="M25.6682 26.4661C25.6682 26.4661 25.6849 26.4661 25.6865 26.4661C25.7499 26.4613 25.8066 26.4338 25.8483 26.387C25.89 26.3402 25.91 26.2822 25.905 26.2209L25.6565 22.9731C25.6482 22.8553 25.5448 22.7617 25.4047 22.7617C25.2747 22.7714 25.178 22.8811 25.1863 23.007L25.4331 26.2547C25.4414 26.3741 25.5448 26.4661 25.6682 26.4661ZM25.4081 22.8198C25.5048 22.8133 25.5898 22.8827 25.5965 22.9779L25.8449 26.2257C25.8516 26.3193 25.7799 26.4016 25.6815 26.408C25.6765 26.408 25.6732 26.408 25.6682 26.408C25.5765 26.408 25.4998 26.3402 25.4931 26.2499L25.2463 23.0021C25.2397 22.9085 25.3114 22.8263 25.4097 22.8198H25.4081Z" fill="#F6F6F6"/>
<path d="M25.6681 26.408C25.6681 26.408 25.6764 26.408 25.6814 26.408C25.7782 26.4015 25.8515 26.3192 25.8448 26.2256L25.5964 22.9779C25.5897 22.8843 25.5047 22.8133 25.408 22.8197C25.3113 22.8262 25.2379 22.9085 25.2446 23.0021L25.4913 26.2498C25.498 26.3402 25.5747 26.408 25.6664 26.408H25.6681Z" fill="#F6F6F6"/>
<path d="M24.3608 22.0215C24.4042 22.0618 24.4625 22.0876 24.5276 22.0876C24.6576 22.0876 24.7643 21.986 24.7643 21.8601V21.1857H28.9613V21.8601C28.9613 21.986 29.0664 22.0876 29.1965 22.0876C29.2598 22.0876 29.3182 22.0634 29.3599 22.0231C29.4015 21.9828 29.4282 21.9279 29.4316 21.8682C29.4316 21.865 29.4316 21.8634 29.4316 21.8601V21.0534C29.4316 20.8744 29.2815 20.7275 29.0947 20.7275H24.6276C24.4425 20.7275 24.2908 20.8744 24.2908 21.0534V21.8601C24.2908 21.8601 24.2908 21.8634 24.2908 21.865C24.2908 21.9263 24.3175 21.9812 24.3608 22.0215ZM24.3508 21.0534C24.3508 20.9066 24.4742 20.7856 24.6276 20.7856H29.0947C29.2465 20.7856 29.3715 20.9066 29.3715 21.0534V21.8601C29.3715 21.9537 29.2932 22.0312 29.1948 22.0312C29.0964 22.0312 29.018 21.9553 29.018 21.8601V21.1277H24.7026V21.8601C24.7026 21.9537 24.6243 22.0312 24.5259 22.0312C24.4275 22.0312 24.3491 21.9553 24.3491 21.8601V21.0534H24.3508Z" fill="#F6F6F6"/>
<path d="M24.5259 22.0288C24.6226 22.0288 24.7027 21.9529 24.7027 21.8577V21.1252H29.0197V21.8577C29.0197 21.9513 29.0981 22.0288 29.1965 22.0288C29.2949 22.0288 29.3732 21.9529 29.3732 21.8577V21.051C29.3732 20.9042 29.2498 20.7832 29.0964 20.7832H24.6276C24.4742 20.7832 24.3508 20.9042 24.3508 21.051V21.8577C24.3508 21.9513 24.4292 22.0288 24.5276 22.0288H24.5259Z" fill="#F6F6F6"/>
<path d="M36.4416 33.8203H24.0073C23.8772 33.8203 23.7705 33.922 23.7705 34.0478C23.7705 34.1736 23.8756 34.2769 24.0073 34.2769H36.4416C36.5716 34.2769 36.6767 34.1753 36.6767 34.0478C36.6767 33.9203 36.5716 33.8203 36.4416 33.8203ZM36.4416 34.2188H24.0073C23.9106 34.2188 23.8305 34.143 23.8305 34.0478C23.8305 33.9526 23.9089 33.8768 24.0073 33.8768H36.4416C36.5383 33.8768 36.6183 33.9526 36.6183 34.0478C36.6183 34.143 36.5399 34.2188 36.4416 34.2188Z" fill="#F6F6F6"/>
<path d="M36.4416 33.8779H24.0073C23.9106 33.8779 23.8306 33.9538 23.8306 34.049C23.8306 34.1441 23.9089 34.22 24.0073 34.22H36.4416C36.5383 34.22 36.6183 34.1441 36.6183 34.049C36.6183 33.9538 36.54 33.8779 36.4416 33.8779Z" fill="#F6F6F6"/>
<path d="M23.222 33.8203H22.665C22.535 33.8203 22.4299 33.922 22.4299 34.0478C22.4299 34.1736 22.535 34.2769 22.665 34.2769H23.2203C23.3504 34.2769 23.4554 34.1753 23.4554 34.0478C23.4554 33.9203 23.3504 33.8203 23.2203 33.8203H23.222ZM23.222 34.2188H22.665C22.5683 34.2188 22.4883 34.143 22.4883 34.0478C22.4883 33.9526 22.5667 33.8768 22.665 33.8768H23.2203C23.317 33.8768 23.3971 33.9526 23.3971 34.0478C23.3971 34.143 23.3187 34.2188 23.2203 34.2188H23.222Z" fill="#F6F6F6"/>
<path d="M23.222 33.8779H22.665C22.5683 33.8779 22.4883 33.9538 22.4883 34.049C22.4883 34.1441 22.5667 34.22 22.665 34.22H23.2203C23.317 34.22 23.397 34.1441 23.397 34.049C23.397 33.9538 23.3187 33.8779 23.2203 33.8779H23.222Z" fill="#F6F6F6"/>
<path d="M28.1709 31.2451C28.0408 31.2451 27.9358 31.3468 27.9358 31.4726V33.5216C27.9358 33.6007 27.9775 33.6717 28.0425 33.712C28.0792 33.7362 28.1242 33.7507 28.1726 33.7507C28.2376 33.7507 28.2976 33.7249 28.3393 33.683C28.381 33.641 28.4077 33.5846 28.4077 33.5216V31.4726C28.4077 31.3468 28.3026 31.2451 28.1726 31.2451H28.1709ZM28.1709 33.6926C28.0742 33.6926 27.9942 33.6168 27.9942 33.5216V31.4726C27.9942 31.379 28.0725 31.3016 28.1709 31.3016C28.2693 31.3016 28.3477 31.3774 28.3477 31.4726V33.5216C28.3477 33.6152 28.2693 33.6926 28.1709 33.6926Z" fill="#F6F6F6"/>
<path d="M28.3476 31.4728C28.3476 31.3792 28.2693 31.3018 28.1709 31.3018C28.0725 31.3018 27.9941 31.3776 27.9941 31.4728V33.5218C27.9941 33.6154 28.0725 33.6928 28.1709 33.6928C28.2693 33.6928 28.3476 33.617 28.3476 33.5218V31.4728Z" fill="#F6F6F6"/>
<path d="M28.7079 27.7975C28.5861 27.7975 28.4844 27.8895 28.4728 28.0056L28.2877 30.0466C28.2827 30.1079 28.301 30.166 28.3427 30.2128C28.3827 30.2596 28.4394 30.2886 28.5028 30.2934C28.5044 30.2934 28.5228 30.2934 28.5244 30.2934C28.5711 30.2934 28.6112 30.2773 28.6478 30.2547C28.7079 30.2176 28.7529 30.1579 28.7596 30.0837L28.9446 28.0427C28.9497 27.9814 28.9313 27.9234 28.8913 27.8766C28.8679 27.8508 28.8396 27.8314 28.8079 27.8169C28.7829 27.8056 28.7579 27.7975 28.7312 27.7959C28.7295 27.7959 28.7129 27.7959 28.7095 27.7959L28.7079 27.7975ZM28.8846 28.0411L28.6995 30.0821C28.6912 30.1757 28.6062 30.245 28.5094 30.237C28.4127 30.2289 28.341 30.1466 28.3494 30.053L28.5345 28.0121C28.5428 27.9185 28.6278 27.8491 28.7245 27.8572C28.8213 27.8653 28.893 27.9476 28.8846 28.0411Z" fill="#F6F6F6"/>
<path d="M28.5329 28.01L28.3478 30.051C28.3395 30.1445 28.4112 30.2268 28.5079 30.2349C28.6046 30.243 28.6897 30.1736 28.698 30.08L28.8831 28.0391C28.8914 27.9455 28.8197 27.8632 28.723 27.8551C28.6263 27.8471 28.5413 27.9164 28.5329 28.01Z" fill="#F6F6F6"/>
</g>
</g>
<defs>
<clipPath id="clip0_967_85403">
<rect width="37.2" height="37.2" fill="white" transform="translate(6.6001 4.2002)"/>
</clipPath>
<clipPath id="clip1_967_85403">
<rect width="14.2468" height="16.6213" fill="white" transform="translate(22.4299 17.6553)"/>
</clipPath>
</defs>
</svg>
