<svg width="120" height="120" viewBox="0 0 120 120" fill="none" xmlns="http://www.w3.org/2000/svg">
<path d="M37.0019 113.831C38.3765 112.457 37.3729 109.224 34.7603 106.612C32.1477 103.999 28.9154 102.996 27.5408 104.37C26.1661 105.745 27.1697 108.977 29.7823 111.59C32.3949 114.203 35.6272 115.206 37.0019 113.831Z" fill="#76CFF9"/>
<path fill-rule="evenodd" clip-rule="evenodd" d="M6.53027 26.6201C6.53027 25.7917 7.20185 25.1201 8.03027 25.1201H17.8503C20.4432 25.1201 23.0366 25.4862 25.18 26.6038C27.3912 27.7567 29.0425 29.6717 29.7108 32.5284C29.7158 32.5498 29.7204 32.5713 29.7244 32.5929L39.0045 81.9501H93.9191L102.813 37.2101H36.2603C35.4318 37.2101 34.7603 36.5385 34.7603 35.7101C34.7603 34.8817 35.4318 34.2101 36.2603 34.2101H104.64C105.089 34.2101 105.515 34.4113 105.8 34.7585C106.085 35.1056 106.199 35.5621 106.111 36.0026L96.6215 83.7426C96.482 84.4445 95.866 84.9501 95.1503 84.9501H37.7603C37.0387 84.9501 36.4194 84.4364 36.2861 83.7273L26.7825 33.1811C26.3169 31.226 25.2518 30.0245 23.793 29.2639C22.259 28.4641 20.2174 28.1201 17.8503 28.1201H8.03027C7.20185 28.1201 6.53027 27.4485 6.53027 26.6201Z" fill="#2A3136"/>
<path fill-rule="evenodd" clip-rule="evenodd" d="M85.5703 95.2402C85.5703 94.4118 86.2419 93.7402 87.0703 93.7402H99.1203C99.9487 93.7402 100.62 94.4118 100.62 95.2402C100.62 96.0687 99.9487 96.7402 99.1203 96.7402H87.0703C86.2419 96.7402 85.5703 96.0687 85.5703 95.2402Z" fill="#2A3136"/>
<path fill-rule="evenodd" clip-rule="evenodd" d="M38.5066 82.1329C39.2283 82.5397 39.4836 83.4545 39.0769 84.1762L33.6873 93.7397H78.4501C79.2785 93.7397 79.9501 94.4113 79.9501 95.2397C79.9501 96.0681 79.2785 96.7397 78.4501 96.7397H31.1201C30.587 96.7397 30.094 96.4568 29.825 95.9965C29.556 95.5362 29.5516 94.9677 29.8133 94.5033L36.4633 82.7033C36.8701 81.9816 37.7849 81.7262 38.5066 82.1329Z" fill="#2A3136"/>
<path fill-rule="evenodd" clip-rule="evenodd" d="M30.8398 51.46C30.8398 50.6315 31.5114 49.96 32.3398 49.96H101.27C102.098 49.96 102.77 50.6315 102.77 51.46C102.77 52.2884 102.098 52.96 101.27 52.96H32.3398C31.5114 52.96 30.8398 52.2884 30.8398 51.46Z" fill="#2A3136"/>
<path fill-rule="evenodd" clip-rule="evenodd" d="M33.25 67.1504C33.25 66.322 33.9216 65.6504 34.75 65.6504H90.22C91.0484 65.6504 91.72 66.322 91.72 67.1504C91.72 67.9788 91.0484 68.6504 90.22 68.6504H34.75C33.9216 68.6504 33.25 67.9788 33.25 67.1504Z" fill="#2A3136"/>
<path fill-rule="evenodd" clip-rule="evenodd" d="M53.3013 34.205C54.1271 34.1394 54.8497 34.7557 54.9153 35.5816L58.7053 83.3216C58.7709 84.1474 58.1545 84.87 57.3287 84.9356C56.5029 85.0011 55.7803 84.3848 55.7147 83.559L51.9247 35.819C51.8591 34.9932 52.4755 34.2705 53.3013 34.205Z" fill="#2A3136"/>
<path fill-rule="evenodd" clip-rule="evenodd" d="M80.6773 35.2555C81.5027 35.3257 82.115 36.0517 82.0448 36.8772L78.0748 83.5672C78.0046 84.3926 77.2785 85.0049 76.4531 84.9347C75.6276 84.8645 75.0154 84.1385 75.0856 83.313L79.0556 36.623C79.1257 35.7976 79.8518 35.1853 80.6773 35.2555Z" fill="#2A3136"/>
<path fill-rule="evenodd" clip-rule="evenodd" d="M33.8697 102.05C31.1414 102.05 28.9297 104.262 28.9297 106.99C28.9297 109.718 31.1414 111.93 33.8697 111.93C36.598 111.93 38.8097 109.718 38.8097 106.99C38.8097 104.262 36.598 102.05 33.8697 102.05ZM25.9297 106.99C25.9297 102.605 29.4845 99.0498 33.8697 99.0498C38.2548 99.0498 41.8097 102.605 41.8097 106.99C41.8097 111.375 38.2548 114.93 33.8697 114.93C29.4845 114.93 25.9297 111.375 25.9297 106.99Z" fill="#2A3136"/>
<path d="M100.295 113.838C101.669 112.464 100.666 109.231 98.0533 106.619C95.4407 104.006 92.2084 103.003 90.8337 104.377C89.4591 105.752 90.4627 108.984 93.0753 111.597C95.6879 114.209 98.9202 115.213 100.295 113.838Z" fill="#76CFF9"/>
<path fill-rule="evenodd" clip-rule="evenodd" d="M97.1597 102.05C94.4314 102.05 92.2197 104.262 92.2197 106.99C92.2197 109.718 94.4314 111.93 97.1597 111.93C99.888 111.93 102.1 109.718 102.1 106.99C102.1 104.262 99.888 102.05 97.1597 102.05ZM89.2197 106.99C89.2197 102.605 92.7746 99.0498 97.1597 99.0498C101.545 99.0498 105.1 102.605 105.1 106.99C105.1 111.375 101.545 114.93 97.1597 114.93C92.7746 114.93 89.2197 111.375 89.2197 106.99Z" fill="#2A3136"/>
<path d="M18.5342 22.0093H5.67214C4.03972 22.0093 2.47906 23.0384 2.10235 24.6424C1.55522 26.9324 3.27733 29 5.46584 29H18.3279C19.9603 29 21.5209 27.9709 21.8977 26.3576C22.4448 24.0675 20.7227 22 18.5342 22V22.0093Z" fill="#76CFF9"/>
<path d="M17.3 31.32H4.96C2.22 31.32 0 29.01 0 26.16C0 23.31 2.23 21 4.96 21H17.3C20.04 21 22.26 23.31 22.26 26.16C22.26 29.01 20.03 31.32 17.3 31.32ZM4.96 23.77C3.75 23.77 2.77 24.85 2.77 26.16C2.77 27.47 3.75 28.55 4.96 28.55H17.3C18.51 28.55 19.49 27.47 19.49 26.16C19.49 24.85 18.51 23.77 17.3 23.77H4.96Z" fill="#2A3136"/>
<circle cx="67" cy="31" r="23.5" fill="#FD7C7C" stroke="#2A3136" stroke-width="3"/>
<path d="M59 30.1075L65.1532 36L75 25" stroke="white" stroke-width="4" stroke-linecap="round" stroke-linejoin="round"/>
</svg>
