<svg width="87" height="90" viewBox="0 0 87 90" fill="none" xmlns="http://www.w3.org/2000/svg">
<g id="icons" clip-path="url(#clip0_1277_18624)">
<g id="Group">
<g id="Group_2">
<path id="Vector" d="M11.55 89.3995C5.18 89.3995 0 83.4395 0 76.1095V8.82953C0 7.96953 0.7 7.26953 1.56 7.26953H66.04C66.9 7.26953 67.6 7.96953 67.6 8.82953V25.1795C67.6 26.0395 66.9 26.7395 66.04 26.7395C65.18 26.7395 64.48 26.0395 64.48 25.1795V10.3995H3.12V76.1195C3.12 82.3995 7.49 86.2795 11.55 86.2795C17.21 86.2795 21.17 81.6895 21.17 75.1295C21.17 74.2695 21.87 73.5695 22.73 73.5695H50.6C51.46 73.5695 52.16 74.2695 52.16 75.1295C52.16 75.9895 51.46 76.6895 50.6 76.6895H24.22C23.59 84.1895 18.4 89.3995 11.55 89.3995Z" fill="#2A3136"/>
<path id="Vector_2" d="M11.5502 89.1997C5.2902 89.1997 0.200195 83.3297 0.200195 76.1097V8.82973C0.200195 8.07973 0.810195 7.46973 1.5602 7.46973H66.0402C66.7902 7.46973 67.4002 8.07973 67.4002 8.82973V25.1797C67.4002 25.9297 66.7902 26.5397 66.0402 26.5397C65.2902 26.5397 64.6802 25.9297 64.6802 25.1797V10.1997H2.9202V76.1197C2.9202 82.5197 7.4002 86.4797 11.5502 86.4797C17.3302 86.4797 21.3702 81.8097 21.3702 75.1297C21.3702 74.3797 21.9802 73.7697 22.7302 73.7697H50.6002C51.3502 73.7697 51.9602 74.3797 51.9602 75.1297C51.9602 75.8797 51.3502 76.4897 50.6002 76.4897H24.0402C23.4902 83.9397 18.4002 89.1997 11.5502 89.1997Z" fill="#2A3136"/>
</g>
<g id="Group_3">
<path id="Vector_3" d="M12.4599 89.4002C11.5999 89.4002 10.8999 88.7002 10.8999 87.8402C10.8999 86.9802 11.5999 86.2802 12.4599 86.2802H64.5299C70.9499 86.2802 75.7799 81.4502 75.7799 75.0502C75.7799 74.1902 76.4799 73.4902 77.3399 73.4902C78.1999 73.4902 78.8999 74.1902 78.8999 75.0502C78.8999 83.1002 72.5799 89.4002 64.5199 89.4002H12.4599Z" fill="#2A3136"/>
<path id="Vector_4" d="M64.5301 89.2004H12.4601C11.7101 89.2004 11.1001 88.5904 11.1001 87.8404C11.1001 87.0904 11.7101 86.4804 12.4601 86.4804H64.5301C71.0601 86.4804 75.9801 81.5704 75.9801 75.0504C75.9801 74.3004 76.5901 73.6904 77.3401 73.6904C78.0901 73.6904 78.7001 74.3004 78.7001 75.0504C78.7001 82.9904 72.4701 89.2004 64.5201 89.2004H64.5301Z" fill="#2A3136"/>
</g>
<g id="Group_4">
<path id="Vector_5" d="M74.2201 19.47C73.3601 19.47 72.6601 18.77 72.6601 17.91V3.12H13.3701C12.5101 3.12 11.8101 2.42 11.8101 1.56C11.8101 0.7 12.5101 0 13.3701 0H74.2201C75.0801 0 75.7801 0.7 75.7801 1.56V17.91C75.7801 18.77 75.0801 19.47 74.2201 19.47Z" fill="#2A3136"/>
<path id="Vector_6" d="M74.2203 19.2702C73.4703 19.2702 72.8603 18.6602 72.8603 17.9102V2.9202H13.3703C12.6203 2.9202 12.0103 2.3102 12.0103 1.5602C12.0103 0.810195 12.6203 0.200195 13.3703 0.200195H74.2203C74.9703 0.200195 75.5803 0.810195 75.5803 1.5602V17.9102C75.5803 18.6602 74.9703 19.2702 74.2203 19.2702Z" fill="#2A3136"/>
</g>
<g id="Group_5">
<path id="Vector_7" d="M11.5502 23.1005C10.6902 23.1005 9.99023 22.4005 9.99023 21.5405C9.99023 20.6805 10.6902 19.9805 11.5502 19.9805H50.6002C51.4602 19.9805 52.1602 20.6805 52.1602 21.5405C52.1602 22.4005 51.4602 23.1005 50.6002 23.1005H11.5502Z" fill="#2A3136"/>
<path id="Vector_8" d="M50.6004 22.9007H11.5504C10.8004 22.9007 10.1904 22.2907 10.1904 21.5407C10.1904 20.7907 10.8004 20.1807 11.5504 20.1807H50.6004C51.3504 20.1807 51.9604 20.7907 51.9604 21.5407C51.9604 22.2907 51.3504 22.9007 50.6004 22.9007Z" fill="#2A3136"/>
</g>
<g id="Group_6">
<path id="Vector_9" d="M44.2499 34.91C43.3899 34.91 42.6899 34.21 42.6899 33.35C42.6899 32.49 43.3899 31.79 44.2499 31.79H48.7899C49.6499 31.79 50.3499 32.49 50.3499 33.35C50.3499 34.21 49.6499 34.91 48.7899 34.91H44.2499Z" fill="#2A3136"/>
<path id="Vector_10" d="M48.7901 34.7102H44.2501C43.5001 34.7102 42.8901 34.1002 42.8901 33.3502C42.8901 32.6002 43.5001 31.9902 44.2501 31.9902H48.7901C49.5401 31.9902 50.1501 32.6002 50.1501 33.3502C50.1501 34.1002 49.5401 34.7102 48.7901 34.7102Z" fill="#2A3136"/>
</g>
<g id="Group_7">
<path id="Vector_11" d="M11.5502 34.91C10.6902 34.91 9.99023 34.21 9.99023 33.35C9.99023 32.49 10.6902 31.79 11.5502 31.79H32.4402C33.3002 31.79 34.0002 32.49 34.0002 33.35C34.0002 34.21 33.3002 34.91 32.4402 34.91H11.5502Z" fill="#2A3136"/>
<path id="Vector_12" d="M32.4404 34.7102H11.5504C10.8004 34.7102 10.1904 34.1002 10.1904 33.3502C10.1904 32.6002 10.8004 31.9902 11.5504 31.9902H32.4404C33.1904 31.9902 33.8004 32.6002 33.8004 33.3502C33.8004 34.1002 33.1904 34.7102 32.4404 34.7102Z" fill="#2A3136"/>
</g>
<g id="Group_8">
<path id="Vector_13" d="M11.5502 46.7196C10.6902 46.7196 9.99023 46.0196 9.99023 45.1596C9.99023 44.2996 10.6902 43.5996 11.5502 43.5996H27.9002C28.7602 43.5996 29.4602 44.2996 29.4602 45.1596C29.4602 46.0196 28.7602 46.7196 27.9002 46.7196H11.5502Z" fill="#2A3136"/>
<path id="Vector_14" d="M27.9004 46.5198H11.5504C10.8004 46.5198 10.1904 45.9098 10.1904 45.1598C10.1904 44.4098 10.8004 43.7998 11.5504 43.7998H27.9004C28.6504 43.7998 29.2604 44.4098 29.2604 45.1598C29.2604 45.9098 28.6504 46.5198 27.9004 46.5198Z" fill="#2A3136"/>
</g>
</g>
<path id="Vector_15" d="M66.9502 69.2198C76.7312 69.2198 84.6602 61.2908 84.6602 51.5098C84.6602 41.7288 76.7312 33.7998 66.9502 33.7998C57.1693 33.7998 49.2402 41.7288 49.2402 51.5098C49.2402 61.2908 57.1693 69.2198 66.9502 69.2198Z" stroke="#2A3136" stroke-width="3" stroke-miterlimit="10"/>
<path id="Vector_16" d="M64.6602 58.0097C64.2702 58.0097 63.8902 57.8497 63.6202 57.5697L57.9102 51.6997C57.3502 51.1197 57.3602 50.2097 57.9402 49.6497C58.5202 49.0897 59.4402 49.0997 59.9902 49.6797L64.6102 54.4297L74.1702 43.7297C74.7002 43.1297 75.6202 43.0797 76.2202 43.6197C76.8202 44.1497 76.8702 45.0697 76.3302 45.6697L65.7302 57.5297C65.4602 57.8297 65.0802 58.0097 64.6802 58.0097H64.6502H64.6602Z" fill="#2A3136"/>
</g>
<defs>
<clipPath id="clip0_1277_18624">
<rect width="86.16" height="89.4" fill="white"/>
</clipPath>
</defs>
</svg>
