<svg width="48" height="48" viewBox="0 0 48 48" fill="none" xmlns="http://www.w3.org/2000/svg">
<g id="icons">
<g id="Group 29103">
<path id="Vector" d="M25.1022 11.985C24.9157 10.0183 25.0144 3.81267 33.4449 2.39844L33.0646 4.70024L36.1112 3.77952L35.7309 5.62096L38.2436 5.00592L37.8632 6.30966C37.8632 6.30966 40.4527 8.83981 39.4615 12.5964L38.3533 12.5853L36.6452 9.83787C33.412 11.6462 29.5424 13.3329 25.7788 12.7032C25.4168 12.6442 25.1388 12.3533 25.1022 11.985Z" fill="#FD7C7C"/>
<path id="Vector_2" d="M3.19042 35.4077C3.19042 35.4077 5.43612 30.2774 11.2625 29.3125C11.2844 30.6457 13.1132 33.9603 15.9002 33.9198C18.4129 33.883 20.7866 32.5092 21.1816 29.3125C21.1816 29.3125 28.3795 30.9367 29.5719 35.4335L25.5486 38.1036V42.4309C25.5486 42.4309 20.6659 45.2115 16.0392 45.009C11.4125 44.8064 6.52971 42.7992 6.52971 42.7992L6.89546 38.505L3.18677 35.4077H3.19042Z" fill="#76CFF9"/>
<path id="Vector_3" d="M44.6223 38.0838C44.4541 38.3747 44.0847 38.4778 43.7921 38.3084C43.5031 38.139 43.4007 37.767 43.569 37.4724C43.7372 37.1815 44.1066 37.0783 44.3992 37.2477C44.6881 37.4172 44.7906 37.7891 44.6223 38.0838Z" fill="#263357"/>
<path id="Vector_4" d="M6.7163 42.7967C6.41273 42.7967 6.16768 42.5499 6.16768 42.2442V38.4398L3.04053 35.6666C2.81376 35.464 2.79182 35.1141 2.99298 34.8858C3.19414 34.6575 3.53795 34.6354 3.76837 34.8379L7.08205 37.7769C7.19909 37.8837 7.26858 38.0347 7.26858 38.193V42.2442C7.26858 42.5499 7.02353 42.7967 6.71996 42.7967H6.7163Z" fill="#263357"/>
<path id="Vector_5" d="M25.3692 42.7978C25.0656 42.7978 24.8206 42.5511 24.8206 42.2454V38.1942C24.8206 38.0285 24.8937 37.8738 25.0217 37.767L28.2952 35.0527C28.5292 34.8575 28.8731 34.8907 29.0669 35.13C29.2607 35.3658 29.2242 35.7119 28.9901 35.9071L25.9141 38.4557V42.2491C25.9141 42.5547 25.6691 42.8015 25.3655 42.8015L25.3692 42.7978Z" fill="#263357"/>
<path id="Vector_6" d="M16.1816 45.3745H16.1341C10.7832 45.3745 5.60784 43.4373 1.56266 39.9238C1.43099 39.8097 1.36149 39.6439 1.37247 39.4708C1.71993 34.1233 5.61881 29.7407 10.8563 28.8126L10.9368 28.7978C10.9697 28.7905 10.999 28.7868 11.0282 28.7831C11.1562 28.7647 11.2879 28.7905 11.3976 28.8604L11.65 29.0188C11.7926 29.1072 11.8877 29.2582 11.906 29.4276C12.1401 31.6116 14.0127 33.2615 16.2658 33.2615C18.5188 33.2615 20.3877 31.6152 20.6218 29.4313C20.6291 29.3466 20.6584 29.2692 20.7023 29.1993L20.8047 29.0335C20.9181 28.8531 21.1266 28.7536 21.3387 28.7794C21.3972 28.7868 21.4484 28.7942 21.5033 28.8052C21.5179 28.8052 21.5289 28.8052 21.5399 28.8089C26.7189 29.7259 30.6141 34.057 31.0201 39.3456C31.0347 39.5187 30.9652 39.6881 30.8335 39.8023C26.792 43.3821 21.5874 45.3598 16.178 45.3745H16.1816ZM2.488 39.2683C6.2991 42.4945 11.1343 44.2696 16.1304 44.2696H16.178C21.2253 44.2586 26.0898 42.4429 29.9009 39.1578C29.4364 34.6021 26.0971 30.8787 21.6532 29.9579C21.1814 32.4991 18.9357 34.3664 16.2658 34.3664C13.5958 34.3664 11.3318 32.4844 10.871 29.9322C6.3247 30.8087 2.90861 34.6094 2.488 39.2683Z" fill="#263357"/>
<path id="Vector_7" d="M32.3184 41.6919C32.0148 41.6919 31.7698 41.4451 31.7698 41.1394C31.7698 40.8337 32.0148 40.587 32.3184 40.587H32.3915C35.7199 40.5796 39.0409 39.7657 41.9924 38.2373C42.2631 38.0974 42.5923 38.2042 42.7313 38.4767C42.8702 38.7492 42.7642 39.0807 42.4935 39.2206C39.3883 40.8264 35.8954 41.6808 32.3915 41.6919H32.3147H32.3184Z" fill="#263357"/>
<path id="Vector_8" d="M32.6843 38.7479C32.3808 38.7479 32.1357 38.5012 32.1357 38.1955C32.1357 37.8898 32.3808 37.6431 32.6843 37.6431H32.8087C37.4793 37.632 41.978 35.9563 45.5075 32.9179C45.0722 28.7268 42.0036 25.3017 37.9219 24.4362C37.4647 26.7933 35.3726 28.5242 32.8855 28.5242C30.2521 28.5242 28.0613 26.5834 27.787 24.0127C27.754 23.7107 27.9735 23.4382 28.2734 23.405C28.577 23.3682 28.844 23.5929 28.8769 23.8949C29.0927 25.9057 30.8154 27.4194 32.8855 27.4194C34.9556 27.4194 36.6747 25.9057 36.8941 23.8985C36.9014 23.8138 36.9307 23.7365 36.9746 23.6628L37.0697 23.5082C37.183 23.3277 37.3879 23.2283 37.6037 23.254C37.6585 23.2614 37.7061 23.2688 37.7573 23.2798C37.7719 23.2798 37.7829 23.2798 37.7938 23.2835C42.6181 24.1379 46.2536 28.1744 46.6267 33.1058C46.6413 33.2789 46.5718 33.4483 46.4401 33.5624C42.6802 36.8918 37.8377 38.7332 32.8087 38.7443H32.6807L32.6843 38.7479Z" fill="#263357"/>
<path id="Vector_9" d="M39.0885 16.3122C39.052 16.3122 39.0154 16.3122 38.9788 16.3011C38.6826 16.2422 38.4924 15.9439 38.5509 15.6419C38.635 15.211 38.924 15.0047 39.1141 14.8685C39.3299 14.7175 39.5165 14.5849 39.6481 14.0325C39.8091 13.3511 39.6774 12.935 39.4762 12.8282C39.3592 12.7655 39.2166 12.7987 39.1141 12.9092C38.9093 13.1338 38.5619 13.1486 38.3388 12.9386C38.1157 12.7324 38.101 12.3825 38.3095 12.1579C38.7484 11.6791 39.4397 11.5539 39.9956 11.8522C40.2663 11.9995 41.1184 12.6035 40.7161 14.2903C40.4894 15.2478 40.0249 15.5756 39.7469 15.7745C39.6993 15.8076 39.6335 15.8555 39.6152 15.8739C39.564 16.1354 39.3409 16.3122 39.0849 16.3122H39.0885Z" fill="#263357"/>
<path id="Vector_10" d="M32.8633 23.1529C29.5753 23.1529 26.7297 20.074 26.097 15.835C26.0531 15.533 26.2579 15.2531 26.5578 15.2052C26.8577 15.161 27.1357 15.3672 27.1833 15.6692C27.7355 19.3668 30.1239 22.048 32.867 22.048C35.6101 22.048 37.9984 19.3668 38.5507 15.6692C38.5946 15.3672 38.8726 15.161 39.1762 15.2052C39.4761 15.2494 39.6809 15.533 39.637 15.835C39.0043 20.074 36.1587 23.1529 32.8707 23.1529H32.8633Z" fill="#263357"/>
<path id="Vector_11" d="M31.2211 15.1752H29.7581C29.4545 15.1752 29.2095 14.9284 29.2095 14.6227C29.2095 14.3171 29.4545 14.0703 29.7581 14.0703H31.2211C31.5247 14.0703 31.7697 14.3171 31.7697 14.6227C31.7697 14.9284 31.5247 15.1752 31.2211 15.1752Z" fill="#263357"/>
<path id="Vector_12" d="M35.9757 15.1752H34.5127C34.2092 15.1752 33.9641 14.9284 33.9641 14.6227C33.9641 14.3171 34.2092 14.0703 34.5127 14.0703H35.9757C36.2793 14.0703 36.5244 14.3171 36.5244 14.6227C36.5244 14.9284 36.2793 15.1752 35.9757 15.1752Z" fill="#263357"/>
<path id="Vector_13" d="M32.8635 20.2827C32.1942 20.2827 31.5139 20.0359 30.8958 19.5645C30.6544 19.3804 30.6068 19.0342 30.7897 18.7911C30.9726 18.548 31.3164 18.5001 31.5578 18.6843C32.4173 19.3398 33.3024 19.3398 34.1619 18.6843C34.4033 18.5001 34.7471 18.548 34.93 18.7911C35.1129 19.0342 35.0653 19.3804 34.8239 19.5645C34.2058 20.0359 33.5292 20.2827 32.8562 20.2827H32.8635Z" fill="#263357"/>
<path id="Vector_14" d="M40.1124 11.1202C40.1124 11.1202 40.0941 11.1202 40.0831 11.1202C39.7795 11.1054 39.5491 10.844 39.5637 10.5383C39.6259 9.38554 38.9164 7.51832 37.8703 6.73755C37.6289 6.55708 37.5777 6.21089 37.7569 5.96414C37.9398 5.72107 38.2836 5.66951 38.525 5.84997C39.9002 6.8775 40.7378 9.1351 40.661 10.5972C40.6464 10.8918 40.4013 11.1202 40.1124 11.1202Z" fill="#263357"/>
<path id="Vector_15" d="M24.6378 11.1239C24.6159 11.1239 24.5976 11.1239 24.5757 11.1239C24.2757 11.0908 24.0563 10.8182 24.0892 10.5126C24.4696 7.058 28.2075 2.05664 33.9644 2.05664C34.268 2.05664 34.513 2.30339 34.513 2.60907C34.513 2.91475 34.268 3.16151 33.9644 3.16151C28.8403 3.16151 25.5193 7.58097 25.1828 10.6341C25.1499 10.9177 24.9121 11.1239 24.6378 11.1239Z" fill="#263357"/>
<path id="Vector_16" d="M38.1162 6.67939C38.0467 6.67939 37.9736 6.66466 37.9041 6.63519C37.6261 6.51734 37.4945 6.19325 37.6115 5.90966L37.7541 5.56715C37.1543 5.6224 36.5252 5.84337 36.2655 5.95386C36.068 6.03856 35.8413 6.00174 35.6803 5.85442C35.5231 5.71079 35.4609 5.48613 35.5231 5.27989L35.7608 4.51753C34.7294 4.66116 33.9248 5.03314 33.9174 5.03682C33.6431 5.16572 33.3176 5.04418 33.1896 4.76797C33.0616 4.49175 33.1823 4.16397 33.4566 4.03507C33.5151 4.00929 34.9196 3.35742 36.5289 3.35742C36.7044 3.35742 36.869 3.44213 36.9714 3.58208C37.0738 3.72203 37.1068 3.90617 37.0519 4.07558L36.891 4.59487C37.4323 4.46597 38.0943 4.38495 38.6868 4.52121C38.8441 4.55804 38.9794 4.66485 39.0525 4.80848C39.1257 4.95211 39.133 5.12521 39.0708 5.27621L38.6246 6.34056C38.5368 6.55049 38.332 6.67939 38.1199 6.67939H38.1162Z" fill="#263357"/>
<path id="Vector_17" d="M16.2691 37.0764C12.5494 37.0764 9.33816 34.2885 8.79685 30.5909C8.75296 30.2889 8.96144 30.009 9.26135 29.9648C9.55761 29.9206 9.83924 30.1268 9.88313 30.4325C10.3476 33.5924 13.0907 35.9752 16.2691 35.9752C19.4475 35.9752 22.2198 33.574 22.6624 30.3846C22.7063 30.0826 22.9842 29.8727 23.2805 29.9132C23.5804 29.9574 23.7889 30.2336 23.7487 30.5356C23.2293 34.2627 20.0144 37.0764 16.2691 37.0764Z" fill="#263357"/>
<path id="Vector_18" d="M14.0314 21.0678H12.5684C12.2648 21.0678 12.0198 20.821 12.0198 20.5153C12.0198 20.2096 12.2648 19.9629 12.5684 19.9629H14.0314C14.335 19.9629 14.58 20.2096 14.58 20.5153C14.58 20.821 14.335 21.0678 14.0314 21.0678Z" fill="#263357"/>
<path id="Vector_19" d="M19.5172 21.0678H18.0542C17.7507 21.0678 17.5056 20.821 17.5056 20.5153C17.5056 20.2096 17.7507 19.9629 18.0542 19.9629H19.5172C19.8208 19.9629 20.0659 20.2096 20.0659 20.5153C20.0659 20.821 19.8208 21.0678 19.5172 21.0678Z" fill="#263357"/>
<path id="Vector_20" d="M25.0114 29.3427C24.7847 29.3427 24.5726 29.199 24.4921 28.9744C24.3458 28.5582 24.2507 28.1015 24.1922 27.5786C23.9398 25.2105 23.991 24.3082 24.5908 20.6952C25.0005 18.2167 24.4226 12.6003 21.1894 10.2137C19.2729 8.79952 16.7272 8.23236 14.2109 8.65589C12.9088 8.87318 9.94992 10.5415 9.94992 12.4677C9.94992 12.7071 9.79996 12.917 9.5732 12.9906C8.77953 13.2558 8.43206 14.0071 8.09557 14.7327C8.04071 14.8505 7.98951 14.961 7.9383 15.0678C7.7664 15.5245 5.01597 23.0192 7.34579 27.8548C7.47746 28.131 7.36408 28.4588 7.09342 28.5914C6.82277 28.7239 6.4936 28.6098 6.36193 28.3372C3.7578 22.9381 6.79717 14.9794 6.92884 14.6443C6.93615 14.6295 6.93981 14.6148 6.94712 14.6001C6.99833 14.4969 7.04953 14.3828 7.1044 14.2686C7.44089 13.5468 7.8871 12.5818 8.87828 12.092C9.19648 9.51032 12.6747 7.79778 14.0353 7.56944C16.8406 7.09803 19.6898 7.73885 21.8441 9.32617C25.465 11.9963 26.1306 18.1688 25.6808 20.8794C25.0992 24.4002 25.0517 25.1994 25.2931 27.4644C25.3406 27.9027 25.4211 28.2783 25.5381 28.6135C25.6369 28.9007 25.4869 29.2174 25.2016 29.3169C25.1431 29.339 25.0809 29.3463 25.0188 29.3463L25.0114 29.3427Z" fill="#263357"/>
<path id="Vector_21" d="M16.1202 29.5895C16.1202 29.5895 16.1056 29.5895 16.0983 29.5895C13.688 29.4974 11.3838 27.516 10.1695 25.5972C8.90033 23.5901 8.85278 20.9053 8.84912 20.7948C8.84912 16.2169 10.9339 14.486 11.0217 14.416C11.1753 14.2945 11.3801 14.2613 11.5593 14.3313C12.3347 14.6296 14.0318 15.635 15.1144 16.3016C15.1546 15.6829 15.3265 14.9206 15.6301 14.0072C15.7069 13.7789 15.9081 13.6131 16.1641 13.6279C16.4055 13.6315 16.614 13.7973 16.6798 14.0293C17.2138 15.9113 20.5458 17.4691 21.9832 18.1357C21.6357 16.9056 21.098 15.9665 20.7177 15.3993C20.5458 15.1489 20.6116 14.8027 20.8603 14.6333C21.1127 14.4602 21.4528 14.5265 21.6211 14.7769C22.316 15.8008 23.4718 17.9442 23.4169 20.769C23.4023 21.524 23.3693 23.5348 22.0636 25.5972C20.8493 27.516 18.5451 29.4974 16.1348 29.5895C16.1275 29.5895 16.1202 29.5895 16.1129 29.5895H16.1202ZM11.4935 15.4988C11.0217 16.0512 9.95002 17.6496 9.95002 20.7837C9.95002 20.8021 9.99757 23.2623 11.0985 25.0006C12.1226 26.6174 14.1269 28.3926 16.1202 28.4846C18.1172 28.3962 20.1215 26.6211 21.1456 25.0006C22.2831 23.1997 22.316 21.4172 22.327 20.7469C22.3343 20.3013 22.3087 19.874 22.2575 19.4689C22.2099 19.4579 22.1587 19.4395 22.1112 19.4174C21.9832 19.3511 21.7857 19.2553 21.5333 19.1411C20.169 18.504 17.6161 17.3144 16.3177 15.6424C16.1129 16.6294 16.2336 17.0124 16.2921 17.1266C16.4018 17.3476 16.3506 17.6164 16.1714 17.7822C15.9885 17.9479 15.7179 17.9737 15.5094 17.8411C14.6974 17.3255 12.5615 16.0144 11.4935 15.5025V15.4988Z" fill="#263357"/>
<path id="Vector_22" d="M16.0606 26.7317C15.2706 26.7317 14.4659 26.437 13.7381 25.8809C13.4967 25.6968 13.4491 25.3506 13.632 25.1075C13.8149 24.8644 14.1587 24.8166 14.4001 25.0007C15.49 25.833 16.6311 25.833 17.7211 25.0007C17.9625 24.8166 18.3063 24.8644 18.4891 25.1075C18.672 25.3506 18.6245 25.6968 18.3831 25.8809C17.6516 26.437 16.8506 26.7317 16.0606 26.7317Z" fill="#263357"/>
</g>
</g>
</svg>
