<svg class="loading_spinner" width="96" height="97" viewBox="0 0 96 97" fill="none" xmlns="http://www.w3.org/2000/svg">
  <g>
    <path class="ani_01" opacity="1" d="M50.082 14.6203V1.51245C50.082 0.677145 49.4049 0 48.5696 0C47.7343 0 47.0571 0.677145 47.0571 1.51245V14.6203C47.0571 15.4556 47.7343 16.1328 48.5696 16.1328C49.4049 16.1328 50.082 15.4556 50.082 14.6203Z" fill="rgba(255,255,255,0.3)"/>
    <path class="ani_02" opacity="1" d="M31.7315 19.0123L24.7854 7.89615C24.3427 7.18778 23.4096 6.97236 22.7013 7.415C21.9929 7.85764 21.7775 8.79073 22.2201 9.4991L29.1662 20.6152C29.6089 21.3236 30.5419 21.539 31.2503 21.0964C31.9587 20.6537 32.1741 19.7206 31.7315 19.0123Z" fill="rgba(255,255,255,0.3)"/>
    <path class="ani_03" opacity="1" d="M18.482 32.4764L6.70069 26.7303C5.94992 26.3641 5.04447 26.6759 4.6783 27.4266C4.31212 28.1774 4.6239 29.0829 5.37466 29.449L17.1559 35.1951C17.9067 35.5613 18.8122 35.2495 19.1783 34.4988C19.5445 33.748 19.2327 32.8426 18.482 32.4764Z" fill="rgba(255,255,255,0.3)"/>
    <path class="ani_04" opacity="1" d="M14.3869 50.9072L1.35084 52.2773C0.520115 52.3646 -0.0825394 53.1089 0.00477336 53.9396C0.0920861 54.7703 0.836303 55.373 1.66703 55.2857L14.7031 53.9155C15.5338 53.8282 16.1365 53.084 16.0492 52.2533C15.9618 51.4225 15.2176 50.8199 14.3869 50.9072Z" fill="rgba(255,255,255,0.3)"/>
    <path class="ani_05" opacity="1" d="M20.6816 68.7071L10.3525 76.7771C9.69424 77.2914 9.57754 78.2418 10.0918 78.9001C10.6061 79.5583 11.5566 79.675 12.2148 79.1607L22.5439 71.0907C23.2021 70.5765 23.3189 69.626 22.8046 68.9678C22.2903 68.3095 21.3398 68.1928 20.6816 68.7071Z" fill="rgba(255,255,255,0.3)"/>
    <path class="ani_06" opacity="1" d="M35.4487 80.4695L30.9655 92.7869C30.6798 93.5718 31.0846 94.4397 31.8695 94.7254C32.6544 95.0111 33.5223 94.6064 33.808 93.8215L38.2912 81.5041C38.5768 80.7192 38.1721 79.8513 37.3872 79.5656C36.6023 79.2799 35.7344 79.6846 35.4487 80.4695Z" fill="rgba(255,255,255,0.3)"/>
    <path class="ani_07" opacity="1" d="M54.2112 82.608L56.9365 95.4294C57.1102 96.2465 57.9133 96.768 58.7304 96.5944C59.5474 96.4207 60.069 95.6176 59.8953 94.8005L57.17 81.9791C56.9964 81.162 56.1932 80.6405 55.3762 80.8141C54.5591 80.9878 54.0376 81.7909 54.2112 82.608Z" fill="rgba(255,255,255,0.3)"/>
    <path class="ani_08" opacity="1" d="M71.2433 74.4894L80.3488 83.9184C80.929 84.5193 81.8865 84.536 82.4874 83.9557C83.0882 83.3755 83.105 82.418 82.5247 81.8171L73.4192 72.3881C72.839 71.7872 71.8815 71.7705 71.2806 72.3508C70.6798 72.931 70.663 73.8885 71.2433 74.4894Z" fill="rgba(255,255,255,0.3)"/>
    <path class="ani_09" opacity="1" d="M81.3984 58.5801L94.117 61.7512C94.9274 61.9532 95.7483 61.46 95.9504 60.6495C96.1524 59.8391 95.6592 59.0182 94.8487 58.8161L82.1302 55.6451C81.3197 55.443 80.4989 55.9362 80.2968 56.7467C80.0947 57.5572 80.588 58.378 81.3984 58.5801Z" fill="rgba(255,255,255,0.3)"/>
    <path class="ani_10" opacity="1" d="M81.5762 39.698L94.0425 35.6474C94.837 35.3893 95.2717 34.5361 95.0136 33.7416C94.7555 32.9472 93.9022 32.5125 93.1078 32.7706L80.6415 36.8211C79.8471 37.0793 79.4123 37.9325 79.6704 38.7269C79.9285 39.5213 80.7818 39.9561 81.5762 39.698Z" fill="rgba(255,255,255,0.3)"/>
    <path class="ani_11" opacity="1" d="M71.717 23.5945L80.1426 13.5533C80.6795 12.9134 80.596 11.9594 79.9561 11.4225C79.3163 10.8856 78.3623 10.969 77.8254 11.6089L69.3998 21.6501C68.8629 22.29 68.9463 23.244 69.5862 23.7809C70.2261 24.3178 71.1801 24.2343 71.717 23.5945Z" fill="rgba(255,255,255,0.3)"/>
  </g>
</svg>