<svg width="92" height="24" viewBox="0 0 92 24" fill="none" xmlns="http://www.w3.org/2000/svg">
<path d="M79.7778 16.9208L76.4155 23.8342H77.9873L80.4179 18.8299L82.8485 23.8342H84.4283L81.066 16.9208H79.7778Z" fill="#2A3136"/>
<path d="M20.0338 16.807C18.065 16.807 16.4771 18.4074 16.4771 20.3734C16.4771 22.3394 18.0731 23.9398 20.0338 23.9398C21.9945 23.9398 23.5905 22.3394 23.5905 20.3734C23.5905 18.3993 22.0026 16.807 20.0338 16.807ZM20.0338 22.5181C18.8509 22.5181 17.8868 21.5595 17.8868 20.3653C17.8868 19.1711 18.8428 18.2124 20.0338 18.2124C21.2248 18.2124 22.1808 19.1711 22.1808 20.3653C22.1808 21.5595 21.2248 22.5181 20.0338 22.5181Z" fill="#2A3136"/>
<path d="M63.0797 16.807C61.1109 16.807 59.5229 18.4074 59.5229 20.3734C59.5229 22.3475 61.119 23.9398 63.0797 23.9398C65.0404 23.9398 66.6364 22.3394 66.6364 20.3734C66.6364 18.3993 65.0485 16.807 63.0797 16.807ZM63.0797 22.5181C61.8968 22.5181 60.9408 21.5595 60.9408 20.3653C60.9408 19.1711 61.8968 18.2206 63.0878 18.2206C64.2707 18.2206 65.2267 19.1792 65.2267 20.3734C65.2267 21.5676 64.2707 22.5262 63.0878 22.5262" fill="#2A3136"/>
<path d="M5.92067 17.5703C5.67761 17.3509 5.40215 17.1885 5.09427 17.0829C4.73779 16.961 4.3651 16.9041 3.98431 16.9123H1.15674V23.8338H2.6799V21.7541H3.83037C4.20306 21.7541 4.56765 21.7053 4.92413 21.5997C5.24821 21.5104 5.54798 21.3479 5.81535 21.1367C6.0665 20.9336 6.27715 20.6736 6.41489 20.373C6.56882 20.0399 6.64174 19.6825 6.63364 19.3169V19.3007C6.63364 18.9676 6.57693 18.6345 6.4473 18.3258C6.33387 18.0415 6.15563 17.7815 5.92067 17.5703ZM5.08617 19.3575C5.08617 19.6419 4.98085 19.91 4.7702 20.1049C4.52714 20.3162 4.20306 20.4299 3.87899 20.4055H2.6799V18.2933H3.85468C4.17876 18.2771 4.49473 18.3664 4.75399 18.5614C4.98085 18.7564 5.10238 19.0407 5.08617 19.3413V19.3575Z" fill="#2A3136"/>
<path d="M14.0224 20.5847C14.3059 20.1867 14.4518 19.7073 14.4275 19.2118V19.1955C14.4518 18.6106 14.2411 18.0338 13.836 17.6114C13.2851 17.1158 12.564 16.8559 11.8267 16.9046H8.66699V23.8261H10.1902V21.6083H11.3811L12.8638 23.8261H14.6381L12.9529 21.3565C13.3742 21.2021 13.7469 20.9341 14.0224 20.5766M12.8881 19.293C12.8962 19.5611 12.7909 19.8211 12.5883 20.0079C12.3453 20.2029 12.0374 20.2923 11.7214 20.276H10.1821V18.2857H11.689C11.9969 18.2694 12.3129 18.3507 12.564 18.5294C12.7828 18.7081 12.8962 18.9843 12.88 19.2687V19.293H12.8881Z" fill="#2A3136"/>
<path d="M25.6406 23.8343H27.1638V21.1534H30.4613V19.7804H27.1638V18.2857H30.9069V16.9127H25.6487V23.8343H25.6406Z" fill="#2A3136"/>
<path d="M34.439 21.0229H37.696V19.6662H34.439V18.2607H38.1416V16.9041H32.9402V23.8256H38.1902V22.4689H34.439V21.0147V21.0229Z" fill="#2A3136"/>
<path d="M55.958 16.9127H57.4812V23.8343H55.958V16.9127Z" fill="#2A3136"/>
<path d="M73.3204 21.1691L70.0796 16.9041H68.678V23.8256H70.1768V19.4225L73.5229 23.8256H74.8111V16.9041H73.3204V21.1691Z" fill="#2A3136"/>
<path d="M87.5473 22.4613V16.9127H86.0242V23.8343H90.9826V22.4613H87.5392H87.5473Z" fill="#2A3136"/>
<path d="M44.04 19.8854L42.6384 19.4955C41.8525 19.2843 41.8039 18.9999 41.8444 18.7806C41.9011 18.4719 42.2981 18.2282 43.1245 18.2282C43.5134 18.2282 43.8942 18.3338 44.2425 18.5125C44.4451 18.6262 44.6314 18.7643 44.8097 18.9187L44.915 19.0081L45.871 17.9682C45.6037 17.6839 45.2958 17.4483 44.9555 17.2696C44.3965 16.969 43.7645 16.8065 43.1326 16.8146C41.5932 16.8146 40.5319 17.6839 40.3941 18.5206C40.2807 19.0406 40.4103 19.5767 40.7344 19.9992C41.1314 20.4379 41.6661 20.7466 42.2495 20.8766L43.6511 21.2665C44.3722 21.4615 44.6071 21.6808 44.5423 22.0626C44.5018 22.282 44.1129 22.5338 43.1407 22.5338C42.4682 22.5176 41.8282 22.2657 41.3258 21.8189L41.2205 21.7214L40.2483 22.8425C41.018 23.5981 42.0631 23.9961 43.1407 23.9555C45.0689 23.9555 45.9358 23.0375 46.0898 22.2495C46.2356 21.6646 46.0412 21.0472 45.5875 20.641C45.1419 20.2754 44.6152 20.0154 44.0562 19.8936" fill="#2A3136"/>
<path d="M51.8342 19.8854L50.4325 19.4955C49.6467 19.2843 49.598 18.9999 49.6386 18.7806C49.6953 18.4719 50.0923 18.2282 50.9187 18.2282C51.3076 18.2282 51.6883 18.3338 52.0367 18.5125C52.2393 18.6262 52.4256 18.7643 52.6039 18.9187L52.7092 19.0081L53.6652 17.9682C53.3978 17.6839 53.09 17.4483 52.7497 17.2696C52.1907 16.969 51.5587 16.8065 50.9268 16.8146C49.3874 16.8146 48.326 17.6839 48.1883 18.5206C48.0749 19.0406 48.2045 19.5767 48.5286 19.9992C48.9256 20.4379 49.4603 20.7466 50.0437 20.8766L51.4453 21.2665C52.1664 21.4615 52.4013 21.6808 52.3365 22.0626C52.296 22.282 51.9071 22.5338 50.9349 22.5338C50.2624 22.5176 49.6224 22.2657 49.12 21.8189L49.0147 21.7214L48.0425 22.8425C48.8122 23.5981 49.8573 23.9961 50.9349 23.9555C52.8631 23.9555 53.73 23.0375 53.884 22.2495C54.0298 21.6646 53.8354 21.0472 53.3816 20.641C52.936 20.2754 52.4094 20.0154 51.8504 19.8936" fill="#2A3136"/>
<path d="M5.17923 0.170898L0 10.8183H2.4217L6.16778 3.11612L9.91385 10.8183H12.3356L7.16106 0.170898H5.17923Z" fill="#10100A"/>
<path d="M35.4601 0C32.433 0 29.9829 2.46146 29.9829 5.49205C29.9829 8.52738 32.4377 10.9841 35.4601 10.9841C38.4873 10.9841 40.9373 8.52263 40.9373 5.49205C40.9373 2.46146 38.4873 0 35.4601 0ZM35.4601 8.80245C33.6391 8.80245 32.1587 7.32273 32.1587 5.49205C32.1587 3.66611 33.6344 2.18164 35.4601 2.18164C37.2859 2.18164 38.7616 3.66137 38.7616 5.49205C38.7616 7.31799 37.2859 8.80245 35.4601 8.80245Z" fill="#2A3136"/>
<path d="M17.666 4.52916L19.5579 7.81111L20.8161 9.99275L22.0742 7.81111L23.9662 4.52916V10.8227H26.1467V0.161133H23.9662L20.8208 5.62947L17.666 0.161133H15.4902V10.8275H17.666V4.52916Z" fill="#2A3136"/>
<path d="M48.5381 8.79771C47.507 8.76925 46.5232 8.38035 45.7522 7.6974L45.5914 7.54089L44.092 9.27198C44.1535 9.34312 45.6151 10.9841 48.5429 10.9841C51.4707 10.9841 52.8423 9.57077 53.0788 8.36138C53.3011 7.45553 53.0032 6.50699 52.3079 5.89044C51.622 5.32605 50.8132 4.93241 49.9476 4.73796L47.7861 4.14512C46.58 3.81313 46.5043 3.38155 46.5658 3.04007C46.6556 2.56106 47.2705 2.19113 48.5429 2.19113C49.1388 2.20061 49.7301 2.35238 50.2598 2.62746C50.572 2.80768 50.8652 3.01636 51.1349 3.25349L51.2957 3.38629L52.7667 1.788C52.3552 1.35641 51.8774 0.991225 51.3572 0.711405C50.4869 0.241878 49.5172 0 48.5381 0C46.1685 0 44.5319 1.33744 44.3191 2.62746C44.1488 3.42423 44.338 4.25895 44.8346 4.90395C45.4495 5.5869 46.2678 6.05643 47.1617 6.24614L49.3233 6.83898C50.4254 7.14251 50.799 7.4745 50.695 8.06259C50.6335 8.39932 50.0328 8.79297 48.5381 8.79297" fill="#2A3136"/>
<path d="M65.1889 5.77541C64.9683 6.24009 64.6612 6.62918 64.2732 6.94269C63.8852 7.2562 63.4301 7.49134 62.9109 7.6481C62.3916 7.80485 61.8333 7.88323 61.2387 7.88323H59.4687V11.0687H57.1377V0.448486H61.4648C62.1013 0.448486 62.668 0.538063 63.1677 0.714414C63.6674 0.890765 64.0917 1.1427 64.4379 1.46461C64.7869 1.78932 65.0521 2.17561 65.2391 2.62629C65.4262 3.07696 65.5183 3.57522 65.5183 4.12107V4.15186C65.5183 4.76769 65.4066 5.31074 65.1861 5.77541H65.1889ZM63.1621 4.16586C63.1621 3.63961 62.9918 3.23931 62.654 2.96779C62.3162 2.69347 61.8556 2.5591 61.2694 2.5591H59.4687V5.8062H61.314C61.8975 5.8062 62.3525 5.65225 62.6764 5.34433C63.0002 5.03642 63.1593 4.65292 63.1593 4.19945V4.16866L63.1621 4.16586Z" fill="#2A3136"/>
<path d="M75.1886 11.0714L72.919 7.67317H71.0876V11.0714H68.7566V0.451172H73.5973C74.8592 0.451172 75.839 0.759086 76.5398 1.37771C77.2405 1.99354 77.5922 2.85571 77.5922 3.9558V3.98659C77.5922 4.84595 77.3828 5.54576 76.9641 6.08881C76.5453 6.62906 75.9982 7.02655 75.3226 7.27848L77.9105 11.0714H75.1858H75.1886ZM75.236 4.07617C75.236 3.56951 75.0741 3.19161 74.7531 2.93968C74.4293 2.68775 73.9826 2.55899 73.4075 2.55899H71.0932V5.60734H73.455C74.03 5.60734 74.4711 5.47018 74.7782 5.19866C75.0853 4.92433 75.2388 4.56043 75.2388 4.10696V4.07617H75.236Z" fill="#2A3136"/>
<path d="M91.5757 7.89157C91.2937 8.55498 90.9029 9.13442 90.4032 9.63549C89.9035 10.1365 89.3088 10.5312 88.6165 10.8196C87.9242 11.1079 87.1704 11.2506 86.3552 11.2506C85.5401 11.2506 84.7863 11.1079 84.0996 10.8196C83.4128 10.5312 82.821 10.1421 82.3213 9.65228C81.8216 9.16242 81.4335 8.58577 81.1572 7.92236C80.8808 7.25894 80.7412 6.54794 80.7412 5.78935V5.75856C80.7412 4.99997 80.8808 4.28897 81.1655 3.62555C81.4475 2.96213 81.8383 2.38269 82.338 1.88163C82.8378 1.38057 83.4324 0.985878 84.1247 0.697558C84.8143 0.409238 85.5708 0.266479 86.386 0.266479C87.2011 0.266479 87.9549 0.412037 88.6416 0.697558C89.3284 0.985878 89.9202 1.37497 90.4199 1.86484C90.9196 2.3547 91.3077 2.93134 91.584 3.59476C91.8604 4.25817 92 4.96918 92 5.72777V5.75856C92 6.51715 91.8576 7.22815 91.5757 7.89157ZM89.5657 5.75856C89.5657 5.30228 89.4875 4.874 89.3312 4.46811C89.1748 4.06503 88.9515 3.70952 88.6667 3.40721C88.3792 3.10489 88.0386 2.86416 87.645 2.68781C87.2514 2.51146 86.8215 2.42188 86.358 2.42188C85.8946 2.42188 85.4535 2.50866 85.0655 2.67941C84.6775 2.85296 84.3453 3.0881 84.0661 3.39321C83.7869 3.69833 83.572 4.04823 83.4156 4.44852C83.2593 4.84881 83.1811 5.27429 83.1811 5.73057V5.76136C83.1811 6.21763 83.2593 6.64591 83.4156 7.0518C83.572 7.45769 83.7925 7.81039 84.08 8.11271C84.3676 8.41502 84.7054 8.65575 85.0934 8.8321C85.4815 9.00846 85.9142 9.09803 86.386 9.09803C86.8577 9.09803 87.2793 9.01126 87.6729 8.8405C88.0665 8.66975 88.4015 8.43182 88.6779 8.1267C88.9543 7.82159 89.172 7.47168 89.3284 7.07139C89.4847 6.67111 89.5629 6.24562 89.5629 5.78935V5.75856H89.5657Z" fill="#2A3136"/>
</svg>
