<svg width="335" height="120" viewBox="0 0 335 120" fill="none" xmlns="http://www.w3.org/2000/svg">
<path d="M32.6434 1.07422L0 68.0007H15.2634L38.874 19.5871L62.4846 68.0007H77.748L45.1344 1.07422H32.6434Z" fill="#10100A"/>
<path d="M223.496 0C204.417 0 188.975 15.4721 188.975 34.5216C188.975 53.6008 204.447 69.0431 223.496 69.0431C242.575 69.0431 258.018 53.571 258.018 34.5216C258.018 15.4721 242.575 0 223.496 0ZM223.496 55.3299C212.019 55.3299 202.688 46.0287 202.688 34.5216C202.688 23.0442 211.989 13.7132 223.496 13.7132C235.003 13.7132 244.304 23.0144 244.304 34.5216C244.304 45.9989 235.003 55.3299 223.496 55.3299Z" fill="#2A3136"/>
<path d="M111.345 28.4695L123.27 49.0989L131.199 62.8121L139.129 49.0989L151.054 28.4695V68.0291H164.797V1.01318H151.054L131.229 35.3857L111.345 1.01318H97.6318V68.0589H111.345V28.4695Z" fill="#2A3136"/>
<path d="M305.924 55.3001C299.425 55.1212 293.225 52.6767 288.365 48.3838L287.352 47.4001L277.902 58.2812C278.289 58.7284 287.501 69.0431 305.954 69.0431C324.407 69.0431 333.053 60.1593 334.543 52.5574C335.944 46.8635 334.066 40.9012 329.684 37.0257C325.361 33.4782 320.263 31.0038 314.808 29.7816L301.184 26.0551C293.582 23.9683 293.105 21.2555 293.493 19.1091C294.059 16.0981 297.935 13.7729 305.954 13.7729C309.71 13.8325 313.437 14.7864 316.776 16.5155C318.743 17.6483 320.591 18.96 322.291 20.4506L323.304 21.2853L332.576 11.2389C329.982 8.52605 326.971 6.23058 323.692 4.4717C318.207 1.52038 312.095 0 305.924 0C290.989 0 280.674 8.40681 279.332 16.5155C278.259 21.5238 279.452 26.7706 282.582 30.825C286.457 35.1178 291.615 38.0691 297.249 39.2616L310.873 42.988C317.819 44.8959 320.174 46.9827 319.518 50.6793C319.131 52.7959 315.345 55.2703 305.924 55.2703" fill="#2A3136"/>
<path d="M293.642 93.4888L281.271 118.858H287.054L295.998 100.494L304.941 118.858H310.754L298.382 93.4888H293.642Z" fill="#2A3136"/>
<path d="M73.8123 93.0713C66.5681 93.0713 60.7251 98.9441 60.7251 106.158C60.7251 113.373 66.5979 119.246 73.8123 119.246C81.0266 119.246 86.8995 113.373 86.8995 106.158C86.8995 98.9143 81.0564 93.0713 73.8123 93.0713ZM73.8123 114.029C69.4598 114.029 65.9123 110.511 65.9123 106.129C65.9123 101.746 69.43 98.2287 73.8123 98.2287C78.1946 98.2287 81.7123 101.746 81.7123 106.129C81.7123 110.511 78.1946 114.029 73.8123 114.029Z" fill="#2A3136"/>
<path d="M232.201 93.0713C224.957 93.0713 219.114 98.9441 219.114 106.158C219.114 113.403 224.987 119.246 232.201 119.246C239.415 119.246 245.288 113.373 245.288 106.158C245.288 98.9143 239.445 93.0713 232.201 93.0713ZM232.201 114.029C227.848 114.029 224.331 110.511 224.331 106.129C224.331 101.746 227.848 98.2585 232.231 98.2585C236.583 98.2585 240.101 101.776 240.101 106.158C240.101 110.541 236.583 114.058 232.231 114.058" fill="#2A3136"/>
<path d="M21.8821 95.8721C20.9878 95.0672 19.9742 94.471 18.8414 94.0834C17.5297 93.6363 16.1583 93.4276 14.7572 93.4574H4.35303V118.857H9.95756V111.225H14.1908C15.5621 111.225 16.9036 111.046 18.2153 110.659C19.4078 110.331 20.5108 109.734 21.4946 108.959C22.4187 108.214 23.1938 107.26 23.7006 106.157C24.267 104.935 24.5353 103.623 24.5055 102.282V102.222C24.5055 101 24.2968 99.7774 23.8198 98.6446C23.4025 97.6012 22.7466 96.6472 21.8821 95.8721ZM18.8115 102.431C18.8115 103.474 18.424 104.458 17.6489 105.173C16.7546 105.948 15.5621 106.366 14.3696 106.276H9.95756V98.5253H14.2802C15.4727 98.4657 16.6353 98.7936 17.5893 99.5091C18.424 100.225 18.8712 101.268 18.8115 102.371V102.431Z" fill="#2A3136"/>
<path d="M51.6926 106.934C52.736 105.473 53.2726 103.714 53.1832 101.896V101.836C53.2726 99.6899 52.4975 97.5733 51.007 96.0231C48.9798 94.2046 46.3266 93.2507 43.6137 93.4295H31.9873V118.829H37.5918V110.69H41.9741L47.4296 118.829H53.9583L47.7575 109.766C49.3077 109.2 50.679 108.216 51.6926 106.904M47.519 102.194C47.5488 103.178 47.1613 104.132 46.416 104.817C45.5217 105.533 44.3888 105.861 43.2262 105.801H37.562V98.4975H43.1069C44.2398 98.4378 45.4024 98.7359 46.3266 99.3918C47.1315 100.048 47.5488 101.061 47.4892 102.105V102.194H47.519Z" fill="#2A3136"/>
<path d="M94.4421 118.859H100.047V109.021H112.18V103.983H100.047V98.4976H113.819V93.4595H94.4719V118.859H94.4421Z" fill="#2A3136"/>
<path d="M126.816 108.542H138.801V103.564H126.816V98.4062H140.44V93.4277H121.301V118.827H140.619V113.849H126.816V108.512V108.542Z" fill="#2A3136"/>
<path d="M205.996 93.4595H211.601V118.859H205.996V93.4595Z" fill="#2A3136"/>
<path d="M269.882 109.079L257.958 93.4277H252.8V118.827H258.315V102.669L270.627 118.827H275.367V93.4277H269.882V109.079Z" fill="#2A3136"/>
<path d="M322.23 113.821V93.4595H316.626V118.859H334.87V113.821H322.201H322.23Z" fill="#2A3136"/>
<path d="M162.144 104.368L156.986 102.937C154.095 102.162 153.916 101.118 154.065 100.314C154.274 99.1807 155.734 98.2864 158.775 98.2864C160.206 98.2864 161.607 98.6739 162.889 99.3298C163.634 99.7471 164.32 100.254 164.976 100.82L165.363 101.148L168.881 97.3324C167.897 96.289 166.765 95.4245 165.513 94.7687C163.456 93.6656 161.13 93.0694 158.805 93.0992C153.141 93.0992 149.236 96.289 148.729 99.3596C148.311 101.268 148.788 103.235 149.981 104.785C151.442 106.395 153.409 107.528 155.556 108.005L160.713 109.436C163.366 110.151 164.231 110.956 163.992 112.357C163.843 113.162 162.412 114.086 158.835 114.086C156.36 114.027 154.005 113.103 152.157 111.463L151.769 111.105L148.192 115.219C151.024 117.992 154.87 119.452 158.835 119.303C165.93 119.303 169.12 115.935 169.686 113.043C170.223 110.897 169.507 108.631 167.838 107.14C166.198 105.799 164.26 104.845 162.203 104.398" fill="#2A3136"/>
<path d="M190.823 104.368L185.666 102.937C182.774 102.162 182.595 101.118 182.744 100.314C182.953 99.1807 184.414 98.2864 187.454 98.2864C188.885 98.2864 190.286 98.6739 191.568 99.3298C192.314 99.7471 192.999 100.254 193.655 100.82L194.043 101.148L197.56 97.3324C196.577 96.289 195.444 95.4245 194.192 94.7687C192.135 93.6656 189.809 93.0694 187.484 93.0992C181.82 93.0992 177.915 96.289 177.408 99.3596C176.991 101.268 177.467 103.235 178.66 104.785C180.121 106.395 182.088 107.528 184.235 108.005L189.392 109.436C192.045 110.151 192.91 110.956 192.671 112.357C192.522 113.162 191.091 114.086 187.514 114.086C185.04 114.027 182.684 113.103 180.836 111.463L180.449 111.105L176.871 115.219C179.703 117.992 183.549 119.452 187.514 119.303C194.609 119.303 197.799 115.935 198.365 113.043C198.902 110.897 198.186 108.631 196.517 107.14C194.877 105.799 192.94 104.845 190.883 104.398" fill="#2A3136"/>
</svg>
