<svg width="52" height="33" viewBox="0 0 52 33" fill="none" xmlns="http://www.w3.org/2000/svg">
<g clip-path="url(#clip0_1664_1342)">
<path d="M10.324 2.38857L13.2023 8.29046H15.0648L11.0844 0.129395H9.5636L5.58325 8.29046H7.44569L10.324 2.38857Z" fill="#ffffff"/>
<path d="M32.8345 0C30.5092 0 28.6248 1.88448 28.6248 4.20977C28.6248 6.53507 30.5092 8.41954 32.8345 8.41954C35.1598 8.41954 37.0443 6.53507 37.0443 4.20977C37.0443 1.88448 35.1588 0 32.8345 0ZM32.8345 6.74545C31.4339 6.74545 30.2988 5.61036 30.2988 4.20977C30.2988 2.80919 31.4339 1.67409 32.8345 1.67409C34.2351 1.67409 35.3702 2.80919 35.3702 4.20977C35.3702 5.61036 34.2351 6.74545 32.8345 6.74545Z" fill="#ffffff"/>
<path d="M19.1604 3.47123L20.6131 5.98687L21.5799 7.65996L22.5457 5.98687L23.9984 3.47123V8.29614H25.6724V0.123047H23.9984L21.5799 4.31278L19.1604 0.123047H17.4863V8.29614H19.1604V3.47123Z" fill="#ffffff"/>
<path d="M42.8841 6.7434C41.8552 6.7434 41.0117 6.15732 40.7422 5.89984L40.619 5.78162L39.4658 7.10707C39.5129 7.16117 40.637 8.4205 42.8851 8.4205C45.1333 8.4205 46.1892 7.3375 46.3696 6.41079C46.5178 5.64838 46.3195 5.0112 45.7785 4.51629C45.3737 4.1456 44.7796 3.85707 43.9641 3.63266L42.3031 3.17681C41.3763 2.92234 41.3162 2.59073 41.3653 2.32925C41.4335 1.96357 41.9053 1.67805 42.8851 1.67805C43.3169 1.67805 43.7848 1.79727 44.2036 2.01267C44.431 2.12988 44.6955 2.33827 44.8778 2.49255L45 2.59574L46.1301 1.37048C46.1121 1.35044 45.6783 0.876568 45.0451 0.543954C44.3498 0.17928 43.6425 0.00195312 42.8841 0.00195312C41.0628 0.00195312 39.8054 1.02685 39.6431 2.01767C39.5309 2.70394 39.6642 3.29002 40.0409 3.76089C40.4076 4.21874 41.0097 4.56538 41.8302 4.79079L43.4903 5.24664C44.3378 5.47907 44.6233 5.73454 44.5422 6.18637C44.4961 6.44385 44.0343 6.7454 42.8831 6.7454L42.8841 6.7434Z" fill="#ffffff"/>
<path d="M12.5522 23.7491C12.2055 24.4724 11.7297 25.0785 11.1245 25.5654C10.5184 26.0533 9.81111 26.419 9.00062 26.6624C8.19012 26.9069 7.32152 27.0281 6.3938 27.0281H3.63371V31.9833H0V15.4678H6.74746C7.73829 15.4678 8.62292 15.606 9.40136 15.8805C10.1798 16.156 10.841 16.5448 11.383 17.0487C11.926 17.5526 12.3418 18.1537 12.6333 18.854C12.9239 19.5543 13.0701 20.3287 13.0701 21.1783V21.2254C13.0701 22.1852 12.8968 23.0267 12.5512 23.7501L12.5522 23.7491ZM9.39034 21.2484C9.39034 20.4309 9.12685 19.8088 8.59988 19.385C8.0729 18.9602 7.35257 18.7478 6.44089 18.7478H3.63371V23.7972H6.51202C7.42371 23.7972 8.13201 23.5577 8.63494 23.0778C9.13787 22.5979 9.39034 22.0048 9.39034 21.2965V21.2494V21.2484Z" fill="#ffffff"/>
<path d="M26.9677 31.9833L23.4292 26.6985H20.5739V31.9833H16.9402V15.4678H24.4901C26.4558 15.4678 27.9856 15.9477 29.0786 16.9074C30.1716 17.8672 30.7186 19.2037 30.7186 20.9188V20.9659C30.7186 22.3034 30.392 23.3924 29.7398 24.234C29.0866 25.0755 28.233 25.6927 27.1801 26.0864L31.2145 31.9843H26.9677V31.9833ZM27.0378 21.1062C27.0378 20.3197 26.7864 19.7296 26.2824 19.3369C25.7785 18.9442 25.0792 18.7468 24.1826 18.7468H20.5729V23.4886H24.2537C25.1503 23.4886 25.8386 23.2762 26.3185 22.8514C26.7984 22.4266 27.0378 21.8606 27.0378 21.1523V21.1052V21.1062Z" fill="#ffffff"/>
<path d="M51.3397 27.04C50.8989 28.0699 50.2898 28.9745 49.5113 29.753C48.7329 30.5314 47.8042 31.1445 46.7272 31.5934C45.6492 32.0412 44.474 32.2656 43.1997 32.2656C41.9253 32.2656 40.7542 32.0412 39.6842 31.5934C38.6142 31.1455 37.6905 30.5394 36.9121 29.777C36.1336 29.0146 35.5275 28.118 35.0957 27.0871C34.6629 26.0572 34.4465 24.9521 34.4465 23.7719V23.7248C34.4465 22.5447 34.6669 21.4406 35.1068 20.4097C35.5466 19.3798 36.1567 18.4752 36.9351 17.6967C37.7136 16.9183 38.6413 16.3052 39.7193 15.8563C40.7963 15.4085 41.9724 15.1841 43.2468 15.1841C44.5211 15.1841 45.6923 15.4085 46.7623 15.8563C47.8312 16.3042 48.756 16.9103 49.5344 17.6727C50.3128 18.4361 50.9179 19.3327 51.3507 20.3626C51.7835 21.3925 51.9999 22.4976 51.9999 23.6778V23.7248C51.9999 24.904 51.7795 26.0101 51.3397 27.04ZM48.2009 23.7259C48.2009 23.0175 48.0787 22.3493 47.8353 21.7201C47.5908 21.091 47.2452 20.54 46.7973 20.0681C46.3495 19.5962 45.8185 19.2225 45.2044 18.947C44.5913 18.6715 43.922 18.5343 43.1987 18.5343C42.4754 18.5343 41.7871 18.6685 41.182 18.935C40.5759 19.2025 40.0569 19.5722 39.6251 20.0441C39.1923 20.5159 38.8547 21.0629 38.6102 21.6841C38.3658 22.3052 38.2445 22.9695 38.2445 23.6778V23.7248C38.2445 24.4322 38.3658 25.1014 38.6102 25.7306C38.8537 26.3597 39.2003 26.9097 39.6481 27.3816C40.096 27.8535 40.6229 28.2272 41.2291 28.5027C41.8342 28.7782 42.5064 28.9154 43.2468 28.9154C43.9872 28.9154 44.6384 28.7822 45.2525 28.5147C45.8656 28.2472 46.3886 27.8775 46.8214 27.4056C47.2542 26.9338 47.5918 26.3878 47.8363 25.7656C48.0797 25.1445 48.2019 24.4802 48.2019 23.7719V23.7248L48.2009 23.7259Z" fill="#ffffff"/>
</g>
<defs>
<clipPath id="clip0_1664_1342">
<rect width="52" height="32.2666" fill="white"/>
</clipPath>
</defs>
</svg>
