<svg width="160" height="98" viewBox="0 0 160 98" fill="none" xmlns="http://www.w3.org/2000/svg">
<g clip-path="url(#clip0_2831_91008)">
<path d="M60.6877 70.1735C60.2406 71.1131 59.6179 71.8999 58.8312 72.5338C58.0444 73.1677 57.1218 73.6432 56.0691 73.9602C55.0163 74.2771 53.8843 74.4356 52.6786 74.4356H49.0901V80.8768H44.3639V59.4023H53.1371C54.4276 59.4023 55.5766 59.5835 56.5898 59.9401C57.6029 60.2966 58.4633 60.8061 59.1651 61.457C59.8726 62.1135 60.4104 62.8946 60.7896 63.8059C61.1688 64.7172 61.3556 65.7247 61.3556 66.8284V66.8907C61.3556 68.1359 61.1292 69.234 60.682 70.1735H60.6877ZM56.5785 66.919C56.5785 65.8549 56.2332 65.0455 55.5483 64.4964C54.8635 63.9418 53.9295 63.6701 52.7409 63.6701H49.0901V70.2358H52.8315C54.0144 70.2358 54.937 69.9245 55.5936 69.3019C56.2502 68.6793 56.5728 67.9038 56.5728 66.9869V66.9246L56.5785 66.919Z" fill="#54565A"/>
<path d="M80.9622 80.8846L76.3606 74.0132H72.6475V80.8846H67.9213V59.4102H77.736C80.2943 59.4102 82.281 60.0328 83.7017 61.2837C85.1224 62.5289 85.8356 64.2722 85.8356 66.4966V66.5589C85.8356 68.2965 85.4111 69.7116 84.562 70.8096C83.713 71.902 82.6037 72.7058 81.2339 73.2152L86.4808 80.8846H80.9566H80.9622ZM81.0584 66.74C81.0584 65.7155 80.7302 64.9514 80.0792 64.442C79.4227 63.9326 78.5171 63.6722 77.3511 63.6722H72.6588V69.8361H77.4473C78.6133 69.8361 79.5076 69.5587 80.1302 69.0097C80.7528 68.455 81.0641 67.7192 81.0641 66.8023V66.74H81.0584Z" fill="#54565A"/>
<path d="M114.187 74.4533C113.615 75.7947 112.823 76.9664 111.81 77.9795C110.797 78.9927 109.591 79.7908 108.187 80.3738C106.784 80.9568 105.255 81.2454 103.603 81.2454C101.95 81.2454 100.422 80.9568 99.0293 80.3738C97.6369 79.7908 96.437 79.004 95.4238 78.0135C94.4106 77.023 93.6239 75.857 93.0635 74.5156C92.5032 73.1741 92.2202 71.7364 92.2202 70.2026V70.1403C92.2202 68.6064 92.5032 67.1687 93.0805 65.8273C93.6522 64.4858 94.4446 63.3142 95.4578 62.301C96.4709 61.2879 97.6765 60.4898 99.0802 59.9068C100.478 59.3238 102.012 59.0352 103.665 59.0352C105.318 59.0352 106.846 59.3295 108.238 59.9068C109.631 60.4898 110.831 61.2766 111.844 62.2671C112.857 63.2576 113.644 64.4236 114.204 65.765C114.764 67.1065 115.047 68.5441 115.047 70.078V70.1403C115.047 71.6742 114.759 73.1118 114.187 74.4533ZM110.112 70.1403C110.112 69.2177 109.953 68.3517 109.636 67.531C109.319 66.7159 108.867 65.9971 108.289 65.3858C107.706 64.7745 107.016 64.2877 106.218 63.9311C105.42 63.5746 104.548 63.3934 103.608 63.3934C102.669 63.3934 101.774 63.5689 100.988 63.9142C100.201 64.2651 99.5274 64.7405 98.9614 65.3575C98.3954 65.9745 97.9595 66.682 97.6426 67.4914C97.3256 68.3008 97.1671 69.1611 97.1671 70.0837V70.146C97.1671 71.0685 97.3256 71.9345 97.6426 72.7553C97.9595 73.576 98.4067 74.2892 98.9897 74.9004C99.5727 75.5117 100.258 75.9985 101.044 76.3551C101.831 76.7117 102.708 76.8928 103.665 76.8928C104.621 76.8928 105.476 76.7173 106.274 76.3721C107.072 76.0268 107.752 75.5457 108.312 74.9287C108.872 74.3118 109.314 73.6043 109.631 72.7949C109.948 71.9855 110.106 71.1251 110.106 70.2026V70.1403H110.112Z" fill="#54565A"/>
<path d="M80 11.9032L95.1691 43.0168H104.989L84.0074 0H75.987L55.0106 43.0168H64.8252L80 11.9032Z" fill="#54565A"/>
<path d="M4.73751 91.3269L7.61285 97.2248H9.47503L5.49597 89.0742H3.9734L0 97.2248H1.86218L4.73751 91.3269Z" fill="#54565A"/>
<path d="M27.2251 88.9414C24.9045 88.9414 23.0197 90.8262 23.0197 93.1469C23.0197 95.4675 24.9045 97.3523 27.2251 97.3523C29.5458 97.3523 31.4306 95.4675 31.4306 93.1469C31.4306 90.8262 29.5458 88.9414 27.2251 88.9414ZM27.2251 95.6826C25.8271 95.6826 24.6894 94.5506 24.6894 93.1469C24.6894 91.7432 25.8214 90.6111 27.2251 90.6111C28.6288 90.6111 29.7609 91.7432 29.7609 93.1469C29.7609 94.5506 28.6288 95.6826 27.2251 95.6826Z" fill="#54565A"/>
<path d="M13.5616 92.4115L15.0163 94.9246L15.9785 96.5944L16.9464 94.9246L18.3954 92.4115V97.2283H20.0708V89.0664H18.3954L15.9785 93.2492L13.5616 89.0664H11.8919V97.2283H13.5616V92.4115Z" fill="#54565A"/>
<path d="M37.2605 95.6769C36.2304 95.6769 35.387 95.0939 35.121 94.8336L34.9965 94.7147L33.8418 96.0392C33.8871 96.0901 35.0134 97.3523 37.2548 97.3523C39.4962 97.3523 40.5547 96.2712 40.7358 95.343C40.883 94.5789 40.6849 93.9449 40.1472 93.4525C39.7453 93.0846 39.151 92.7959 38.3359 92.5695L36.6775 92.1167C35.7493 91.862 35.6927 91.5337 35.7379 91.2677C35.8059 90.9055 36.2756 90.6168 37.2548 90.6168C37.685 90.6168 38.1548 90.7357 38.5736 90.9507C38.8001 91.0696 39.0661 91.2734 39.2472 91.4319L39.3717 91.5337L40.4981 90.3112C40.4981 90.3112 40.0453 89.8187 39.417 89.4848C38.7208 89.1225 38.019 88.9414 37.2605 88.9414C35.4379 88.9414 34.1871 89.9659 34.0229 90.9564C33.9097 91.6413 34.0456 92.2299 34.4191 92.6997C34.787 93.1582 35.387 93.5035 36.2077 93.7299L37.8661 94.1827C38.7152 94.4147 38.9982 94.6694 38.9189 95.1222C38.8736 95.3826 38.4095 95.6826 37.2605 95.6826V95.6769Z" fill="#54565A"/>
<path d="M146.257 89.0781L142.278 97.2287H144.14L147.016 91.3308L149.891 97.2287H151.753L147.774 89.0781H146.257Z" fill="#54565A"/>
<path d="M72.3532 88.9414C70.0325 88.9414 68.1477 90.8262 68.1477 93.1469C68.1477 95.4675 70.0325 97.3523 72.3532 97.3523C74.6738 97.3523 76.5587 95.4675 76.5587 93.1469C76.5587 90.8262 74.6738 88.9414 72.3532 88.9414ZM72.3532 95.6826C70.9551 95.6826 69.8175 94.5506 69.8175 93.1469C69.8175 91.7432 70.9495 90.6111 72.3532 90.6111C73.7569 90.6111 74.8889 91.7432 74.8889 93.1469C74.8889 94.5506 73.7569 95.6826 72.3532 95.6826Z" fill="#54565A"/>
<path d="M125.49 88.9414C123.17 88.9414 121.285 90.8262 121.285 93.1469C121.285 95.4675 123.17 97.3523 125.49 97.3523C127.811 97.3523 129.696 95.4675 129.696 93.1469C129.696 90.8262 127.811 88.9414 125.49 88.9414ZM125.49 95.6826C124.092 95.6826 122.955 94.5506 122.955 93.1469C122.955 91.7432 124.087 90.6111 125.49 90.6111C126.894 90.6111 128.026 91.7432 128.026 93.1469C128.026 94.5506 126.894 95.6826 125.49 95.6826Z" fill="#54565A"/>
<path d="M54.6087 89.8475C54.3427 89.5985 54.0144 89.406 53.6295 89.2702C53.2447 89.1343 52.8088 89.0664 52.3164 89.0664H48.9826V97.2283H50.7769V94.7775H52.1409C52.5994 94.7775 53.0296 94.7152 53.4314 94.5963C53.8333 94.4775 54.1842 94.2963 54.4786 94.053C54.7785 93.8096 55.0106 93.5153 55.1861 93.153C55.3559 92.7964 55.4408 92.3776 55.4408 91.9078V91.8851C55.4408 91.4663 55.3672 91.0814 55.2257 90.7361C55.0842 90.3909 54.8748 90.0909 54.6087 89.8418V89.8475ZM53.6239 91.9474C53.6239 92.2983 53.4994 92.5927 53.2503 92.8304C53.0013 93.0681 52.6504 93.187 52.2032 93.187H50.7825V90.6909H52.1692C52.622 90.6909 52.973 90.7984 53.2333 91.0078C53.4937 91.2172 53.6239 91.5229 53.6239 91.9304V91.9531V91.9474Z" fill="#54565A"/>
<path d="M64.7177 93.3964C65.0403 92.9832 65.2045 92.4398 65.2045 91.7833V91.7606C65.2045 90.9852 64.9724 90.3626 64.5026 89.8928C63.9479 89.3438 63.1555 89.0664 62.1254 89.0664H58.3954V97.2283H60.1896V94.619H61.599L63.3479 97.2283H65.4478L63.4555 94.3133C63.9762 94.1209 64.3951 93.8152 64.7177 93.3964ZM63.3819 91.8795C63.3819 92.2304 63.263 92.5078 63.0253 92.7172C62.7876 92.9266 62.448 93.0341 62.0065 93.0341H60.1896V90.6909H61.9725C62.414 90.6909 62.7593 90.7871 63.0083 90.9795C63.2574 91.172 63.3819 91.4663 63.3819 91.8512V91.8738V91.8795Z" fill="#54565A"/>
<path d="M79.5076 97.2283H81.3018V94.0699H85.196V92.4455H81.3018V90.6852H85.7224V89.0664H79.5076V97.2283Z" fill="#54565A"/>
<path d="M90.4429 93.9171H94.2918V92.321H90.4429V90.6626H94.8182V89.0664H88.6713V97.2283H94.8748V95.6321H90.4429V93.9171Z" fill="#54565A"/>
<path d="M118.336 89.0664H116.542V97.2283H118.336V89.0664Z" fill="#54565A"/>
<path d="M138.124 94.0926L134.303 89.0664H132.645V97.2283H134.416V92.038L138.373 97.2283H139.895V89.0664H138.124V94.0926Z" fill="#54565A"/>
<path d="M155.93 95.6095V89.0664H154.13V97.2283H160V95.6095H155.93Z" fill="#54565A"/>
<path d="M101.78 92.5656L100.122 92.1128C99.1934 91.8581 99.1368 91.5298 99.1878 91.2638C99.2557 90.9016 99.7255 90.6129 100.705 90.6129C101.135 90.6129 101.605 90.7317 102.023 90.9468C102.25 91.0657 102.516 91.2695 102.697 91.4279L102.822 91.5298L103.954 90.3072C103.954 90.3072 103.501 89.8148 102.873 89.4809C102.176 89.1186 101.474 88.9375 100.716 88.9375C98.8935 88.9375 97.6426 89.962 97.4784 90.9525C97.3652 91.6374 97.5011 92.226 97.8746 92.6958C98.2425 93.1543 98.8425 93.4995 99.6632 93.7259L101.322 94.1788C102.171 94.4108 102.454 94.6655 102.374 95.1183C102.329 95.3787 101.865 95.6787 100.716 95.6787C99.6859 95.6787 98.8425 95.0957 98.5765 94.8353L98.452 94.7165L97.2973 96.0409C97.3426 96.0919 98.4689 97.3541 100.71 97.3541C102.952 97.3541 104.01 96.273 104.191 95.3447C104.338 94.5806 104.14 93.9467 103.603 93.4543C103.201 93.0864 102.606 92.7977 101.791 92.5713L101.78 92.5656Z" fill="#54565A"/>
<path d="M111.142 92.5695L109.484 92.1167C108.555 91.862 108.499 91.5337 108.544 91.2677C108.612 90.9055 109.082 90.6168 110.061 90.6168C110.491 90.6168 110.961 90.7357 111.38 90.9507C111.606 91.0696 111.872 91.2734 112.053 91.4319L112.178 91.5337L113.31 90.3112C113.31 90.3112 112.857 89.8187 112.229 89.4848C111.532 89.1225 110.831 88.9414 110.072 88.9414C108.25 88.9414 106.999 89.9659 106.835 90.9564C106.721 91.6413 106.857 92.2299 107.231 92.6997C107.599 93.1582 108.199 93.5035 109.019 93.7299L110.678 94.1827C111.527 94.4147 111.81 94.6694 111.731 95.1222C111.685 95.3826 111.221 95.6826 110.072 95.6826C109.042 95.6826 108.199 95.0996 107.933 94.8392L107.808 94.7204L106.653 96.0448C106.699 96.0958 107.825 97.358 110.067 97.358C112.308 97.358 113.366 96.2769 113.547 95.3487C113.695 94.5845 113.497 93.9506 112.959 93.4582C112.557 93.0903 111.963 92.8016 111.148 92.5752L111.142 92.5695Z" fill="#54565A"/>
</g>
<defs>
<clipPath id="clip0_2831_91008">
<rect width="160" height="97.3539" fill="white"/>
</clipPath>
</defs>
</svg>
