<svg width="155" height="152" viewBox="0 0 155 152" fill="none" xmlns="http://www.w3.org/2000/svg">
<g id="Group 29062">
<path id="Vector" d="M118.603 70.6992L84.0945 0H70.9055L36.3972 70.6992H52.5427L77.5082 19.5621L102.457 70.6992H118.603Z" fill="#54565A"/>
<g id="Group">
<path id="Vector_2" d="M18.0015 105.918L28.9239 128.302H35.9865L20.8922 97.351H15.1107L0 128.302H7.06263L18.0015 105.918Z" fill="#54565A"/>
<path id="Vector_3" d="M103.443 96.8586C94.6228 96.8586 87.4616 104.014 87.4616 112.827C87.4616 121.639 94.6228 128.795 103.443 128.795C112.263 128.795 119.424 121.639 119.424 112.827C119.424 104.014 112.263 96.8586 103.443 96.8586ZM103.443 122.444C98.1212 122.444 93.8179 118.144 93.8179 112.827C93.8179 107.509 98.1212 103.21 103.443 103.21C108.764 103.21 113.068 107.509 113.068 112.827C113.068 118.144 108.764 122.444 103.443 122.444Z" fill="#54565A"/>
<path id="Vector_4" d="M51.5407 110.02L57.0594 119.572L60.7222 125.923L64.3849 119.572L69.9036 110.02V128.335H76.2599V97.3346H69.9036L60.7222 113.221L51.5407 97.3346H45.1844V128.335H51.5407V110.02Z" fill="#54565A"/>
<path id="Vector_5" d="M141.597 122.444C137.688 122.444 134.486 120.228 133.467 119.243L132.991 118.8L128.605 123.822C128.786 124.019 133.057 128.795 141.581 128.795C150.105 128.795 154.129 124.692 154.803 121.164C155.361 118.275 154.606 115.846 152.553 113.975C151.009 112.564 148.759 111.481 145.671 110.628L139.364 108.904C135.849 107.936 135.619 106.673 135.8 105.688C136.062 104.309 137.853 103.21 141.565 103.21C143.207 103.21 144.981 103.653 146.574 104.473C147.428 104.917 148.447 105.704 149.136 106.295L149.596 106.689L153.883 102.045C153.883 102.045 152.175 100.174 149.761 98.91C147.116 97.5315 144.439 96.8586 141.565 96.8586C134.65 96.8586 129.887 100.748 129.262 104.506C128.835 107.116 129.345 109.331 130.774 111.12C132.17 112.86 134.453 114.172 137.557 115.026L143.864 116.749C147.083 117.635 148.167 118.603 147.855 120.31C147.675 121.295 145.934 122.427 141.565 122.427L141.597 122.444Z" fill="#54565A"/>
<path id="Vector_6" d="M135.914 140.086L130.182 151.836H132.859L137.015 143.335L141.154 151.836H143.831L138.099 140.086H135.914Z" fill="#54565A"/>
<path id="Vector_7" d="M34.1634 139.905C30.8128 139.905 28.1027 142.613 28.1027 145.961C28.1027 149.309 30.8128 152.016 34.1634 152.016C37.514 152.016 40.2241 149.309 40.2241 145.961C40.2241 142.613 37.514 139.905 34.1634 139.905ZM34.1634 149.604C32.1432 149.604 30.5171 147.979 30.5171 145.961C30.5171 143.942 32.1432 142.317 34.1634 142.317C36.1836 142.317 37.8097 143.942 37.8097 145.961C37.8097 147.979 36.1836 149.604 34.1634 149.604Z" fill="#54565A"/>
<path id="Vector_8" d="M107.467 139.905C104.116 139.905 101.406 142.613 101.406 145.961C101.406 149.309 104.116 152.016 107.467 152.016C110.818 152.016 113.528 149.309 113.528 145.961C113.528 142.613 110.818 139.905 107.467 139.905ZM107.467 149.604C105.447 149.604 103.821 147.979 103.821 145.961C103.821 143.942 105.447 142.317 107.467 142.317C109.487 142.317 111.113 143.942 111.113 145.961C111.113 147.979 109.487 149.604 107.467 149.604Z" fill="#54565A"/>
<path id="Vector_9" d="M10.1176 141.202C9.72343 140.841 9.26354 140.562 8.7051 140.365C8.14666 140.168 7.52252 140.069 6.81625 140.069H2.02024V151.82H4.59892V148.291H6.56988C7.22687 148.291 7.85101 148.209 8.42588 148.029C9.00074 147.848 9.50991 147.602 9.93695 147.241C10.364 146.896 10.7089 146.47 10.9553 145.944C11.2017 145.436 11.333 144.828 11.333 144.156V144.123C11.333 143.516 11.2345 142.974 11.021 142.465C10.8075 141.973 10.5118 141.546 10.134 141.185L10.1176 141.202ZM8.7051 144.221C8.7051 144.73 8.52442 145.14 8.16308 145.485C7.80174 145.83 7.29257 145.994 6.65201 145.994H4.59892V142.4H6.60273C7.25972 142.4 7.76889 142.547 8.14666 142.859C8.52442 143.155 8.7051 143.598 8.7051 144.188V144.221Z" fill="#54565A"/>
<path id="Vector_10" d="M23.9144 146.322C24.3743 145.731 24.6042 144.943 24.6042 143.991V143.959C24.6042 142.843 24.2757 141.94 23.6023 141.267C22.8139 140.479 21.6642 140.069 20.1695 140.069H14.7987V151.82H17.3938V148.061H19.4304L21.9434 151.82H24.9656L22.0912 147.618C22.8468 147.339 23.4545 146.896 23.9144 146.305V146.322ZM21.9927 144.123C21.9927 144.632 21.8284 145.025 21.4835 145.337C21.1386 145.633 20.6459 145.797 20.0217 145.797H17.3938V142.416H19.956C20.5966 142.416 21.0893 142.564 21.4507 142.843C21.812 143.122 21.9927 143.548 21.9927 144.106V144.139V144.123Z" fill="#54565A"/>
<path id="Vector_11" d="M43.7062 151.836H46.3013V147.274H51.9021V144.943H46.3013V142.416H52.6576V140.086H43.7062V151.836Z" fill="#54565A"/>
<path id="Vector_12" d="M58.7019 147.06H64.237V144.763H58.7019V142.383H64.9926V140.086H56.1397V151.836H65.0911V149.522H58.7019V147.06Z" fill="#54565A"/>
<path id="Vector_13" d="M97.9406 140.086H95.3454V151.836H97.9406V140.086Z" fill="#54565A"/>
<path id="Vector_14" d="M124.91 147.306L119.408 140.086H117.01V151.836H119.572V144.352L125.271 151.836H127.472V140.086H124.91V147.306Z" fill="#54565A"/>
<path id="Vector_15" d="M149.136 149.489V140.086H146.558V151.836H155V149.489H149.136Z" fill="#54565A"/>
<path id="Vector_16" d="M75.0445 145.124L72.6465 144.467C71.3161 144.106 71.234 143.63 71.2997 143.253C71.3982 142.728 72.0716 142.317 73.4842 142.317C74.1083 142.317 74.7817 142.482 75.3894 142.793C75.7179 142.958 76.0957 143.269 76.3585 143.483L76.5392 143.63L78.1652 141.874C78.1652 141.874 77.5082 141.169 76.6049 140.693C75.6029 140.168 74.5846 139.905 73.5006 139.905C70.8726 139.905 69.0659 141.382 68.836 142.81C68.6717 143.794 68.8688 144.648 69.4108 145.321C69.9364 145.977 70.8069 146.486 71.9895 146.798L74.3875 147.454C75.6029 147.782 76.0136 148.16 75.8986 148.8C75.8329 149.177 75.1595 149.604 73.517 149.604C72.0388 149.604 70.8234 148.767 70.4292 148.39L70.2485 148.225L68.5896 150.129C68.5896 150.129 70.2813 152.016 73.517 152.016C76.7527 152.016 78.2802 150.457 78.5265 149.128C78.7401 148.029 78.4608 147.11 77.6725 146.404C77.0976 145.879 76.2435 145.452 75.0609 145.14L75.0445 145.124Z" fill="#54565A"/>
<path id="Vector_17" d="M88.3321 145.124L85.9341 144.467C84.6037 144.106 84.5216 143.63 84.5873 143.253C84.6858 142.728 85.3592 142.317 86.7718 142.317C87.3959 142.317 88.0693 142.482 88.677 142.793C89.0055 142.958 89.3833 143.269 89.6461 143.483L89.8267 143.63L91.4528 141.874C91.4528 141.874 90.7958 141.169 89.8924 140.693C88.8905 140.168 87.8722 139.905 86.7882 139.905C84.1602 139.905 82.3535 141.382 82.1236 142.81C81.9593 143.794 82.1564 144.648 82.6984 145.321C83.224 145.977 84.0945 146.486 85.2771 146.798L87.6751 147.454C88.8905 147.782 89.3012 148.16 89.1862 148.8C89.1205 149.177 88.4471 149.604 86.8046 149.604C85.3264 149.604 84.1109 148.767 83.7168 148.39L83.5361 148.225L81.8772 150.129C81.8772 150.129 83.5689 152.016 86.8046 152.016C90.0403 152.016 91.5678 150.457 91.8141 149.128C92.0277 148.029 91.7484 147.11 90.9601 146.404C90.3852 145.879 89.5311 145.452 88.3485 145.14L88.3321 145.124Z" fill="#54565A"/>
</g>
</g>
</svg>
