<svg width="150" height="150" viewBox="0 0 150 150" fill="none" xmlns="http://www.w3.org/2000/svg">
<g clip-path="url(#clip0_245_785)">
<path d="M32.8717 13.2921L35.7551 11.406L51.1633 21.802L47.8953 23.9407L44.5239 21.5793L38.5055 25.5149L39.2745 29.5694L36.0805 31.6486L32.8569 13.2773L32.8717 13.2921ZM41.6108 19.5446L36.7163 16.1436L37.8253 22.01L41.6108 19.5446Z" fill="#54565A"/>
<path d="M53.3074 3.07426L57.2703 2.34653L62.9485 8.62871L66.039 0.727723L70.002 0L73.0629 16.7673L69.4401 17.4356L67.4438 6.4901L64.0576 14.5099H63.9688L58.0245 8.30198L60.0059 19.1733L56.3831 19.8416L53.3222 3.07426H53.3074Z" fill="#54565A"/>
<path d="M87.9683 19.1584C86.6966 18.8614 85.5728 18.3564 84.6116 17.6584C83.6504 16.9604 82.8667 16.1287 82.2605 15.1782C81.6542 14.2277 81.2697 13.1881 81.0775 12.0445C80.8853 10.901 80.9296 9.74256 81.2106 8.56929V8.52474C81.4915 7.33662 81.9795 6.28216 82.6597 5.34652C83.3399 4.41088 84.168 3.65345 85.1292 3.04454C86.0903 2.45048 87.155 2.04949 88.3379 1.85642C89.5209 1.66335 90.7482 1.70791 92.0199 2.00494C93.2916 2.30196 94.4154 2.80692 95.3766 3.50494C96.3377 4.20295 97.1215 5.03464 97.7277 5.98513C98.334 6.93563 98.7185 7.97523 98.9107 9.1188C99.1029 10.2624 99.0586 11.4208 98.7776 12.594V12.6386C98.4967 13.8267 98.0087 14.8812 97.3285 15.8168C96.6483 16.7525 95.8202 17.5099 94.859 18.1188C93.8979 18.7129 92.8332 19.1138 91.6502 19.3069C90.4673 19.5 89.24 19.4554 87.9683 19.1584ZM88.7963 15.802C89.5209 15.9653 90.2159 15.995 90.8961 15.8762C91.5763 15.7574 92.1826 15.5049 92.7297 15.1336C93.2768 14.7624 93.7352 14.2871 94.1345 13.7228C94.5189 13.1584 94.7999 12.5198 94.9626 11.8069V11.7624C95.14 11.0495 95.1696 10.3515 95.0809 9.6683C94.9773 8.98513 94.7703 8.34652 94.4302 7.76731C94.0901 7.1881 93.6465 6.68315 93.0994 6.26731C92.5523 5.85147 91.9164 5.55444 91.1918 5.37622C90.4525 5.198 89.7427 5.18315 89.0773 5.30196C88.4119 5.42078 87.8056 5.67325 87.2585 6.04454C86.7114 6.41583 86.253 6.89107 85.8537 7.45543C85.4545 8.01979 85.1883 8.6584 85.0256 9.37127V9.41583C84.8482 10.1287 84.8186 10.8267 84.9073 11.5099C85.0109 12.1931 85.2179 12.8317 85.558 13.4109C85.8981 13.9901 86.3417 14.495 86.874 14.9109C87.4211 15.3267 88.057 15.6237 88.7963 15.802Z" fill="#54565A"/>
<path d="M107.28 27.6236C106.201 26.8959 105.284 26.0048 104.5 24.9355C103.717 23.8662 103.155 22.6632 102.829 21.3266L106.142 20.3613C106.437 21.3266 106.807 22.188 107.28 22.9603C107.753 23.7326 108.389 24.386 109.188 24.9207C109.838 25.3514 110.415 25.5741 110.918 25.5741C111.435 25.5741 111.835 25.3662 112.101 24.9504L112.13 24.9058C112.263 24.6979 112.352 24.5048 112.382 24.2969C112.411 24.089 112.382 23.8514 112.249 23.5692C112.13 23.287 111.938 22.9603 111.657 22.5741C111.376 22.188 110.992 21.7276 110.504 21.1781C109.912 20.5246 109.395 19.886 108.966 19.2771C108.537 18.6682 108.227 18.0741 108.034 17.4801C107.842 16.886 107.798 16.292 107.886 15.6682C107.975 15.0444 108.256 14.391 108.729 13.693L108.759 13.6484C109.188 12.9949 109.705 12.5048 110.282 12.1484C110.873 11.792 111.509 11.5692 112.189 11.4949C112.87 11.4058 113.579 11.4652 114.319 11.6732C115.058 11.8811 115.783 12.2227 116.507 12.7128C117.542 13.4108 118.385 14.2128 119.036 15.1038C119.687 15.9949 120.189 16.9751 120.529 18.0444L117.35 19.292C117.01 18.4306 116.626 17.6732 116.182 17.0197C115.738 16.3662 115.221 15.8316 114.629 15.4157C114.023 15.0147 113.491 14.8217 113.032 14.8514C112.574 14.8811 112.219 15.0741 111.997 15.4306L111.968 15.4751C111.82 15.6979 111.731 15.9355 111.702 16.1583C111.672 16.3811 111.731 16.6484 111.864 16.9306C111.997 17.2128 112.234 17.5543 112.544 17.9553C112.855 18.3415 113.269 18.8167 113.757 19.3959C114.348 20.0642 114.836 20.7029 115.236 21.3266C115.635 21.9355 115.916 22.5444 116.078 23.1236C116.241 23.7177 116.271 24.2969 116.167 24.8761C116.064 25.4553 115.812 26.0494 115.383 26.6731L115.354 26.7177C114.881 27.4157 114.334 27.9504 113.727 28.3217C113.106 28.693 112.456 28.9157 111.746 28.9751C111.051 29.0345 110.312 28.9603 109.557 28.7227C108.803 28.4999 108.034 28.1137 107.28 27.6088V27.6236Z" fill="#54565A"/>
<path d="M20.8793 53.8811L19.0605 60.594C18.7944 61.5742 18.4099 62.4208 17.9367 63.1188C17.4487 63.8168 16.8868 64.3663 16.251 64.7821C15.6003 65.1831 14.8906 65.4356 14.1216 65.5396C13.3527 65.6435 12.5394 65.5693 11.6966 65.3465H11.6522C10.7058 65.0792 9.90733 64.6782 9.28627 64.1287C8.66522 63.594 8.19203 62.9554 7.86671 62.2128C7.5414 61.4703 7.37874 60.6683 7.34917 59.8069C7.31959 58.9307 7.43789 58.0396 7.68927 57.1188L8.42862 54.3712L3.51932 53.0198L4.49526 49.396L20.8645 53.8811H20.8793ZM10.8685 58.099C10.6171 59.0049 10.6615 59.7772 11.0016 60.4009C11.3417 61.0247 11.8592 61.4406 12.569 61.6336H12.6134C13.4267 61.8712 14.1069 61.7673 14.6688 61.3663C15.2307 60.9505 15.6299 60.297 15.8813 59.3911L16.6354 56.599L11.6374 55.2326L10.8537 58.099H10.8685Z" fill="#54565A"/>
<path d="M16.9165 72.5645L17.4784 80.3318C17.641 82.4852 17.1826 84.1783 16.118 85.411C15.216 86.4506 13.9738 87.0298 12.362 87.1486H12.3177C10.9425 87.2526 9.80388 87.0001 8.90187 86.3912C7.98508 85.7823 7.29008 84.9506 6.8169 83.8961L1.07952 88.5001L0.7542 84.1338L5.9001 80.0942V80.0496L5.69308 77.1536L0.281014 77.5546L0.0148468 73.812L16.9313 72.5645H16.9165ZM9.25676 80.6882C9.3307 81.609 9.59687 82.307 10.0701 82.7674C10.5432 83.2278 11.1347 83.4357 11.8593 83.3763H11.9036C12.7022 83.3169 13.2936 83.005 13.6633 82.4555C14.033 81.906 14.1809 81.1783 14.1069 80.2427L13.8408 76.5298L8.97581 76.8862L9.25676 80.6734V80.6882Z" fill="#54565A"/>
<path d="M7.40831 107.718C6.8464 106.53 6.52109 105.342 6.46194 104.153C6.40279 102.965 6.55066 101.822 6.90555 100.767C7.26044 99.698 7.82235 98.7326 8.59128 97.8713C9.34542 97.0099 10.277 96.3118 11.3712 95.792H11.4156C12.5098 95.2425 13.6337 94.9604 14.7723 94.901C15.9257 94.8564 17.0347 95.0049 18.0994 95.3911C19.164 95.7623 20.1548 96.3564 21.042 97.1584C21.944 97.9604 22.6686 98.9554 23.2305 100.144C23.7924 101.332 24.1177 102.52 24.1768 103.708C24.236 104.896 24.0881 106.04 23.7332 107.094C23.3783 108.163 22.8164 109.129 22.0475 109.99C21.2934 110.851 20.3618 111.549 19.2675 112.069H19.2232C18.1289 112.619 17.0051 112.901 15.8665 112.96C14.7131 113.005 13.6041 112.856 12.5394 112.47C11.4748 112.099 10.484 111.505 9.5968 110.703C8.69479 109.901 7.97022 108.906 7.40831 107.718ZM10.5284 106.262C10.8537 106.931 11.2677 107.495 11.8001 107.941C12.3176 108.386 12.8943 108.713 13.5302 108.906C14.166 109.099 14.8166 109.173 15.4968 109.114C16.177 109.069 16.8572 108.876 17.5079 108.564H17.5522C18.2029 108.223 18.7648 107.822 19.2528 107.302C19.7259 106.797 20.0808 106.233 20.3174 105.594C20.554 104.97 20.6575 104.302 20.6427 103.619C20.6279 102.921 20.4505 102.238 20.1252 101.569C19.7999 100.886 19.371 100.322 18.8535 99.8762C18.336 99.4307 17.7593 99.1188 17.1382 98.9257C16.5024 98.7326 15.8517 98.6584 15.1715 98.7178C14.4913 98.7623 13.8111 98.9554 13.1605 99.2673H13.1161C12.4655 99.6089 11.8888 100.01 11.4156 100.53C10.9424 101.035 10.5875 101.599 10.3509 102.238C10.1143 102.861 9.99605 103.53 10.0108 104.213C10.0256 104.896 10.2031 105.579 10.5284 106.277V106.262Z" fill="#54565A"/>
<path d="M30.9493 113.02L40.3243 121.946L38.0028 124.396L31.3338 118.04L28.82 120.713L34.6905 126.312L32.3689 128.762L26.4984 123.163L21.9736 127.946L19.2675 125.361L30.9493 113.005V113.02Z" fill="#54565A"/>
<path d="M45.3076 125.183L56.9006 130.559L55.5106 133.589L47.2594 129.757L45.8103 132.891L53.0708 136.262L51.6808 139.292L44.4203 135.921L42.9268 139.173L51.2963 143.05L49.9063 146.079L38.195 140.658L45.3076 125.183Z" fill="#54565A"/>
<path d="M67.3107 149.941C66.0242 149.807 64.7821 149.45 63.5992 148.871C62.4162 148.292 61.3515 147.49 60.4495 146.465L62.919 144.059C63.6287 144.772 64.3533 145.351 65.137 145.812C65.9059 146.272 66.7784 146.554 67.7395 146.658C68.5085 146.748 69.1295 146.658 69.5731 146.436C70.0315 146.198 70.2829 145.827 70.3421 145.337V145.292C70.3716 145.054 70.3421 144.832 70.2829 144.639C70.209 144.446 70.0611 144.252 69.8245 144.059C69.5879 143.866 69.2626 143.673 68.8338 143.465C68.405 143.257 67.8431 143.02 67.1628 142.767C66.3348 142.47 65.5806 142.144 64.9152 141.817C64.2498 141.49 63.7027 141.104 63.2591 140.673C62.8155 140.243 62.4901 139.723 62.2831 139.144C62.0761 138.549 62.017 137.837 62.1057 136.99V136.946C62.1944 136.173 62.4162 135.49 62.7711 134.896C63.126 134.302 63.5844 133.812 64.1463 133.411C64.7082 133.01 65.3736 132.728 66.113 132.564C66.8523 132.401 67.6656 132.371 68.538 132.46C69.7802 132.594 70.8892 132.906 71.8947 133.381C72.8854 133.871 73.7875 134.495 74.586 135.282L72.3531 137.881C71.6581 137.287 70.9631 136.797 70.2681 136.426C69.5731 136.054 68.8634 135.817 68.1536 135.743C67.429 135.668 66.8671 135.743 66.4826 135.995C66.0982 136.233 65.8764 136.574 65.832 136.99V137.035C65.8024 137.302 65.832 137.554 65.9059 137.762C65.9947 137.97 66.1573 138.178 66.4087 138.371C66.6601 138.564 67.0298 138.757 67.4882 138.95C67.9466 139.144 68.5233 139.381 69.233 139.648C70.0611 139.96 70.8005 140.302 71.4363 140.658C72.0722 141.015 72.6045 141.416 73.0185 141.861C73.4326 142.307 73.7283 142.812 73.9058 143.361C74.0832 143.926 74.1276 144.564 74.0536 145.307V145.351C73.9649 146.198 73.7283 146.926 73.3586 147.535C72.989 148.158 72.501 148.663 71.9095 149.049C71.318 149.436 70.6378 149.703 69.8541 149.851C69.0704 150 68.2275 150.03 67.3107 149.926V149.941Z" fill="#54565A"/>
<path d="M91.0144 148.604C89.7427 148.871 88.4562 148.916 87.1549 148.752C85.8389 148.574 84.5968 148.144 83.4138 147.446L85.0256 144.386C85.9128 144.847 86.8001 145.173 87.6725 145.366C88.5449 145.559 89.4617 145.559 90.4081 145.366C91.1622 145.203 91.7242 144.936 92.079 144.564C92.4339 144.193 92.567 143.762 92.4635 143.272V143.228C92.4044 142.99 92.3156 142.782 92.1826 142.619C92.0495 142.455 91.8572 142.322 91.5763 142.218C91.2953 142.114 90.9256 142.025 90.4525 141.965C89.9793 141.906 89.3878 141.861 88.6484 141.832C87.7612 141.802 86.9627 141.743 86.2234 141.624C85.484 141.52 84.8482 141.327 84.2863 141.059C83.7244 140.792 83.266 140.406 82.8815 139.901C82.497 139.396 82.2309 138.743 82.0534 137.911V137.866C81.876 137.109 81.876 136.381 82.0238 135.713C82.1717 135.045 82.4674 134.436 82.8815 133.871C83.2955 133.322 83.8279 132.847 84.4933 132.46C85.1439 132.074 85.9128 131.777 86.7557 131.599C87.9682 131.332 89.1364 131.287 90.2307 131.436C91.3249 131.584 92.3748 131.911 93.3655 132.401L92.0495 135.564C91.1918 135.208 90.3933 134.97 89.6096 134.837C88.8407 134.688 88.0865 134.703 87.3768 134.851C86.667 135 86.1642 135.252 85.8685 135.609C85.5727 135.965 85.4692 136.351 85.5579 136.752V136.797C85.6319 137.064 85.7206 137.287 85.8685 137.465C86.0163 137.644 86.2382 137.777 86.5339 137.881C86.8296 137.985 87.2437 138.059 87.7316 138.104C88.2344 138.148 88.8555 138.193 89.6096 138.223C90.4968 138.267 91.2953 138.356 92.0199 138.49C92.7297 138.624 93.3655 138.847 93.8979 139.129C94.4302 139.426 94.8738 139.797 95.2139 140.272C95.554 140.748 95.8054 141.356 95.9533 142.084V142.129C96.1455 142.96 96.1455 143.718 95.9828 144.431C95.8202 145.144 95.5244 145.767 95.0808 146.317C94.6372 146.866 94.0753 147.342 93.3803 147.728C92.6853 148.114 91.8868 148.411 90.9848 148.604H91.0144Z" fill="#54565A"/>
<path d="M99.5317 127.619L102.859 125.926L110.548 141.119L107.221 142.812L99.5317 127.619Z" fill="#54565A"/>
<path d="M127.257 129.104C126.326 130.025 125.291 130.693 124.182 131.139C123.073 131.569 121.964 131.792 120.84 131.792C119.716 131.792 118.637 131.554 117.572 131.109C116.522 130.663 115.561 129.995 114.718 129.119L114.688 129.089C113.846 128.213 113.21 127.248 112.796 126.163C112.382 125.079 112.189 123.98 112.204 122.837C112.219 121.708 112.47 120.579 112.944 119.465C113.417 118.366 114.127 117.342 115.058 116.436C115.99 115.515 117.025 114.847 118.134 114.401C119.243 113.955 120.352 113.748 121.476 113.748C122.6 113.748 123.679 113.985 124.744 114.431C125.794 114.876 126.755 115.545 127.598 116.421L127.627 116.451C128.47 117.327 129.106 118.292 129.52 119.376C129.934 120.46 130.126 121.559 130.111 122.703C130.097 123.832 129.845 124.96 129.387 126.059C128.914 127.173 128.204 128.183 127.272 129.089L127.257 129.104ZM124.892 126.594C125.424 126.074 125.823 125.495 126.075 124.856C126.341 124.218 126.459 123.564 126.429 122.911C126.415 122.257 126.267 121.604 126.001 120.965C125.734 120.327 125.35 119.748 124.847 119.228L124.818 119.198C124.315 118.678 123.738 118.262 123.117 117.98C122.496 117.698 121.831 117.535 121.165 117.505C120.5 117.475 119.834 117.579 119.184 117.817C118.533 118.054 117.942 118.441 117.409 118.96C116.862 119.495 116.463 120.074 116.212 120.713C115.96 121.352 115.842 121.99 115.857 122.658C115.871 123.312 116.019 123.965 116.285 124.604C116.552 125.243 116.936 125.822 117.439 126.342L117.468 126.371C117.971 126.891 118.548 127.307 119.169 127.589C119.805 127.886 120.455 128.035 121.121 128.064C121.786 128.094 122.437 127.99 123.088 127.753C123.723 127.515 124.33 127.144 124.862 126.609L124.892 126.594Z" fill="#54565A"/>
<path d="M124.936 105.208L126.311 102.045L139.072 98.9258L129.505 94.7228L130.984 91.3367L146.525 98.1535L145.253 101.079L132.078 104.302L141.956 108.639L140.477 112.025L124.936 105.208Z" fill="#54565A"/>
<path d="M132.551 78.787L132.67 75.3266L150 68.6138L149.867 72.5346L146.007 73.9603L145.756 81.1633L149.512 82.8563L149.379 86.6732L132.551 78.787ZM142.666 75.193L137.091 77.2722L142.518 79.7227L142.666 75.193Z" fill="#54565A"/>
<path d="M131.694 62.6436L130.555 59.0644L143.508 54.9208L140.95 46.8268L144.159 45.802L147.856 57.4753L131.694 62.6436Z" fill="#54565A"/>
<path d="M128.84 40.396C130.906 40.396 132.581 38.7137 132.581 36.6385C132.581 34.5634 130.906 32.8811 128.84 32.8811C126.774 32.8811 125.099 34.5634 125.099 36.6385C125.099 38.7137 126.774 40.396 128.84 40.396Z" fill="#54565A"/>
<path d="M21.1899 40.396C23.256 40.396 24.931 38.7137 24.931 36.6385C24.931 34.5634 23.256 32.8811 21.1899 32.8811C19.1237 32.8811 17.4487 34.5634 17.4487 36.6385C17.4487 38.7137 19.1237 40.396 21.1899 40.396Z" fill="#54565A"/>
<path d="M104.663 97.7524L79.7762 46.4851H70.2533L45.3519 97.7524H57.0041L75.0148 60.6683L93.0254 97.7524H104.663Z" fill="#54565A"/>
</g>
<defs>
<clipPath id="clip0_245_785">
<rect width="150" height="150" fill="white"/>
</clipPath>
</defs>
</svg>
