<svg width="10" height="12" viewBox="0 0 10 12" fill="none" xmlns="http://www.w3.org/2000/svg">
<g id="Group 29208">
<path id="&#239;&#191;&#166;" d="M0 8.80523V8.06395H0.614286L0.228571 6H1.13571L1.47857 8.06395H2.10714L2.62857 6H3.36429L3.87857 8.06395H4.51429L4.85714 6H5.76429L5.37143 8.06395H6V8.80523H5.23571L4.82143 11H3.83571L3.32143 8.80523H2.66429L2.15714 11H1.16429L0.75 8.80523H0ZM1.74286 9.53924L1.92143 8.80523H1.6L1.72143 9.53924H1.74286ZM4.25 9.53924H4.27143L4.39286 8.80523H4.06429L4.25 9.53924ZM2.98571 7.40988L2.83571 8.06395H3.15L3 7.40988H2.98571Z" fill="#777777"/>
<path id="Vector" d="M0.611328 4.55556V2.11111C0.611328 1.81643 0.728391 1.53381 0.936765 1.32544C1.14514 1.11706 1.42775 1 1.72244 1H8.38911C8.68379 1 8.96641 1.11706 9.17478 1.32544C9.38315 1.53381 9.50022 1.81643 9.50022 2.11111V9.33333C9.50022 9.88889 9.16688 11 7.83355 11H6.5" stroke="#777777" stroke-linecap="round" stroke-linejoin="round"/>
</g>
</svg>
