<svg width="120" height="120" viewBox="0 0 120 120" fill="none" xmlns="http://www.w3.org/2000/svg">
<g id="icons">
<g id="Group 29098">
<path id="Vector" d="M91.1124 29.9822C90.3294 29.9822 89.6973 29.35 89.6973 28.567V19.9721C89.6973 17.1701 91.0747 13 94.8863 13C99.8677 13 99.8677 18.4154 99.8677 21.0194C99.8677 21.8024 99.2356 22.4345 98.4525 22.4345H92.9994C92.8295 22.4345 92.6786 22.4062 92.5276 22.3496V28.567C92.5276 29.35 91.8955 29.9822 91.1124 29.9822ZM94.8863 15.8304C93.0182 15.8304 92.622 18.7362 92.5465 19.6797C92.688 19.6325 92.839 19.6042 92.9994 19.6042H97.009C96.8675 16.4342 96.1694 15.8304 94.8863 15.8304Z" fill="#2A3136"/>
<path id="Vector_2" d="M21.2966 106.402C17.8624 106.402 14.2207 102.015 14.2207 97.8635V93.6652C14.2207 92.8821 14.8528 92.25 15.6359 92.25H67.5258C68.3089 92.25 68.941 92.8821 68.941 93.6652C68.941 94.4482 68.3089 95.0804 67.5258 95.0804H17.0511V97.8635C17.0511 100.571 19.5795 103.571 21.2966 103.571C22.0797 103.571 22.7118 104.204 22.7118 104.987C22.7118 105.77 22.0797 106.402 21.2966 106.402Z" fill="#2A3136"/>
<path id="Vector_3" d="M21.296 88.4763C20.513 88.4763 19.8809 87.8442 19.8809 87.0611V20.1325C19.8809 16.1983 23.0792 13 27.0134 13H94.8854C95.6685 13 96.3006 13.6321 96.3006 14.4152C96.3006 15.1982 95.6685 15.8304 94.8854 15.8304H27.0134C24.6453 15.8304 22.7112 17.7644 22.7112 20.1325V87.0611C22.7112 87.8442 22.0791 88.4763 21.296 88.4763Z" fill="#2A3136"/>
<path id="Vector_4" d="M3.30446 106.091C4.12527 106.194 4.88003 105.609 4.98381 104.789C5.08759 103.968 4.50265 103.213 3.68184 103.109C2.86104 103.006 2.10628 103.591 2.01193 104.411C1.90815 105.232 2.49309 105.987 3.3139 106.091H3.30446Z" fill="#2A3136"/>
<path id="Vector_5" d="M108.64 96.9673H71.9211C70.1757 96.9673 68.5152 98.0806 68.1095 99.8165C67.5246 102.288 69.3643 104.515 71.6946 104.515H108.414C110.159 104.515 111.82 103.402 112.225 101.666C112.81 99.1938 110.971 96.9673 108.64 96.9673Z" fill="#FD7C7C"/>
<path id="Vector_6" d="M73.1867 49.7946C72.4036 49.7946 71.7715 49.1625 71.7715 48.3795V41.7753C71.7715 40.9922 72.4036 40.3601 73.1867 40.3601C73.9697 40.3601 74.6018 40.9922 74.6018 41.7753V48.3795C74.6018 49.1625 73.9697 49.7946 73.1867 49.7946Z" fill="#2A3136"/>
<path id="Vector_7" d="M73.1867 96.9674C72.4036 96.9674 71.7715 96.3353 71.7715 95.5522V89.0424C71.7715 82.5703 75.3566 76.6549 81.1211 73.5981C81.9325 73.1735 82.6118 72.5131 83.0929 71.6923C83.5741 70.8715 83.8288 69.928 83.8288 68.9563C83.8288 66.975 82.791 65.1919 81.1305 64.3145C78.0454 62.6729 75.5359 60.1916 73.8754 57.1348C73.498 56.4461 73.7622 55.5875 74.4415 55.2196C75.1207 54.8517 75.9887 55.1064 76.3567 55.7857C77.753 58.3519 79.8569 60.4369 82.4514 61.8049C85.0459 63.1729 86.6592 65.9089 86.6592 68.9468C86.6592 70.4186 86.2724 71.8527 85.5459 73.098C84.8006 74.3811 83.7345 75.4095 82.4514 76.0888C77.6209 78.6456 74.6113 83.6081 74.6113 89.0235V95.5334C74.6113 96.3164 73.9792 96.9486 73.1961 96.9486L73.1867 96.9674Z" fill="#2A3136"/>
<path id="Vector_8" d="M106.207 92.2501C105.424 92.2501 104.792 91.618 104.792 90.835V89.0424C104.792 83.627 101.792 78.6644 96.9519 76.0982C94.3574 74.7302 92.7441 71.9942 92.7441 68.9563C92.7441 67.4845 93.131 66.0504 93.8574 64.8051C94.5933 63.522 95.6688 62.4936 96.9519 61.8143C101.782 59.2576 104.792 54.295 104.792 48.8796V40.8319C104.792 40.0489 105.424 39.4167 106.207 39.4167C106.99 39.4167 107.622 40.0489 107.622 40.8319V48.8796C107.622 55.3422 104.037 61.2671 98.2728 64.3239C97.4614 64.7485 96.7821 65.4089 96.301 66.2297C95.8198 67.0505 95.5651 67.994 95.5651 68.9657C95.5651 70.947 96.6029 72.7207 98.2633 73.6075C104.028 76.6643 107.613 82.5798 107.613 89.0518V90.8444C107.613 91.6275 106.981 92.2596 106.198 92.2596L106.207 92.2501Z" fill="#2A3136"/>
<path id="Vector_9" d="M109.217 106.374C108.452 106.374 107.83 105.751 107.83 104.987C107.83 104.223 108.452 103.6 109.217 103.6C110.424 103.6 111.405 102.524 111.405 101.213C111.405 99.9015 110.424 98.826 109.217 98.826H71.8747C70.6671 98.826 69.6859 99.9015 69.6859 101.213C69.6859 102.524 70.6671 103.6 71.8747 103.6C72.6389 103.6 73.2616 104.223 73.2616 104.987C73.2616 105.751 72.6389 106.374 71.8747 106.374C69.1387 106.374 66.9121 104.062 66.9121 101.213C66.9121 98.3637 69.1387 96.0522 71.8747 96.0522H109.217C111.953 96.0522 114.179 98.3637 114.179 101.213C114.179 104.062 111.953 106.374 109.217 106.374Z" fill="#2A3136"/>
<path id="Vector_10" d="M109.612 32.8125H71.2702C69.4493 32.8125 67.7134 33.9258 67.2888 35.6617C66.6756 38.1336 68.6002 40.3601 71.0343 40.3601H109.376C111.197 40.3601 112.933 39.2469 113.358 37.5109C113.971 35.0391 112.046 32.8125 109.612 32.8125Z" fill="#FD7C7C"/>
<path id="Vector_11" d="M109.217 42.2188H71.8747C69.1387 42.2188 66.9121 39.9074 66.9121 37.0582C66.9121 34.2089 69.1387 31.8975 71.8747 31.8975H109.217C111.953 31.8975 114.179 34.2089 114.179 37.0582C114.179 39.9074 111.953 42.2188 109.217 42.2188ZM71.8747 34.6712C70.6671 34.6712 69.6859 35.7468 69.6859 37.0582C69.6859 38.3696 70.6671 39.4451 71.8747 39.4451H109.217C110.424 39.4451 111.405 38.3696 111.405 37.0582C111.405 35.7468 110.424 34.6712 109.217 34.6712H71.8747Z" fill="#2A3136"/>
<path id="Vector_12" d="M101.961 92.0519C101.961 92.684 101.433 93.1935 100.772 93.1935H78.6106C77.9596 93.1935 77.4219 92.684 77.4219 92.0613C77.4219 89.9386 78.4785 87.9384 80.2617 86.6742C80.8277 86.278 81.29 85.9572 81.6014 85.7402C84.2997 83.9005 86.8564 82.7117 88.8471 81.9569C89.3943 81.7494 89.9887 81.7494 90.5264 81.9569C92.5077 82.7117 95.0645 83.9005 97.7722 85.7402C98.0835 85.9572 98.5552 86.278 99.1119 86.6742C100.895 87.9384 101.952 89.9291 101.952 92.0519H101.961Z" fill="#76CFF9"/>
<path id="Vector_13" d="M98.7729 56.0404C97.5747 56.2952 96.2916 56.4461 94.9236 56.4367C90.0365 56.3801 87.8665 54.3139 82.8757 54.1441C82.2152 54.1252 81.4699 54.1346 80.668 54.2007C79.9793 54.2573 79.6113 55.0592 80.0264 55.6159C81.1397 57.1065 82.5832 58.3613 84.2908 59.267C86.206 60.286 87.6778 61.8898 88.5741 63.8239C88.8571 64.4277 89.4704 64.8051 90.1402 64.8051C90.8101 64.8051 91.4422 64.39 91.7347 63.7579C91.8479 63.5126 91.9705 63.2673 92.1121 63.022C93.0461 61.4181 94.3952 60.1067 96.018 59.2576C97.235 58.6161 98.32 57.7952 99.2351 56.8329C99.5559 56.4933 99.2446 55.9461 98.7917 56.0404H98.7729Z" fill="#76CFF9"/>
<path id="Vector_14" d="M116.584 106.402H9.97377C9.19071 106.402 8.55859 105.77 8.55859 104.987C8.55859 104.204 9.19071 103.572 9.97377 103.572H116.584C117.367 103.572 117.999 104.204 117.999 104.987C117.999 105.77 117.367 106.402 116.584 106.402Z" fill="#2A3136"/>
<path id="Vector_15" d="M60.9203 31.8692H48.6554C47.8723 31.8692 47.2402 31.2371 47.2402 30.454C47.2402 29.6709 47.8723 29.0388 48.6554 29.0388H60.9203C61.7034 29.0388 62.3355 29.6709 62.3355 30.454C62.3355 31.2371 61.7034 31.8692 60.9203 31.8692Z" fill="#2A3136"/>
<path id="Vector_16" d="M38.279 31.8692H32.6183C31.8352 31.8692 31.2031 31.2371 31.2031 30.454C31.2031 29.6709 31.8352 29.0388 32.6183 29.0388H38.279C39.0621 29.0388 39.6942 29.6709 39.6942 30.454C39.6942 31.2371 39.0621 31.8692 38.279 31.8692Z" fill="#2A3136"/>
<path id="Vector_17" d="M60.9219 40.3601H32.6183C31.8352 40.3601 31.2031 39.728 31.2031 38.945C31.2031 38.1619 31.8352 37.5298 32.6183 37.5298H60.9219C61.705 37.5298 62.3371 38.1619 62.3371 38.945C62.3371 39.728 61.705 40.3601 60.9219 40.3601Z" fill="#2A3136"/>
<path id="Vector_18" d="M60.9219 48.8511H32.6183C31.8352 48.8511 31.2031 48.219 31.2031 47.4359C31.2031 46.6529 31.8352 46.0208 32.6183 46.0208H60.9219C61.705 46.0208 62.3371 46.6529 62.3371 47.4359C62.3371 48.219 61.705 48.8511 60.9219 48.8511Z" fill="#2A3136"/>
<path id="Vector_19" d="M50.5439 57.3423H32.6183C31.8352 57.3423 31.2031 56.7102 31.2031 55.9271C31.2031 55.1441 31.8352 54.512 32.6183 54.512H50.5439C51.327 54.512 51.9591 55.1441 51.9591 55.9271C51.9591 56.7102 51.327 57.3423 50.5439 57.3423Z" fill="#2A3136"/>
</g>
</g>
</svg>
