<svg width="24" height="24" viewBox="0 0 24 24" fill="none" xmlns="http://www.w3.org/2000/svg">
<g id="style=color">
<g id="Vector">
<path d="M13.7959 14.6511L10.5226 9.59326C10.4829 9.53197 10.4703 9.45627 10.4865 9.38416C10.5027 9.31206 10.5478 9.25078 10.6109 9.21293L12.3341 8.18729C12.3972 8.14944 12.4729 8.14043 12.5432 8.15845C12.6135 8.17828 12.6748 8.22515 12.709 8.29004L13.8536 10.3846L13.3796 10.6441L12.3702 8.79655L11.13 9.53558L14.2502 14.3591L13.7959 14.6529V14.6511Z" fill="#2A3136"/>
<path d="M10.7508 9.71557C10.6588 9.71557 10.5687 9.66871 10.5182 9.58399L9.28712 7.51651C9.25107 7.45522 9.24025 7.38132 9.25647 7.31102C9.2745 7.24072 9.31776 7.18124 9.38085 7.14519L11.1041 6.11956C11.232 6.04385 11.3979 6.08531 11.4754 6.21329L12.7065 8.28077C12.7425 8.34206 12.7534 8.41596 12.7371 8.48626C12.7191 8.55656 12.6758 8.61604 12.6128 8.65209L10.8896 9.67772C10.8463 9.70296 10.7994 9.71557 10.7508 9.71557ZM9.88916 7.47144L10.8445 9.07388L12.1026 8.32403L11.1473 6.7216L9.88916 7.47144Z" fill="#2A3136"/>
<path d="M9.65973 7.54372C8.01945 7.36166 7.80495 6.13956 7.61388 5.06346C7.58144 4.8778 7.54899 4.69034 7.50753 4.50648C7.24977 3.33304 6.86223 2.66431 6.85683 2.6589C6.79915 2.56157 6.80816 2.439 6.88026 2.35067C6.95056 2.26235 7.06952 2.2281 7.17587 2.26415C7.24797 2.28758 8.95135 2.86259 9.61107 3.17803C10.2329 3.47544 12.1959 4.59841 11.3144 6.56495L10.8206 6.34324C11.4839 4.86518 10.0329 3.97834 9.37854 3.66651C8.9874 3.47905 8.17266 3.18343 7.60847 2.98516C7.74547 3.32223 7.90589 3.79449 8.03747 4.39112C8.07893 4.58399 8.11498 4.78046 8.14743 4.96973C8.33489 6.03141 8.48269 6.86958 9.71922 7.00657L9.65973 7.54372Z" fill="#2A3136"/>
<path d="M11.2008 21.0767C7.53993 21.0767 4.41076 19.2922 3.05166 17.6357C2.41898 16.8642 2.15221 16.1144 2.28199 15.4655C2.49469 14.3984 3.41217 14.0884 4.1512 13.8396C4.65049 13.672 5.12095 13.5134 5.32463 13.1727C5.61664 12.686 5.57879 12.3129 5.52832 11.8388C5.47965 11.3774 5.42558 10.8565 5.70857 10.1967C6.12315 9.23059 7.17942 8.55104 8.76744 8.23019L8.87379 8.76013C7.89322 8.95841 6.63506 9.40543 6.20426 10.4094C5.97715 10.9394 6.02041 11.3485 6.06547 11.7829C6.11774 12.2877 6.17182 12.8086 5.78788 13.4503C5.48145 13.9604 4.89383 14.1587 4.32424 14.3515C3.59422 14.5985 2.96514 14.8094 2.81373 15.57C2.7182 16.0459 2.95253 16.6569 3.47165 17.2914C4.79289 18.9029 7.87339 20.536 11.2026 20.536V21.0767H11.2008Z" fill="#2A3136"/>
<path d="M8.60341 12.6051C7.8085 12.6051 7.1614 12.0391 7.1614 11.3434C7.1614 10.6476 7.8085 10.0816 8.60341 10.0816C9.39832 10.0816 10.0454 10.6476 10.0454 11.3434C10.0454 12.0391 9.39832 12.6051 8.60341 12.6051ZM8.60341 10.6224C8.10592 10.6224 7.70215 10.945 7.70215 11.3434C7.70215 11.7417 8.10592 12.0644 8.60341 12.0644C9.1009 12.0644 9.50467 11.7417 9.50467 11.3434C9.50467 10.945 9.1009 10.6224 8.60341 10.6224Z" fill="#2A3136"/>
<path d="M14.8209 20.5364H11.0356V21.0771H14.8209V20.5364Z" fill="#2A3136"/>
<path d="M12.0282 19.8151C10.934 19.8151 10.0454 18.9265 10.0454 17.8324C10.0454 16.7383 10.934 15.8496 12.0282 15.8496C13.1223 15.8496 14.0109 16.7383 14.0109 17.8324C14.0109 18.9265 13.1223 19.8151 12.0282 19.8151ZM12.0282 16.3904C11.2333 16.3904 10.5862 17.0375 10.5862 17.8324C10.5862 18.6273 11.2333 19.2744 12.0282 19.2744C12.8231 19.2744 13.4702 18.6273 13.4702 17.8324C13.4702 17.0375 12.8231 16.3904 12.0282 16.3904Z" fill="#2A3136"/>
<path d="M7.16048 18.5537C6.06636 18.5537 5.17772 17.6651 5.17772 16.5709C5.17772 15.4768 6.06636 14.5882 7.16048 14.5882C8.25461 14.5882 9.14325 15.4768 9.14325 16.5709C9.14325 17.6651 8.25461 18.5537 7.16048 18.5537ZM7.16048 15.1289C6.36557 15.1289 5.71847 15.776 5.71847 16.5709C5.71847 17.3659 6.36557 18.013 7.16048 18.013C7.95539 18.013 8.60249 17.3659 8.60249 16.5709C8.60249 15.776 7.95539 15.1289 7.16048 15.1289Z" fill="#2A3136"/>
<path d="M19.6421 21.1762H16.2775C15.7022 21.1762 15.234 20.708 15.234 20.1326V19.25C15.234 19.0903 15.3635 18.9608 15.5231 18.9608C15.6828 18.9608 15.8123 19.0903 15.8123 19.25V20.1326C15.8123 20.3891 16.021 20.5978 16.2775 20.5978H19.6421C19.8986 20.5978 20.1073 20.3891 20.1073 20.1326V17.7568C20.1073 17.5971 20.2368 17.4676 20.3965 17.4676C20.5562 17.4676 20.6857 17.5971 20.6857 17.7568V20.1326C20.6857 20.708 20.2175 21.1762 19.6421 21.1762Z" fill="#2A3136"/>
<path d="M19.7537 18.4075H16.1683C15.6405 18.4075 15.1952 18.0124 15.1323 17.4884L13.7956 6.48856C13.7599 6.19234 13.8532 5.89461 14.0511 5.67156C14.2487 5.44851 14.5334 5.32051 14.8316 5.32051H20.7065C21.0047 5.32051 21.2894 5.44851 21.4873 5.67156C21.6852 5.89461 21.7782 6.19234 21.7428 6.48856L20.79 17.4884C20.7271 18.0124 20.2813 18.4075 19.7537 18.4075ZM14.8316 5.89888C14.6966 5.89888 14.5731 5.95445 14.4836 6.05529C14.3941 6.15613 14.3536 6.28563 14.3697 6.41941L15.7064 17.4192C15.7346 17.6528 15.933 17.8289 16.1683 17.8289H19.7537C19.9891 17.8289 20.1875 17.6528 20.2156 17.4192L21.1684 6.41941C21.1845 6.28538 21.144 6.15613 21.0545 6.05529C20.965 5.95445 20.8413 5.89888 20.7065 5.89888H14.8316Z" fill="#2A3136"/>
<path d="M20.4215 8.45127H14.5322C14.3725 8.45127 14.243 8.32177 14.243 8.16209C14.243 8.00241 14.3725 7.87291 14.5322 7.87291H20.4215C20.5811 7.87291 20.7107 8.00241 20.7107 8.16209C20.7107 8.32177 20.5811 8.45127 20.4215 8.45127Z" fill="#2A3136"/>
<path d="M13.7959 14.6511L10.5226 9.59326C10.4829 9.53197 10.4703 9.45627 10.4865 9.38416C10.5027 9.31206 10.5478 9.25078 10.6109 9.21293L12.3341 8.18729C12.3972 8.14944 12.4729 8.14043 12.5432 8.15845C12.6135 8.17828 12.6748 8.22515 12.709 8.29004L13.8536 10.3846L13.3796 10.6441L12.3702 8.79655L11.13 9.53558L14.2502 14.3591L13.7959 14.6529V14.6511Z" stroke="#2A3136" stroke-width="0.7"/>
<path d="M10.7508 9.71557C10.6588 9.71557 10.5687 9.66871 10.5182 9.58399L9.28712 7.51651C9.25107 7.45522 9.24025 7.38132 9.25647 7.31102C9.2745 7.24072 9.31776 7.18124 9.38085 7.14519L11.1041 6.11956C11.232 6.04385 11.3979 6.08531 11.4754 6.21329L12.7065 8.28077C12.7425 8.34206 12.7534 8.41596 12.7371 8.48626C12.7191 8.55656 12.6758 8.61604 12.6128 8.65209L10.8896 9.67772C10.8463 9.70296 10.7994 9.71557 10.7508 9.71557ZM9.88916 7.47144L10.8445 9.07388L12.1026 8.32403L11.1473 6.7216L9.88916 7.47144Z" stroke="#2A3136" stroke-width="0.7"/>
<path d="M9.65973 7.54372C8.01945 7.36166 7.80495 6.13956 7.61388 5.06346C7.58144 4.8778 7.54899 4.69034 7.50753 4.50648C7.24977 3.33304 6.86223 2.66431 6.85683 2.6589C6.79915 2.56157 6.80816 2.439 6.88026 2.35067C6.95056 2.26235 7.06952 2.2281 7.17587 2.26415C7.24797 2.28758 8.95135 2.86259 9.61107 3.17803C10.2329 3.47544 12.1959 4.59841 11.3144 6.56495L10.8206 6.34324C11.4839 4.86518 10.0329 3.97834 9.37854 3.66651C8.9874 3.47905 8.17266 3.18343 7.60847 2.98516C7.74547 3.32223 7.90589 3.79449 8.03747 4.39112C8.07893 4.58399 8.11498 4.78046 8.14743 4.96973C8.33489 6.03141 8.48269 6.86958 9.71922 7.00657L9.65973 7.54372Z" stroke="#2A3136" stroke-width="0.7"/>
<path d="M11.2008 21.0767C7.53993 21.0767 4.41076 19.2922 3.05166 17.6357C2.41898 16.8642 2.15221 16.1144 2.28199 15.4655C2.49469 14.3984 3.41217 14.0884 4.1512 13.8396C4.65049 13.672 5.12095 13.5134 5.32463 13.1727C5.61664 12.686 5.57879 12.3129 5.52832 11.8388C5.47965 11.3774 5.42558 10.8565 5.70857 10.1967C6.12315 9.23059 7.17942 8.55104 8.76744 8.23019L8.87379 8.76013C7.89322 8.95841 6.63506 9.40543 6.20426 10.4094C5.97715 10.9394 6.02041 11.3485 6.06547 11.7829C6.11774 12.2877 6.17182 12.8086 5.78788 13.4503C5.48145 13.9604 4.89383 14.1587 4.32424 14.3515C3.59422 14.5985 2.96514 14.8094 2.81373 15.57C2.7182 16.0459 2.95253 16.6569 3.47165 17.2914C4.79289 18.9029 7.87339 20.536 11.2026 20.536V21.0767H11.2008Z" stroke="#2A3136" stroke-width="0.7"/>
<path d="M8.60341 12.6051C7.8085 12.6051 7.1614 12.0391 7.1614 11.3434C7.1614 10.6476 7.8085 10.0816 8.60341 10.0816C9.39832 10.0816 10.0454 10.6476 10.0454 11.3434C10.0454 12.0391 9.39832 12.6051 8.60341 12.6051ZM8.60341 10.6224C8.10592 10.6224 7.70215 10.945 7.70215 11.3434C7.70215 11.7417 8.10592 12.0644 8.60341 12.0644C9.1009 12.0644 9.50467 11.7417 9.50467 11.3434C9.50467 10.945 9.1009 10.6224 8.60341 10.6224Z" stroke="#2A3136" stroke-width="0.7"/>
<path d="M14.8209 20.5364H11.0356V21.0771H14.8209V20.5364Z" stroke="#2A3136" stroke-width="0.7"/>
<path d="M12.0282 19.8151C10.934 19.8151 10.0454 18.9265 10.0454 17.8324C10.0454 16.7383 10.934 15.8496 12.0282 15.8496C13.1223 15.8496 14.0109 16.7383 14.0109 17.8324C14.0109 18.9265 13.1223 19.8151 12.0282 19.8151ZM12.0282 16.3904C11.2333 16.3904 10.5862 17.0375 10.5862 17.8324C10.5862 18.6273 11.2333 19.2744 12.0282 19.2744C12.8231 19.2744 13.4702 18.6273 13.4702 17.8324C13.4702 17.0375 12.8231 16.3904 12.0282 16.3904Z" stroke="#2A3136" stroke-width="0.7"/>
<path d="M7.16048 18.5537C6.06636 18.5537 5.17772 17.6651 5.17772 16.5709C5.17772 15.4768 6.06636 14.5882 7.16048 14.5882C8.25461 14.5882 9.14325 15.4768 9.14325 16.5709C9.14325 17.6651 8.25461 18.5537 7.16048 18.5537ZM7.16048 15.1289C6.36557 15.1289 5.71847 15.776 5.71847 16.5709C5.71847 17.3659 6.36557 18.013 7.16048 18.013C7.95539 18.013 8.60249 17.3659 8.60249 16.5709C8.60249 15.776 7.95539 15.1289 7.16048 15.1289Z" stroke="#2A3136" stroke-width="0.7"/>
<path d="M19.6421 21.1762H16.2775C15.7022 21.1762 15.234 20.708 15.234 20.1326V19.25C15.234 19.0903 15.3635 18.9608 15.5231 18.9608C15.6828 18.9608 15.8123 19.0903 15.8123 19.25V20.1326C15.8123 20.3891 16.021 20.5978 16.2775 20.5978H19.6421C19.8986 20.5978 20.1073 20.3891 20.1073 20.1326V17.7568C20.1073 17.5971 20.2368 17.4676 20.3965 17.4676C20.5562 17.4676 20.6857 17.5971 20.6857 17.7568V20.1326C20.6857 20.708 20.2175 21.1762 19.6421 21.1762Z" stroke="#2A3136" stroke-width="0.7"/>
<path d="M19.7537 18.4075H16.1683C15.6405 18.4075 15.1952 18.0124 15.1323 17.4884L13.7956 6.48856C13.7599 6.19234 13.8532 5.89461 14.0511 5.67156C14.2487 5.44851 14.5334 5.32051 14.8316 5.32051H20.7065C21.0047 5.32051 21.2894 5.44851 21.4873 5.67156C21.6852 5.89461 21.7782 6.19234 21.7428 6.48856L20.79 17.4884C20.7271 18.0124 20.2813 18.4075 19.7537 18.4075ZM14.8316 5.89888C14.6966 5.89888 14.5731 5.95445 14.4836 6.05529C14.3941 6.15613 14.3536 6.28563 14.3697 6.41941L15.7064 17.4192C15.7346 17.6528 15.933 17.8289 16.1683 17.8289H19.7537C19.9891 17.8289 20.1875 17.6528 20.2156 17.4192L21.1684 6.41941C21.1845 6.28538 21.144 6.15613 21.0545 6.05529C20.965 5.95445 20.8413 5.89888 20.7065 5.89888H14.8316Z" stroke="#2A3136" stroke-width="0.7"/>
<path d="M20.4215 8.45127H14.5322C14.3725 8.45127 14.243 8.32177 14.243 8.16209C14.243 8.00241 14.3725 7.87291 14.5322 7.87291H20.4215C20.5811 7.87291 20.7107 8.00241 20.7107 8.16209C20.7107 8.32177 20.5811 8.45127 20.4215 8.45127Z" stroke="#2A3136" stroke-width="0.7"/>
</g>
</g>
</svg>
