<svg width="24" height="24" viewBox="0 0 24 24" fill="none" xmlns="http://www.w3.org/2000/svg">
<path d="M12 20.5L4.10386 11.7142C2.29871 9.83295 2.29871 6.78724 4.10386 4.90882C5.90902 3.03039 8.83538 3.03039 10.6405 4.90882L12 6.32542L13.3595 4.90882C15.1646 3.03039 18.091 3.03039 19.8961 4.90882C21.7013 6.79007 21.7013 9.83578 19.8961 11.7142" stroke="white" stroke-width="1.5" stroke-linejoin="round"/>
<path d="M13.6907 18.7943C15.4071 19.914 17.6974 19.4176 18.8051 17.6827H18.8078C19.9156 15.9478 19.4244 13.6328 17.708 12.5131C15.9916 11.3934 13.7013 11.8899 12.5936 13.6247C12.0063 14.5421 11.8675 15.624 12.1211 16.6034C12.3453 17.4749 12.8818 18.2655 13.6907 18.7943Z" stroke="white"/>
<path d="M13.8483 15.6536H17.548M15.6983 17.5235V13.7839" stroke="white"/>
</svg>
