<svg width="20" height="20" viewBox="0 0 20 20" fill="none" xmlns="http://www.w3.org/2000/svg">
<g clip-path="url(#clip0_1562_27584)">
<path d="M7.3241 12.6583L12.6582 7.32422" stroke="#1A63D9" stroke-width="1.4" stroke-linecap="round" stroke-linejoin="round"/>
<path d="M7.7686 8.21323C8.0141 8.21323 8.21311 8.01422 8.21311 7.76873C8.21311 7.52323 8.0141 7.32422 7.7686 7.32422C7.52311 7.32422 7.3241 7.52323 7.3241 7.76873C7.3241 8.01422 7.52311 8.21323 7.7686 8.21323Z" fill="#1A63D9" stroke="#1A63D9" stroke-width="1.4" stroke-linecap="round" stroke-linejoin="round"/>
<path d="M12.2137 12.6576C12.4592 12.6576 12.6582 12.4586 12.6582 12.2131C12.6582 11.9676 12.4592 11.7686 12.2137 11.7686C11.9682 11.7686 11.7692 11.9676 11.7692 12.2131C11.7692 12.4586 11.9682 12.6576 12.2137 12.6576Z" fill="#1A63D9" stroke="#1A63D9" stroke-width="1.4" stroke-linecap="round" stroke-linejoin="round"/>
<path d="M3.76802 5.72385C3.76802 5.20513 3.97408 4.70766 4.34087 4.34087C4.70766 3.97408 5.20513 3.76802 5.72385 3.76802H6.61286C7.12929 3.76772 7.62464 3.56319 7.99083 3.19905L8.61314 2.57674C8.7949 2.39396 9.01099 2.24891 9.249 2.14993C9.48701 2.05095 9.74223 2 10 2C10.2578 2 10.513 2.05095 10.751 2.14993C10.989 2.24891 11.2051 2.39396 11.3869 2.57674L12.0092 3.19905C12.3754 3.56319 12.8707 3.76772 13.3871 3.76802H14.2762C14.7949 3.76802 15.2923 3.97408 15.6591 4.34087C16.0259 4.70766 16.232 5.20513 16.232 5.72385V6.61286C16.2323 7.12929 16.4368 7.62464 16.8009 7.99083L17.4233 8.61314C17.606 8.7949 17.7511 9.01099 17.8501 9.249C17.949 9.48701 18 9.74223 18 10C18 10.2578 17.949 10.513 17.8501 10.751C17.7511 10.989 17.606 11.2051 17.4233 11.3869L16.8009 12.0092C16.4368 12.3754 16.2323 12.8707 16.232 13.3871V14.2762C16.232 14.7949 16.0259 15.2923 15.6591 15.6591C15.2923 16.0259 14.7949 16.232 14.2762 16.232H13.3871C12.8707 16.2323 12.3754 16.4368 12.0092 16.8009L11.3869 17.4233C11.2051 17.606 10.989 17.7511 10.751 17.8501C10.513 17.949 10.2578 18 10 18C9.74223 18 9.48701 17.949 9.249 17.8501C9.01099 17.7511 8.7949 17.606 8.61314 17.4233L7.99083 16.8009C7.62464 16.4368 7.12929 16.2323 6.61286 16.232H5.72385C5.20513 16.232 4.70766 16.0259 4.34087 15.6591C3.97408 15.2923 3.76802 14.7949 3.76802 14.2762V13.3871C3.76772 12.8707 3.56319 12.3754 3.19905 12.0092L2.57674 11.3869C2.39396 11.2051 2.24891 10.989 2.14993 10.751C2.05095 10.513 2 10.2578 2 10C2 9.74223 2.05095 9.48701 2.14993 9.249C2.24891 9.01099 2.39396 8.7949 2.57674 8.61314L3.19905 7.99083C3.56319 7.62464 3.76772 7.12929 3.76802 6.61286V5.72385Z" stroke="#1A63D9" stroke-width="1.4" stroke-linecap="round" stroke-linejoin="round"/>
</g>
<defs>
<clipPath id="clip0_1562_27584">
<rect width="20" height="20" fill="white"/>
</clipPath>
</defs>
</svg>
