<svg width="20" height="20" viewBox="0 0 20 20" fill="none" xmlns="http://www.w3.org/2000/svg">
<path d="M3.02357 15.5379C3.16087 16.3674 3.88156 17 4.75 17H15.25C16.2165 17 17 16.2165 17 15.25V11.9164M3.02357 15.5379C3.00806 15.4442 3 15.3481 3 15.25V4.75C3 3.7835 3.7835 3 4.75 3H15.25C16.2165 3 17 3.7835 17 4.75V11.9164M3.02357 15.5379L6.36667 12.1948C6.9617 11.6741 7.83192 11.6171 8.48978 12.0557L8.93527 12.3527C9.56936 12.7754 10.4041 12.7392 10.9992 12.2631L13.3163 10.4094C13.9069 9.93693 14.7296 9.89985 15.3575 10.3048C15.4271 10.3497 15.4889 10.4053 15.5475 10.4639L17 11.9164M9.125 7.375C9.125 8.3415 8.3415 9.125 7.375 9.125C6.4085 9.125 5.625 8.3415 5.625 7.375C5.625 6.4085 6.4085 5.625 7.375 5.625C8.3415 5.625 9.125 6.4085 9.125 7.375Z" stroke="#AAAAAA" stroke-width="1.5" stroke-linecap="round" stroke-linejoin="round"/>
</svg>
