<svg width="16" height="16" viewBox="0 0 16 16" fill="none" xmlns="http://www.w3.org/2000/svg">
<path d="M3.28571 4.57229H2.42857C2.31491 4.57229 2.2059 4.52713 2.12553 4.44676C2.04515 4.36639 2 4.25738 2 4.14371C2 4.03005 2.04515 3.92104 2.12553 3.84067C2.2059 3.7603 2.31491 3.71514 2.42857 3.71514H5.85714V2.42857C5.85714 2.31491 5.9023 2.2059 5.98267 2.12553C6.06304 2.04515 6.17205 2 6.28571 2H9.71429C9.82795 2 9.93696 2.04515 10.0173 2.12553C10.0977 2.2059 10.1429 2.31491 10.1429 2.42857V3.71514H13.5714C13.6851 3.71514 13.7941 3.7603 13.8745 3.84067C13.9548 3.92104 14 4.03005 14 4.14371C14 4.25738 13.9548 4.36639 13.8745 4.44676C13.7941 4.52713 13.6851 4.57229 13.5714 4.57229H12.7143V13.5723C12.7143 13.686 12.6691 13.795 12.5888 13.8753C12.5084 13.9557 12.3994 14.0009 12.2857 14.0009H3.71429C3.60062 14.0009 3.49161 13.9557 3.41124 13.8753C3.33087 13.795 3.28571 13.686 3.28571 13.5723V4.57229ZM9.28571 3.71514V2.858H6.71429V3.71514H9.28571ZM4.14286 13.1437H11.8571V4.57229H4.14286V13.1437ZM6.71429 11.4294C6.60062 11.4294 6.49161 11.3843 6.41124 11.3039C6.33087 11.2235 6.28571 11.1145 6.28571 11.0009V6.71514C6.28571 6.60148 6.33087 6.49247 6.41124 6.4121C6.49161 6.33172 6.60062 6.28657 6.71429 6.28657C6.82795 6.28657 6.93696 6.33172 7.01733 6.4121C7.0977 6.49247 7.14286 6.60148 7.14286 6.71514V11.0009C7.14286 11.1145 7.0977 11.2235 7.01733 11.3039C6.93696 11.3843 6.82795 11.4294 6.71429 11.4294ZM9.28571 11.4294C9.17205 11.4294 9.06304 11.3843 8.98267 11.3039C8.9023 11.2235 8.85714 11.1145 8.85714 11.0009V6.71514C8.85714 6.60148 8.9023 6.49247 8.98267 6.4121C9.06304 6.33172 9.17205 6.28657 9.28571 6.28657C9.39938 6.28657 9.50839 6.33172 9.58876 6.4121C9.66913 6.49247 9.71429 6.60148 9.71429 6.71514V11.0009C9.71429 11.1145 9.66913 11.2235 9.58876 11.3039C9.50839 11.3843 9.39938 11.4294 9.28571 11.4294Z" fill="#888888"/>
</svg>
