<svg width="32" height="32" viewBox="0 0 32 32" fill="none" xmlns="http://www.w3.org/2000/svg">
<g id="Frame 50">
<g id="Group 314">
<g id="Vector">
<path fill-rule="evenodd" clip-rule="evenodd" d="M15.6669 2.93701L18.4794 5.39796L17.4258 6.60209L15.6669 5.06304L5.8002 13.6964V26.5334H25.5335V17.3334H27.1335V28.1334H4.2002V12.9703L15.6669 2.93701Z" fill="#2A3136"/>
<path fill-rule="evenodd" clip-rule="evenodd" d="M5.00008 17.2H14.3334V18.8L5.00008 18.8L5.00008 17.2Z" fill="#2A3136"/>
<path fill-rule="evenodd" clip-rule="evenodd" d="M26.236 6.69109C24.0398 5.2736 21.11 5.90252 19.6933 8.09759C18.9422 9.25842 18.7639 10.6275 19.0886 11.8682C19.3751 12.9701 20.0604 13.9704 21.0961 14.6405C23.2924 16.0578 26.222 15.4288 27.6387 13.2338L27.7356 13.0837C29.0308 10.9058 28.3815 8.07577 26.236 6.69109ZM18.6854 7.44628C20.4624 4.69366 24.135 3.90686 26.8868 5.68285C29.6399 7.45972 30.4269 11.1326 28.6508 13.8846L28.4735 14.1592H28.4587C26.6207 16.6883 23.1033 17.3642 20.4452 15.6486C19.1495 14.8104 18.2874 13.555 17.9276 12.1716C17.5213 10.6189 17.7436 8.90175 18.6854 7.44628Z" fill="#2A3136"/>
<path fill-rule="evenodd" clip-rule="evenodd" d="M24.3306 11.3322V13.3321H22.9973V11.3322H20.9973V9.99884H22.9973V7.99916H24.3306V9.99884H26.3302V11.3322H24.3306Z" fill="#2A3136"/>
</g>
</g>
</g>
</svg>
