<svg width="16" height="16" viewBox="0 0 16 16" fill="none" xmlns="http://www.w3.org/2000/svg">
<rect x="5.75" y="2.08331" width="4.5" height="4.5" rx="2.25" stroke="#222222" stroke-width="1.5"/>
<path d="M10 10H14" stroke="#222222" stroke-width="1.5" stroke-linecap="square"/>
<path d="M12 12L12 8" stroke="#222222" stroke-width="1.5" stroke-linecap="square"/>
<mask id="path-4-outside-1_4200_30042" maskUnits="userSpaceOnUse" x="0.666748" y="7.66669" width="14" height="8" fill="black">
<rect fill="white" x="0.666748" y="7.66669" width="14" height="8"/>
<path fill-rule="evenodd" clip-rule="evenodd" d="M8.00008 8.66669C4.79628 8.66669 2.14809 11.0456 1.72555 14.1334C1.68678 14.4167 1.66675 14.706 1.66675 15V15.3334H14.3334V15C14.3334 14.706 14.3134 14.4167 14.2746 14.1334C14.2716 14.1113 14.2685 14.1219 14.2652 14.1329C14.2619 14.1441 14.2585 14.1557 14.2549 14.1334H13.0606C13.0568 14.1113 13.0529 14.1219 13.0489 14.1329C13.0488 14.133 13.0488 14.1332 13.0487 14.1334H13.0361H2.9396C3.35148 11.711 5.4604 9.86669 8.00008 9.86669V8.66669Z"/>
</mask>
<path fill-rule="evenodd" clip-rule="evenodd" d="M8.00008 8.66669C4.79628 8.66669 2.14809 11.0456 1.72555 14.1334C1.68678 14.4167 1.66675 14.706 1.66675 15V15.3334H14.3334V15C14.3334 14.706 14.3134 14.4167 14.2746 14.1334C14.2716 14.1113 14.2685 14.1219 14.2652 14.1329C14.2619 14.1441 14.2585 14.1557 14.2549 14.1334H13.0606C13.0568 14.1113 13.0529 14.1219 13.0489 14.1329C13.0488 14.133 13.0488 14.1332 13.0487 14.1334H13.0361H2.9396C3.35148 11.711 5.4604 9.86669 8.00008 9.86669V8.66669Z" fill="#222222"/>
<path d="M8.00008 8.66669H8.20008V8.46669H8.00008V8.66669ZM1.72555 14.1334L1.5274 14.1062L1.72555 14.1334ZM1.66675 15.3334H1.46675V15.5334H1.66675V15.3334ZM14.3334 15.3334V15.5334H14.5334V15.3334H14.3334ZM14.2746 14.1334L14.0765 14.1605V14.1605L14.2746 14.1334ZM14.2652 14.1329L14.457 14.1895L14.457 14.1895L14.2652 14.1329ZM14.2549 14.1334L14.4524 14.102L14.4257 13.9334H14.2549V14.1334ZM13.0606 14.1334L12.8634 14.1669L12.8917 14.3334H13.0606V14.1334ZM13.0489 14.1329L13.2365 14.202L13.2366 14.2018L13.0489 14.1329ZM13.0487 14.1334V14.3334H13.1881L13.2364 14.2025L13.0487 14.1334ZM2.9396 14.1334L2.74243 14.0998L2.70272 14.3334H2.9396V14.1334ZM8.00008 9.86669V10.0667H8.20008V9.86669H8.00008ZM8.00008 8.46669C4.69494 8.46669 1.96331 10.9208 1.5274 14.1062L1.92371 14.1605C2.33288 11.1704 4.89761 8.86669 8.00008 8.86669V8.46669ZM1.5274 14.1062C1.4874 14.3985 1.46675 14.6969 1.46675 15H1.86675C1.86675 14.7151 1.88616 14.4349 1.92371 14.1605L1.5274 14.1062ZM1.46675 15V15.3334H1.86675V15H1.46675ZM1.66675 15.5334H14.3334V15.1334H1.66675V15.5334ZM14.5334 15.3334V15H14.1334V15.3334H14.5334ZM14.5334 15C14.5334 14.6969 14.5128 14.3985 14.4728 14.1062L14.0765 14.1605C14.114 14.4349 14.1334 14.7151 14.1334 15H14.5334ZM14.4728 14.1062C14.4719 14.1002 14.4688 14.0752 14.4582 14.0486C14.4556 14.042 14.4369 13.9913 14.3833 13.955C14.3494 13.9321 14.3024 13.9157 14.2487 13.9217C14.199 13.9271 14.1637 13.9494 14.1442 13.9653C14.1099 13.993 14.0939 14.0251 14.0909 14.0311C14.085 14.0425 14.0813 14.0523 14.0796 14.0569C14.0763 14.0661 14.0737 14.0753 14.0734 14.0762L14.457 14.1895C14.4584 14.185 14.4573 14.1887 14.4556 14.1935C14.4547 14.196 14.4518 14.2038 14.4468 14.2137C14.4445 14.2181 14.4293 14.2491 14.3958 14.2762C14.3767 14.2917 14.3418 14.3138 14.2925 14.3193C14.2391 14.3251 14.1926 14.3089 14.1591 14.2863C14.1062 14.2504 14.0883 14.2009 14.0864 14.1962C14.0809 14.1822 14.0785 14.1712 14.0778 14.168C14.0769 14.1635 14.0765 14.1607 14.0765 14.1605L14.4728 14.1062ZM14.0734 14.0762C14.0721 14.0808 14.0731 14.0771 14.0748 14.0725C14.0757 14.07 14.0784 14.0626 14.0832 14.0531C14.0858 14.048 14.0993 14.0209 14.128 13.9956C14.1439 13.9816 14.1728 13.9607 14.215 13.9511C14.2614 13.9405 14.3082 13.9472 14.3477 13.9668C14.4121 13.9987 14.4359 14.0535 14.439 14.0602C14.4464 14.0761 14.4496 14.089 14.4505 14.0928C14.4518 14.098 14.4524 14.1015 14.4524 14.102L14.0574 14.1647C14.0583 14.1706 14.0624 14.1988 14.0761 14.2284C14.0801 14.237 14.1048 14.2928 14.17 14.3252C14.21 14.345 14.2572 14.3518 14.3041 14.3411C14.3466 14.3313 14.376 14.3102 14.3923 14.2958C14.4219 14.2698 14.4362 14.2414 14.4397 14.2346C14.4453 14.2235 14.4489 14.214 14.4507 14.2092C14.454 14.1999 14.4567 14.1906 14.457 14.1895L14.0734 14.0762ZM14.2549 13.9334H13.0606V14.3334H14.2549V13.9334ZM13.2366 14.2018C13.2384 14.197 13.2367 14.2018 13.2341 14.2075C13.2327 14.2106 13.2287 14.2193 13.2219 14.23C13.2175 14.2369 13.1994 14.2653 13.1637 14.2884C13.1436 14.3015 13.1128 14.3162 13.0728 14.3197C13.0309 14.3233 12.992 14.3134 12.9604 14.2961C12.9058 14.2663 12.8834 14.221 12.8783 14.2109C12.8705 14.1949 12.8669 14.1818 12.8657 14.1774C12.8642 14.1717 12.8635 14.1678 12.8634 14.1669L13.2577 14.0998C13.2566 14.093 13.252 14.0642 13.2371 14.034C13.2311 14.0218 13.2077 13.9754 13.1522 13.9451C13.0745 13.9026 12.9949 13.9212 12.9459 13.953C12.9092 13.9768 12.8901 14.0063 12.8848 14.0148C12.877 14.0269 12.872 14.0376 12.8696 14.0428C12.865 14.053 12.8614 14.0632 12.8611 14.0639L13.2366 14.2018ZM13.2364 14.2025C13.2364 14.2024 13.2365 14.2022 13.2365 14.2022C13.2365 14.2021 13.2365 14.202 13.2365 14.202L12.8612 14.0637C12.8612 14.0639 12.8611 14.064 12.8611 14.0641C12.861 14.0641 12.861 14.0642 12.861 14.0642L13.2364 14.2025ZM13.0487 13.9334H13.0361V14.3334H13.0487V13.9334ZM13.0361 13.9334H2.9396V14.3334H13.0361V13.9334ZM3.13677 14.1669C3.53258 11.8391 5.55955 10.0667 8.00008 10.0667V9.66669C5.36125 9.66669 3.17038 11.583 2.74243 14.0998L3.13677 14.1669ZM8.20008 9.86669V8.66669H7.80008V9.86669H8.20008Z" fill="#222222" mask="url(#path-4-outside-1_4200_30042)"/>
</svg>
