<svg width="24" height="24" viewBox="0 0 24 24" fill="none" xmlns="http://www.w3.org/2000/svg">
<path d="M11.6024 21.5062H10.0564C8.91854 21.5062 7.99314 20.5808 7.99314 19.4429H8.54727C8.54727 20.2741 9.22516 20.952 10.0564 20.952H11.6024V21.5062Z" fill="#2A3136"/>
<path d="M8.41209 19.478C8.30496 19.478 8.19598 19.4669 8.08885 19.4466C7.46637 19.3228 6.96211 18.8038 6.83281 18.1518C6.5539 16.7387 5.99792 13.4398 5.6913 11.5982C5.59525 11.0201 5.16857 10.5454 4.60705 10.3865C2.63987 9.83423 0.994099 7.79318 1.64428 5.33467C2.12453 3.51527 3.82202 2.25 5.77442 2.25H5.79474C7.81732 2.25924 10.1502 2.90757 12.4074 3.53559C14.5907 4.14144 16.6502 4.71589 18.1815 4.63647L22.0992 2.67668C22.1841 2.6342 22.2876 2.63789 22.3689 2.68961C22.4501 2.73948 22.5 2.82999 22.5 2.92604V11.0626C22.5 11.1586 22.4501 11.2473 22.3689 11.299C22.2876 11.3489 22.1841 11.3544 22.0992 11.3119L18.1648 9.34475C16.1275 8.98456 12.7066 9.20067 11.7424 10.8095C11.1015 11.879 10.3202 15.7949 9.99322 18.1037C9.93226 18.5378 9.69214 18.9331 9.3338 19.1861C9.06043 19.3801 8.74088 19.4817 8.41024 19.4817L8.41209 19.478ZM5.77442 2.80413C4.07323 2.80413 2.59554 3.89947 2.17994 5.47505C1.61842 7.60477 3.04809 9.3743 4.75666 9.8527C5.52506 10.0688 6.1069 10.7172 6.23804 11.5059C6.54466 13.3437 7.10064 16.6371 7.37771 18.0428C7.46268 18.4769 7.79146 18.8204 8.19783 18.9017C8.48967 18.959 8.77967 18.898 9.01795 18.7299C9.25253 18.5637 9.40953 18.3051 9.44832 18.0225C9.718 16.1181 10.5178 11.7792 11.2696 10.5214C12.448 8.55234 16.2106 8.42119 18.3052 8.80355C18.3311 8.80909 18.3569 8.81648 18.3791 8.82756L21.9477 10.6119V3.37304L18.3791 5.15735C18.3458 5.17397 18.3089 5.18321 18.272 5.1869C16.6447 5.2885 14.5149 4.69742 12.2596 4.07125C10.0375 3.45432 7.74159 2.81522 5.79289 2.80598H5.77442V2.80413Z" fill="#2A3136"/>
<path d="M5.50637 5.06685H3.65926C3.50595 5.06685 3.38219 4.9431 3.38219 4.78979C3.38219 4.63648 3.50595 4.51272 3.65926 4.51272H5.50637C5.65968 4.51272 5.78344 4.63648 5.78344 4.78979C5.78344 4.9431 5.65968 5.06685 5.50637 5.06685Z" fill="#2A3136"/>
<path d="M5.50637 6.54455H3.65926C3.50595 6.54455 3.38219 6.42079 3.38219 6.26748C3.38219 6.11417 3.50595 5.99041 3.65926 5.99041H5.50637C5.65968 5.99041 5.78344 6.11417 5.78344 6.26748C5.78344 6.42079 5.65968 6.54455 5.50637 6.54455Z" fill="#2A3136"/>
<path d="M5.50637 8.02224H3.65926C3.50595 8.02224 3.38219 7.89848 3.38219 7.74517C3.38219 7.59186 3.50595 7.46811 3.65926 7.46811H5.50637C5.65968 7.46811 5.78344 7.59186 5.78344 7.74517C5.78344 7.89848 5.65968 8.02224 5.50637 8.02224Z" fill="#2A3136"/>
<path d="M11.7943 13.1941H10.8633V12.64H11.7943C11.9938 12.64 12.1563 12.4774 12.1563 12.2779V11.8937C12.1563 11.6943 11.9938 11.5317 11.7943 11.5317H11.4175V10.9776H11.7943C12.3004 10.9776 12.7104 11.3895 12.7104 11.8937V12.2779C12.7104 12.7841 12.2985 13.1941 11.7943 13.1941Z" fill="#2A3136"/>
<path d="M18.4363 4.98923H17.8821V7.65276H18.4363V4.98923Z" fill="#2A3136"/>
<path d="M6.49499 13.6227L6.07385 13.2625C6.12372 13.2034 7.33727 11.8089 9.56304 10.9998L9.75329 11.5207C7.6716 12.278 6.50607 13.6098 6.49499 13.6246V13.6227Z" fill="#2A3136"/>
<path d="M11.6024 21.5062H10.0564C8.91854 21.5062 7.99314 20.5808 7.99314 19.4429H8.54727C8.54727 20.2741 9.22516 20.952 10.0564 20.952H11.6024V21.5062Z" stroke="#2A3136" stroke-width="0.6"/>
<path d="M8.41209 19.478C8.30496 19.478 8.19598 19.4669 8.08885 19.4466C7.46637 19.3228 6.96211 18.8038 6.83281 18.1518C6.5539 16.7387 5.99792 13.4398 5.6913 11.5982C5.59525 11.0201 5.16857 10.5454 4.60705 10.3865C2.63987 9.83423 0.994099 7.79318 1.64428 5.33467C2.12453 3.51527 3.82202 2.25 5.77442 2.25H5.79474C7.81732 2.25924 10.1502 2.90757 12.4074 3.53559C14.5907 4.14144 16.6502 4.71589 18.1815 4.63647L22.0992 2.67668C22.1841 2.6342 22.2876 2.63789 22.3689 2.68961C22.4501 2.73948 22.5 2.82999 22.5 2.92604V11.0626C22.5 11.1586 22.4501 11.2473 22.3689 11.299C22.2876 11.3489 22.1841 11.3544 22.0992 11.3119L18.1648 9.34475C16.1275 8.98456 12.7066 9.20067 11.7424 10.8095C11.1015 11.879 10.3202 15.7949 9.99322 18.1037C9.93226 18.5378 9.69214 18.9331 9.3338 19.1861C9.06043 19.3801 8.74088 19.4817 8.41024 19.4817L8.41209 19.478ZM5.77442 2.80413C4.07323 2.80413 2.59554 3.89947 2.17994 5.47505C1.61842 7.60477 3.04809 9.3743 4.75666 9.8527C5.52506 10.0688 6.1069 10.7172 6.23804 11.5059C6.54466 13.3437 7.10064 16.6371 7.37771 18.0428C7.46268 18.4769 7.79146 18.8204 8.19783 18.9017C8.48967 18.959 8.77967 18.898 9.01795 18.7299C9.25253 18.5637 9.40953 18.3051 9.44832 18.0225C9.718 16.1181 10.5178 11.7792 11.2696 10.5214C12.448 8.55234 16.2106 8.42119 18.3052 8.80355C18.3311 8.80909 18.3569 8.81648 18.3791 8.82756L21.9477 10.6119V3.37304L18.3791 5.15735C18.3458 5.17397 18.3089 5.18321 18.272 5.1869C16.6447 5.2885 14.5149 4.69742 12.2596 4.07125C10.0375 3.45432 7.74159 2.81522 5.79289 2.80598H5.77442V2.80413Z" stroke="#2A3136" stroke-width="0.6"/>
<path d="M5.50637 5.06685H3.65926C3.50595 5.06685 3.38219 4.9431 3.38219 4.78979C3.38219 4.63648 3.50595 4.51272 3.65926 4.51272H5.50637C5.65968 4.51272 5.78344 4.63648 5.78344 4.78979C5.78344 4.9431 5.65968 5.06685 5.50637 5.06685Z" stroke="#2A3136" stroke-width="0.6"/>
<path d="M5.50637 6.54455H3.65926C3.50595 6.54455 3.38219 6.42079 3.38219 6.26748C3.38219 6.11417 3.50595 5.99041 3.65926 5.99041H5.50637C5.65968 5.99041 5.78344 6.11417 5.78344 6.26748C5.78344 6.42079 5.65968 6.54455 5.50637 6.54455Z" stroke="#2A3136" stroke-width="0.6"/>
<path d="M5.50637 8.02224H3.65926C3.50595 8.02224 3.38219 7.89848 3.38219 7.74517C3.38219 7.59186 3.50595 7.46811 3.65926 7.46811H5.50637C5.65968 7.46811 5.78344 7.59186 5.78344 7.74517C5.78344 7.89848 5.65968 8.02224 5.50637 8.02224Z" stroke="#2A3136" stroke-width="0.6"/>
<path d="M11.7943 13.1941H10.8633V12.64H11.7943C11.9938 12.64 12.1563 12.4774 12.1563 12.2779V11.8937C12.1563 11.6943 11.9938 11.5317 11.7943 11.5317H11.4175V10.9776H11.7943C12.3004 10.9776 12.7104 11.3895 12.7104 11.8937V12.2779C12.7104 12.7841 12.2985 13.1941 11.7943 13.1941Z" stroke="#2A3136" stroke-width="0.6"/>
<path d="M18.4363 4.98923H17.8821V7.65276H18.4363V4.98923Z" stroke="#2A3136" stroke-width="0.6"/>
<path d="M6.49499 13.6227L6.07385 13.2625C6.12372 13.2034 7.33727 11.8089 9.56304 10.9998L9.75329 11.5207C7.6716 12.278 6.50607 13.6098 6.49499 13.6246V13.6227Z" stroke="#2A3136" stroke-width="0.6"/>
</svg>
