<svg width="16" height="16" viewBox="0 0 16 16" fill="none" xmlns="http://www.w3.org/2000/svg">
<path d="M8.35938 12.6576L8.36584 12.6652L8.3726 12.6725C8.45117 12.7576 8.5 12.8712 8.5 13C8.5 13.1326 8.44732 13.2598 8.35355 13.3536C8.25979 13.4473 8.13261 13.5 8 13.5C6.54131 13.5 5.14236 12.9205 4.11091 11.8891C3.07946 10.8576 2.5 9.45869 2.5 8C2.5 6.54131 3.07946 5.14236 4.11091 4.11091C5.14236 3.07946 6.54131 2.5 8 2.5C11.0943 2.5 13.5 4.71663 13.5 7.33333C13.5 8.08478 13.2015 8.80545 12.6701 9.3368C12.1388 9.86816 11.4181 10.1667 10.6667 10.1667H9.48667C9.08884 10.1667 8.70731 10.3247 8.42601 10.606C8.1447 10.8873 7.98667 11.2688 7.98667 11.6667C7.98667 12.0535 8.13909 12.399 8.35938 12.6576Z" stroke="#777777"/>
<path d="M4.6998 8.4001C5.19686 8.4001 5.5998 7.99715 5.5998 7.5001C5.5998 7.00304 5.19686 6.6001 4.6998 6.6001C4.20275 6.6001 3.7998 7.00304 3.7998 7.5001C3.7998 7.99715 4.20275 8.4001 4.6998 8.4001Z" fill="#777777"/>
<path d="M6.50001 6.1999C6.99706 6.1999 7.40001 5.79696 7.40001 5.2999C7.40001 4.80285 6.99706 4.3999 6.50001 4.3999C6.00295 4.3999 5.60001 4.80285 5.60001 5.2999C5.60001 5.79696 6.00295 6.1999 6.50001 6.1999Z" fill="#777777"/>
<path d="M9.50001 6.1999C9.99706 6.1999 10.4 5.79696 10.4 5.2999C10.4 4.80285 9.99706 4.3999 9.50001 4.3999C9.00295 4.3999 8.60001 4.80285 8.60001 5.2999C8.60001 5.79696 9.00295 6.1999 9.50001 6.1999Z" fill="#777777"/>
<path d="M11.2999 8.4001C11.797 8.4001 12.1999 7.99715 12.1999 7.5001C12.1999 7.00304 11.797 6.6001 11.2999 6.6001C10.8028 6.6001 10.3999 7.00304 10.3999 7.5001C10.3999 7.99715 10.8028 8.4001 11.2999 8.4001Z" fill="#777777"/>
</svg>
