<svg width="24" height="24" viewBox="0 0 24 24" fill="none" xmlns="http://www.w3.org/2000/svg">
<g id="state=list">
<path id="Vector" d="M4 12.898H5.77778V11.102H4V12.898ZM4 17.5H5.77778V15.7041H4V17.5ZM4 8.29592H5.77778V6.5H4V8.29592ZM7.55556 12.898H20V11.102H7.55556V12.898ZM7.55556 17.5H20V15.7041H7.55556V17.5ZM7.55556 6.5V8.29592H20V6.5H7.55556ZM4 12.898H5.77778V11.102H4V12.898ZM4 17.5H5.77778V15.7041H4V17.5ZM4 8.29592H5.77778V6.5H4V8.29592ZM7.55556 12.898H20V11.102H7.55556V12.898ZM7.55556 17.5H20V15.7041H7.55556V17.5ZM7.55556 6.5V8.29592H20V6.5H7.55556Z" fill="#666666"/>
</g>
</svg>
