<svg width="24" height="24" viewBox="0 0 24 24" fill="none" xmlns="http://www.w3.org/2000/svg">
<g id="clip">
<path id="Vector" d="M17.9312 5.22511C15.841 3.19156 12.4371 3.19156 10.3491 5.22511L4.55771 10.8551C4.51999 10.8918 4.50002 10.9415 4.50002 10.9933C4.50002 11.0451 4.51999 11.0948 4.55771 11.1315L5.3765 11.928C5.41392 11.9643 5.46459 11.9847 5.5174 11.9847C5.57021 11.9847 5.62088 11.9643 5.6583 11.928L11.4497 6.29801C12.1686 5.59858 13.125 5.21432 14.1413 5.21432C15.1575 5.21432 16.1139 5.59858 16.8306 6.29801C17.5496 6.99745 17.9445 7.92787 17.9445 8.91442C17.9445 9.90313 17.5496 10.8314 16.8306 11.5308L10.9283 17.271L9.9719 18.2014C9.07767 19.0714 7.62427 19.0714 6.73005 18.2014C6.29735 17.7804 6.05993 17.2213 6.05993 16.6255C6.05993 16.0297 6.29735 15.4706 6.73005 15.0496L13.4191 8.56116C13.5678 8.41868 13.7631 8.33881 13.9717 8.33881H13.9739C14.1825 8.33881 14.3755 8.41868 14.5219 8.56116C14.6706 8.7058 14.7505 8.89577 14.7505 9.09869C14.7505 9.29945 14.6684 9.48942 14.5219 9.6319L8.90238 15.0777C8.86466 15.1144 8.84469 15.164 8.84469 15.2158C8.84469 15.2676 8.86466 15.3173 8.90238 15.354L9.72116 16.1506C9.75859 16.1868 9.80925 16.2072 9.86207 16.2072C9.91488 16.2072 9.96554 16.1868 10.003 16.1506L15.6203 10.7026C16.0619 10.2731 16.3037 9.70314 16.3037 9.09653C16.3037 8.48992 16.0597 7.91785 15.6203 7.49042C14.7083 6.60317 13.2261 6.60533 12.3141 7.49042L11.7461 8.04522L5.62724 13.9789C5.2685 14.3258 4.98414 14.7386 4.79065 15.1933C4.59715 15.648 4.49836 16.1355 4.50002 16.6277C4.50002 17.6272 4.90165 18.5662 5.62724 19.2721C6.37945 20.0018 7.36466 20.3666 8.34987 20.3666C9.33507 20.3666 10.3203 20.0018 11.0703 19.2721L17.9312 12.6016C18.9408 11.6172 19.5 10.3068 19.5 8.91442C19.5022 7.51987 18.943 6.2095 17.9312 5.22511Z" fill="#888888"/>
</g>
</svg>
