<svg width="20" height="19" viewBox="0 0 20 19" fill="none" xmlns="http://www.w3.org/2000/svg">
<g id="Group 29061">
<path id="Vector" d="M9.84546 6.25459L12.7273 9.12732V8.98187C12.7273 8.25855 12.4399 7.56486 11.9285 7.05339C11.417 6.54193 10.7233 6.25459 10 6.25459H9.84546ZM5.93636 6.98187L7.34545 8.39096C7.3 8.58187 7.27273 8.77278 7.27273 8.98187C7.27273 9.70518 7.56006 10.3989 8.07153 10.9103C8.58299 11.4218 9.27668 11.7091 10 11.7091C10.2 11.7091 10.4 11.6819 10.5909 11.6364L12 13.0455C11.3909 13.3455 10.7182 13.5273 10 13.5273C8.79447 13.5273 7.63832 13.0484 6.78588 12.196C5.93344 11.3435 5.45455 10.1874 5.45455 8.98187C5.45455 8.26368 5.63636 7.59096 5.93636 6.98187ZM0.909091 1.95459L2.98182 4.02732L3.39091 4.43641C1.89091 5.61823 0.709091 7.16368 0 8.98187C1.57273 12.9728 5.45455 15.8 10 15.8C11.4091 15.8 12.7545 15.5273 13.9818 15.0364L14.3727 15.4182L17.0273 18.0728L18.1818 16.9182L2.06364 0.800049M10 4.43641C11.2055 4.43641 12.3617 4.91531 13.2141 5.76774C14.0666 6.62018 14.5455 7.77634 14.5455 8.98187C14.5455 9.56368 14.4273 10.1273 14.2182 10.6364L16.8818 13.3C18.2455 12.1637 19.3364 10.6728 20 8.98187C18.4273 4.99096 14.5455 2.16369 10 2.16369C8.72727 2.16369 7.50909 2.39096 6.36364 2.80005L8.33636 4.75459C8.85455 4.55459 9.40909 4.43641 10 4.43641Z" fill="#888888"/>
</g>
</svg>
