<svg width="24" height="24" viewBox="0 0 24 24" fill="none" xmlns="http://www.w3.org/2000/svg">
<path d="M2.75 7.09375C2.75 5.7536 3.75813 4.75 4.90278 4.75H18.0972C19.2419 4.75 20.25 5.7536 20.25 7.09375V15.5312C20.25 16.8714 19.2419 17.875 18.0972 17.875H12.1544C11.8984 17.875 11.6585 17.973 11.4768 18.139L8.0788 21.2431C8.07443 21.2471 8.07135 21.2488 8.07003 21.2494C8.06982 21.2495 8.06964 21.2496 8.06948 21.2497C8.06926 21.2496 8.06903 21.2495 8.06876 21.2494C8.06532 21.2477 8.05567 21.2417 8.04565 21.225C8.03557 21.2082 8.02778 21.1846 8.02778 21.1562V18.9062C8.02778 18.3824 7.61814 17.875 7.01389 17.875H4.90278C3.75813 17.875 2.75 16.8714 2.75 15.5312V7.09375Z" stroke="#888888" stroke-width="1.5" stroke-linejoin="round"/>
</svg>
