<svg width="20" height="19" viewBox="0 0 20 19" fill="none" xmlns="http://www.w3.org/2000/svg">
<g id="Group 29055">
<path id="Vector" d="M10 18.5L2.10386 9.7142C0.298712 7.83295 0.298712 4.78724 2.10386 2.90882C3.90902 1.03039 6.83538 1.03039 8.64053 2.90882L10 4.32542L11.3595 2.90882C13.1646 1.03039 16.091 1.03039 17.8961 2.90882C19.7013 4.79007 19.7013 7.83578 17.8961 9.7142" stroke="white" stroke-width="1.5" stroke-linejoin="round"/>
<g id="Group 339">
<path id="Vector 23" d="M11.6907 16.7943C13.4071 17.914 15.6974 17.4176 16.8051 15.6827H16.8078C17.9156 13.9478 17.4244 11.6328 15.708 10.5131C13.9916 9.3934 11.7013 9.88985 10.5936 11.6247C10.0063 12.5421 9.8675 13.624 10.1211 14.6034C10.3453 15.4749 10.8818 16.2655 11.6907 16.7943Z" stroke="white"/>
<path id="Vector 24" d="M11.8483 13.6536H15.548M13.6983 15.5235V11.7839" stroke="white"/>
</g>
</g>
</svg>
