<svg width="20" height="20" viewBox="0 0 20 20" fill="none" xmlns="http://www.w3.org/2000/svg">
<path d="M2.81818 16C3.18182 16.3636 3.72727 16.6364 4.27273 16.6364H15.9091C16.4545 16.6364 17 16.3636 17.3636 15.9091C17.7273 15.5455 18 15 18 14.4545V12.8182C18 12.4545 17.6364 12.1818 17.4545 12H17.3636C17.0909 11.7273 16.8182 11.4545 16.6364 11.1818C16.4545 10.9091 16.3636 10.5455 16.3636 10.1818C16.3636 9.81818 16.4545 9.54545 16.6364 9.18182C16.8182 8.90909 17.0909 8.63636 17.3636 8.54545C17.5455 8.45455 17.6364 8.27273 17.7273 8.18182C17.7273 8 17.8182 7.81818 17.9091 7.72727V6.09091C17.9091 5.54545 17.6364 5 17.1818 4.63636C16.8182 4.27273 16.2727 4 15.7273 4H4.09091C3.54545 4 3 4.27273 2.63636 4.72727C2.27273 5.18182 2 5.63636 2 6.18182V7.81818C2 8.18182 2.36364 8.45455 2.54545 8.63636H2.63636C2.90909 8.90909 3.18182 9.09091 3.36364 9.45455C3.54545 9.72727 3.63636 10.0909 3.63636 10.4545C3.63636 10.8182 3.54545 11.0909 3.36364 11.4545C3.18182 11.7273 2.90909 12 2.63636 12.0909C2.36364 12.2727 2.18182 12.6364 2.18182 13V14.6364C2.18182 15.1818 2.45455 15.7273 2.90909 16.0909L2.81818 16ZM3.18182 13.0909L3.45455 12.9091C3.90909 12.6364 4.27273 12.2727 4.45455 11.8182C4.72727 11.3636 4.81818 10.8182 4.81818 10.3636C4.81818 9.90909 4.63636 9.36364 4.36364 8.90909C4.09091 8.45455 3.72727 8.09091 3.27273 7.81818H3.18182V6.18182C3.18182 5.90909 3.36364 5.63636 3.54545 5.45455C3.72727 5.27273 4 5.18182 4.27273 5.18182H15.8182C16.0909 5.18182 16.3636 5.36364 16.5455 5.54545C16.7273 5.72727 16.8182 6 16.8182 6.27273V7.63636L16.5455 7.81818C16.0909 8.09091 15.7273 8.45455 15.5455 8.90909C15.2727 9.36364 15.1818 9.90909 15.1818 10.3636C15.1818 10.9091 15.3636 11.3636 15.6364 11.8182C15.9091 12.2727 16.2727 12.6364 16.7273 12.9091H16.8182V14.5455C16.8182 14.8182 16.6364 15.0909 16.4545 15.2727C16.2727 15.4545 16 15.5455 15.7273 15.5455H4.18182C3.90909 15.5455 3.63636 15.3636 3.45455 15.1818C3.27273 15 3.18182 14.7273 3.18182 14.4545V13.0909Z" fill="#2A3136" stroke="#2A3136" stroke-width="0.4"/>
<path d="M8.72721 8.36321C8.6363 8.36321 8.45448 8.1814 8.36357 8.1814C8.27266 8.1814 8.09084 8.1814 7.99993 8.36321C7.90902 8.45412 7.81812 8.63594 7.81812 8.72685V12.0905C7.81812 12.1814 7.81812 12.3632 7.99993 12.4541C8.09084 12.4541 8.27266 12.6359 8.36357 12.545C8.54539 12.545 8.6363 12.545 8.72721 12.3632C8.81812 12.2723 8.90902 12.0905 8.90902 11.9996V8.63594C8.90902 8.54503 8.90902 8.36321 8.72721 8.27231V8.36321Z" fill="#2A3136" stroke="#2A3136" stroke-width="0.4"/>
</svg>
