<svg width="16" height="16" viewBox="0 0 16 16" fill="none" xmlns="http://www.w3.org/2000/svg">
<g id="style=heart - 16">
<path id="Vector" d="M7.46659 12.8483L7.46587 12.8476C5.91104 11.4377 4.66078 10.3013 3.79338 9.24007C2.93148 8.18559 2.5 7.26662 2.5 6.3C2.5 4.72274 3.72755 3.5 5.3 3.5C6.19285 3.5 7.05806 3.91823 7.62058 4.57364L8 5.01572L8.37942 4.57364C8.94194 3.91823 9.80715 3.5 10.7 3.5C12.2725 3.5 13.5 4.72274 13.5 6.3C13.5 7.26662 13.0685 8.18559 12.2066 9.24007C11.3392 10.3013 10.089 11.4377 8.53413 12.8476L8.53341 12.8483L8 13.3338L7.46659 12.8483Z" stroke="#777777"/>
</g>
</svg>
