<svg width="17" height="14" viewBox="0 0 17 14" fill="none" xmlns="http://www.w3.org/2000/svg">
<g id="Group 29110">
<path id="Vector" d="M1.31818 13C1.68182 13.3636 2.22727 13.6364 2.77273 13.6364H14.4091C14.9545 13.6364 15.5 13.3636 15.8636 12.9091C16.2273 12.5455 16.5 12 16.5 11.4545V9.81818C16.5 9.45455 16.1364 9.18182 15.9545 9H15.8636C15.5909 8.72727 15.3182 8.45455 15.1364 8.18182C14.9545 7.90909 14.8636 7.54545 14.8636 7.18182C14.8636 6.81818 14.9545 6.54545 15.1364 6.18182C15.3182 5.90909 15.5909 5.63636 15.8636 5.54545C16.0455 5.45455 16.1364 5.27273 16.2273 5.18182C16.2273 5 16.3182 4.81818 16.4091 4.72727V3.09091C16.4091 2.54545 16.1364 2 15.6818 1.63636C15.3182 1.27273 14.7727 1 14.2273 1H2.59091C2.04545 1 1.5 1.27273 1.13636 1.72727C0.772727 2.18182 0.5 2.63636 0.5 3.18182V4.81818C0.5 5.18182 0.863636 5.45455 1.04545 5.63636H1.13636C1.40909 5.90909 1.68182 6.09091 1.86364 6.45455C2.04545 6.72727 2.13636 7.09091 2.13636 7.45455C2.13636 7.81818 2.04545 8.09091 1.86364 8.45455C1.68182 8.72727 1.40909 9 1.13636 9.09091C0.863636 9.27273 0.681818 9.63636 0.681818 10V11.6364C0.681818 12.1818 0.954545 12.7273 1.40909 13.0909L1.31818 13ZM1.68182 10.0909L1.95455 9.90909C2.40909 9.63636 2.77273 9.27273 2.95455 8.81818C3.22727 8.36364 3.31818 7.81818 3.31818 7.36364C3.31818 6.90909 3.13636 6.36364 2.86364 5.90909C2.59091 5.45455 2.22727 5.09091 1.77273 4.81818H1.68182V3.18182C1.68182 2.90909 1.86364 2.63636 2.04545 2.45455C2.22727 2.27273 2.5 2.18182 2.77273 2.18182H14.3182C14.5909 2.18182 14.8636 2.36364 15.0455 2.54545C15.2273 2.72727 15.3182 3 15.3182 3.27273V4.63636L15.0455 4.81818C14.5909 5.09091 14.2273 5.45455 14.0455 5.90909C13.7727 6.36364 13.6818 6.90909 13.6818 7.36364C13.6818 7.90909 13.8636 8.36364 14.1364 8.81818C14.4091 9.27273 14.7727 9.63636 15.2273 9.90909H15.3182V11.5455C15.3182 11.8182 15.1364 12.0909 14.9545 12.2727C14.7727 12.4545 14.5 12.5455 14.2273 12.5455H2.68182C2.40909 12.5455 2.13636 12.3636 1.95455 12.1818C1.77273 12 1.68182 11.7273 1.68182 11.4545V10.0909Z" fill="#2A3136" stroke="#2A3136" stroke-width="0.4"/>
<path id="Vector_2" d="M7.22696 5.36346C7.13605 5.36346 6.95423 5.18164 6.86333 5.18164C6.77242 5.18164 6.5906 5.18164 6.49969 5.36346C6.40878 5.45437 6.31787 5.63619 6.31787 5.7271V9.09073C6.31787 9.18164 6.31787 9.36346 6.49969 9.45437C6.5906 9.45437 6.77242 9.63619 6.86333 9.54528C7.04514 9.54528 7.13605 9.54528 7.22696 9.36346C7.31787 9.27255 7.40878 9.09073 7.40878 8.99982V5.63619C7.40878 5.54528 7.40878 5.36346 7.22696 5.27255V5.36346Z" fill="#2A3136" stroke="#2A3136" stroke-width="0.4"/>
</g>
</svg>
