<svg width="12" height="12" viewBox="0 0 12 12" fill="none" xmlns="http://www.w3.org/2000/svg">
<g clip-path="url(#clip0_1071_215)">
<g clip-path="url(#clip1_1071_215)">
<path d="M4.39445 7.59473L7.5949 4.39429" stroke="#1A63D9" stroke-linecap="round" stroke-linejoin="round"/>
<path d="M4.66116 4.9277C4.80846 4.9277 4.92786 4.80829 4.92786 4.66099C4.92786 4.51369 4.80846 4.39429 4.66116 4.39429C4.51386 4.39429 4.39445 4.51369 4.39445 4.66099C4.39445 4.80829 4.51386 4.9277 4.66116 4.9277Z" fill="#1A63D9" stroke="#1A63D9" stroke-linecap="round" stroke-linejoin="round"/>
<path d="M7.32818 7.59469C7.47548 7.59469 7.59489 7.47528 7.59489 7.32798C7.59489 7.18069 7.47548 7.06128 7.32818 7.06128C7.18089 7.06128 7.06148 7.18069 7.06148 7.32798C7.06148 7.47528 7.18089 7.59469 7.32818 7.59469Z" fill="#1A63D9" stroke="#1A63D9" stroke-linecap="round" stroke-linejoin="round"/>
<path d="M2.26081 3.43426C2.26081 3.12303 2.38444 2.82454 2.60452 2.60447C2.82459 2.3844 3.12307 2.26076 3.4343 2.26076H3.96771C4.27757 2.26058 4.57478 2.13787 4.79449 1.91938L5.16788 1.546C5.27693 1.43633 5.40659 1.3493 5.5494 1.28991C5.6922 1.23052 5.84534 1.19995 6 1.19995C6.15466 1.19995 6.30779 1.23052 6.4506 1.28991C6.5934 1.3493 6.72306 1.43633 6.83211 1.546L7.2055 1.91938C7.42521 2.13787 7.72242 2.26058 8.03228 2.26076H8.56569C8.87692 2.26076 9.1754 2.3844 9.39548 2.60447C9.61555 2.82454 9.73919 3.12303 9.73919 3.43426V3.96767C9.73936 4.27752 9.86208 4.57473 10.0806 4.79445L10.454 5.16783C10.5636 5.27689 10.6506 5.40655 10.71 5.54935C10.7694 5.69215 10.8 5.84529 10.8 5.99995C10.8 6.15461 10.7694 6.30775 10.71 6.45055C10.6506 6.59336 10.5636 6.72301 10.454 6.83207L10.0806 7.20545C9.86208 7.42517 9.73936 7.72238 9.73919 8.03223V8.56564C9.73919 8.87687 9.61555 9.17536 9.39548 9.39543C9.1754 9.6155 8.87692 9.73914 8.56569 9.73914H8.03228C7.72242 9.73932 7.42521 9.86204 7.2055 10.0805L6.83211 10.4539C6.72306 10.5636 6.5934 10.6506 6.4506 10.71C6.30779 10.7694 6.15466 10.8 6 10.8C5.84534 10.8 5.6922 10.7694 5.5494 10.71C5.40659 10.6506 5.27693 10.5636 5.16788 10.4539L4.79449 10.0805C4.57478 9.86204 4.27757 9.73932 3.96771 9.73914H3.4343C3.12307 9.73914 2.82459 9.6155 2.60452 9.39543C2.38444 9.17536 2.26081 8.87687 2.26081 8.56564V8.03223C2.26063 7.72238 2.13791 7.42517 1.91943 7.20545L1.54604 6.83207C1.43637 6.72301 1.34934 6.59336 1.28996 6.45055C1.23057 6.30775 1.2 6.15461 1.2 5.99995C1.2 5.84529 1.23057 5.69215 1.28996 5.54935C1.34934 5.40655 1.43637 5.27689 1.54604 5.16783L1.91943 4.79445C2.13791 4.57473 2.26063 4.27752 2.26081 3.96767V3.43426Z" stroke="#1A63D9" stroke-linecap="round" stroke-linejoin="round"/>
</g>
</g>
<defs>
<clipPath id="clip0_1071_215">
<rect width="12" height="12" fill="white"/>
</clipPath>
<clipPath id="clip1_1071_215">
<rect width="12" height="12" fill="white"/>
</clipPath>
</defs>
</svg>
