<svg width="17" height="16" viewBox="0 0 17 16" fill="none" xmlns="http://www.w3.org/2000/svg">
<rect x="1" y="0.5" width="15" height="15" rx="7.5" stroke="#BBBBBB" stroke-linecap="round" stroke-linejoin="round"/>
<path d="M8.50752 9.65857C8.16667 9.65857 7.9812 9.49571 7.95113 9.17L7.51504 4.43857C7.49499 4.17286 7.57519 3.95 7.75564 3.77C7.94612 3.59 8.19173 3.5 8.49248 3.5C8.79323 3.5 9.03885 3.59 9.22932 3.77C9.4198 3.95 9.5 4.17286 9.46993 4.43857L9.04887 9.17C9.0188 9.49571 8.83835 9.65857 8.50752 9.65857ZM8.40226 12.5C8.11153 12.5 7.88596 12.4357 7.72556 12.3071C7.57519 12.17 7.5 11.9771 7.5 11.7286V11.51C7.5 11.2614 7.57519 11.0729 7.72556 10.9443C7.88596 10.8071 8.11153 10.7386 8.40226 10.7386H8.59774C8.88847 10.7386 9.10902 10.8071 9.2594 10.9443C9.4198 11.0729 9.5 11.2614 9.5 11.51V11.7286C9.5 11.9771 9.4198 12.17 9.2594 12.3071C9.10902 12.4357 8.88847 12.5 8.59774 12.5H8.40226Z" fill="#BBBBBB"/>
</svg>
