<svg width="32" height="32" viewBox="0 0 32 32" fill="none" xmlns="http://www.w3.org/2000/svg">
<g id="Frame 29200">
<path id="Q" d="M26.4064 25.8334L26.442 25.7949L26.4019 25.7612L23.4399 23.2731C25.1977 21.287 26.1796 18.6499 26.1796 15.8649V15.8049C26.1796 10.0484 21.9889 4.95 15.5948 4.95C9.2008 4.95 4.95 10.1084 4.95 15.8649V15.925C4.95 21.6815 9.14075 26.7799 15.5348 26.7799C18.201 26.7799 20.5112 25.8866 22.2868 24.3951L25.2258 27.0372L25.2624 27.0701L25.2959 27.034L26.4064 25.8334ZM22.2236 22.2164L18.2397 18.5892L18.2025 18.5554L18.1689 18.5927L17.0584 19.8233L17.0239 19.8614L17.0631 19.8948L21.0998 23.3379C19.6151 24.5673 17.7226 25.2692 15.5948 25.2692C10.4334 25.2692 6.67074 21.0332 6.67074 15.8649V15.8049C6.67074 10.6367 10.3734 6.46064 15.5348 6.46064C20.6962 6.46064 24.4589 10.6967 24.4589 15.8649V15.925C24.4589 18.3557 23.6354 20.5789 22.2236 22.2164Z" fill="#2A3136" stroke="#2A3136" stroke-width="0.1"/>
</g>
</svg>
