<svg width="25" height="24" viewBox="0 0 25 24" fill="none" xmlns="http://www.w3.org/2000/svg">
<path d="M5.86471 22.4175L5.48359 21.917L6.58089 21.0836L2.90368 16.4347L1.76241 17.3331L1.375 16.8388L2.76338 15.7478C2.89949 15.641 3.09633 15.6641 3.20313 15.8002L7.27193 20.9453C7.32429 21.0124 7.34732 21.0961 7.33685 21.1799C7.32638 21.2636 7.2824 21.339 7.21539 21.3914L5.86262 22.4196L5.86471 22.4175Z" fill="#2A3136"/>
<path d="M7.07899 20.8866L6.73766 20.3589C7.41823 19.9192 8.12813 19.6825 8.85058 19.6553C9.6589 19.6239 10.3604 19.6176 10.9824 19.6113C12.2912 19.5988 13.2356 19.5883 13.9141 19.3621C15.7631 18.7465 22.7658 15.3352 23.9175 14.4138C23.9845 14.3615 23.995 14.328 23.995 14.328C23.9615 14.1981 23.3437 13.8924 22.5438 14.0369C20.0497 14.4892 17.7483 15.4043 17.7253 15.4127L17.4929 14.8285C17.5892 14.7908 19.8759 13.8819 22.4328 13.417C23.3689 13.2474 24.3258 13.5385 24.5667 14.0683C24.6986 14.3573 24.6023 14.6693 24.3133 14.8996C23.0945 15.8755 16.05 19.3077 14.1172 19.9527C13.3445 20.2102 12.3582 20.2207 10.9928 20.2333C10.3772 20.2396 9.67775 20.2458 8.8799 20.2772C8.27262 20.3003 7.66743 20.5034 7.08527 20.8803L7.07899 20.8866Z" fill="#2A3136"/>
<path d="M3.65118 16.4074L3.26378 15.9132C3.9632 15.3645 4.48882 14.9059 4.77989 14.5897C5.81646 13.4673 7.07291 12.8495 8.3147 12.8495H15.2419C15.9686 12.8495 16.5947 13.3437 16.7308 14.0243C16.8188 14.4661 16.7078 14.9185 16.4272 15.2619C16.1466 15.6053 15.7298 15.8022 15.2859 15.8022L11.5878 16.0346L11.548 15.4085L15.265 15.176C15.5393 15.176 15.778 15.063 15.9413 14.864C16.1068 14.663 16.1675 14.4096 16.1152 14.1478C16.0377 13.7604 15.6712 13.4798 15.2419 13.4798H8.3147C7.25091 13.4798 6.15989 14.0264 5.24269 15.019C4.92438 15.3645 4.3883 15.8315 3.65118 16.4095V16.4074Z" fill="#2A3136"/>
<path d="M21.9433 13.6871H21.3151V10.3889C21.3151 9.20572 20.3518 8.24244 19.1686 8.24244H10.8991C9.71594 8.24244 8.75266 9.20572 8.75266 10.3889V13.0588H8.12444V10.3889C8.12444 8.8581 9.37042 7.61422 10.8991 7.61422H19.1686C20.6994 7.61422 21.9433 8.8602 21.9433 10.3889V13.6871Z" fill="#2A3136"/>
<path d="M19.9538 8.24242H10.1116C9.93782 8.24242 9.79752 8.10211 9.79752 7.92831V6.04363C9.79752 5.86982 9.93782 5.72952 10.1116 5.72952H19.9538C20.1276 5.72952 20.2679 5.86982 20.2679 6.04363V7.92831C20.2679 8.10211 20.1276 8.24242 19.9538 8.24242ZM10.4257 7.61419H19.6397V6.35774H10.4257V7.61419Z" fill="#2A3136"/>
<path d="M11.7345 5.0784L11.1272 4.91926C11.1377 4.88156 11.3931 3.96435 12.7878 3.44712C12.9763 3.37801 13.1878 3.31938 13.4118 3.25865C14.2976 3.01573 15.508 2.68278 16.6262 1.24624C16.7121 1.13525 16.8608 1.09546 16.9906 1.14781C18.1821 1.62526 19.7129 3.2419 19.4889 5.03862L18.8648 4.96114C19.0344 3.59998 17.9099 2.31422 16.9634 1.82839C15.7593 3.26702 14.4526 3.62511 13.5752 3.86593C13.3553 3.92666 13.1647 3.97901 13.0014 4.03974C11.9271 4.43552 11.7324 5.07422 11.7303 5.0805L11.7345 5.0784Z" fill="#2A3136"/>
<path d="M5.86471 22.4175L5.48359 21.917L6.58089 21.0836L2.90368 16.4347L1.76241 17.3331L1.375 16.8388L2.76338 15.7478C2.89949 15.641 3.09633 15.6641 3.20313 15.8002L7.27193 20.9453C7.32429 21.0124 7.34732 21.0961 7.33685 21.1799C7.32638 21.2636 7.2824 21.339 7.21539 21.3914L5.86262 22.4196L5.86471 22.4175Z" stroke="#2A3136" stroke-width="0.6"/>
<path d="M7.07899 20.8866L6.73766 20.3589C7.41823 19.9192 8.12813 19.6825 8.85058 19.6553C9.6589 19.6239 10.3604 19.6176 10.9824 19.6113C12.2912 19.5988 13.2356 19.5883 13.9141 19.3621C15.7631 18.7465 22.7658 15.3352 23.9175 14.4138C23.9845 14.3615 23.995 14.328 23.995 14.328C23.9615 14.1981 23.3437 13.8924 22.5438 14.0369C20.0497 14.4892 17.7483 15.4043 17.7253 15.4127L17.4929 14.8285C17.5892 14.7908 19.8759 13.8819 22.4328 13.417C23.3689 13.2474 24.3258 13.5385 24.5667 14.0683C24.6986 14.3573 24.6023 14.6693 24.3133 14.8996C23.0945 15.8755 16.05 19.3077 14.1172 19.9527C13.3445 20.2102 12.3582 20.2207 10.9928 20.2333C10.3772 20.2396 9.67775 20.2458 8.8799 20.2772C8.27262 20.3003 7.66743 20.5034 7.08527 20.8803L7.07899 20.8866Z" stroke="#2A3136" stroke-width="0.6"/>
<path d="M3.65118 16.4074L3.26378 15.9132C3.9632 15.3645 4.48882 14.9059 4.77989 14.5897C5.81646 13.4673 7.07291 12.8495 8.3147 12.8495H15.2419C15.9686 12.8495 16.5947 13.3437 16.7308 14.0243C16.8188 14.4661 16.7078 14.9185 16.4272 15.2619C16.1466 15.6053 15.7298 15.8022 15.2859 15.8022L11.5878 16.0346L11.548 15.4085L15.265 15.176C15.5393 15.176 15.778 15.063 15.9413 14.864C16.1068 14.663 16.1675 14.4096 16.1152 14.1478C16.0377 13.7604 15.6712 13.4798 15.2419 13.4798H8.3147C7.25091 13.4798 6.15989 14.0264 5.24269 15.019C4.92438 15.3645 4.3883 15.8315 3.65118 16.4095V16.4074Z" stroke="#2A3136" stroke-width="0.6"/>
<path d="M21.9433 13.6871H21.3151V10.3889C21.3151 9.20572 20.3518 8.24244 19.1686 8.24244H10.8991C9.71594 8.24244 8.75266 9.20572 8.75266 10.3889V13.0588H8.12444V10.3889C8.12444 8.8581 9.37042 7.61422 10.8991 7.61422H19.1686C20.6994 7.61422 21.9433 8.8602 21.9433 10.3889V13.6871Z" stroke="#2A3136" stroke-width="0.6"/>
<path d="M19.9538 8.24242H10.1116C9.93782 8.24242 9.79752 8.10211 9.79752 7.92831V6.04363C9.79752 5.86982 9.93782 5.72952 10.1116 5.72952H19.9538C20.1276 5.72952 20.2679 5.86982 20.2679 6.04363V7.92831C20.2679 8.10211 20.1276 8.24242 19.9538 8.24242ZM10.4257 7.61419H19.6397V6.35774H10.4257V7.61419Z" stroke="#2A3136" stroke-width="0.6"/>
<path d="M11.7345 5.0784L11.1272 4.91926C11.1377 4.88156 11.3931 3.96435 12.7878 3.44712C12.9763 3.37801 13.1878 3.31938 13.4118 3.25865C14.2976 3.01573 15.508 2.68278 16.6262 1.24624C16.7121 1.13525 16.8608 1.09546 16.9906 1.14781C18.1821 1.62526 19.7129 3.2419 19.4889 5.03862L18.8648 4.96114C19.0344 3.59998 17.9099 2.31422 16.9634 1.82839C15.7593 3.26702 14.4526 3.62511 13.5752 3.86593C13.3553 3.92666 13.1647 3.97901 13.0014 4.03974C11.9271 4.43552 11.7324 5.07422 11.7303 5.0805L11.7345 5.0784Z" stroke="#2A3136" stroke-width="0.6"/>
</svg>
