<svg width="14" height="13" viewBox="0 0 14 13" fill="none" xmlns="http://www.w3.org/2000/svg">
<g id="Group">
<path id="Vector" d="M10.505 12.0241C10.7676 12.0241 11.0194 11.9198 11.2051 11.7341C11.3908 11.5485 11.4951 11.2966 11.4951 11.034C11.4951 10.7715 11.3908 10.5196 11.2051 10.3339C11.0194 10.1483 10.7676 10.0439 10.505 10.0439C10.2424 10.0439 9.99057 10.1483 9.80489 10.3339C9.61921 10.5196 9.5149 10.7715 9.5149 11.034C9.5149 11.2966 9.61921 11.5485 9.80489 11.7341C9.99057 11.9198 10.2424 12.0241 10.505 12.0241ZM5.22447 12.0241C5.48706 12.0241 5.7389 11.9198 5.92458 11.7341C6.11026 11.5485 6.21457 11.2966 6.21457 11.034C6.21457 10.7715 6.11026 10.5196 5.92458 10.3339C5.7389 10.1483 5.48706 10.0439 5.22447 10.0439C4.96188 10.0439 4.71005 10.1483 4.52437 10.3339C4.33869 10.5196 4.23438 10.7715 4.23438 11.034C4.23438 11.2966 4.33869 11.5485 4.52437 11.7341C4.71005 11.9198 4.96188 12.0241 5.22447 12.0241Z" stroke="#777777" stroke-linecap="round" stroke-linejoin="round"/>
<path id="Vector_2" d="M1 1H2.18574L3.76276 7.84343C3.82062 8.09406 3.97067 8.31811 4.18709 8.47701C4.40351 8.6359 4.67276 8.71971 4.9485 8.71401H10.7467C11.0166 8.71361 11.2782 8.62767 11.4884 8.47038C11.6986 8.3131 11.8448 8.09388 11.9028 7.84894L13 3.53463H7.65352H2.76983" stroke="#777777" stroke-linecap="round" stroke-linejoin="round"/>
</g>
</svg>
