<svg width="24" height="24" viewBox="0 0 24 24" fill="none" xmlns="http://www.w3.org/2000/svg">
<path d="M11.8455 9.25459L14.7273 12.1273V11.9819C14.7273 11.2585 14.4399 10.5649 13.9285 10.0534C13.417 9.54193 12.7233 9.25459 12 9.25459H11.8455ZM7.93636 9.98187L9.34545 11.391C9.3 11.5819 9.27273 11.7728 9.27273 11.9819C9.27273 12.7052 9.56006 13.3989 10.0715 13.9103C10.583 14.4218 11.2767 14.7091 12 14.7091C12.2 14.7091 12.4 14.6819 12.5909 14.6364L14 16.0455C13.3909 16.3455 12.7182 16.5273 12 16.5273C10.7945 16.5273 9.63832 16.0484 8.78588 15.196C7.93344 14.3435 7.45455 13.1874 7.45455 11.9819C7.45455 11.2637 7.63636 10.591 7.93636 9.98187ZM2.90909 4.95459L4.98182 7.02732L5.39091 7.43641C3.89091 8.61823 2.70909 10.1637 2 11.9819C3.57273 15.9728 7.45455 18.8 12 18.8C13.4091 18.8 14.7545 18.5273 15.9818 18.0364L16.3727 18.4182L19.0273 21.0728L20.1818 19.9182L4.06364 3.80005M12 7.43641C13.2055 7.43641 14.3617 7.91531 15.2141 8.76774C16.0666 9.62018 16.5455 10.7763 16.5455 11.9819C16.5455 12.5637 16.4273 13.1273 16.2182 13.6364L18.8818 16.3C20.2455 15.1637 21.3364 13.6728 22 11.9819C20.4273 7.99096 16.5455 5.16369 12 5.16369C10.7273 5.16369 9.50909 5.39096 8.36364 5.80005L10.3364 7.75459C10.8545 7.55459 11.4091 7.43641 12 7.43641Z" fill="#888888"/>
</svg>
