<svg width="24" height="21" viewBox="0 0 24 21" fill="none" xmlns="http://www.w3.org/2000/svg">
<g id="Group 29058">
<g id="Group 202">
<path id="Subtract" fill-rule="evenodd" clip-rule="evenodd" d="M16.2425 9.39373L15.2035 13.55H6.39823L4.52233 5.95005H10.8H14.0226C13.9761 5.48637 14.001 5.01374 14.1012 4.55005H10.8H4.17676L3.75277 2.8323L3.6214 2.30005H3.07317H0V3.70005H2.52494L5.1704 14.4178L5.30177 14.95H5.85H15.75H16.2965L16.4291 14.4198L17.5587 9.90153C17.1062 9.80508 16.662 9.63697 16.2425 9.39373Z" fill="white"/>
<path id="Rectangle 376" d="M5.65032 18.0748C5.65032 17.343 6.24354 16.7498 6.97532 16.7498C7.7071 16.7498 8.30032 17.343 8.30032 18.0748C8.30032 18.8066 7.7071 19.3998 6.97532 19.3998C6.24354 19.3998 5.65032 18.8066 5.65032 18.0748Z" stroke="white" stroke-width="1.4"/>
<rect id="Rectangle 377" x="13.3002" y="16.7498" width="2.65" height="2.65" rx="1.325" stroke="white" stroke-width="1.4"/>
</g>
<g id="Group 29057">
<path id="Subtract_2" fill-rule="evenodd" clip-rule="evenodd" d="M23.1158 8.48289C21.4691 11.0343 18.0645 11.7644 15.5131 10.1177C14.3109 9.33997 13.5133 8.17735 13.18 6.8957C12.803 5.45533 13.0094 3.86418 13.8823 2.51507C15.529 -0.036325 18.9335 -0.76643 21.4849 0.880274C24.0363 2.52698 24.7664 5.93149 23.1197 8.48289H23.1158ZM19.3002 8.5V6.29986H21.5V4.69986H19.3002V2.5H17.7002V4.69986H15.5V6.29986H17.7002V8.5H19.3002Z" fill="white"/>
</g>
</g>
</svg>
