<svg width="24" height="24" viewBox="0 0 24 24" fill="none" xmlns="http://www.w3.org/2000/svg">
<path d="M11.8147 20.0267C11.6158 20.0267 11.4721 20.0152 11.4094 20.009C9.59675 19.994 8.12713 18.5146 8.12713 16.6985C8.12713 15.3557 8.93067 14.1972 10.0821 13.6783C10.1086 13.662 10.1373 13.6483 10.1674 13.6368L18.8835 10.366C18.8865 10.3647 18.8901 10.3638 18.8932 10.3625C19.6424 10.0986 20.4534 10.103 21.1769 10.3748C22.0123 10.6926 22.6099 11.2434 22.9555 12.0124C23.3281 12.8323 23.348 13.7504 23.0103 14.5959C22.6722 15.4432 21.9942 16.1257 21.1495 16.4691L13.8302 19.6165C13.0602 19.9626 12.2827 20.0267 11.8147 20.0267ZM11.4377 14.4045C10.1727 14.4045 9.14371 15.4335 9.14371 16.6985C9.14371 17.9635 10.1727 18.9924 11.4377 18.9924C11.4584 18.9924 11.4792 18.9938 11.5 18.9964C11.5084 18.9973 12.4892 19.1065 13.4165 18.6883C13.4191 18.687 13.4218 18.6861 13.4244 18.6848L20.7526 15.5334C20.7562 15.5321 20.7593 15.5307 20.7628 15.529C21.3542 15.2894 21.8293 14.812 22.0658 14.2189C22.2996 13.6332 22.2863 12.9981 22.0287 12.4315C21.7931 11.9081 21.3971 11.547 20.8167 11.326C20.3199 11.1395 19.7582 11.1368 19.2348 11.3198L12.8693 13.7084C13.2931 13.9068 13.6724 14.1919 13.972 14.5468C14.5135 15.1886 14.7358 15.9829 14.5988 16.7838C14.3919 17.9953 13.2564 18.5761 12.3225 18.4192C11.4598 18.2742 10.6964 17.4799 10.9355 16.0319C10.9811 15.7548 11.2427 15.5679 11.5199 15.6134C11.797 15.6593 11.9844 15.9206 11.9384 16.1977C11.8235 16.8943 12.0246 17.3385 12.4905 17.4167C12.8856 17.483 13.4894 17.2404 13.5968 16.6127C13.6825 16.112 13.5398 15.6112 13.195 15.2023C12.7734 14.7024 12.117 14.4045 11.4377 14.4045Z" fill="#2A3136"/>
<path d="M8.12819 13.2554C7.92929 13.2554 7.78609 13.2439 7.72288 13.2377C5.91027 13.2227 4.44065 11.7433 4.44065 9.92717C4.44065 8.58439 5.24375 7.42592 6.39514 6.90702C6.42696 6.88757 6.46144 6.87166 6.49812 6.85928L6.54939 6.84204C6.65017 6.8027 6.75359 6.76823 6.85879 6.73862L15.2107 3.94343C15.9585 3.68089 16.7683 3.68575 17.4905 3.95714C18.3258 4.27493 18.9234 4.82566 19.269 5.59473C19.6416 6.41463 19.6615 7.33266 19.3239 8.1782C18.9848 9.02727 18.3051 9.71059 17.4578 10.0536C17.4547 10.0549 17.4516 10.0562 17.4485 10.0571L10.1339 12.8496C9.36709 13.1918 8.59449 13.2554 8.12819 13.2554ZM6.89857 7.79764C6.0548 8.13665 5.45723 8.96362 5.45723 9.92717C5.45723 11.1922 6.48619 12.2211 7.75117 12.2211C7.77194 12.2211 7.79272 12.2225 7.81349 12.2251C7.82189 12.226 8.80267 12.3352 9.72997 11.917C9.73925 11.9131 9.74809 11.9091 9.75737 11.9055L17.0807 9.10948C17.6699 8.86948 18.1433 8.39301 18.3793 7.80117C18.6131 7.21553 18.5999 6.58038 18.3422 6.01374C18.1066 5.49042 17.7106 5.12931 17.1302 4.90831C16.6321 4.72135 16.0681 4.71914 15.5439 4.90389C15.5413 4.90477 15.5391 4.90566 15.5364 4.90654L9.29858 6.99453C9.6756 7.18901 10.0137 7.45376 10.286 7.77598C10.8274 8.41776 11.0498 9.21202 10.9127 10.0129C10.7059 11.2244 9.57041 11.8052 8.63604 11.6483C7.77327 11.5033 7.00995 10.7091 7.24907 9.26109C7.29503 8.9844 7.55625 8.79655 7.83338 8.84252C8.11051 8.88848 8.29791 9.1497 8.25195 9.42683C8.13703 10.1234 8.33814 10.5676 8.804 10.6459C9.19914 10.7122 9.8029 10.4695 9.9103 9.84187C9.99605 9.34109 9.85329 8.84031 9.50853 8.43146C9.08687 7.93156 8.43007 7.63321 7.75073 7.63321C7.54388 7.63321 7.34365 7.66062 7.15271 7.71233L6.89857 7.79764Z" fill="#2A3136"/>
<path d="M4.43754 19.5848C4.23864 19.5848 4.095 19.5733 4.03223 19.5671C2.21962 19.5521 0.75 18.0727 0.75 16.2566C0.75 14.4404 2.23509 12.946 4.06052 12.946C5.03556 12.946 5.98319 13.3792 6.59535 14.1054C7.13679 14.7472 7.35911 15.5414 7.22209 16.3423C7.01524 17.5538 5.87932 18.1346 4.94539 17.9777C4.08262 17.8327 3.3193 17.0385 3.55842 15.5905C3.60439 15.3134 3.8656 15.1264 4.14273 15.1719C4.41986 15.2179 4.60727 15.4791 4.5613 15.7562C4.44638 16.4528 4.64749 16.897 5.11335 16.9753C5.50805 17.0416 6.11225 16.7989 6.21965 16.1713C6.3054 15.6705 6.16264 15.1697 5.81788 14.7609C5.39622 14.261 4.73942 13.9626 4.06008 13.9626C2.7951 13.9626 1.76614 14.9916 1.76614 16.2566C1.76614 17.5216 2.7951 18.5505 4.06008 18.5505C4.08085 18.5505 4.10163 18.5519 4.1224 18.5545C4.1308 18.5554 5.11158 18.6646 6.03888 18.2464C6.29479 18.1311 6.59579 18.2451 6.71115 18.501C6.82651 18.757 6.71248 19.0579 6.45656 19.1733C5.68529 19.5212 4.90649 19.5848 4.43754 19.5848Z" fill="#2A3136"/>
<path d="M11.8147 20.0267C11.6158 20.0267 11.4721 20.0152 11.4094 20.009C9.59675 19.994 8.12713 18.5146 8.12713 16.6985C8.12713 15.3557 8.93067 14.1972 10.0821 13.6783C10.1086 13.662 10.1373 13.6483 10.1674 13.6368L18.8835 10.366C18.8865 10.3647 18.8901 10.3638 18.8932 10.3625C19.6424 10.0986 20.4534 10.103 21.1769 10.3748C22.0123 10.6926 22.6099 11.2434 22.9555 12.0124C23.3281 12.8323 23.348 13.7504 23.0103 14.5959C22.6722 15.4432 21.9942 16.1257 21.1495 16.4691L13.8302 19.6165C13.0602 19.9626 12.2827 20.0267 11.8147 20.0267ZM11.4377 14.4045C10.1727 14.4045 9.14371 15.4335 9.14371 16.6985C9.14371 17.9635 10.1727 18.9924 11.4377 18.9924C11.4584 18.9924 11.4792 18.9938 11.5 18.9964C11.5084 18.9973 12.4892 19.1065 13.4165 18.6883C13.4191 18.687 13.4218 18.6861 13.4244 18.6848L20.7526 15.5334C20.7562 15.5321 20.7593 15.5307 20.7628 15.529C21.3542 15.2894 21.8293 14.812 22.0658 14.2189C22.2996 13.6332 22.2863 12.9981 22.0287 12.4315C21.7931 11.9081 21.3971 11.547 20.8167 11.326C20.3199 11.1395 19.7582 11.1368 19.2348 11.3198L12.8693 13.7084C13.2931 13.9068 13.6724 14.1919 13.972 14.5468C14.5135 15.1886 14.7358 15.9829 14.5988 16.7838C14.3919 17.9953 13.2564 18.5761 12.3225 18.4192C11.4598 18.2742 10.6964 17.4799 10.9355 16.0319C10.9811 15.7548 11.2427 15.5679 11.5199 15.6134C11.797 15.6593 11.9844 15.9206 11.9384 16.1977C11.8235 16.8943 12.0246 17.3385 12.4905 17.4167C12.8856 17.483 13.4894 17.2404 13.5968 16.6127C13.6825 16.112 13.5398 15.6112 13.195 15.2023C12.7734 14.7024 12.117 14.4045 11.4377 14.4045Z" stroke="#2A3136" stroke-width="0.2"/>
<path d="M8.12819 13.2554C7.92929 13.2554 7.78609 13.2439 7.72288 13.2377C5.91027 13.2227 4.44065 11.7433 4.44065 9.92717C4.44065 8.58439 5.24375 7.42592 6.39514 6.90702C6.42696 6.88757 6.46144 6.87166 6.49812 6.85928L6.54939 6.84204C6.65017 6.8027 6.75359 6.76823 6.85879 6.73862L15.2107 3.94343C15.9585 3.68089 16.7683 3.68575 17.4905 3.95714C18.3258 4.27493 18.9234 4.82566 19.269 5.59473C19.6416 6.41463 19.6615 7.33266 19.3239 8.1782C18.9848 9.02727 18.3051 9.71059 17.4578 10.0536C17.4547 10.0549 17.4516 10.0562 17.4485 10.0571L10.1339 12.8496C9.36709 13.1918 8.59449 13.2554 8.12819 13.2554ZM6.89857 7.79764C6.0548 8.13665 5.45723 8.96362 5.45723 9.92717C5.45723 11.1922 6.48619 12.2211 7.75117 12.2211C7.77194 12.2211 7.79272 12.2225 7.81349 12.2251C7.82189 12.226 8.80267 12.3352 9.72997 11.917C9.73925 11.9131 9.74809 11.9091 9.75737 11.9055L17.0807 9.10948C17.6699 8.86948 18.1433 8.39301 18.3793 7.80117C18.6131 7.21553 18.5999 6.58038 18.3422 6.01374C18.1066 5.49042 17.7106 5.12931 17.1302 4.90831C16.6321 4.72135 16.0681 4.71914 15.5439 4.90389C15.5413 4.90477 15.5391 4.90566 15.5364 4.90654L9.29858 6.99453C9.6756 7.18901 10.0137 7.45376 10.286 7.77598C10.8274 8.41776 11.0498 9.21202 10.9127 10.0129C10.7059 11.2244 9.57041 11.8052 8.63604 11.6483C7.77327 11.5033 7.00995 10.7091 7.24907 9.26109C7.29503 8.9844 7.55625 8.79655 7.83338 8.84252C8.11051 8.88848 8.29791 9.1497 8.25195 9.42683C8.13703 10.1234 8.33814 10.5676 8.804 10.6459C9.19914 10.7122 9.8029 10.4695 9.9103 9.84187C9.99605 9.34109 9.85329 8.84031 9.50853 8.43146C9.08687 7.93156 8.43007 7.63321 7.75073 7.63321C7.54388 7.63321 7.34365 7.66062 7.15271 7.71233L6.89857 7.79764Z" stroke="#2A3136" stroke-width="0.2"/>
<path d="M4.43754 19.5848C4.23864 19.5848 4.095 19.5733 4.03223 19.5671C2.21962 19.5521 0.75 18.0727 0.75 16.2566C0.75 14.4404 2.23509 12.946 4.06052 12.946C5.03556 12.946 5.98319 13.3792 6.59535 14.1054C7.13679 14.7472 7.35911 15.5414 7.22209 16.3423C7.01524 17.5538 5.87932 18.1346 4.94539 17.9777C4.08262 17.8327 3.3193 17.0385 3.55842 15.5905C3.60439 15.3134 3.8656 15.1264 4.14273 15.1719C4.41986 15.2179 4.60727 15.4791 4.5613 15.7562C4.44638 16.4528 4.64749 16.897 5.11335 16.9753C5.50805 17.0416 6.11225 16.7989 6.21965 16.1713C6.3054 15.6705 6.16264 15.1697 5.81788 14.7609C5.39622 14.261 4.73942 13.9626 4.06008 13.9626C2.7951 13.9626 1.76614 14.9916 1.76614 16.2566C1.76614 17.5216 2.7951 18.5505 4.06008 18.5505C4.08085 18.5505 4.10163 18.5519 4.1224 18.5545C4.1308 18.5554 5.11158 18.6646 6.03888 18.2464C6.29479 18.1311 6.59579 18.2451 6.71115 18.501C6.82651 18.757 6.71248 19.0579 6.45656 19.1733C5.68529 19.5212 4.90649 19.5848 4.43754 19.5848Z" stroke="#2A3136" stroke-width="0.2"/>
</svg>
