<svg width="24" height="24" viewBox="0 0 24 24" fill="none" xmlns="http://www.w3.org/2000/svg">
<path d="M13.4455 15.8306C12.975 15.8306 12.5045 15.652 12.1471 15.2946L8.70672 11.8542C7.99005 11.1376 7.99005 9.97421 8.70672 9.25754L15.0952 2.86907C15.8119 2.15241 16.9752 2.15241 17.6919 2.86907L21.1323 6.30948C21.8489 7.02614 21.8489 8.18949 21.1323 8.90616L14.7438 15.2946C14.3865 15.652 13.916 15.8306 13.4455 15.8306ZM16.3935 2.92863C16.0759 2.92863 15.7583 3.04973 15.5161 3.29193L9.12759 9.6804C8.64319 10.1648 8.64319 10.9509 9.12759 11.4353L12.568 14.8757C13.0524 15.3601 13.8385 15.3582 14.3209 14.8757L20.7094 8.48727C21.1938 8.00288 21.1938 7.21673 20.7094 6.73233L17.269 3.29193C17.0268 3.04973 16.7092 2.92863 16.3915 2.92863H16.3935Z" fill="#2A3136"/>
<path d="M10.9899 11.4671L10.569 11.0462L11.1308 10.4844L11.5517 10.9053L10.9899 11.4671ZM12.1135 10.3454L11.6927 9.92457L12.2545 9.36275L12.6753 9.78362L12.1135 10.3454ZM13.2352 9.2218L12.8143 8.80093L13.3761 8.23911L13.797 8.65998L13.2352 9.2218ZM14.3588 8.09816L13.9379 7.67729L14.4998 7.11547L14.9206 7.53634L14.3588 8.09816ZM15.4825 6.9765L15.0616 6.55563L15.6234 5.99381L16.0443 6.41468L15.4825 6.9765ZM16.6041 5.85286L16.1832 5.43199L16.7451 4.87017L17.1659 5.29104L16.6041 5.85286Z" fill="#2A3136"/>
<path d="M12.9552 13.4324L12.5343 13.0116L13.0962 12.4497L13.517 12.8706L12.9552 13.4324ZM14.0789 12.3108L13.658 11.8899L14.2198 11.3281L14.6407 11.7489L14.0789 12.3108ZM15.2005 11.1871L14.7796 10.7663L15.3415 10.2044L15.7623 10.6253L15.2005 11.1871ZM16.3241 10.0635L15.9033 9.64262L16.4651 9.0808L16.886 9.50167L16.3241 10.0635ZM17.4478 8.94183L17.0269 8.52097L17.5887 7.95915L18.0096 8.38001L17.4478 8.94183ZM18.5694 7.81819L18.1486 7.39733L18.7104 6.83551L19.1313 7.25637L18.5694 7.81819Z" fill="#2A3136"/>
<path d="M21.2368 8.66074L20.8157 9.08187L22.0791 10.3453L22.5002 9.92413L21.2368 8.66074Z" fill="#2A3136"/>
<path d="M19.6919 10.2039L19.2708 10.625L20.5342 11.8884L20.9553 11.4672L19.6919 10.2039Z" fill="#2A3136"/>
<path d="M18.1474 11.7468L17.7262 12.1679L18.9896 13.4313L19.4108 13.0102L18.1474 11.7468Z" fill="#2A3136"/>
<path d="M16.6062 13.2925L16.1851 13.7136L17.4485 14.977L17.8696 14.5559L16.6062 13.2925Z" fill="#2A3136"/>
<path d="M15.0621 14.8375L14.641 15.2586L15.9043 16.522L16.3255 16.1009L15.0621 14.8375Z" fill="#2A3136"/>
<path d="M14.0762 1.5L13.6551 1.92113L14.9184 3.18452L15.3396 2.76339L14.0762 1.5Z" fill="#2A3136"/>
<path d="M12.5339 3.04502L12.1128 3.46615L13.3762 4.72954L13.7973 4.30841L12.5339 3.04502Z" fill="#2A3136"/>
<path d="M10.9894 4.59013L10.5683 5.01126L11.8316 6.27465L12.2528 5.85352L10.9894 4.59013Z" fill="#2A3136"/>
<path d="M9.44522 6.13515L9.02409 6.55628L10.2875 7.81967L10.7086 7.39854L9.44522 6.13515Z" fill="#2A3136"/>
<path d="M7.90068 7.67674L7.47955 8.09788L8.74294 9.36127L9.16407 8.94014L7.90068 7.67674Z" fill="#2A3136"/>
<path d="M3.70206 22.501C3.11444 22.501 2.56254 22.2727 2.14564 21.8558C1.71683 21.427 1.48853 20.8573 1.50044 20.2538C1.51235 19.6503 1.76448 19.0884 2.21116 18.6775L8.1192 13.1784L8.52419 13.6152L2.61416 19.1142C2.28858 19.414 2.10395 19.823 2.09601 20.2657C2.08807 20.7084 2.25483 21.1233 2.56651 21.435C2.87819 21.7467 3.30105 21.9134 3.73581 21.9055C4.17852 21.8955 4.58549 21.7129 4.88526 21.3873L5.324 21.7903C4.91305 22.235 4.35322 22.4871 3.74772 22.501C3.73184 22.501 3.71596 22.501 3.70206 22.501Z" fill="#2A3136"/>
<path d="M6.22753 20.8117L5.78879 20.4087L10.4223 15.3801C10.5176 15.2768 10.6705 15.255 10.7916 15.3245C10.9901 15.4396 11.2561 15.4118 11.411 15.259C11.5043 15.1657 11.5559 15.0406 11.5559 14.9076C11.5559 14.7746 11.5043 14.6515 11.411 14.5562L9.44559 12.5908C9.25699 12.4022 8.93141 12.4022 8.74281 12.5908C8.64951 12.6841 8.59789 12.8092 8.59789 12.9422C8.59789 13.0752 8.64951 13.1983 8.74281 13.2936L10.0134 14.5641L9.59249 14.985L8.32194 13.7145C8.11548 13.508 8.00232 13.234 8.00232 12.9422C8.00232 12.6504 8.11548 12.3764 8.32194 12.17C8.52841 11.9635 8.80237 11.8503 9.0942 11.8503C9.38603 11.8503 9.65999 11.9635 9.86645 12.17L11.8318 14.1353C12.0383 14.3418 12.1515 14.6158 12.1515 14.9076C12.1515 15.1994 12.0383 15.4734 11.8318 15.6798C11.546 15.9657 11.1072 16.061 10.7181 15.9399L6.22753 20.8136V20.8117Z" fill="#2A3136"/>
<path d="M13.4455 15.8306C12.975 15.8306 12.5045 15.652 12.1471 15.2946L8.70672 11.8542C7.99005 11.1376 7.99005 9.97421 8.70672 9.25754L15.0952 2.86907C15.8119 2.15241 16.9752 2.15241 17.6919 2.86907L21.1323 6.30948C21.8489 7.02614 21.8489 8.18949 21.1323 8.90616L14.7438 15.2946C14.3865 15.652 13.916 15.8306 13.4455 15.8306ZM16.3935 2.92863C16.0759 2.92863 15.7583 3.04973 15.5161 3.29193L9.12759 9.6804C8.64319 10.1648 8.64319 10.9509 9.12759 11.4353L12.568 14.8757C13.0524 15.3601 13.8385 15.3582 14.3209 14.8757L20.7094 8.48727C21.1938 8.00288 21.1938 7.21673 20.7094 6.73233L17.269 3.29193C17.0268 3.04973 16.7092 2.92863 16.3915 2.92863H16.3935Z" stroke="#2A3136" stroke-width="0.5"/>
<path d="M10.9899 11.4671L10.569 11.0462L11.1308 10.4844L11.5517 10.9053L10.9899 11.4671ZM12.1135 10.3454L11.6927 9.92457L12.2545 9.36275L12.6753 9.78362L12.1135 10.3454ZM13.2352 9.2218L12.8143 8.80093L13.3761 8.23911L13.797 8.65998L13.2352 9.2218ZM14.3588 8.09816L13.9379 7.67729L14.4998 7.11547L14.9206 7.53634L14.3588 8.09816ZM15.4825 6.9765L15.0616 6.55563L15.6234 5.99381L16.0443 6.41468L15.4825 6.9765ZM16.6041 5.85286L16.1832 5.43199L16.7451 4.87017L17.1659 5.29104L16.6041 5.85286Z" stroke="#2A3136" stroke-width="0.5"/>
<path d="M12.9552 13.4324L12.5343 13.0116L13.0962 12.4497L13.517 12.8706L12.9552 13.4324ZM14.0789 12.3108L13.658 11.8899L14.2198 11.3281L14.6407 11.7489L14.0789 12.3108ZM15.2005 11.1871L14.7796 10.7663L15.3415 10.2044L15.7623 10.6253L15.2005 11.1871ZM16.3241 10.0635L15.9033 9.64262L16.4651 9.0808L16.886 9.50167L16.3241 10.0635ZM17.4478 8.94183L17.0269 8.52097L17.5887 7.95915L18.0096 8.38001L17.4478 8.94183ZM18.5694 7.81819L18.1486 7.39733L18.7104 6.83551L19.1313 7.25637L18.5694 7.81819Z" stroke="#2A3136" stroke-width="0.5"/>
<path d="M21.2368 8.66074L20.8157 9.08187L22.0791 10.3453L22.5002 9.92413L21.2368 8.66074Z" stroke="#2A3136" stroke-width="0.5"/>
<path d="M19.6919 10.2039L19.2708 10.625L20.5342 11.8884L20.9553 11.4672L19.6919 10.2039Z" stroke="#2A3136" stroke-width="0.5"/>
<path d="M18.1474 11.7468L17.7262 12.1679L18.9896 13.4313L19.4108 13.0102L18.1474 11.7468Z" stroke="#2A3136" stroke-width="0.5"/>
<path d="M16.6062 13.2925L16.1851 13.7136L17.4485 14.977L17.8696 14.5559L16.6062 13.2925Z" stroke="#2A3136" stroke-width="0.5"/>
<path d="M15.0621 14.8375L14.641 15.2586L15.9043 16.522L16.3255 16.1009L15.0621 14.8375Z" stroke="#2A3136" stroke-width="0.5"/>
<path d="M14.0762 1.5L13.6551 1.92113L14.9184 3.18452L15.3396 2.76339L14.0762 1.5Z" stroke="#2A3136" stroke-width="0.5"/>
<path d="M12.5339 3.04502L12.1128 3.46615L13.3762 4.72954L13.7973 4.30841L12.5339 3.04502Z" stroke="#2A3136" stroke-width="0.5"/>
<path d="M10.9894 4.59013L10.5683 5.01126L11.8316 6.27465L12.2528 5.85352L10.9894 4.59013Z" stroke="#2A3136" stroke-width="0.5"/>
<path d="M9.44522 6.13515L9.02409 6.55628L10.2875 7.81967L10.7086 7.39854L9.44522 6.13515Z" stroke="#2A3136" stroke-width="0.5"/>
<path d="M7.90068 7.67674L7.47955 8.09788L8.74294 9.36127L9.16407 8.94014L7.90068 7.67674Z" stroke="#2A3136" stroke-width="0.5"/>
<path d="M3.70206 22.501C3.11444 22.501 2.56254 22.2727 2.14564 21.8558C1.71683 21.427 1.48853 20.8573 1.50044 20.2538C1.51235 19.6503 1.76448 19.0884 2.21116 18.6775L8.1192 13.1784L8.52419 13.6152L2.61416 19.1142C2.28858 19.414 2.10395 19.823 2.09601 20.2657C2.08807 20.7084 2.25483 21.1233 2.56651 21.435C2.87819 21.7467 3.30105 21.9134 3.73581 21.9055C4.17852 21.8955 4.58549 21.7129 4.88526 21.3873L5.324 21.7903C4.91305 22.235 4.35322 22.4871 3.74772 22.501C3.73184 22.501 3.71596 22.501 3.70206 22.501Z" stroke="#2A3136" stroke-width="0.5"/>
<path d="M6.22753 20.8117L5.78879 20.4087L10.4223 15.3801C10.5176 15.2768 10.6705 15.255 10.7916 15.3245C10.9901 15.4396 11.2561 15.4118 11.411 15.259C11.5043 15.1657 11.5559 15.0406 11.5559 14.9076C11.5559 14.7746 11.5043 14.6515 11.411 14.5562L9.44559 12.5908C9.25699 12.4022 8.93141 12.4022 8.74281 12.5908C8.64951 12.6841 8.59789 12.8092 8.59789 12.9422C8.59789 13.0752 8.64951 13.1983 8.74281 13.2936L10.0134 14.5641L9.59249 14.985L8.32194 13.7145C8.11548 13.508 8.00232 13.234 8.00232 12.9422C8.00232 12.6504 8.11548 12.3764 8.32194 12.17C8.52841 11.9635 8.80237 11.8503 9.0942 11.8503C9.38603 11.8503 9.65999 11.9635 9.86645 12.17L11.8318 14.1353C12.0383 14.3418 12.1515 14.6158 12.1515 14.9076C12.1515 15.1994 12.0383 15.4734 11.8318 15.6798C11.546 15.9657 11.1072 16.061 10.7181 15.9399L6.22753 20.8136V20.8117Z" stroke="#2A3136" stroke-width="0.5"/>
</svg>
