<svg width="20" height="14" viewBox="0 0 20 14" fill="none" xmlns="http://www.w3.org/2000/svg">
<g id="Group 29060">
<path id="Vector" d="M10 11.5C9.10998 11.5 8.23995 11.2361 7.49993 10.7416C6.75991 10.2471 6.18314 9.54434 5.84254 8.72208C5.50195 7.89981 5.41283 6.99501 5.58647 6.12209C5.7601 5.24918 6.18868 4.44736 6.81802 3.81802C7.44736 3.18868 8.24918 2.7601 9.12209 2.58647C9.99501 2.41283 10.8998 2.50195 11.7221 2.84254C12.5443 3.18314 13.2471 3.75991 13.7416 4.49993C14.2361 5.23996 14.5 6.10998 14.5 7C14.5 8.19347 14.0259 9.33807 13.182 10.182C12.3381 11.0259 11.1935 11.5 10 11.5ZM10 0C3 0 0 7 0 7C0 7 3 14 10 14C17 14 20 7 20 7C20 7 17 0 10 0Z" fill="#888888"/>
<path id="Vector_2" d="M10 9.5C11.3807 9.5 12.5 8.38071 12.5 7C12.5 5.61929 11.3807 4.5 10 4.5C8.61929 4.5 7.5 5.61929 7.5 7C7.5 8.38071 8.61929 9.5 10 9.5Z" fill="#888888"/>
</g>
</svg>
