<svg width="24" height="24" viewBox="0 0 24 24" fill="none" xmlns="http://www.w3.org/2000/svg">
<path d="M11.9549 16.4669C11.4927 16.4669 11.0274 16.3326 10.7083 16.0669C10.5204 15.9087 10.4936 15.6251 10.6516 15.437C10.8097 15.2489 11.093 15.2221 11.2809 15.3803C11.603 15.6519 12.3456 15.6161 12.6051 15.3862C12.79 15.225 13.0733 15.24 13.2373 15.428C13.4013 15.6131 13.3834 15.8967 13.1956 16.0609C12.8854 16.3326 12.4202 16.4699 11.9549 16.4699V16.4669Z" fill="#2A3136"/>
<path d="M5.33179 22.5001L4.96795 21.6821C5.47196 21.4582 5.95808 21.2761 6.36666 21.1269C8.07255 20.5029 9.13128 19.8253 9.13128 18.3775H10.026C10.026 20.4552 8.41552 21.3299 6.67384 21.9657C6.28017 22.109 5.81195 22.2851 5.33179 22.5001Z" fill="#2A3136"/>
<path d="M18.4207 22.4344C17.9942 22.2493 17.5827 22.0971 17.2367 21.9687C15.5786 21.3627 13.8846 20.4552 13.8846 18.3268H14.7793C14.7793 19.8134 15.8857 20.5209 17.5439 21.1269C17.9018 21.2582 18.3283 21.4165 18.7756 21.6105L18.4207 22.4344Z" fill="#2A3136"/>
<path d="M11.8658 19.4521C9.23236 19.4521 5.88917 16.1683 5.88917 12.4816V10.1322C5.88917 9.94415 6.00549 9.77698 6.18144 9.71131C6.21723 9.69936 9.73638 8.37094 11.5019 5.81858C11.5824 5.70216 11.7166 5.63051 11.8598 5.62454C12.0029 5.62454 12.1371 5.68723 12.2266 5.80067C14.0041 8.11421 17.6306 9.70533 17.6664 9.72026C17.8364 9.79489 17.9437 9.96505 17.9348 10.1501L17.8394 12.4905C17.8334 16.1743 14.4962 19.4521 11.8628 19.4521H11.8658ZM6.78686 10.4367V12.4816C6.78686 15.6101 9.64989 18.5565 11.8687 18.5565C14.0876 18.5565 16.9506 15.6101 16.9506 12.4816C16.9506 12.4756 16.9506 12.4696 16.9506 12.4637L17.0341 10.4158C16.1752 10.0098 13.5746 8.69036 11.8956 6.79773C10.2225 8.87544 7.65769 10.0725 6.78984 10.4367H6.78686Z" fill="#2A3136"/>
<path d="M21.2333 21.3089C21.1378 20.1327 20.3505 19.0521 19.2709 18.6252C19.1307 18.5715 19.0293 18.4491 18.9995 18.3028C18.9697 18.1565 19.0115 18.0043 19.1158 17.8968C19.7302 17.2669 20.0165 16.3534 19.8584 15.5176C19.7928 15.1713 19.6616 14.831 19.5184 14.4698C19.3902 14.1444 19.259 13.81 19.1725 13.4518C18.913 12.3771 19.0592 11.5831 19.2023 10.8129C19.3306 10.1263 19.4618 9.41579 19.3395 8.41276C19.2023 7.26643 18.2331 4.92304 16.217 3.51402C14.6811 2.43934 12.8768 2.14082 10.8488 2.62144C10.825 2.62741 10.8011 2.63039 10.7743 2.63338C8.84768 2.76473 7.34757 3.37371 6.43498 4.39764C5.07205 5.92607 4.71716 7.84258 4.62769 8.59784C4.50839 9.59192 4.63962 10.2934 4.76487 10.9741C4.90504 11.7353 5.05118 12.5264 4.7947 13.5891C4.70821 13.9414 4.57997 14.2757 4.45173 14.5951C4.31156 14.9534 4.18034 15.2907 4.11473 15.631C3.96263 16.4579 4.24297 17.3565 4.84838 17.9804C4.95276 18.0879 4.9975 18.2401 4.96469 18.3864C4.93487 18.5326 4.83049 18.655 4.69032 18.7088C3.66141 19.1178 2.9039 20.1059 2.76373 21.2313L1.875 21.1208C2.03008 19.879 2.77268 18.7655 3.82246 18.1416C3.28564 17.3624 3.05898 16.3833 3.22898 15.4668C3.3095 15.0399 3.4616 14.6459 3.61071 14.2668C3.73001 13.9593 3.84334 13.6697 3.91491 13.3772C4.12666 12.4995 4.01035 11.8667 3.87614 11.1353C3.74492 10.4248 3.5958 9.61879 3.73001 8.49037C3.82842 7.65451 4.22806 5.52008 5.75799 3.8006C6.83759 2.60651 8.53454 1.89304 10.6818 1.7408C12.9514 1.20943 14.9853 1.5587 16.733 2.77667C19.0085 4.3648 20.0732 6.95299 20.2342 8.30529C20.3714 9.44564 20.2193 10.2576 20.0881 10.9771C19.9509 11.7174 19.8346 12.3562 20.0463 13.2428C20.1179 13.5414 20.2342 13.8339 20.3535 14.1444C20.5056 14.5295 20.6607 14.9265 20.7412 15.3564C20.9142 16.2818 20.6845 17.2699 20.1388 18.058C21.2482 18.7177 22.0206 19.9297 22.125 21.2373L21.2333 21.3089Z" fill="#2A3136"/>
<path d="M11.9549 16.4669C11.4927 16.4669 11.0274 16.3326 10.7083 16.0669C10.5204 15.9087 10.4936 15.6251 10.6516 15.437C10.8097 15.2489 11.093 15.2221 11.2809 15.3803C11.603 15.6519 12.3456 15.6161 12.6051 15.3862C12.79 15.225 13.0733 15.24 13.2373 15.428C13.4013 15.6131 13.3834 15.8967 13.1956 16.0609C12.8854 16.3326 12.4202 16.4699 11.9549 16.4699V16.4669Z" stroke="#2A3136" stroke-width="0.2"/>
<path d="M5.33179 22.5001L4.96795 21.6821C5.47196 21.4582 5.95808 21.2761 6.36666 21.1269C8.07255 20.5029 9.13128 19.8253 9.13128 18.3775H10.026C10.026 20.4552 8.41552 21.3299 6.67384 21.9657C6.28017 22.109 5.81195 22.2851 5.33179 22.5001Z" stroke="#2A3136" stroke-width="0.2"/>
<path d="M18.4207 22.4344C17.9942 22.2493 17.5827 22.0971 17.2367 21.9687C15.5786 21.3627 13.8846 20.4552 13.8846 18.3268H14.7793C14.7793 19.8134 15.8857 20.5209 17.5439 21.1269C17.9018 21.2582 18.3283 21.4165 18.7756 21.6105L18.4207 22.4344Z" stroke="#2A3136" stroke-width="0.2"/>
<path d="M11.8658 19.4521C9.23236 19.4521 5.88917 16.1683 5.88917 12.4816V10.1322C5.88917 9.94415 6.00549 9.77698 6.18144 9.71131C6.21723 9.69936 9.73638 8.37094 11.5019 5.81858C11.5824 5.70216 11.7166 5.63051 11.8598 5.62454C12.0029 5.62454 12.1371 5.68723 12.2266 5.80067C14.0041 8.11421 17.6306 9.70533 17.6664 9.72026C17.8364 9.79489 17.9437 9.96505 17.9348 10.1501L17.8394 12.4905C17.8334 16.1743 14.4962 19.4521 11.8628 19.4521H11.8658ZM6.78686 10.4367V12.4816C6.78686 15.6101 9.64989 18.5565 11.8687 18.5565C14.0876 18.5565 16.9506 15.6101 16.9506 12.4816C16.9506 12.4756 16.9506 12.4696 16.9506 12.4637L17.0341 10.4158C16.1752 10.0098 13.5746 8.69036 11.8956 6.79773C10.2225 8.87544 7.65769 10.0725 6.78984 10.4367H6.78686Z" stroke="#2A3136" stroke-width="0.2"/>
<path d="M21.2333 21.3089C21.1378 20.1327 20.3505 19.0521 19.2709 18.6252C19.1307 18.5715 19.0293 18.4491 18.9995 18.3028C18.9697 18.1565 19.0115 18.0043 19.1158 17.8968C19.7302 17.2669 20.0165 16.3534 19.8584 15.5176C19.7928 15.1713 19.6616 14.831 19.5184 14.4698C19.3902 14.1444 19.259 13.81 19.1725 13.4518C18.913 12.3771 19.0592 11.5831 19.2023 10.8129C19.3306 10.1263 19.4618 9.41579 19.3395 8.41276C19.2023 7.26643 18.2331 4.92304 16.217 3.51402C14.6811 2.43934 12.8768 2.14082 10.8488 2.62144C10.825 2.62741 10.8011 2.63039 10.7743 2.63338C8.84768 2.76473 7.34757 3.37371 6.43498 4.39764C5.07205 5.92607 4.71716 7.84258 4.62769 8.59784C4.50839 9.59192 4.63962 10.2934 4.76487 10.9741C4.90504 11.7353 5.05118 12.5264 4.7947 13.5891C4.70821 13.9414 4.57997 14.2757 4.45173 14.5951C4.31156 14.9534 4.18034 15.2907 4.11473 15.631C3.96263 16.4579 4.24297 17.3565 4.84838 17.9804C4.95276 18.0879 4.9975 18.2401 4.96469 18.3864C4.93487 18.5326 4.83049 18.655 4.69032 18.7088C3.66141 19.1178 2.9039 20.1059 2.76373 21.2313L1.875 21.1208C2.03008 19.879 2.77268 18.7655 3.82246 18.1416C3.28564 17.3624 3.05898 16.3833 3.22898 15.4668C3.3095 15.0399 3.4616 14.6459 3.61071 14.2668C3.73001 13.9593 3.84334 13.6697 3.91491 13.3772C4.12666 12.4995 4.01035 11.8667 3.87614 11.1353C3.74492 10.4248 3.5958 9.61879 3.73001 8.49037C3.82842 7.65451 4.22806 5.52008 5.75799 3.8006C6.83759 2.60651 8.53454 1.89304 10.6818 1.7408C12.9514 1.20943 14.9853 1.5587 16.733 2.77667C19.0085 4.3648 20.0732 6.95299 20.2342 8.30529C20.3714 9.44564 20.2193 10.2576 20.0881 10.9771C19.9509 11.7174 19.8346 12.3562 20.0463 13.2428C20.1179 13.5414 20.2342 13.8339 20.3535 14.1444C20.5056 14.5295 20.6607 14.9265 20.7412 15.3564C20.9142 16.2818 20.6845 17.2699 20.1388 18.058C21.2482 18.7177 22.0206 19.9297 22.125 21.2373L21.2333 21.3089Z" stroke="#2A3136" stroke-width="0.2"/>
</svg>
