<svg width="12" height="12" viewBox="0 0 12 12" fill="none" xmlns="http://www.w3.org/2000/svg">
<g id="Group 305">
<path id="Vector" d="M6.35938 10.6576L6.36584 10.6652L6.3726 10.6725C6.45117 10.7576 6.5 10.8712 6.5 11C6.5 11.1326 6.44732 11.2598 6.35355 11.3536C6.25979 11.4473 6.13261 11.5 6 11.5C4.54131 11.5 3.14236 10.9205 2.11091 9.88909C1.07946 8.85764 0.5 7.45869 0.5 6C0.5 4.54131 1.07946 3.14236 2.11091 2.11091C3.14236 1.07946 4.54131 0.5 6 0.5C9.09428 0.5 11.5 2.71663 11.5 5.33333C11.5 6.08478 11.2015 6.80545 10.6701 7.3368C10.1388 7.86816 9.41811 8.16667 8.66667 8.16667H7.48667C7.08884 8.16667 6.70731 8.3247 6.42601 8.60601C6.1447 8.88731 5.98667 9.26884 5.98667 9.66667C5.98667 10.0535 6.13909 10.399 6.35938 10.6576Z" stroke="#777777"/>
<path id="Vector_2" d="M2.6998 6.4001C3.19686 6.4001 3.5998 5.99715 3.5998 5.5001C3.5998 5.00304 3.19686 4.6001 2.6998 4.6001C2.20275 4.6001 1.7998 5.00304 1.7998 5.5001C1.7998 5.99715 2.20275 6.4001 2.6998 6.4001Z" fill="#777777"/>
<path id="Vector_3" d="M4.50001 4.1999C4.99706 4.1999 5.40001 3.79696 5.40001 3.2999C5.40001 2.80285 4.99706 2.3999 4.50001 2.3999C4.00295 2.3999 3.60001 2.80285 3.60001 3.2999C3.60001 3.79696 4.00295 4.1999 4.50001 4.1999Z" fill="#777777"/>
<path id="Vector_4" d="M7.50001 4.1999C7.99706 4.1999 8.40001 3.79696 8.40001 3.2999C8.40001 2.80285 7.99706 2.3999 7.50001 2.3999C7.00295 2.3999 6.60001 2.80285 6.60001 3.2999C6.60001 3.79696 7.00295 4.1999 7.50001 4.1999Z" fill="#777777"/>
<path id="Vector_5" d="M9.2999 6.4001C9.79696 6.4001 10.1999 5.99715 10.1999 5.5001C10.1999 5.00304 9.79696 4.6001 9.2999 4.6001C8.80285 4.6001 8.3999 5.00304 8.3999 5.5001C8.3999 5.99715 8.80285 6.4001 9.2999 6.4001Z" fill="#777777"/>
</g>
</svg>
