<svg width="24" height="24" viewBox="0 0 24 24" fill="none" xmlns="http://www.w3.org/2000/svg">
<g id="style=heart - 24">
<path id="Vector" d="M11.0212 19.5124L11.0202 19.5114C8.43146 17.164 6.33909 15.2626 4.88573 13.4845C3.44007 11.7158 2.7 10.1549 2.7 8.5C2.7 5.79743 4.80577 3.7 7.5 3.7C9.02839 3.7 10.5069 4.41512 11.4688 5.5359L12 6.1548L12.5312 5.5359C13.4931 4.41512 14.9716 3.7 16.5 3.7C19.1942 3.7 21.3 5.79743 21.3 8.5C21.3 10.1549 20.5599 11.7158 19.1143 13.4845C17.6609 15.2626 15.5685 17.164 12.9798 19.5114L12.9788 19.5124L12 20.4034L11.0212 19.5124Z" stroke="#888888" stroke-width="1.4"/>
</g>
</svg>
