<svg width="24" height="24" viewBox="0 0 24 24" fill="none" xmlns="http://www.w3.org/2000/svg">
<path fill-rule="evenodd" clip-rule="evenodd" d="M17.4287 2.20503C17.2974 2.07375 17.1194 2 16.9337 2C16.7481 2 16.57 2.07375 16.4387 2.20503L14.33 4.31372L2.73221 15.9115C2.62214 16.0216 2.5519 16.1652 2.53259 16.3197L2.00541 20.5371C1.97626 20.7703 2.06609 21.0026 2.24456 21.1555C2.42303 21.3084 2.66633 21.3615 2.89231 21.297L6.58253 20.2426C6.69691 20.2099 6.80108 20.1487 6.8852 20.0645L18.483 8.46671C18.4834 8.46635 18.4838 8.46598 18.4841 8.46562L20.5917 6.35802C20.8651 6.08465 20.8651 5.64144 20.5917 5.36807L17.4287 2.20503ZM17.9881 6.98179L19.1068 5.86304L16.9337 3.68995L15.815 4.8087L17.9881 6.98179ZM16.9981 7.97174L14.825 5.79865L3.89199 16.7317L3.52596 19.6599L6.02351 18.9463L16.9981 7.97174Z" fill="white"/>
<path fill-rule="evenodd" clip-rule="evenodd" d="M20.1158 19.4829C18.4691 22.0343 15.0645 22.7644 12.5131 21.1177C11.3109 20.34 10.5133 19.1774 10.18 17.8957C9.80303 16.4553 10.0094 14.8642 10.8823 13.5151C12.529 10.9637 15.9335 10.2336 18.4849 11.8803C21.0363 13.527 21.7664 16.9315 20.1197 19.4829H20.1158ZM16.3002 19.5V17.2999H18.5V15.6999H16.3002V13.5H14.7002V15.6999H12.5V17.2999H14.7002V19.5H16.3002Z" fill="white"/>
</svg>
