<svg width="16" height="16" viewBox="0 0 16 16" fill="none" xmlns="http://www.w3.org/2000/svg">
<path d="M3 10.8052V10.064H3.61429L3.22857 8H4.13571L4.47857 10.064H5.10714L5.62857 8H6.36429L6.87857 10.064H7.51429L7.85714 8H8.76429L8.37143 10.064H9V10.8052H8.23571L7.82143 13H6.83571L6.32143 10.8052H5.66429L5.15714 13H4.16429L3.75 10.8052H3ZM4.74286 11.5392L4.92143 10.8052H4.6L4.72143 11.5392H4.74286ZM7.25 11.5392H7.27143L7.39286 10.8052H7.06429L7.25 11.5392ZM5.98571 9.40988L5.83571 10.064H6.15L6 9.40988H5.98571Z" fill="#777777"/>
<path d="M3.61133 6.55556V4.11111C3.61133 3.81643 3.72839 3.53381 3.93676 3.32544C4.14514 3.11706 4.42775 3 4.72244 3H11.3891C11.6838 3 11.9664 3.11706 12.1748 3.32544C12.3832 3.53381 12.5002 3.81643 12.5002 4.11111V11.3333C12.5002 11.8889 12.1669 13 10.8336 13H9.5" stroke="#777777" stroke-linecap="round" stroke-linejoin="round"/>
</svg>
