<svg width="24" height="24" viewBox="0 0 24 24" fill="none" xmlns="http://www.w3.org/2000/svg">
<path d="M16.6932 5.81879H16.1518V4.48645C16.1518 4.1244 15.8577 3.82752 15.495 3.82752H13.5586C13.1977 3.82752 12.9017 4.12259 12.9017 4.48645V4.91367H12.3604V4.48645C12.3604 3.8239 12.8981 3.28445 13.5586 3.28445H15.495C16.1555 3.28445 16.6932 3.8239 16.6932 4.48645V5.81879Z" fill="#2A3136"/>
<path d="M14.1663 1.11193H13.6249V3.28422H14.1663V1.11193Z" fill="#2A3136"/>
<path d="M15.4301 1.11193H14.8887V3.28422H15.4301V1.11193Z" fill="#2A3136"/>
<path d="M17.1944 1.90855L16.7343 1.29307H12.3617V0.75H16.8696C16.9544 0.75 17.0356 0.789825 17.0862 0.858614L17.6275 1.58271L17.1944 1.90855Z" fill="#2A3136"/>
<path d="M14.5236 15.5668C13.3794 15.5668 12.4482 14.6327 12.4482 13.485C12.4482 12.4152 14.1283 10.4493 14.3196 10.2284C14.4225 10.1107 14.6246 10.1107 14.7275 10.2284C14.9188 10.4493 16.5989 12.4134 16.5989 13.485C16.5989 14.6327 15.6677 15.5668 14.5236 15.5668ZM14.5236 10.8294C13.9605 11.5173 12.9896 12.8388 12.9896 13.485C12.9896 14.334 13.6772 15.0237 14.5236 15.0237C15.3699 15.0237 16.0575 14.334 16.0575 13.485C16.0575 12.837 15.0866 11.5155 14.5236 10.8294Z" fill="#2A3136"/>
<path d="M7.36326 20.5341L7.12866 20.0453C7.76389 19.7375 8.48032 19.7013 9.17329 19.6651C9.43316 19.6507 9.70385 19.638 9.96732 19.609L10.0251 20.1485C9.74716 20.1774 9.47105 20.1919 9.20217 20.2064C8.53265 20.2408 7.90104 20.2734 7.36326 20.5341Z" fill="#2A3136"/>
<path d="M19.9159 13.4885C19.7571 13.4885 19.5983 13.4541 19.4485 13.3871C19.1724 13.2622 18.9613 13.0378 18.8548 12.7554L18.8205 12.6649C18.714 12.3825 18.7231 12.0729 18.8494 11.7959C18.9739 11.519 19.1977 11.3072 19.4792 11.2004L20.6757 10.746C21.2604 10.5252 21.9136 10.8202 22.1338 11.4067L22.1681 11.4972C22.3882 12.0838 22.0923 12.7391 21.5094 12.9599L20.3129 13.4143C20.183 13.4632 20.0495 13.4885 19.9141 13.4885H19.9159ZM21.0763 11.2167C21.0077 11.2167 20.9373 11.2293 20.8687 11.2547L19.6723 11.709C19.5261 11.7652 19.4088 11.8756 19.3438 12.0204C19.2789 12.1652 19.2735 12.3263 19.3294 12.473L19.3637 12.5635C19.4196 12.7101 19.5297 12.8278 19.6741 12.8929C19.8185 12.9581 19.9791 12.9635 20.1252 12.9074L21.3217 12.4531C21.6267 12.3372 21.7801 11.9951 21.6646 11.6891L21.6303 11.5986C21.5419 11.3615 21.3163 11.2149 21.0781 11.2149L21.0763 11.2167Z" fill="#2A3136"/>
<path d="M19.3186 15.4581C19.0642 15.4581 18.8187 15.3712 18.6166 15.2065C18.3856 15.0182 18.2413 14.7503 18.2124 14.4535L18.2034 14.3575C18.1727 14.0606 18.2611 13.771 18.4488 13.5393C18.6365 13.3076 18.9035 13.1628 19.1995 13.1338L20.47 13.0035C21.0817 12.9419 21.6285 13.389 21.6899 14.0027L21.6989 14.0986C21.7603 14.7123 21.3145 15.2608 20.7046 15.3242L19.4341 15.4527C19.3962 15.4563 19.3583 15.4581 19.3204 15.4581H19.3186ZM20.5818 13.5411C20.562 13.5411 20.5439 13.5411 20.5241 13.5447L19.2536 13.6751C19.1021 13.6895 18.9649 13.7656 18.8693 13.8832C18.7718 14.0027 18.7267 14.1511 18.7429 14.3032L18.752 14.3991C18.7664 14.5512 18.8422 14.6888 18.9595 14.7847C19.0786 14.8825 19.2266 14.9259 19.3782 14.9114L20.6486 14.7829C20.9626 14.7503 21.1918 14.4679 21.1593 14.153L21.1503 14.057C21.1196 13.7619 20.8706 13.5411 20.5818 13.5411Z" fill="#2A3136"/>
<path d="M19.9165 17.3103C19.8516 17.3103 19.7866 17.3048 19.7216 17.2922L19.2127 17.198C18.6281 17.0894 18.2419 16.5264 18.3483 15.9399L18.3646 15.8494C18.4169 15.567 18.5757 15.3208 18.8139 15.1561C19.0521 14.9914 19.3373 14.9298 19.6188 14.9823L20.1277 15.0764C20.4092 15.1289 20.6546 15.2882 20.8189 15.5272C20.9831 15.7643 21.0444 16.0521 20.9921 16.3345L20.9759 16.4251C20.8802 16.9446 20.4254 17.3103 19.9165 17.3103ZM19.4239 15.5091C19.3174 15.5091 19.2109 15.5417 19.1207 15.605C19.0016 15.6865 18.924 15.8096 18.8969 15.949L18.8807 16.0395C18.8266 16.3309 19.0197 16.6115 19.3102 16.6658L19.8191 16.76C20.1096 16.8143 20.3894 16.6206 20.4435 16.3291L20.4597 16.2386C20.485 16.0974 20.4543 15.9562 20.3731 15.8367C20.2919 15.7173 20.1692 15.6394 20.0302 15.6123L19.5213 15.5181C19.4889 15.5127 19.4564 15.5091 19.4239 15.5091Z" fill="#2A3136"/>
<path d="M20.0582 10.652L19.8164 10.1651L21.5019 9.3215C21.8538 9.15677 22.0325 8.77119 21.9314 8.4019C21.8701 8.17562 21.7131 7.99098 21.5001 7.89504C21.2872 7.79909 21.0453 7.80272 20.836 7.90409L20.5509 8.04348L20.3145 7.55471L20.5996 7.41532C20.9551 7.24154 21.3648 7.23611 21.7239 7.39903C22.083 7.56195 22.3501 7.87513 22.4529 8.25709C22.6226 8.88343 22.3212 9.53511 21.7347 9.80846L20.0546 10.6484L20.0582 10.652Z" fill="#2A3136"/>
<path d="M5.21727 22.5C5.11621 22.5 5.02057 22.4439 4.97365 22.3462L1.52683 15.2012C1.49615 15.136 1.49074 15.06 1.516 14.993C1.53946 14.9242 1.58999 14.8681 1.65676 14.8373L3.43612 13.9974C3.57688 13.9268 3.75012 13.9177 3.90351 13.9738C4.0551 14.0299 4.17781 14.1458 4.24278 14.2924L7.53259 20.8002C7.53259 20.8002 7.53801 20.8111 7.53981 20.8165C7.66253 21.1098 7.5362 21.4501 7.24927 21.5877L5.32916 22.4729C5.29306 22.4892 5.25336 22.4982 5.21547 22.4982L5.21727 22.5ZM2.13318 15.2102L5.34359 21.8683L7.01647 21.0953C7.03632 21.0844 7.04896 21.0573 7.03993 21.0301L3.75192 14.5278C3.75192 14.5278 3.74651 14.5169 3.7447 14.5097C3.73749 14.4916 3.72305 14.4825 3.71222 14.4789C3.70139 14.4753 3.68696 14.4716 3.66891 14.4807L2.13138 15.2066L2.13318 15.2102Z" fill="#2A3136"/>
<path d="M4.50246 14.7539L4.14514 14.3448C4.59269 13.952 5.10339 12.5472 5.34882 11.872C5.39754 11.7362 5.44086 11.6186 5.47695 11.5263C5.7693 10.7623 6.53084 10.308 7.4133 9.783C8.28673 9.26165 9.27747 8.67333 10.0895 7.63968C10.3296 7.33375 10.6526 7.14186 10.9522 7.12195C11.1525 7.10928 11.3383 7.17626 11.4737 7.31022C12.0133 7.84424 11.7372 8.92314 11.6397 9.23993C11.4358 9.90248 10.9864 10.909 9.30634 12.8188L8.9003 12.4585C10.5136 10.6266 10.9341 9.69068 11.1218 9.07882C11.3095 8.46696 11.2968 7.89854 11.0929 7.69399C11.0767 7.67769 11.0478 7.65778 10.9846 7.6614C10.8746 7.66864 10.6869 7.75372 10.5136 7.97276C9.63839 9.08425 8.55743 9.72869 7.68941 10.2464C6.86109 10.7388 6.20782 11.1298 5.98224 11.7181C5.94795 11.8087 5.90645 11.9227 5.85772 12.0567C5.46973 13.1265 5.01136 14.3032 4.50246 14.7521V14.7539Z" fill="#2A3136"/>
<path d="M20.1211 11.349H19.5797V10.9635C19.5797 8.30964 17.5676 6.04685 14.9996 5.81332C13.3827 5.66489 11.6611 6.427 10.9897 7.58012L10.5223 7.30677C11.2911 5.98168 13.2365 5.10733 15.0483 5.27206C17.8924 5.53093 20.1211 8.03087 20.1211 10.9635V11.349Z" fill="#2A3136"/>
<path d="M18.0571 20.4817H10.9993C9.86056 20.4817 8.93298 19.553 8.93298 18.4089V14.5079H9.47437V18.4089C9.47437 19.2525 10.1583 19.9386 10.9993 19.9386H18.0571C18.8981 19.9386 19.582 19.2525 19.582 18.4089V17.1164H20.1234V18.4089C20.1234 19.5512 19.1976 20.4817 18.0571 20.4817Z" fill="#2A3136"/>
<path d="M16.6932 5.81879H16.1518V4.48645C16.1518 4.1244 15.8577 3.82752 15.495 3.82752H13.5586C13.1977 3.82752 12.9017 4.12259 12.9017 4.48645V4.91367H12.3604V4.48645C12.3604 3.8239 12.8981 3.28445 13.5586 3.28445H15.495C16.1555 3.28445 16.6932 3.8239 16.6932 4.48645V5.81879Z" stroke="#2A3136" stroke-width="0.6"/>
<path d="M14.1663 1.11193H13.6249V3.28422H14.1663V1.11193Z" stroke="#2A3136" stroke-width="0.6"/>
<path d="M15.4301 1.11193H14.8887V3.28422H15.4301V1.11193Z" stroke="#2A3136" stroke-width="0.6"/>
<path d="M17.1944 1.90855L16.7343 1.29307H12.3617V0.75H16.8696C16.9544 0.75 17.0356 0.789825 17.0862 0.858614L17.6275 1.58271L17.1944 1.90855Z" stroke="#2A3136" stroke-width="0.6"/>
<path d="M14.5236 15.5668C13.3794 15.5668 12.4482 14.6327 12.4482 13.485C12.4482 12.4152 14.1283 10.4493 14.3196 10.2284C14.4225 10.1107 14.6246 10.1107 14.7275 10.2284C14.9188 10.4493 16.5989 12.4134 16.5989 13.485C16.5989 14.6327 15.6677 15.5668 14.5236 15.5668ZM14.5236 10.8294C13.9605 11.5173 12.9896 12.8388 12.9896 13.485C12.9896 14.334 13.6772 15.0237 14.5236 15.0237C15.3699 15.0237 16.0575 14.334 16.0575 13.485C16.0575 12.837 15.0866 11.5155 14.5236 10.8294Z" stroke="#2A3136" stroke-width="0.6"/>
<path d="M7.36326 20.5341L7.12866 20.0453C7.76389 19.7375 8.48032 19.7013 9.17329 19.6651C9.43316 19.6507 9.70385 19.638 9.96732 19.609L10.0251 20.1485C9.74716 20.1774 9.47105 20.1919 9.20217 20.2064C8.53265 20.2408 7.90104 20.2734 7.36326 20.5341Z" stroke="#2A3136" stroke-width="0.6"/>
<path d="M19.9159 13.4885C19.7571 13.4885 19.5983 13.4541 19.4485 13.3871C19.1724 13.2622 18.9613 13.0378 18.8548 12.7554L18.8205 12.6649C18.714 12.3825 18.7231 12.0729 18.8494 11.7959C18.9739 11.519 19.1977 11.3072 19.4792 11.2004L20.6757 10.746C21.2604 10.5252 21.9136 10.8202 22.1338 11.4067L22.1681 11.4972C22.3882 12.0838 22.0923 12.7391 21.5094 12.9599L20.3129 13.4143C20.183 13.4632 20.0495 13.4885 19.9141 13.4885H19.9159ZM21.0763 11.2167C21.0077 11.2167 20.9373 11.2293 20.8687 11.2547L19.6723 11.709C19.5261 11.7652 19.4088 11.8756 19.3438 12.0204C19.2789 12.1652 19.2735 12.3263 19.3294 12.473L19.3637 12.5635C19.4196 12.7101 19.5297 12.8278 19.6741 12.8929C19.8185 12.9581 19.9791 12.9635 20.1252 12.9074L21.3217 12.4531C21.6267 12.3372 21.7801 11.9951 21.6646 11.6891L21.6303 11.5986C21.5419 11.3615 21.3163 11.2149 21.0781 11.2149L21.0763 11.2167Z" stroke="#2A3136" stroke-width="0.6"/>
<path d="M19.3186 15.4581C19.0642 15.4581 18.8187 15.3712 18.6166 15.2065C18.3856 15.0182 18.2413 14.7503 18.2124 14.4535L18.2034 14.3575C18.1727 14.0606 18.2611 13.771 18.4488 13.5393C18.6365 13.3076 18.9035 13.1628 19.1995 13.1338L20.47 13.0035C21.0817 12.9419 21.6285 13.389 21.6899 14.0027L21.6989 14.0986C21.7603 14.7123 21.3145 15.2608 20.7046 15.3242L19.4341 15.4527C19.3962 15.4563 19.3583 15.4581 19.3204 15.4581H19.3186ZM20.5818 13.5411C20.562 13.5411 20.5439 13.5411 20.5241 13.5447L19.2536 13.6751C19.1021 13.6895 18.9649 13.7656 18.8693 13.8832C18.7718 14.0027 18.7267 14.1511 18.7429 14.3032L18.752 14.3991C18.7664 14.5512 18.8422 14.6888 18.9595 14.7847C19.0786 14.8825 19.2266 14.9259 19.3782 14.9114L20.6486 14.7829C20.9626 14.7503 21.1918 14.4679 21.1593 14.153L21.1503 14.057C21.1196 13.7619 20.8706 13.5411 20.5818 13.5411Z" stroke="#2A3136" stroke-width="0.6"/>
<path d="M19.9165 17.3103C19.8516 17.3103 19.7866 17.3048 19.7216 17.2922L19.2127 17.198C18.6281 17.0894 18.2419 16.5264 18.3483 15.9399L18.3646 15.8494C18.4169 15.567 18.5757 15.3208 18.8139 15.1561C19.0521 14.9914 19.3373 14.9298 19.6188 14.9823L20.1277 15.0764C20.4092 15.1289 20.6546 15.2882 20.8189 15.5272C20.9831 15.7643 21.0444 16.0521 20.9921 16.3345L20.9759 16.4251C20.8802 16.9446 20.4254 17.3103 19.9165 17.3103ZM19.4239 15.5091C19.3174 15.5091 19.2109 15.5417 19.1207 15.605C19.0016 15.6865 18.924 15.8096 18.8969 15.949L18.8807 16.0395C18.8266 16.3309 19.0197 16.6115 19.3102 16.6658L19.8191 16.76C20.1096 16.8143 20.3894 16.6206 20.4435 16.3291L20.4597 16.2386C20.485 16.0974 20.4543 15.9562 20.3731 15.8367C20.2919 15.7173 20.1692 15.6394 20.0302 15.6123L19.5213 15.5181C19.4889 15.5127 19.4564 15.5091 19.4239 15.5091Z" stroke="#2A3136" stroke-width="0.6"/>
<path d="M20.0582 10.652L19.8164 10.1651L21.5019 9.3215C21.8538 9.15677 22.0325 8.77119 21.9314 8.4019C21.8701 8.17562 21.7131 7.99098 21.5001 7.89504C21.2872 7.79909 21.0453 7.80272 20.836 7.90409L20.5509 8.04348L20.3145 7.55471L20.5996 7.41532C20.9551 7.24154 21.3648 7.23611 21.7239 7.39903C22.083 7.56195 22.3501 7.87513 22.4529 8.25709C22.6226 8.88343 22.3212 9.53511 21.7347 9.80846L20.0546 10.6484L20.0582 10.652Z" stroke="#2A3136" stroke-width="0.6"/>
<path d="M5.21727 22.5C5.11621 22.5 5.02057 22.4439 4.97365 22.3462L1.52683 15.2012C1.49615 15.136 1.49074 15.06 1.516 14.993C1.53946 14.9242 1.58999 14.8681 1.65676 14.8373L3.43612 13.9974C3.57688 13.9268 3.75012 13.9177 3.90351 13.9738C4.0551 14.0299 4.17781 14.1458 4.24278 14.2924L7.53259 20.8002C7.53259 20.8002 7.53801 20.8111 7.53981 20.8165C7.66253 21.1098 7.5362 21.4501 7.24927 21.5877L5.32916 22.4729C5.29306 22.4892 5.25336 22.4982 5.21547 22.4982L5.21727 22.5ZM2.13318 15.2102L5.34359 21.8683L7.01647 21.0953C7.03632 21.0844 7.04896 21.0573 7.03993 21.0301L3.75192 14.5278C3.75192 14.5278 3.74651 14.5169 3.7447 14.5097C3.73749 14.4916 3.72305 14.4825 3.71222 14.4789C3.70139 14.4753 3.68696 14.4716 3.66891 14.4807L2.13138 15.2066L2.13318 15.2102Z" stroke="#2A3136" stroke-width="0.6"/>
<path d="M4.50246 14.7539L4.14514 14.3448C4.59269 13.952 5.10339 12.5472 5.34882 11.872C5.39754 11.7362 5.44086 11.6186 5.47695 11.5263C5.7693 10.7623 6.53084 10.308 7.4133 9.783C8.28673 9.26165 9.27747 8.67333 10.0895 7.63968C10.3296 7.33375 10.6526 7.14186 10.9522 7.12195C11.1525 7.10928 11.3383 7.17626 11.4737 7.31022C12.0133 7.84424 11.7372 8.92314 11.6397 9.23993C11.4358 9.90248 10.9864 10.909 9.30634 12.8188L8.9003 12.4585C10.5136 10.6266 10.9341 9.69068 11.1218 9.07882C11.3095 8.46696 11.2968 7.89854 11.0929 7.69399C11.0767 7.67769 11.0478 7.65778 10.9846 7.6614C10.8746 7.66864 10.6869 7.75372 10.5136 7.97276C9.63839 9.08425 8.55743 9.72869 7.68941 10.2464C6.86109 10.7388 6.20782 11.1298 5.98224 11.7181C5.94795 11.8087 5.90645 11.9227 5.85772 12.0567C5.46973 13.1265 5.01136 14.3032 4.50246 14.7521V14.7539Z" stroke="#2A3136" stroke-width="0.6"/>
<path d="M20.1211 11.349H19.5797V10.9635C19.5797 8.30964 17.5676 6.04685 14.9996 5.81332C13.3827 5.66489 11.6611 6.427 10.9897 7.58012L10.5223 7.30677C11.2911 5.98168 13.2365 5.10733 15.0483 5.27206C17.8924 5.53093 20.1211 8.03087 20.1211 10.9635V11.349Z" stroke="#2A3136" stroke-width="0.6"/>
<path d="M18.0571 20.4817H10.9993C9.86056 20.4817 8.93298 19.553 8.93298 18.4089V14.5079H9.47437V18.4089C9.47437 19.2525 10.1583 19.9386 10.9993 19.9386H18.0571C18.8981 19.9386 19.582 19.2525 19.582 18.4089V17.1164H20.1234V18.4089C20.1234 19.5512 19.1976 20.4817 18.0571 20.4817Z" stroke="#2A3136" stroke-width="0.6"/>
</svg>
