<svg width="24" height="24" viewBox="0 0 24 24" fill="none" xmlns="http://www.w3.org/2000/svg">
<circle cx="12" cy="12" r="11.5" fill="#F6F6F6" stroke="#EEEEEE"/>
<path d="M12.3824 7.0734C12.3823 6.96146 12.3495 6.85197 12.288 6.75844C12.2265 6.6649 12.139 6.59141 12.0363 6.54702C11.9335 6.50263 11.82 6.48928 11.7097 6.50863C11.5995 6.52797 11.4973 6.57915 11.4158 6.65587L8.33171 9.55869H6.39241C6.27656 9.55865 6.1634 9.59369 6.06785 9.65921C5.9723 9.72474 5.89883 9.81766 5.85712 9.92575C5.6205 10.5407 5.49943 11.194 5.5 11.8528C5.5 12.5311 5.62618 13.1811 5.85788 13.7799C5.94277 14.0016 6.15612 14.1469 6.39318 14.1469H8.33171L11.4158 17.0497C11.4973 17.1265 11.5995 17.1776 11.7097 17.197C11.82 17.2163 11.9335 17.203 12.0363 17.1586C12.139 17.1142 12.2265 17.0407 12.288 16.9472C12.3495 16.8536 12.3823 16.7442 12.3824 16.6322V7.0734ZM16.9324 8.06752C16.8241 7.96309 16.6792 7.90535 16.5289 7.90673C16.3785 7.90811 16.2347 7.96849 16.1284 8.07488C16.0221 8.18127 15.9618 8.32514 15.9606 8.47552C15.9594 8.6259 16.0172 8.77075 16.1218 8.87887C16.9105 9.66762 17.3536 10.7374 17.3536 11.8528C17.3536 12.9682 16.9105 14.038 16.1218 14.8267C16.0205 14.9355 15.9653 15.0793 15.9679 15.2279C15.9705 15.3764 16.0307 15.5182 16.1358 15.6233C16.2409 15.7284 16.3827 15.7886 16.5312 15.7912C16.6798 15.7938 16.8236 15.7386 16.9324 15.6373C17.9361 14.6335 18.5 13.272 18.5 11.8524C18.5 10.4328 17.9361 9.07137 16.9324 8.06752Z" fill="#AAAAAA"/>
<path d="M15.3101 9.69146C15.2019 9.58694 15.0571 9.52906 14.9067 9.53029C14.7563 9.53153 14.6125 9.59178 14.5061 9.69807C14.3997 9.80435 14.3393 9.94817 14.3379 10.0986C14.3365 10.2489 14.3943 10.3938 14.4987 10.502C14.6763 10.6796 14.8171 10.8904 14.9132 11.1223C15.0094 11.3543 15.0588 11.6029 15.0588 11.854C15.0588 12.1051 15.0094 12.3538 14.9132 12.5858C14.8171 12.8177 14.6763 13.0285 14.4987 13.206C14.3974 13.3148 14.3422 13.4586 14.3449 13.6072C14.3475 13.7557 14.4077 13.8975 14.5128 14.0026C14.6178 14.1077 14.7596 14.1679 14.9082 14.1705C15.0568 14.1731 15.2006 14.1179 15.3093 14.0166C15.8827 13.443 16.2049 12.6651 16.2049 11.854C16.2049 11.043 15.8827 10.2651 15.3093 9.69146" fill="#AAAAAA"/>
</svg>
