<svg width="32" height="32" viewBox="0 0 32 32" fill="none" xmlns="http://www.w3.org/2000/svg">
<g id="Frame 29201">
<path id="B" d="M7.95 26V26.05H8H17.12C19.3925 26.05 21.2866 25.4932 22.6139 24.4912C23.9425 23.4881 24.7 22.0409 24.7 20.27V20.21C24.7 18.7405 24.1388 17.6399 23.259 16.8246C22.4138 16.0413 21.2764 15.5229 20.0651 15.1899C21.7468 14.4746 23.53 13.0225 23.53 10.22V10.16C23.53 8.82669 23.0447 7.70399 22.1654 6.82465C20.9831 5.64243 19.0486 4.95 16.67 4.95H8H7.95V5V26ZM21.84 10.31V10.37C21.84 11.7499 21.2843 12.8151 20.3409 13.5365C19.3958 14.2592 18.0576 14.64 16.49 14.64H9.61V6.49H16.64C18.313 6.49 19.6136 6.87844 20.4947 7.54855C21.3744 8.21755 21.84 9.17012 21.84 10.31ZM16.67 16.18C18.7352 16.18 20.3217 16.5543 21.3904 17.2445C22.4563 17.9329 23.01 18.9371 23.01 20.21V20.27C23.01 21.5738 22.4479 22.6313 21.4406 23.3646C20.4317 24.099 18.9731 24.51 17.18 24.51H9.61V16.18H16.67Z" fill="#2A3136" stroke="#2A3136" stroke-width="0.1"/>
</g>
</svg>
