<svg width="24" height="24" viewBox="0 0 24 24" fill="none" xmlns="http://www.w3.org/2000/svg">
<path d="M12 3C8.10152 3 4.94118 6.16034 4.94118 10.0588V15.3347C4.94118 16.5072 4.66818 17.6636 4.14382 18.7124V18.7124C4.07774 18.8445 4.17384 19 4.32159 19H19.6784C19.8262 19 19.9223 18.8445 19.8562 18.7124V18.7124C19.3318 17.6636 19.0588 16.5072 19.0588 15.3347V10.0588C19.0588 6.16034 15.8985 3 12 3Z" stroke="#2A3136" stroke-width="1.8"/>
<path d="M9 19V19C9 20.6569 10.3431 22 12 22V22C13.6569 22 15 20.6569 15 19V19" stroke="#2A3136" stroke-width="1.8"/>
</svg>
