<svg width="24" height="24" viewBox="0 0 24 24" fill="none" xmlns="http://www.w3.org/2000/svg">
<circle cx="12.0119" cy="20.0952" r="1.90476" fill="#222222"/>
<path d="M10.25 4.3H10.05C7.15 5.2 5.25 7.8 5.25 10.8V16.9L3.25 18.9V19.5H20.75V18.9L18.75 16.9V10.8C18.75 7.8 16.85 5.2 13.95 4.3H13.75V3.8C13.75 2.8 12.95 2 11.95 2C10.95 2 10.15 2.8 10.15 3.8V4.3H10.25ZM12.05 5.6C14.95 5.6 17.25 7.9 17.25 10.8V18H6.85V10.8C6.85 7.9 9.15 5.6 12.05 5.6Z" fill="#222222" stroke="#222222" stroke-width="0.15"/>
<circle cx="20" cy="4" r="2" fill="#FF2E00"/>
</svg>
