<svg width="16" height="17" viewBox="0 0 16 17" fill="none" xmlns="http://www.w3.org/2000/svg">
<rect x="0.5" y="1" width="15" height="15" rx="7.5" stroke="#BBBBBB" stroke-linecap="round" stroke-linejoin="round"/>
<path d="M5.55859 6.84473C5.55859 6.53548 5.65788 6.22298 5.85645 5.90723C6.05501 5.58822 6.34473 5.32454 6.72559 5.11621C7.10645 4.90788 7.55078 4.80371 8.05859 4.80371C8.5306 4.80371 8.94727 4.8916 9.30859 5.06738C9.66992 5.23991 9.94824 5.47591 10.1436 5.77539C10.3421 6.07487 10.4414 6.40039 10.4414 6.75195C10.4414 7.02865 10.3844 7.27116 10.2705 7.47949C10.1598 7.68783 10.0264 7.86849 9.87012 8.02148C9.71712 8.17122 9.44043 8.42513 9.04004 8.7832C8.92936 8.88411 8.83984 8.97363 8.77148 9.05176C8.70638 9.12663 8.65755 9.19661 8.625 9.26172C8.59245 9.32357 8.56641 9.38704 8.54688 9.45215C8.5306 9.514 8.50456 9.62467 8.46875 9.78418C8.4069 10.1227 8.21322 10.292 7.8877 10.292C7.71842 10.292 7.5752 10.2367 7.45801 10.126C7.34408 10.0153 7.28711 9.85091 7.28711 9.63281C7.28711 9.35938 7.32943 9.12337 7.41406 8.9248C7.4987 8.72298 7.611 8.5472 7.75098 8.39746C7.89095 8.24447 8.07975 8.0638 8.31738 7.85547C8.52572 7.67318 8.67546 7.53646 8.7666 7.44531C8.861 7.35091 8.93913 7.24674 9.00098 7.13281C9.06608 7.01888 9.09863 6.89518 9.09863 6.76172C9.09863 6.5013 9.00098 6.28158 8.80566 6.10254C8.61361 5.9235 8.36458 5.83398 8.05859 5.83398C7.70052 5.83398 7.43685 5.92513 7.26758 6.10742C7.09831 6.28646 6.95508 6.55176 6.83789 6.90332C6.72721 7.27116 6.51725 7.45508 6.20801 7.45508C6.02572 7.45508 5.87109 7.3916 5.74414 7.26465C5.62044 7.13444 5.55859 6.99447 5.55859 6.84473ZM7.94141 12.1963C7.74284 12.1963 7.56868 12.1328 7.41895 12.0059C7.27246 11.8757 7.19922 11.695 7.19922 11.4639C7.19922 11.2588 7.27083 11.0863 7.41406 10.9463C7.55729 10.8063 7.73307 10.7363 7.94141 10.7363C8.14648 10.7363 8.31901 10.8063 8.45898 10.9463C8.59896 11.0863 8.66895 11.2588 8.66895 11.4639C8.66895 11.6917 8.5957 11.8708 8.44922 12.001C8.30273 12.1312 8.13346 12.1963 7.94141 12.1963Z" fill="#BBBBBB"/>
</svg>
