<svg width="16" height="16" viewBox="0 0 16 16" fill="none" xmlns="http://www.w3.org/2000/svg">
<path d="M11.505 14.0241C11.7676 14.0241 12.0194 13.9198 12.2051 13.7341C12.3908 13.5485 12.4951 13.2966 12.4951 13.034C12.4951 12.7715 12.3908 12.5196 12.2051 12.3339C12.0194 12.1483 11.7676 12.0439 11.505 12.0439C11.2424 12.0439 10.9906 12.1483 10.8049 12.3339C10.6192 12.5196 10.5149 12.7715 10.5149 13.034C10.5149 13.2966 10.6192 13.5485 10.8049 13.7341C10.9906 13.9198 11.2424 14.0241 11.505 14.0241ZM6.22447 14.0241C6.48706 14.0241 6.7389 13.9198 6.92458 13.7341C7.11026 13.5485 7.21457 13.2966 7.21457 13.034C7.21457 12.7715 7.11026 12.5196 6.92458 12.3339C6.7389 12.1483 6.48706 12.0439 6.22447 12.0439C5.96188 12.0439 5.71005 12.1483 5.52437 12.3339C5.33869 12.5196 5.23438 12.7715 5.23438 13.034C5.23438 13.2966 5.33869 13.5485 5.52437 13.7341C5.71005 13.9198 5.96188 14.0241 6.22447 14.0241Z" stroke="#ffffff" stroke-linecap="round" stroke-linejoin="round"/>
<path d="M2 3H3.18574L4.76276 9.84343C4.82062 10.0941 4.97067 10.3181 5.18709 10.477C5.40351 10.6359 5.67276 10.7197 5.9485 10.714H11.7467C12.0166 10.7136 12.2782 10.6277 12.4884 10.4704C12.6986 10.3131 12.8448 10.0939 12.9028 9.84894L14 5.53463H8.65352H3.76983" stroke="#ffffff" stroke-linecap="round" stroke-linejoin="round"/>
</svg>
