<svg width="14" height="10" viewBox="0 0 14 10" fill="none" xmlns="http://www.w3.org/2000/svg">
<g id="Group 29060">
<path id="Vector" d="M12.8516 4.52625C12.9671 4.72021 13.0538 4.88291 13.1128 4.99968C13.0538 5.11644 12.9671 5.27914 12.8516 5.4731C12.6045 5.88823 12.2291 6.4413 11.717 6.99278C10.6925 8.09608 9.1493 9.16634 7.00004 9.16634C4.85078 9.16634 3.30759 8.09608 2.2831 6.99278C1.77101 6.4413 1.39554 5.88823 1.14844 5.4731C1.03299 5.27914 0.946239 5.11644 0.887244 4.99967C0.946239 4.88291 1.03299 4.72021 1.14844 4.52625C1.39554 4.11112 1.77101 3.55805 2.2831 3.00657C3.30759 1.90327 4.85078 0.833008 7.00004 0.833008C9.1493 0.833008 10.6925 1.90327 11.717 3.00657C12.2291 3.55805 12.6045 4.11112 12.8516 4.52625Z" stroke="#888888"/>
<path id="Vector_2" d="M7.00004 7.16634C8.19666 7.16634 9.16671 6.19629 9.16671 4.99967C9.16671 3.80306 8.19666 2.83301 7.00004 2.83301C5.80342 2.83301 4.83337 3.80306 4.83337 4.99967C4.83337 6.19629 5.80342 7.16634 7.00004 7.16634Z" stroke="#888888"/>
</g>
</svg>
