<svg width="41" height="40" viewBox="0 0 41 40" fill="none" xmlns="http://www.w3.org/2000/svg">
<g id="icon - no data" clip-path="url(#clip0_1165_31334)">
<g id="Group 29117">
<path id="Vector" d="M21 1C10.5218 1 2 9.52181 2 20C2 30.4782 10.5218 39 21 39C31.4782 39 40 30.4782 40 20C40 9.52181 31.4782 1 21 1ZM33.2188 32.2188C31.6302 33.8075 29.7817 35.0529 27.7223 35.9257C25.5943 36.8279 23.329 37.2839 20.9951 37.2839C18.6612 37.2839 16.3959 36.8279 14.2679 35.9257C12.2085 35.0529 10.36 33.8075 8.77136 32.2188C7.18271 30.6302 5.93729 28.7817 5.06452 26.7223C4.16232 24.5943 3.70632 22.329 3.70632 19.9951C3.70632 17.6612 4.16232 15.3959 5.06452 13.2679C5.93729 11.2085 7.18271 9.36 8.77136 7.77136C10.36 6.18271 12.2085 4.93729 14.2679 4.06452C16.3959 3.16232 18.6612 2.70632 20.9951 2.70632C23.329 2.70632 25.5943 3.16232 27.7223 4.06452C29.7817 4.93729 31.6302 6.18271 33.2188 7.77136C34.8075 9.36 36.0529 11.2085 36.9257 13.2679C37.8279 15.3959 38.2839 17.6612 38.2839 19.9951C38.2839 22.329 37.8279 24.5943 36.9257 26.7223C36.0529 28.7817 34.8075 30.6302 33.2188 32.2188Z" fill="#DDDDDD" stroke="#DDDDDD" stroke-width="0.4"/>
<path id="Vector_2" d="M29.9774 29.4982C30.0755 29.2922 30.0902 29.0569 30.0167 28.8412C28.6879 25.0019 25.0644 22.4277 20.9996 22.4277C16.9349 22.4277 13.3163 25.0068 11.9826 28.8412C11.9091 29.0569 11.9238 29.2922 12.0218 29.4982C12.1199 29.7041 12.2964 29.861 12.5122 29.9346C12.7279 30.0081 12.9583 29.9934 13.1643 29.8953C13.3702 29.7973 13.5271 29.6208 13.6007 29.405C14.6892 26.2572 17.6605 24.1439 20.9947 24.1439C24.3289 24.1439 27.3003 26.2572 28.3888 29.405C28.5408 29.8463 29.0409 30.0866 29.4822 29.9346C29.698 29.861 29.8696 29.7041 29.9725 29.4982H29.9774Z" fill="#DDDDDD" stroke="#DDDDDD" stroke-width="0.4"/>
<path id="Vector_3" d="M14.4643 12.458C13.3463 12.458 12.4343 13.37 12.4343 14.4879C12.4343 15.6059 13.3463 16.5179 14.4643 16.5179C15.5822 16.5179 16.4942 15.6059 16.4942 14.4879C16.4942 13.37 15.5822 12.458 14.4643 12.458Z" fill="#DDDDDD" stroke="#DDDDDD" stroke-width="0.4"/>
<path id="Vector_4" d="M27.5358 12.458C26.4179 12.458 25.5059 13.37 25.5059 14.4879C25.5059 15.6059 26.4179 16.5179 27.5358 16.5179C28.6537 16.5179 29.5657 15.6059 29.5657 14.4879C29.5657 13.37 28.6537 12.458 27.5358 12.458Z" fill="#DDDDDD" stroke="#DDDDDD" stroke-width="0.4"/>
</g>
</g>
<defs>
<clipPath id="clip0_1165_31334">
<rect width="40" height="40" fill="white" transform="translate(0.5)"/>
</clipPath>
</defs>
</svg>
